%TF.GenerationSoftware,KiCad,Pcbnew,(6.0.6)*%
%TF.CreationDate,2022-12-06T20:45:46-06:00*%
%TF.ProjectId,roadrunner,726f6164-7275-46e6-9e65-722e6b696361,rev?*%
%TF.SameCoordinates,Original*%
%TF.FileFunction,Paste,Bot*%
%TF.FilePolarity,Positive*%
%FSLAX46Y46*%
G04 Gerber Fmt 4.6, Leading zero omitted, Abs format (unit mm)*
G04 Created by KiCad (PCBNEW (6.0.6)) date 2022-12-06 20:45:46*
%MOMM*%
%LPD*%
G01*
G04 APERTURE LIST*
G04 Aperture macros list*
%AMRoundRect*
0 Rectangle with rounded corners*
0 $1 Rounding radius*
0 $2 $3 $4 $5 $6 $7 $8 $9 X,Y pos of 4 corners*
0 Add a 4 corners polygon primitive as box body*
4,1,4,$2,$3,$4,$5,$6,$7,$8,$9,$2,$3,0*
0 Add four circle primitives for the rounded corners*
1,1,$1+$1,$2,$3*
1,1,$1+$1,$4,$5*
1,1,$1+$1,$6,$7*
1,1,$1+$1,$8,$9*
0 Add four rect primitives between the rounded corners*
20,1,$1+$1,$2,$3,$4,$5,0*
20,1,$1+$1,$4,$5,$6,$7,0*
20,1,$1+$1,$6,$7,$8,$9,0*
20,1,$1+$1,$8,$9,$2,$3,0*%
G04 Aperture macros list end*
%TA.AperFunction,Profile*%
%ADD10C,0.050000*%
%TD*%
%TA.AperFunction,Profile*%
%ADD11C,0.100000*%
%TD*%
%ADD12RoundRect,0.250000X1.025000X1.000000X-1.025000X1.000000X-1.025000X-1.000000X1.025000X-1.000000X0*%
%ADD13RoundRect,0.250000X1.248893X0.700636X-0.731255X1.231215X-1.248893X-0.700636X0.731255X-1.231215X0*%
%ADD14RoundRect,0.250000X-1.025000X-1.000000X1.025000X-1.000000X1.025000X1.000000X-1.025000X1.000000X0*%
%ADD15RoundRect,0.250000X1.387676X0.353525X-0.387676X1.378525X-1.387676X-0.353525X0.387676X-1.378525X0*%
%ADD16RoundRect,0.250000X-0.387676X-1.378525X1.387676X-0.353525X0.387676X1.378525X-1.387676X0.353525X0*%
%ADD17RoundRect,0.250000X-0.731255X-1.231215X1.248893X-0.700636X0.731255X1.231215X-1.248893X0.700636X0*%
%ADD18R,0.900000X0.900000*%
%ADD19R,0.900000X1.250000*%
G04 APERTURE END LIST*
D10*
X150611500Y-64798000D02*
X150222000Y-64798000D01*
D11*
X241367578Y-38328123D02*
X241388045Y-41395419D01*
X231322000Y-112706000D02*
X215352000Y-108516000D01*
X186138747Y-35580174D02*
G75*
G03*
X186908747Y-34743691I-16547J787874D01*
G01*
X209541976Y-100305999D02*
G75*
G03*
X215352000Y-108516000I8093824J-433001D01*
G01*
X225425522Y-35841152D02*
G75*
G03*
X226262000Y-36596000I833778J83052D01*
G01*
X168888600Y-46747500D02*
X168857152Y-37466000D01*
X244952000Y-120456000D02*
X231322000Y-112706000D01*
X134990000Y-103040000D02*
X148180000Y-103020000D01*
X97606622Y-28585523D02*
X114514848Y-28586476D01*
D10*
X241388099Y-41395418D02*
G75*
G03*
X246505730Y-46396000I5059101J58518D01*
G01*
D11*
X97606621Y-28585544D02*
G75*
G03*
X95726622Y-30325523I-56621J-1824456D01*
G01*
X168118601Y-47584025D02*
G75*
G03*
X168888600Y-46747500I-16601J787925D01*
G01*
X208255905Y-34084254D02*
X223545524Y-34101152D01*
D10*
X43042001Y-92484000D02*
G75*
G03*
X45410000Y-103940000I24422759J-924460D01*
G01*
X152516499Y-64798001D02*
G75*
G03*
X150611501Y-64798000I-952499J-380999D01*
G01*
X56626270Y-46390005D02*
G75*
G03*
X61743955Y-41389419I58550J5059135D01*
G01*
D11*
X76870000Y-36589998D02*
G75*
G03*
X77706476Y-35835152I2700J837898D01*
G01*
X152861397Y-49422011D02*
X152856055Y-51234702D01*
D10*
X257722001Y-103946000D02*
G75*
G03*
X260090000Y-92490000I-22054761J10531540D01*
G01*
D11*
X116223260Y-34737691D02*
G75*
G03*
X116993253Y-35574167I786540J-48609D01*
G01*
D10*
X56626270Y-46390000D02*
X43056000Y-46390000D01*
D11*
X87780000Y-108510000D02*
X71810000Y-112700000D01*
X168142000Y-103045995D02*
G75*
G03*
X175042000Y-101616000I685800J14052795D01*
G01*
X63644421Y-36582144D02*
G75*
G03*
X61764422Y-38322123I-56621J-1824456D01*
G01*
X79586478Y-34095099D02*
G75*
G03*
X77706476Y-35835152I-56578J-1824501D01*
G01*
X134274827Y-37460000D02*
G75*
G03*
X132534848Y-35596476I-1824427J40600D01*
G01*
X79586476Y-34095152D02*
X94876095Y-34078254D01*
D10*
X152894493Y-100501022D02*
X152910000Y-88680000D01*
X248372000Y-119676000D02*
X257722000Y-103946000D01*
X152770500Y-88674000D02*
X152516500Y-88674000D01*
D11*
X134243449Y-46741503D02*
G75*
G03*
X135013400Y-47577976I786551J-48597D01*
G01*
X128090000Y-101610000D02*
X106780000Y-90650000D01*
X94876096Y-34078245D02*
G75*
G03*
X95712571Y-33308254I48604J786545D01*
G01*
X134274848Y-37460000D02*
X134243400Y-46741500D01*
X225425471Y-35841154D02*
G75*
G03*
X223545524Y-34101152I-1823371J-84446D01*
G01*
D10*
X152834000Y-59718000D02*
X152516500Y-59718000D01*
D11*
X150270519Y-49416009D02*
G75*
G03*
X148530603Y-47552487I-1824419J40609D01*
G01*
D10*
X152910000Y-59724000D02*
X152856055Y-51234702D01*
D11*
X186908747Y-34743691D02*
X186877152Y-30472476D01*
D10*
X152910000Y-88680000D02*
X152770500Y-88674000D01*
D11*
X207405378Y-30331523D02*
X207419429Y-33314254D01*
X207405399Y-30331522D02*
G75*
G03*
X205525378Y-28591523I-1823399J-84478D01*
G01*
D10*
X152910000Y-59724000D02*
X152834000Y-59718000D01*
X150611500Y-88674000D02*
X150222000Y-88674000D01*
X152834000Y-64798000D02*
X152516500Y-64798000D01*
D11*
X148180000Y-103019994D02*
G75*
G03*
X150237507Y-100495022I-66900J2155294D01*
G01*
X244952000Y-120456000D02*
G75*
G03*
X248372000Y-119676000I1262800J2350800D01*
G01*
X170597151Y-35602455D02*
G75*
G03*
X168857152Y-37466000I84449J-1822945D01*
G01*
X188617154Y-28592529D02*
G75*
G03*
X186877152Y-30472476I84446J-1823371D01*
G01*
D10*
X260076000Y-46396000D02*
X246505730Y-46396000D01*
D11*
X76870000Y-36590000D02*
X63644422Y-36582123D01*
X154601397Y-47558487D02*
X168118600Y-47583976D01*
D10*
X150222000Y-64798000D02*
X150222000Y-83594000D01*
D11*
X54760000Y-119670000D02*
G75*
G03*
X58180000Y-120450000I2157200J1570800D01*
G01*
X209542081Y-100306009D02*
G75*
G03*
X196352000Y-90656000I-9397181J994909D01*
G01*
D10*
X150611501Y-83593999D02*
G75*
G03*
X152516499Y-83594000I952499J380999D01*
G01*
X150275945Y-51228702D02*
X150222000Y-59718000D01*
D11*
X239487578Y-36588123D02*
X226262000Y-36596000D01*
X116254901Y-30466478D02*
G75*
G03*
X114514848Y-28586476I-1824501J56578D01*
G01*
D10*
X150222000Y-88674000D02*
X150237507Y-100495022D01*
X150611501Y-59717999D02*
G75*
G03*
X152516499Y-59718000I952499J380999D01*
G01*
X152910000Y-83600000D02*
X152910000Y-64804000D01*
X43056000Y-46390000D02*
X43042000Y-92484000D01*
D11*
X116993253Y-35574167D02*
X132534848Y-35596476D01*
X106780002Y-90649995D02*
G75*
G03*
X93590000Y-100300000I-3792862J-8655075D01*
G01*
D10*
X150611500Y-83594000D02*
X150222000Y-83594000D01*
D11*
X188617152Y-28592476D02*
X205525378Y-28591523D01*
X61743955Y-41389419D02*
X61764422Y-38322123D01*
X241367599Y-38328122D02*
G75*
G03*
X239487578Y-36588123I-1823399J-84478D01*
G01*
D10*
X152910000Y-64804000D02*
X152834000Y-64798000D01*
D11*
X154952000Y-103026000D02*
X168142000Y-103046000D01*
D10*
X260090000Y-92490000D02*
X260076000Y-46396000D01*
D11*
X154601393Y-47558403D02*
G75*
G03*
X152861397Y-49422011I84507J-1822997D01*
G01*
X116254848Y-30466476D02*
X116223253Y-34737691D01*
X135013400Y-47577976D02*
X148530603Y-47552487D01*
X207419420Y-33314254D02*
G75*
G03*
X208255905Y-34084254I787880J16554D01*
G01*
X150275945Y-51228702D02*
X150270603Y-49416011D01*
X87779993Y-108509977D02*
G75*
G03*
X93590000Y-100300000I-2283793J7776977D01*
G01*
X196352000Y-90656000D02*
X175042000Y-101616000D01*
D10*
X152834000Y-83594000D02*
X152516500Y-83594000D01*
D11*
X128090007Y-101609986D02*
G75*
G03*
X134990000Y-103040000I6214193J12622586D01*
G01*
D10*
X45410000Y-103940000D02*
X54760000Y-119670000D01*
D11*
X95712571Y-33308254D02*
X95726622Y-30325523D01*
X71810000Y-112700000D02*
X58180000Y-120450000D01*
D10*
X152516499Y-88674001D02*
G75*
G03*
X150611501Y-88674000I-952499J-380999D01*
G01*
X150611500Y-59718000D02*
X150222000Y-59718000D01*
X152910000Y-83600000D02*
X152834000Y-83594000D01*
D11*
X170597152Y-35602476D02*
X186138747Y-35580167D01*
X152894487Y-100501021D02*
G75*
G03*
X154952000Y-103026000I2124413J-369679D01*
G01*
D12*
%TO.C,SW8_r1*%
X109450000Y-64448000D03*
X97450000Y-62248000D03*
%TD*%
%TO.C,SW6_r1*%
X145494000Y-83332000D03*
X133494000Y-81132000D03*
%TD*%
D13*
%TO.C,SW16*%
X226915826Y-107733422D03*
X215894118Y-102502556D03*
%TD*%
D12*
%TO.C,SW12*%
X182618000Y-88324000D03*
X170618000Y-86124000D03*
%TD*%
%TO.C,SW9_r1*%
X91462000Y-69782000D03*
X79462000Y-67582000D03*
%TD*%
%TO.C,SW12_r1*%
X115476000Y-86124000D03*
X127476000Y-88324000D03*
%TD*%
%TO.C,SW14_r1*%
X91462000Y-86800000D03*
X79462000Y-84600000D03*
%TD*%
%TO.C,SW2_r1*%
X127476000Y-54332000D03*
X115476000Y-52132000D03*
%TD*%
%TO.C,SW7_r1*%
X127476000Y-71306000D03*
X115476000Y-69106000D03*
%TD*%
D14*
%TO.C,SW10_r1*%
X66448000Y-60322000D03*
X78448000Y-62522000D03*
%TD*%
D12*
%TO.C,SW4*%
X218618000Y-52832000D03*
X206618000Y-50632000D03*
%TD*%
%TO.C,SW10*%
X236598000Y-72322000D03*
X224598000Y-70122000D03*
%TD*%
%TO.C,SW9*%
X218618000Y-69782000D03*
X206618000Y-67582000D03*
%TD*%
%TO.C,SW2*%
X182618000Y-54332000D03*
X170618000Y-52132000D03*
%TD*%
D15*
%TO.C,SW17*%
X243679089Y-115978152D03*
X234386784Y-108072897D03*
%TD*%
D16*
%TO.C,SW17_r1*%
X53448911Y-105585848D03*
X64941216Y-101491103D03*
%TD*%
D12*
%TO.C,SW1_r1*%
X145494000Y-66332000D03*
X133494000Y-64132000D03*
%TD*%
D14*
%TO.C,SW6*%
X157618000Y-71332000D03*
X169618000Y-73532000D03*
%TD*%
D12*
%TO.C,SW14*%
X218618000Y-86800000D03*
X206618000Y-84600000D03*
%TD*%
%TO.C,SW15*%
X236598000Y-89340000D03*
X224598000Y-87140000D03*
%TD*%
D14*
%TO.C,SW1*%
X157618000Y-54332000D03*
X169618000Y-56532000D03*
%TD*%
%TO.C,SW5_r1*%
X66448000Y-43332000D03*
X78448000Y-45532000D03*
%TD*%
D12*
%TO.C,SW8*%
X200618000Y-64448000D03*
X188618000Y-62248000D03*
%TD*%
%TO.C,SW7*%
X182618000Y-71306000D03*
X170618000Y-69106000D03*
%TD*%
%TO.C,SW13_r1*%
X109450000Y-81466000D03*
X97450000Y-79266000D03*
%TD*%
D17*
%TO.C,SW16_r1*%
X73106345Y-96142312D03*
X85266857Y-95161520D03*
%TD*%
D12*
%TO.C,SW5*%
X236618000Y-55332000D03*
X224618000Y-53132000D03*
%TD*%
%TO.C,SW4_r1*%
X91462000Y-52832000D03*
X79462000Y-50632000D03*
%TD*%
%TO.C,SW3*%
X200618000Y-47332000D03*
X188618000Y-45132000D03*
%TD*%
D14*
%TO.C,SW11*%
X157618000Y-88332000D03*
X169618000Y-90532000D03*
%TD*%
D12*
%TO.C,SW3_r1*%
X109450000Y-47332000D03*
X97450000Y-45132000D03*
%TD*%
%TO.C,SW13*%
X200618000Y-81466000D03*
X188618000Y-79266000D03*
%TD*%
D14*
%TO.C,SW15_r1*%
X66448000Y-77340000D03*
X78448000Y-79540000D03*
%TD*%
D12*
%TO.C,SW11_r1*%
X145494000Y-100332000D03*
X133494000Y-98132000D03*
%TD*%
D18*
%TO.C,SW_POWER1*%
X254352000Y-49140000D03*
X254352000Y-46940000D03*
X246952000Y-46940000D03*
X246952000Y-49140000D03*
D19*
X248402000Y-50115000D03*
X251402000Y-50115000D03*
X252902000Y-50115000D03*
%TD*%
D18*
%TO.C,SW_POWERR1*%
X48212000Y-46934000D03*
X48212000Y-49134000D03*
X55612000Y-49134000D03*
X55612000Y-46934000D03*
D19*
X49662000Y-50109000D03*
X52662000Y-50109000D03*
X54162000Y-50109000D03*
%TD*%
M02*
