%TF.GenerationSoftware,KiCad,Pcbnew,(6.0.6)*%
%TF.CreationDate,2022-12-06T20:45:46-06:00*%
%TF.ProjectId,roadrunner,726f6164-7275-46e6-9e65-722e6b696361,rev?*%
%TF.SameCoordinates,Original*%
%TF.FileFunction,Soldermask,Top*%
%TF.FilePolarity,Negative*%
%FSLAX46Y46*%
G04 Gerber Fmt 4.6, Leading zero omitted, Abs format (unit mm)*
G04 Created by KiCad (PCBNEW (6.0.6)) date 2022-12-06 20:45:46*
%MOMM*%
%LPD*%
G01*
G04 APERTURE LIST*
G04 Aperture macros list*
%AMRoundRect*
0 Rectangle with rounded corners*
0 $1 Rounding radius*
0 $2 $3 $4 $5 $6 $7 $8 $9 X,Y pos of 4 corners*
0 Add a 4 corners polygon primitive as box body*
4,1,4,$2,$3,$4,$5,$6,$7,$8,$9,$2,$3,0*
0 Add four circle primitives for the rounded corners*
1,1,$1+$1,$2,$3*
1,1,$1+$1,$4,$5*
1,1,$1+$1,$6,$7*
1,1,$1+$1,$8,$9*
0 Add four rect primitives between the rounded corners*
20,1,$1+$1,$2,$3,$4,$5,0*
20,1,$1+$1,$4,$5,$6,$7,0*
20,1,$1+$1,$6,$7,$8,$9,0*
20,1,$1+$1,$8,$9,$2,$3,0*%
%AMHorizOval*
0 Thick line with rounded ends*
0 $1 width*
0 $2 $3 position (X,Y) of the first rounded end (center of the circle)*
0 $4 $5 position (X,Y) of the second rounded end (center of the circle)*
0 Add line between two ends*
20,1,$1,$2,$3,$4,$5,0*
0 Add two circle primitives to create the rounded ends*
1,1,$1,$2,$3*
1,1,$1,$4,$5*%
G04 Aperture macros list end*
%TA.AperFunction,Profile*%
%ADD10C,0.050000*%
%TD*%
%TA.AperFunction,Profile*%
%ADD11C,0.100000*%
%TD*%
%ADD12C,3.200000*%
%ADD13C,2.200000*%
%ADD14C,1.300000*%
%ADD15C,3.400000*%
%ADD16C,1.800000*%
%ADD17C,3.050000*%
%ADD18RoundRect,0.250000X-0.009391X0.716266X-0.615609X0.366266X0.009391X-0.716266X0.615609X-0.366266X0*%
%ADD19HorizOval,1.200000X-0.137500X0.238157X0.137500X-0.238157X0*%
%ADD20C,1.397000*%
%ADD21C,0.500000*%
%ADD22RoundRect,0.250000X0.615609X0.366266X0.009391X0.716266X-0.615609X-0.366266X-0.009391X-0.716266X0*%
%ADD23HorizOval,1.200000X0.137500X0.238157X-0.137500X-0.238157X0*%
%ADD24O,2.000000X1.400000*%
%ADD25C,1.200000*%
%ADD26R,2.000000X1.400000*%
%ADD27C,1.000000*%
%ADD28R,1.600000X1.600000*%
%ADD29O,1.600000X1.600000*%
G04 APERTURE END LIST*
D10*
X150611500Y-64798000D02*
X150222000Y-64798000D01*
D11*
X241367578Y-38328123D02*
X241388045Y-41395419D01*
X231322000Y-112706000D02*
X215352000Y-108516000D01*
X186138747Y-35580174D02*
G75*
G03*
X186908747Y-34743691I-16547J787874D01*
G01*
X209541976Y-100305999D02*
G75*
G03*
X215352000Y-108516000I8093824J-433001D01*
G01*
X225425522Y-35841152D02*
G75*
G03*
X226262000Y-36596000I833778J83052D01*
G01*
X168888600Y-46747500D02*
X168857152Y-37466000D01*
X244952000Y-120456000D02*
X231322000Y-112706000D01*
X134990000Y-103040000D02*
X148180000Y-103020000D01*
X97606622Y-28585523D02*
X114514848Y-28586476D01*
D10*
X241388099Y-41395418D02*
G75*
G03*
X246505730Y-46396000I5059101J58518D01*
G01*
D11*
X97606621Y-28585544D02*
G75*
G03*
X95726622Y-30325523I-56621J-1824456D01*
G01*
X168118601Y-47584025D02*
G75*
G03*
X168888600Y-46747500I-16601J787925D01*
G01*
X208255905Y-34084254D02*
X223545524Y-34101152D01*
D10*
X43042001Y-92484000D02*
G75*
G03*
X45410000Y-103940000I24422759J-924460D01*
G01*
X152516499Y-64798001D02*
G75*
G03*
X150611501Y-64798000I-952499J-380999D01*
G01*
X56626270Y-46390005D02*
G75*
G03*
X61743955Y-41389419I58550J5059135D01*
G01*
D11*
X76870000Y-36589998D02*
G75*
G03*
X77706476Y-35835152I2700J837898D01*
G01*
X152861397Y-49422011D02*
X152856055Y-51234702D01*
D10*
X257722001Y-103946000D02*
G75*
G03*
X260090000Y-92490000I-22054761J10531540D01*
G01*
D11*
X116223260Y-34737691D02*
G75*
G03*
X116993253Y-35574167I786540J-48609D01*
G01*
D10*
X56626270Y-46390000D02*
X43056000Y-46390000D01*
D11*
X87780000Y-108510000D02*
X71810000Y-112700000D01*
X168142000Y-103045995D02*
G75*
G03*
X175042000Y-101616000I685800J14052795D01*
G01*
X63644421Y-36582144D02*
G75*
G03*
X61764422Y-38322123I-56621J-1824456D01*
G01*
X79586478Y-34095099D02*
G75*
G03*
X77706476Y-35835152I-56578J-1824501D01*
G01*
X134274827Y-37460000D02*
G75*
G03*
X132534848Y-35596476I-1824427J40600D01*
G01*
X79586476Y-34095152D02*
X94876095Y-34078254D01*
D10*
X152894493Y-100501022D02*
X152910000Y-88680000D01*
X248372000Y-119676000D02*
X257722000Y-103946000D01*
X152770500Y-88674000D02*
X152516500Y-88674000D01*
D11*
X134243449Y-46741503D02*
G75*
G03*
X135013400Y-47577976I786551J-48597D01*
G01*
X128090000Y-101610000D02*
X106780000Y-90650000D01*
X94876096Y-34078245D02*
G75*
G03*
X95712571Y-33308254I48604J786545D01*
G01*
X134274848Y-37460000D02*
X134243400Y-46741500D01*
X225425471Y-35841154D02*
G75*
G03*
X223545524Y-34101152I-1823371J-84446D01*
G01*
D10*
X152834000Y-59718000D02*
X152516500Y-59718000D01*
D11*
X150270519Y-49416009D02*
G75*
G03*
X148530603Y-47552487I-1824419J40609D01*
G01*
D10*
X152910000Y-59724000D02*
X152856055Y-51234702D01*
D11*
X186908747Y-34743691D02*
X186877152Y-30472476D01*
D10*
X152910000Y-88680000D02*
X152770500Y-88674000D01*
D11*
X207405378Y-30331523D02*
X207419429Y-33314254D01*
X207405399Y-30331522D02*
G75*
G03*
X205525378Y-28591523I-1823399J-84478D01*
G01*
D10*
X152910000Y-59724000D02*
X152834000Y-59718000D01*
X150611500Y-88674000D02*
X150222000Y-88674000D01*
X152834000Y-64798000D02*
X152516500Y-64798000D01*
D11*
X148180000Y-103019994D02*
G75*
G03*
X150237507Y-100495022I-66900J2155294D01*
G01*
X244952000Y-120456000D02*
G75*
G03*
X248372000Y-119676000I1262800J2350800D01*
G01*
X170597151Y-35602455D02*
G75*
G03*
X168857152Y-37466000I84449J-1822945D01*
G01*
X188617154Y-28592529D02*
G75*
G03*
X186877152Y-30472476I84446J-1823371D01*
G01*
D10*
X260076000Y-46396000D02*
X246505730Y-46396000D01*
D11*
X76870000Y-36590000D02*
X63644422Y-36582123D01*
X154601397Y-47558487D02*
X168118600Y-47583976D01*
D10*
X150222000Y-64798000D02*
X150222000Y-83594000D01*
D11*
X54760000Y-119670000D02*
G75*
G03*
X58180000Y-120450000I2157200J1570800D01*
G01*
X209542081Y-100306009D02*
G75*
G03*
X196352000Y-90656000I-9397181J994909D01*
G01*
D10*
X150611501Y-83593999D02*
G75*
G03*
X152516499Y-83594000I952499J380999D01*
G01*
X150275945Y-51228702D02*
X150222000Y-59718000D01*
D11*
X239487578Y-36588123D02*
X226262000Y-36596000D01*
X116254901Y-30466478D02*
G75*
G03*
X114514848Y-28586476I-1824501J56578D01*
G01*
D10*
X150222000Y-88674000D02*
X150237507Y-100495022D01*
X150611501Y-59717999D02*
G75*
G03*
X152516499Y-59718000I952499J380999D01*
G01*
X152910000Y-83600000D02*
X152910000Y-64804000D01*
X43056000Y-46390000D02*
X43042000Y-92484000D01*
D11*
X116993253Y-35574167D02*
X132534848Y-35596476D01*
X106780002Y-90649995D02*
G75*
G03*
X93590000Y-100300000I-3792862J-8655075D01*
G01*
D10*
X150611500Y-83594000D02*
X150222000Y-83594000D01*
D11*
X188617152Y-28592476D02*
X205525378Y-28591523D01*
X61743955Y-41389419D02*
X61764422Y-38322123D01*
X241367599Y-38328122D02*
G75*
G03*
X239487578Y-36588123I-1823399J-84478D01*
G01*
D10*
X152910000Y-64804000D02*
X152834000Y-64798000D01*
D11*
X154952000Y-103026000D02*
X168142000Y-103046000D01*
D10*
X260090000Y-92490000D02*
X260076000Y-46396000D01*
D11*
X154601393Y-47558403D02*
G75*
G03*
X152861397Y-49422011I84507J-1822997D01*
G01*
X116254848Y-30466476D02*
X116223253Y-34737691D01*
X135013400Y-47577976D02*
X148530603Y-47552487D01*
X207419420Y-33314254D02*
G75*
G03*
X208255905Y-34084254I787880J16554D01*
G01*
X150275945Y-51228702D02*
X150270603Y-49416011D01*
X87779993Y-108509977D02*
G75*
G03*
X93590000Y-100300000I-2283793J7776977D01*
G01*
X196352000Y-90656000D02*
X175042000Y-101616000D01*
D10*
X152834000Y-83594000D02*
X152516500Y-83594000D01*
D11*
X128090007Y-101609986D02*
G75*
G03*
X134990000Y-103040000I6214193J12622586D01*
G01*
D10*
X45410000Y-103940000D02*
X54760000Y-119670000D01*
D11*
X95712571Y-33308254D02*
X95726622Y-30325523D01*
X71810000Y-112700000D02*
X58180000Y-120450000D01*
D10*
X152516499Y-88674001D02*
G75*
G03*
X150611501Y-88674000I-952499J-380999D01*
G01*
X150611500Y-59718000D02*
X150222000Y-59718000D01*
X152910000Y-83600000D02*
X152834000Y-83594000D01*
D11*
X170597152Y-35602476D02*
X186138747Y-35580167D01*
X152894487Y-100501021D02*
G75*
G03*
X154952000Y-103026000I2124413J-369679D01*
G01*
D12*
%TO.C,REF\u002A\u002A*%
X167250000Y-50340000D03*
%TD*%
%TO.C,REF\u002A\u002A*%
X225250000Y-39340000D03*
%TD*%
%TO.C,REF\u002A\u002A*%
X186250000Y-38340000D03*
%TD*%
%TO.C,REF\u002A\u002A*%
X254250000Y-102340000D03*
%TD*%
%TO.C,REF\u002A\u002A*%
X174250000Y-95340000D03*
%TD*%
%TO.C,REF\u002A\u002A*%
X212250000Y-92340000D03*
%TD*%
%TO.C,*%
X225250000Y-39340000D03*
%TD*%
%TO.C,*%
X174250000Y-95340000D03*
%TD*%
%TO.C,*%
X212250000Y-92340000D03*
%TD*%
%TO.C,*%
X254250000Y-102340000D03*
%TD*%
%TO.C,*%
X225250000Y-39340000D03*
%TD*%
%TO.C,*%
X186250000Y-38340000D03*
%TD*%
%TO.C,REF\u002A\u002A*%
X135250000Y-50340000D03*
%TD*%
%TO.C,REF\u002A\u002A*%
X116250000Y-38340000D03*
%TD*%
%TO.C,REF\u002A\u002A*%
X77250000Y-39340000D03*
%TD*%
%TO.C,REF\u002A\u002A*%
X48250000Y-102340000D03*
%TD*%
%TO.C,REF\u002A\u002A*%
X128250000Y-95340000D03*
%TD*%
%TO.C,REF\u002A\u002A*%
X90250000Y-92340000D03*
%TD*%
D13*
%TO.C,REF_PUCK_R*%
X96954000Y-76282000D03*
X116004000Y-57232000D03*
X96954000Y-38182000D03*
X77904000Y-57232000D03*
%TD*%
D14*
%TO.C,SW8_r1*%
X111170000Y-54248000D03*
D15*
X105950000Y-58448000D03*
D16*
X100450000Y-58448000D03*
D17*
X100950000Y-62248000D03*
X105950000Y-64348000D03*
D16*
X111450000Y-58448000D03*
%TD*%
%TO.C,SW6_r1*%
X147494000Y-77332000D03*
D17*
X136994000Y-81132000D03*
D15*
X141994000Y-77332000D03*
D17*
X141994000Y-83232000D03*
D16*
X136494000Y-77332000D03*
D14*
X147214000Y-73132000D03*
%TD*%
%TO.C,SW16*%
X231217173Y-98326147D03*
D17*
X223560968Y-106730962D03*
D16*
X219775408Y-99608495D03*
D17*
X219274858Y-103408423D03*
D15*
X225088000Y-101032000D03*
D16*
X230400592Y-102455505D03*
%TD*%
D17*
%TO.C,SW12*%
X179118000Y-88224000D03*
D16*
X184618000Y-82324000D03*
D17*
X174118000Y-86124000D03*
D16*
X173618000Y-82324000D03*
D14*
X184338000Y-78124000D03*
D15*
X179118000Y-82324000D03*
%TD*%
D18*
%TO.C,J2*%
X54341000Y-97961800D03*
D19*
X52608949Y-98961800D03*
%TD*%
D20*
%TO.C,BatGND1*%
X256220000Y-47930000D03*
%TD*%
D13*
%TO.C,e*%
X187568000Y-57232000D03*
X206618000Y-38182000D03*
X225668000Y-57232000D03*
X206618000Y-76282000D03*
%TD*%
D17*
%TO.C,SW9_r1*%
X82962000Y-67582000D03*
D16*
X93462000Y-63782000D03*
D15*
X87962000Y-63782000D03*
D14*
X93182000Y-59582000D03*
D17*
X87962000Y-69682000D03*
D16*
X82462000Y-63782000D03*
%TD*%
D17*
%TO.C,SW12_r1*%
X118976000Y-86124000D03*
X123976000Y-88224000D03*
D16*
X129476000Y-82324000D03*
D15*
X123976000Y-82324000D03*
D16*
X118476000Y-82324000D03*
D14*
X129196000Y-78124000D03*
%TD*%
%TO.C,SW14_r1*%
X93182000Y-76600000D03*
D15*
X87962000Y-80800000D03*
D17*
X87962000Y-86700000D03*
D16*
X93462000Y-80800000D03*
D17*
X82962000Y-84600000D03*
D16*
X82462000Y-80800000D03*
%TD*%
D21*
%TO.C,mouse-bite-2mm-slot1*%
X152580000Y-88166000D03*
X152580000Y-85118000D03*
X150548000Y-85118000D03*
X150548000Y-88166000D03*
X150548000Y-86134000D03*
X152580000Y-86134000D03*
X152580000Y-87150000D03*
X150548000Y-84102000D03*
X150548000Y-87150000D03*
X152580000Y-84102000D03*
%TD*%
D20*
%TO.C,BatGNDr1*%
X57510000Y-48010000D03*
%TD*%
D16*
%TO.C,SW2_r1*%
X129476000Y-48332000D03*
D14*
X129196000Y-44132000D03*
D16*
X118476000Y-48332000D03*
D15*
X123976000Y-48332000D03*
D17*
X118976000Y-52132000D03*
X123976000Y-54232000D03*
%TD*%
D16*
%TO.C,SW7_r1*%
X129476000Y-65306000D03*
D17*
X118976000Y-69106000D03*
D15*
X123976000Y-65306000D03*
D17*
X123976000Y-71206000D03*
D14*
X129196000Y-61106000D03*
D16*
X118476000Y-65306000D03*
%TD*%
D20*
%TO.C,Bat+1*%
X245090000Y-47950000D03*
%TD*%
D21*
%TO.C,mouse-bite-2mm-slot2*%
X150548000Y-64290000D03*
X150548000Y-61242000D03*
X150548000Y-62258000D03*
X152580000Y-61242000D03*
X152580000Y-62258000D03*
X150548000Y-63274000D03*
X152580000Y-63274000D03*
X152580000Y-64290000D03*
X152580000Y-60226000D03*
X150548000Y-60226000D03*
%TD*%
D16*
%TO.C,SW10_r1*%
X75448000Y-66322000D03*
D17*
X69948000Y-60422000D03*
X74948000Y-62522000D03*
D16*
X64448000Y-66322000D03*
D15*
X69948000Y-66322000D03*
D14*
X64728000Y-70522000D03*
%TD*%
D17*
%TO.C,SW4*%
X210118000Y-50632000D03*
D16*
X209618000Y-46832000D03*
D17*
X215118000Y-52732000D03*
D15*
X215118000Y-46832000D03*
D14*
X220338000Y-42632000D03*
D16*
X220618000Y-46832000D03*
%TD*%
D22*
%TO.C,J1*%
X249731000Y-99141800D03*
D23*
X247998949Y-98141800D03*
%TD*%
D17*
%TO.C,SW10*%
X233098000Y-72222000D03*
D15*
X233098000Y-66322000D03*
D14*
X238318000Y-62122000D03*
D17*
X228098000Y-70122000D03*
D16*
X227598000Y-66322000D03*
X238598000Y-66322000D03*
%TD*%
%TO.C,SW9*%
X209618000Y-63782000D03*
D15*
X215118000Y-63782000D03*
D17*
X210118000Y-67582000D03*
D16*
X220618000Y-63782000D03*
D17*
X215118000Y-69682000D03*
D14*
X220338000Y-59582000D03*
%TD*%
D16*
%TO.C,SW2*%
X184618000Y-48332000D03*
D17*
X174118000Y-52132000D03*
D15*
X179118000Y-48332000D03*
D14*
X184338000Y-44132000D03*
D16*
X173618000Y-48332000D03*
D17*
X179118000Y-54232000D03*
%TD*%
D16*
%TO.C,SW17*%
X248411140Y-111782000D03*
X238884860Y-106282000D03*
D15*
X243648000Y-109032000D03*
D17*
X237417873Y-109822897D03*
D14*
X250268653Y-108004693D03*
D17*
X240698000Y-114141550D03*
%TD*%
%TO.C,SW17_r1*%
X56530000Y-103922450D03*
X61910127Y-103241103D03*
D14*
X57059347Y-115279307D03*
D15*
X59480000Y-109032000D03*
D16*
X64243140Y-106282000D03*
X54716860Y-111782000D03*
%TD*%
D17*
%TO.C,SW1_r1*%
X136994000Y-64132000D03*
D14*
X147214000Y-56132000D03*
D16*
X136494000Y-60332000D03*
D15*
X141994000Y-60332000D03*
D16*
X147494000Y-60332000D03*
D17*
X141994000Y-66232000D03*
%TD*%
D16*
%TO.C,SW6*%
X166618000Y-77332000D03*
D17*
X166118000Y-73532000D03*
D16*
X155618000Y-77332000D03*
D15*
X161118000Y-77332000D03*
D14*
X155898000Y-81532000D03*
D17*
X161118000Y-71432000D03*
%TD*%
D16*
%TO.C,SW14*%
X220618000Y-80800000D03*
D17*
X210118000Y-84600000D03*
D15*
X215118000Y-80800000D03*
D17*
X215118000Y-86700000D03*
D16*
X209618000Y-80800000D03*
D14*
X220338000Y-76600000D03*
%TD*%
D17*
%TO.C,SW15*%
X233098000Y-89240000D03*
X228098000Y-87140000D03*
D16*
X238598000Y-83340000D03*
X227598000Y-83340000D03*
D14*
X238318000Y-79140000D03*
D15*
X233098000Y-83340000D03*
%TD*%
D17*
%TO.C,SW1*%
X161118000Y-54432000D03*
D15*
X161118000Y-60332000D03*
D16*
X166618000Y-60332000D03*
X155618000Y-60332000D03*
D14*
X155898000Y-64532000D03*
D17*
X166118000Y-56532000D03*
%TD*%
D16*
%TO.C,SW5_r1*%
X64448000Y-49332000D03*
D15*
X69948000Y-49332000D03*
D16*
X75448000Y-49332000D03*
D17*
X69948000Y-43432000D03*
X74948000Y-45532000D03*
D14*
X64728000Y-53532000D03*
%TD*%
D17*
%TO.C,SW8*%
X192118000Y-62248000D03*
X197118000Y-64348000D03*
D14*
X202338000Y-54248000D03*
D15*
X197118000Y-58448000D03*
D16*
X202618000Y-58448000D03*
X191618000Y-58448000D03*
%TD*%
D14*
%TO.C,SW7*%
X184338000Y-61106000D03*
D17*
X179118000Y-71206000D03*
D15*
X179118000Y-65306000D03*
D16*
X173618000Y-65306000D03*
D17*
X174118000Y-69106000D03*
D16*
X184618000Y-65306000D03*
%TD*%
D17*
%TO.C,SW13_r1*%
X105950000Y-81366000D03*
D15*
X105950000Y-75466000D03*
D14*
X111170000Y-71266000D03*
D16*
X100450000Y-75466000D03*
X111450000Y-75466000D03*
D17*
X100950000Y-79266000D03*
%TD*%
D15*
%TO.C,SW16_r1*%
X78040000Y-101032000D03*
D16*
X83352592Y-99608495D03*
X72727408Y-102455505D03*
D17*
X81886117Y-96067387D03*
D14*
X74084907Y-106439924D03*
D17*
X76512968Y-95333038D03*
%TD*%
D16*
%TO.C,SW5*%
X238618000Y-49332000D03*
D17*
X233118000Y-55232000D03*
X228118000Y-53132000D03*
D16*
X227618000Y-49332000D03*
D14*
X238338000Y-45132000D03*
D15*
X233118000Y-49332000D03*
%TD*%
D16*
%TO.C,SW4_r1*%
X82462000Y-46832000D03*
D15*
X87962000Y-46832000D03*
D16*
X93462000Y-46832000D03*
D17*
X87962000Y-52732000D03*
D14*
X93182000Y-42632000D03*
D17*
X82962000Y-50632000D03*
%TD*%
D15*
%TO.C,SW3*%
X197118000Y-41332000D03*
D17*
X197118000Y-47232000D03*
D14*
X202338000Y-37132000D03*
D17*
X192118000Y-45132000D03*
D16*
X191618000Y-41332000D03*
X202618000Y-41332000D03*
%TD*%
D24*
%TO.C,TRRS1*%
X257700000Y-87607500D03*
D25*
X256400000Y-84407500D03*
X249400000Y-84407500D03*
D24*
X254700000Y-82107500D03*
X257700000Y-82107500D03*
X249200000Y-86607500D03*
D26*
X250700000Y-82107500D03*
%TD*%
D16*
%TO.C,RSW1*%
X244856000Y-82144000D03*
X244856000Y-88544000D03*
%TD*%
%TO.C,SW11*%
X166618000Y-94332000D03*
D17*
X166118000Y-90532000D03*
D16*
X155618000Y-94332000D03*
D15*
X161118000Y-94332000D03*
D14*
X155898000Y-98532000D03*
D17*
X161118000Y-88432000D03*
%TD*%
D14*
%TO.C,SW3_r1*%
X111170000Y-37132000D03*
D16*
X100450000Y-41332000D03*
X111450000Y-41332000D03*
D17*
X100950000Y-45132000D03*
X105950000Y-47232000D03*
D15*
X105950000Y-41332000D03*
%TD*%
D25*
%TO.C,TRRS2*%
X46900000Y-85872500D03*
D24*
X45600000Y-82672500D03*
D25*
X53900000Y-85872500D03*
D24*
X48600000Y-88172500D03*
X45600000Y-88172500D03*
X54100000Y-83672500D03*
D26*
X52600000Y-88172500D03*
%TD*%
D17*
%TO.C,SW13*%
X192118000Y-79266000D03*
X197118000Y-81366000D03*
D15*
X197118000Y-75466000D03*
D14*
X202338000Y-71266000D03*
D16*
X202618000Y-75466000D03*
X191618000Y-75466000D03*
%TD*%
%TO.C,RSW2*%
X58420000Y-88544000D03*
X58420000Y-82144000D03*
%TD*%
%TO.C,SW15_r1*%
X75448000Y-83340000D03*
D14*
X64728000Y-87540000D03*
D16*
X64448000Y-83340000D03*
D17*
X69948000Y-77440000D03*
X74948000Y-79540000D03*
D15*
X69948000Y-83340000D03*
%TD*%
%TO.C,SW11_r1*%
X141994000Y-94332000D03*
D14*
X147214000Y-90132000D03*
D16*
X147494000Y-94332000D03*
X136494000Y-94332000D03*
D17*
X136994000Y-98132000D03*
X141994000Y-100232000D03*
%TD*%
D20*
%TO.C,Bat+r1*%
X46320000Y-48030000D03*
%TD*%
D27*
%TO.C,SW_POWER1*%
X249152000Y-48040000D03*
X252152000Y-48040000D03*
%TD*%
%TO.C,SW_POWERR1*%
X53412000Y-48034000D03*
X50412000Y-48034000D03*
%TD*%
D28*
%TO.C,U2*%
X60016000Y-50477000D03*
D29*
X60016000Y-53017000D03*
X60016000Y-55557000D03*
X60016000Y-58097000D03*
X60016000Y-60637000D03*
X60016000Y-63177000D03*
X60016000Y-65717000D03*
X60016000Y-68257000D03*
X60016000Y-70797000D03*
X60016000Y-73337000D03*
X60016000Y-75877000D03*
X60016000Y-78417000D03*
X44776000Y-78417000D03*
X44776000Y-75877000D03*
X44776000Y-73337000D03*
X44776000Y-70797000D03*
X44776000Y-68257000D03*
X44776000Y-65717000D03*
X44776000Y-63177000D03*
X44776000Y-60637000D03*
X44776000Y-58097000D03*
X44776000Y-55557000D03*
X44776000Y-53017000D03*
X44776000Y-50477000D03*
%TD*%
%TO.C,U1*%
X243080000Y-50470000D03*
X243080000Y-53010000D03*
X243080000Y-55550000D03*
X243080000Y-58090000D03*
X243080000Y-60630000D03*
X243080000Y-63170000D03*
X243080000Y-65710000D03*
X243080000Y-68250000D03*
X243080000Y-70790000D03*
X243080000Y-73330000D03*
X243080000Y-75870000D03*
X243080000Y-78410000D03*
X258320000Y-78410000D03*
X258320000Y-75870000D03*
X258320000Y-73330000D03*
X258320000Y-70790000D03*
X258320000Y-68250000D03*
X258320000Y-65710000D03*
X258320000Y-63170000D03*
X258320000Y-60630000D03*
X258320000Y-58090000D03*
X258320000Y-55550000D03*
X258320000Y-53010000D03*
D28*
X258320000Y-50470000D03*
%TD*%
M02*
