M48
; DRILL file {KiCad (6.0.6)} date Tue Dec  6 20:46:26 2022
; FORMAT={-:-/ absolute / inch / decimal}
; #@! TF.CreationDate,2022-12-06T20:46:26-06:00
; #@! TF.GenerationSoftware,Kicad,Pcbnew,(6.0.6)
; #@! TF.FileFunction,MixedPlating,1,2
FMAT,2
INCH
; #@! TA.AperFunction,Plated,PTH,ViaDrill
T1C0.0157
; #@! TA.AperFunction,Plated,PTH,ComponentDrill
T2C0.0236
; #@! TA.AperFunction,Plated,PTH,ComponentDrill
T3C0.0295
; #@! TA.AperFunction,Plated,PTH,ComponentDrill
T4C0.0315
; #@! TA.AperFunction,Plated,PTH,ComponentDrill
T5C0.0320
; #@! TA.AperFunction,Plated,PTH,ComponentDrill
T6C0.0472
; #@! TA.AperFunction,NonPlated,NPTH,ComponentDrill
T7C0.0197
; #@! TA.AperFunction,NonPlated,NPTH,ComponentDrill
T8C0.0354
; #@! TA.AperFunction,NonPlated,NPTH,ComponentDrill
T9C0.0472
; #@! TA.AperFunction,NonPlated,NPTH,ComponentDrill
T10C0.0512
; #@! TA.AperFunction,NonPlated,NPTH,ComponentDrill
T11C0.0709
; #@! TA.AperFunction,NonPlated,NPTH,ComponentDrill
T12C0.0866
; #@! TA.AperFunction,NonPlated,NPTH,ComponentDrill
T13C0.1201
; #@! TA.AperFunction,NonPlated,NPTH,ComponentDrill
T14C0.1260
; #@! TA.AperFunction,NonPlated,NPTH,ComponentDrill
T15C0.1339
%
G90
G05
T1
X1.8856Y-2.8583
X1.892Y-2.3825
X3.1838Y-2.8238
X3.5257Y-2.1552
X4.4535Y-2.9108
X4.789Y-2.8933
X4.8784Y-2.2645
X5.3366Y-2.8756
X5.4705Y-2.9346
X6.3496Y-2.5594
X6.4244Y-2.9692
X7.3882Y-2.6088
X7.9394Y-2.918
X8.0098Y-2.4268
X8.037Y-3.1453
X8.8461Y-2.4734
X9.3776Y-3.1823
X9.3888Y-2.8422
X9.6409Y-2.9086
X9.6791Y-2.6755
X10.0571Y-2.3952
T3
X2.0712Y-3.8961
X2.1394Y-3.8568
X9.7637Y-3.8639
X9.8319Y-3.9032
T4
X1.7628Y-1.9873
X1.7628Y-2.0873
X1.7628Y-2.1873
X1.7628Y-2.2873
X1.7628Y-2.3873
X1.7628Y-2.4873
X1.7628Y-2.5873
X1.7628Y-2.6873
X1.7628Y-2.7873
X1.7628Y-2.8873
X1.7628Y-2.9873
X1.7628Y-3.0873
X2.3628Y-1.9873
X2.3628Y-2.0873
X2.3628Y-2.1873
X2.3628Y-2.2873
X2.3628Y-2.3873
X2.3628Y-2.4873
X2.3628Y-2.5873
X2.3628Y-2.6873
X2.3628Y-2.7873
X2.3628Y-2.8873
X2.3628Y-2.9873
X2.3628Y-3.0873
X9.5701Y-1.987
X9.5701Y-2.087
X9.5701Y-2.187
X9.5701Y-2.287
X9.5701Y-2.387
X9.5701Y-2.487
X9.5701Y-2.587
X9.5701Y-2.687
X9.5701Y-2.787
X9.5701Y-2.887
X9.5701Y-2.987
X9.5701Y-3.087
X10.1701Y-1.987
X10.1701Y-2.087
X10.1701Y-2.187
X10.1701Y-2.287
X10.1701Y-2.387
X10.1701Y-2.487
X10.1701Y-2.587
X10.1701Y-2.687
X10.1701Y-2.787
X10.1701Y-2.887
X10.1701Y-2.987
X10.1701Y-3.087
T5
X1.8236Y-1.8909
X2.2642Y-1.8902
X9.6492Y-1.8878
X10.0874Y-1.887
T6
X2.3Y-3.234
X2.3Y-3.486
X9.64Y-3.234
X9.64Y-3.486
T7
X5.9271Y-2.3711
X5.9271Y-2.4111
X5.9271Y-2.4511
X5.9271Y-2.4911
X5.9271Y-2.5311
X5.9271Y-3.3111
X5.9271Y-3.3511
X5.9271Y-3.3911
X5.9271Y-3.4311
X5.9271Y-3.4711
X6.0071Y-2.3711
X6.0071Y-2.4111
X6.0071Y-2.4511
X6.0071Y-2.4911
X6.0071Y-2.5311
X6.0071Y-3.3111
X6.0071Y-3.3511
X6.0071Y-3.3911
X6.0071Y-3.4311
X6.0071Y-3.4711
T8
X1.9847Y-1.8911
X2.1028Y-1.8911
X9.8091Y-1.8913
X9.9272Y-1.8913
T9
X1.8465Y-3.3808
X2.122Y-3.3808
X9.8189Y-3.3231
X10.0945Y-3.3231
T10
X2.2464Y-4.5386
X2.5483Y-2.1076
X2.5483Y-2.7765
X2.5483Y-3.4465
X2.9167Y-4.1905
X3.6686Y-1.6784
X3.6686Y-2.3457
X3.6686Y-3.0157
X4.3768Y-1.4619
X4.3768Y-2.1357
X4.3768Y-2.8057
X5.0865Y-1.7375
X5.0865Y-2.4057
X5.0865Y-3.0757
X5.7958Y-2.2099
X5.7958Y-2.8792
X5.7958Y-3.5485
X6.1377Y-2.5406
X6.1377Y-3.2099
X6.1377Y-3.8792
X7.2574Y-1.7375
X7.2574Y-2.4057
X7.2574Y-3.0757
X7.9661Y-1.4619
X7.9661Y-2.1357
X7.9661Y-2.8057
X8.6747Y-1.6784
X8.6747Y-2.3457
X8.6747Y-3.0157
X9.103Y-3.8711
X9.3826Y-2.4457
X9.3826Y-3.1157
X9.3834Y-1.7769
X9.8531Y-4.2522
T11
X2.1542Y-4.4009
X2.5293Y-4.1843
X2.5373Y-1.9422
X2.5373Y-2.6111
X2.5373Y-3.2811
X2.8633Y-4.0337
X2.9704Y-1.9422
X2.9704Y-2.6111
X2.9704Y-3.2811
X3.2465Y-1.8438
X3.2465Y-2.5111
X3.2465Y-3.1811
X3.2816Y-3.9216
X3.6796Y-1.8438
X3.6796Y-2.5111
X3.6796Y-3.1811
X3.9547Y-1.6272
X3.9547Y-2.3011
X3.9547Y-2.9711
X4.3878Y-1.6272
X4.3878Y-2.3011
X4.3878Y-2.9711
X4.6644Y-1.9028
X4.6644Y-2.5711
X4.6644Y-3.2411
X5.0975Y-1.9028
X5.0975Y-2.5711
X5.0975Y-3.2411
X5.3738Y-2.3753
X5.3738Y-3.0446
X5.3738Y-3.7139
X5.8069Y-2.3753
X5.8069Y-3.0446
X5.8069Y-3.7139
X6.1267Y-2.3753
X6.1267Y-3.0446
X6.1267Y-3.7139
X6.5598Y-2.3753
X6.5598Y-3.0446
X6.5598Y-3.7139
X6.8354Y-1.9028
X6.8354Y-2.5711
X6.8354Y-3.2411
X7.2684Y-1.9028
X7.2684Y-2.5711
X7.2684Y-3.2411
X7.544Y-1.6272
X7.544Y-2.3011
X7.544Y-2.9711
X7.9771Y-1.6272
X7.9771Y-2.3011
X7.9771Y-2.9711
X8.2527Y-1.8438
X8.2527Y-2.5111
X8.2527Y-3.1811
X8.6526Y-3.9216
X8.6857Y-1.8438
X8.6857Y-2.5111
X8.6857Y-3.1811
X8.9606Y-2.6111
X8.9606Y-3.2811
X8.9613Y-1.9422
X9.0709Y-4.0337
X9.3936Y-2.6111
X9.3936Y-3.2811
X9.3944Y-1.9422
X9.4049Y-4.1843
X9.78Y-4.4009
T12
X3.0671Y-2.2532
X3.8171Y-1.5032
X3.8171Y-3.0032
X4.5671Y-2.2532
X7.3846Y-2.2532
X8.1346Y-1.5032
X8.1346Y-3.0032
X8.8846Y-2.2532
T13
X2.2256Y-4.0914
X2.4374Y-4.0646
X2.7539Y-1.7099
X2.7539Y-2.3788
X2.7539Y-3.0488
X2.9507Y-1.7926
X2.9507Y-2.4615
X2.9507Y-3.1315
X3.0123Y-3.7533
X3.2239Y-3.7822
X3.2662Y-1.9934
X3.2662Y-2.6607
X3.2662Y-3.3307
X3.4631Y-2.0761
X3.4631Y-2.7434
X3.4631Y-3.4134
X3.9744Y-1.7769
X3.9744Y-2.4507
X3.9744Y-3.1207
X4.1713Y-1.8595
X4.1713Y-2.5334
X4.1713Y-3.2034
X4.6841Y-2.0524
X4.6841Y-2.7207
X4.6841Y-3.3907
X4.8809Y-2.1351
X4.8809Y-2.8034
X4.8809Y-3.4734
X5.3935Y-2.5249
X5.3935Y-3.1942
X5.3935Y-3.8635
X5.5903Y-2.6076
X5.5903Y-3.2769
X5.5903Y-3.9461
X6.3432Y-2.143
X6.3432Y-2.8123
X6.3432Y-3.4816
X6.5401Y-2.2257
X6.5401Y-2.895
X6.5401Y-3.5643
X6.855Y-2.0524
X6.855Y-2.7207
X6.855Y-3.3907
X7.0519Y-2.1351
X7.0519Y-2.8034
X7.0519Y-3.4734
X7.5637Y-1.7769
X7.5637Y-2.4507
X7.5637Y-3.1207
X7.7606Y-1.8595
X7.7606Y-2.5334
X7.7606Y-3.2034
X8.2724Y-1.9934
X8.2724Y-2.6607
X8.2724Y-3.3307
X8.4692Y-2.0761
X8.4692Y-2.7434
X8.4692Y-3.4134
X8.6329Y-4.0712
X8.8016Y-4.202
X8.9802Y-2.7607
X8.9802Y-3.4307
X8.981Y-2.0918
X9.1771Y-2.8434
X9.1771Y-3.5134
X9.1779Y-2.1745
X9.3472Y-4.3237
X9.4763Y-4.4938
T14
X1.8996Y-4.0291
X3.0413Y-1.5488
X3.5531Y-3.6354
X4.5768Y-1.5094
X5.0492Y-3.7535
X5.3248Y-1.9819
X6.5846Y-1.9819
X6.8602Y-3.7535
X6.8602Y-3.7535
X7.3327Y-1.5094
X7.3327Y-1.5094
X8.3563Y-3.6354
X8.3563Y-3.6354
X8.8681Y-1.5488
X8.8681Y-1.5488
X8.8681Y-1.5488
X10.0098Y-4.0291
X10.0098Y-4.0291
T15
X2.3417Y-4.2926
X2.7539Y-1.9422
X2.7539Y-2.6111
X2.7539Y-3.2811
X3.0724Y-3.9776
X3.4631Y-1.8438
X3.4631Y-2.5111
X3.4631Y-3.1811
X4.1713Y-1.6272
X4.1713Y-2.3011
X4.1713Y-2.9711
X4.8809Y-1.9028
X4.8809Y-2.5711
X4.8809Y-3.2411
X5.5903Y-2.3753
X5.5903Y-3.0446
X5.5903Y-3.7139
X6.3432Y-2.3753
X6.3432Y-3.0446
X6.3432Y-3.7139
X7.0519Y-1.9028
X7.0519Y-2.5711
X7.0519Y-3.2411
X7.7606Y-1.6272
X7.7606Y-2.3011
X7.7606Y-2.9711
X8.4692Y-1.8438
X8.4692Y-2.5111
X8.4692Y-3.1811
X8.8617Y-3.9776
X9.1771Y-2.6111
X9.1771Y-3.2811
X9.1779Y-1.9422
X9.5924Y-4.2926
T2
G00X1.7835Y-3.2548
M15
G01X1.8071Y-3.2548
M16
G05
G00X1.7835Y-3.4714
M15
G01X1.8071Y-3.4714
M16
G05
G00X1.9016Y-3.4714
M15
G01X1.9252Y-3.4714
M16
G05
G00X2.0591Y-3.4714
M15
G01X2.0827Y-3.4714
M16
G05
G00X2.1181Y-3.2942
M15
G01X2.1417Y-3.2942
M16
G05
G00X9.8228Y-3.4097
M15
G01X9.7992Y-3.4097
M16
G05
G00X9.8819Y-3.2326
M15
G01X9.8583Y-3.2326
M16
G05
G00X10.0394Y-3.2326
M15
G01X10.0157Y-3.2326
M16
G05
G00X10.1575Y-3.2326
M15
G01X10.1339Y-3.2326
M16
G05
G00X10.1575Y-3.4491
M15
G01X10.1339Y-3.4491
M16
G05
T0
M30
