%TF.GenerationSoftware,KiCad,Pcbnew,(6.0.6)*%
%TF.CreationDate,2022-12-06T20:45:46-06:00*%
%TF.ProjectId,roadrunner,726f6164-7275-46e6-9e65-722e6b696361,rev?*%
%TF.SameCoordinates,Original*%
%TF.FileFunction,Legend,Bot*%
%TF.FilePolarity,Positive*%
%FSLAX46Y46*%
G04 Gerber Fmt 4.6, Leading zero omitted, Abs format (unit mm)*
G04 Created by KiCad (PCBNEW (6.0.6)) date 2022-12-06 20:45:46*
%MOMM*%
%LPD*%
G01*
G04 APERTURE LIST*
%ADD10C,0.120000*%
%ADD11C,0.150000*%
%TA.AperFunction,Profile*%
%ADD12C,0.050000*%
%TD*%
%TA.AperFunction,Profile*%
%ADD13C,0.100000*%
%TD*%
%ADD14C,0.300000*%
%ADD15C,0.100000*%
%ADD16C,0.200000*%
%ADD17C,0.010000*%
G04 APERTURE END LIST*
D10*
X252035714Y-49411428D02*
X252035714Y-48811428D01*
X251807142Y-48811428D01*
X251750000Y-48840000D01*
X251721428Y-48868571D01*
X251692857Y-48925714D01*
X251692857Y-49011428D01*
X251721428Y-49068571D01*
X251750000Y-49097142D01*
X251807142Y-49125714D01*
X252035714Y-49125714D01*
X251321428Y-48811428D02*
X251207142Y-48811428D01*
X251150000Y-48840000D01*
X251092857Y-48897142D01*
X251064285Y-49011428D01*
X251064285Y-49211428D01*
X251092857Y-49325714D01*
X251150000Y-49382857D01*
X251207142Y-49411428D01*
X251321428Y-49411428D01*
X251378571Y-49382857D01*
X251435714Y-49325714D01*
X251464285Y-49211428D01*
X251464285Y-49011428D01*
X251435714Y-48897142D01*
X251378571Y-48840000D01*
X251321428Y-48811428D01*
X250864285Y-48811428D02*
X250721428Y-49411428D01*
X250607142Y-48982857D01*
X250492857Y-49411428D01*
X250350000Y-48811428D01*
X250121428Y-49097142D02*
X249921428Y-49097142D01*
X249835714Y-49411428D02*
X250121428Y-49411428D01*
X250121428Y-48811428D01*
X249835714Y-48811428D01*
X249235714Y-49411428D02*
X249435714Y-49125714D01*
X249578571Y-49411428D02*
X249578571Y-48811428D01*
X249350000Y-48811428D01*
X249292857Y-48840000D01*
X249264285Y-48868571D01*
X249235714Y-48925714D01*
X249235714Y-49011428D01*
X249264285Y-49068571D01*
X249292857Y-49097142D01*
X249350000Y-49125714D01*
X249578571Y-49125714D01*
D11*
X51676144Y-100608452D02*
X51563476Y-100508543D01*
X51498427Y-100491113D01*
X51392139Y-100497493D01*
X51268421Y-100568922D01*
X51209752Y-100657780D01*
X51192323Y-100722829D01*
X51198702Y-100829117D01*
X51389178Y-101159032D01*
X52255204Y-100659032D01*
X52088537Y-100370356D01*
X51999679Y-100311687D01*
X51934630Y-100294258D01*
X51828342Y-100300637D01*
X51745863Y-100348256D01*
X51687194Y-100437115D01*
X51669764Y-100502164D01*
X51676144Y-100608452D01*
X51842811Y-100897127D01*
X51826632Y-99916724D02*
X51540918Y-99421852D01*
X50817750Y-100169288D02*
X51683775Y-99669288D01*
X50838141Y-99442701D02*
X50457188Y-98782872D01*
X50317750Y-99303263D02*
X50977579Y-98922310D01*
X55885668Y-97578537D02*
X55773000Y-97478629D01*
X55707951Y-97461199D01*
X55601663Y-97467579D01*
X55477945Y-97539007D01*
X55419276Y-97627866D01*
X55401846Y-97692915D01*
X55408226Y-97799203D01*
X55598702Y-98129117D01*
X56464728Y-97629117D01*
X56298061Y-97340442D01*
X56209203Y-97281773D01*
X56144154Y-97264343D01*
X56037866Y-97270723D01*
X55955387Y-97318342D01*
X55896718Y-97407200D01*
X55879288Y-97472249D01*
X55885668Y-97578537D01*
X56052335Y-97867212D01*
X55428617Y-97072616D02*
X55047664Y-96412787D01*
X246652426Y-96500119D02*
X246622237Y-96647646D01*
X246639667Y-96712695D01*
X246698336Y-96801553D01*
X246822054Y-96872982D01*
X246928342Y-96879362D01*
X246993391Y-96861932D01*
X247082249Y-96803263D01*
X247272725Y-96473348D01*
X246406700Y-95973348D01*
X246240033Y-96262024D01*
X246233653Y-96368312D01*
X246251083Y-96433360D01*
X246309752Y-96522219D01*
X246392231Y-96569838D01*
X246498519Y-96576218D01*
X246563568Y-96558788D01*
X246652426Y-96500119D01*
X246819093Y-96211444D01*
X245978128Y-96715656D02*
X245692414Y-97210528D01*
X246701297Y-97463092D02*
X245835271Y-96963092D01*
X246061858Y-97808726D02*
X245680906Y-98468555D01*
X246201297Y-98329117D02*
X245541468Y-97948165D01*
X251461950Y-99830033D02*
X251431761Y-99977561D01*
X251449191Y-100042609D01*
X251507860Y-100131468D01*
X251631578Y-100202896D01*
X251737866Y-100209276D01*
X251802915Y-100191846D01*
X251891773Y-100133177D01*
X252082249Y-99803263D01*
X251216224Y-99303263D01*
X251049557Y-99591938D01*
X251043177Y-99698226D01*
X251060607Y-99763275D01*
X251119276Y-99852133D01*
X251201755Y-99899752D01*
X251308043Y-99906132D01*
X251373092Y-99888702D01*
X251461950Y-99830033D01*
X251628617Y-99541358D01*
X251252335Y-100478812D02*
X250871382Y-101138641D01*
X122763153Y-97097086D02*
X122615121Y-97069476D01*
X122550386Y-97088038D01*
X122462565Y-97148249D01*
X122393307Y-97273195D01*
X122388783Y-97379578D01*
X122407345Y-97444313D01*
X122467556Y-97532134D01*
X122800745Y-97716823D01*
X123285554Y-96842203D01*
X122994014Y-96680600D01*
X122887631Y-96676076D01*
X122822896Y-96694639D01*
X122735075Y-96754850D01*
X122688903Y-96838147D01*
X122684379Y-96944530D01*
X122702942Y-97009265D01*
X122763153Y-97097086D01*
X123054692Y-97258689D01*
X122332628Y-96695106D02*
X121801179Y-97162755D01*
X121916143Y-96464244D02*
X121801179Y-97162755D01*
X121769045Y-97417170D01*
X121787608Y-97481905D01*
X121847819Y-97569726D01*
X120593371Y-96493256D02*
X121078181Y-95618636D01*
X120093588Y-96216222D01*
X120578398Y-95341602D01*
X119829191Y-95416319D02*
X119935574Y-95420843D01*
X120000309Y-95402280D01*
X120088130Y-95342069D01*
X120111216Y-95300421D01*
X120115740Y-95194038D01*
X120097178Y-95129303D01*
X120036967Y-95041482D01*
X119870372Y-94949137D01*
X119763989Y-94944613D01*
X119699254Y-94963176D01*
X119611434Y-95023387D01*
X119588347Y-95065035D01*
X119583824Y-95171419D01*
X119602386Y-95236153D01*
X119662597Y-95323974D01*
X119829191Y-95416319D01*
X119889402Y-95504140D01*
X119907964Y-95568875D01*
X119903441Y-95675258D01*
X119811096Y-95841852D01*
X119723275Y-95902063D01*
X119658540Y-95920625D01*
X119552157Y-95916102D01*
X119385563Y-95823757D01*
X119325352Y-95735936D01*
X119306790Y-95671201D01*
X119311313Y-95564818D01*
X119403658Y-95398224D01*
X119491479Y-95338013D01*
X119556214Y-95319451D01*
X119662597Y-95323974D01*
X46797619Y-78601904D02*
X47797619Y-78601904D01*
X47797619Y-78363809D01*
X47750000Y-78220952D01*
X47654761Y-78125714D01*
X47559523Y-78078095D01*
X47369047Y-78030476D01*
X47226190Y-78030476D01*
X47035714Y-78078095D01*
X46940476Y-78125714D01*
X46845238Y-78220952D01*
X46797619Y-78363809D01*
X46797619Y-78601904D01*
X46797619Y-77459047D02*
X46845238Y-77554285D01*
X46892857Y-77601904D01*
X46988095Y-77649523D01*
X47273809Y-77649523D01*
X47369047Y-77601904D01*
X47416666Y-77554285D01*
X47464285Y-77459047D01*
X47464285Y-77316190D01*
X47416666Y-77220952D01*
X47369047Y-77173333D01*
X47273809Y-77125714D01*
X46988095Y-77125714D01*
X46892857Y-77173333D01*
X46845238Y-77220952D01*
X46797619Y-77316190D01*
X46797619Y-77459047D01*
X47464285Y-75935238D02*
X46797619Y-75935238D01*
X47369047Y-75935238D02*
X47416666Y-75887619D01*
X47464285Y-75792380D01*
X47464285Y-75649523D01*
X47416666Y-75554285D01*
X47321428Y-75506666D01*
X46797619Y-75506666D01*
X46797619Y-74887619D02*
X46845238Y-74982857D01*
X46892857Y-75030476D01*
X46988095Y-75078095D01*
X47273809Y-75078095D01*
X47369047Y-75030476D01*
X47416666Y-74982857D01*
X47464285Y-74887619D01*
X47464285Y-74744761D01*
X47416666Y-74649523D01*
X47369047Y-74601904D01*
X47273809Y-74554285D01*
X46988095Y-74554285D01*
X46892857Y-74601904D01*
X46845238Y-74649523D01*
X46797619Y-74744761D01*
X46797619Y-74887619D01*
X47464285Y-74268571D02*
X47464285Y-73887619D01*
X47797619Y-74125714D02*
X46940476Y-74125714D01*
X46845238Y-74078095D01*
X46797619Y-73982857D01*
X46797619Y-73887619D01*
X46845238Y-72840000D02*
X46797619Y-72744761D01*
X46797619Y-72554285D01*
X46845238Y-72459047D01*
X46940476Y-72411428D01*
X46988095Y-72411428D01*
X47083333Y-72459047D01*
X47130952Y-72554285D01*
X47130952Y-72697142D01*
X47178571Y-72792380D01*
X47273809Y-72840000D01*
X47321428Y-72840000D01*
X47416666Y-72792380D01*
X47464285Y-72697142D01*
X47464285Y-72554285D01*
X47416666Y-72459047D01*
X46797619Y-71840000D02*
X46845238Y-71935238D01*
X46892857Y-71982857D01*
X46988095Y-72030476D01*
X47273809Y-72030476D01*
X47369047Y-71982857D01*
X47416666Y-71935238D01*
X47464285Y-71840000D01*
X47464285Y-71697142D01*
X47416666Y-71601904D01*
X47369047Y-71554285D01*
X47273809Y-71506666D01*
X46988095Y-71506666D01*
X46892857Y-71554285D01*
X46845238Y-71601904D01*
X46797619Y-71697142D01*
X46797619Y-71840000D01*
X46797619Y-70935238D02*
X46845238Y-71030476D01*
X46940476Y-71078095D01*
X47797619Y-71078095D01*
X46797619Y-70125714D02*
X47797619Y-70125714D01*
X46845238Y-70125714D02*
X46797619Y-70220952D01*
X46797619Y-70411428D01*
X46845238Y-70506666D01*
X46892857Y-70554285D01*
X46988095Y-70601904D01*
X47273809Y-70601904D01*
X47369047Y-70554285D01*
X47416666Y-70506666D01*
X47464285Y-70411428D01*
X47464285Y-70220952D01*
X47416666Y-70125714D01*
X46845238Y-69268571D02*
X46797619Y-69363809D01*
X46797619Y-69554285D01*
X46845238Y-69649523D01*
X46940476Y-69697142D01*
X47321428Y-69697142D01*
X47416666Y-69649523D01*
X47464285Y-69554285D01*
X47464285Y-69363809D01*
X47416666Y-69268571D01*
X47321428Y-69220952D01*
X47226190Y-69220952D01*
X47130952Y-69697142D01*
X46797619Y-68792380D02*
X47464285Y-68792380D01*
X47273809Y-68792380D02*
X47369047Y-68744761D01*
X47416666Y-68697142D01*
X47464285Y-68601904D01*
X47464285Y-68506666D01*
X46797619Y-67411428D02*
X47797619Y-67411428D01*
X47416666Y-67411428D02*
X47464285Y-67316190D01*
X47464285Y-67125714D01*
X47416666Y-67030476D01*
X47369047Y-66982857D01*
X47273809Y-66935238D01*
X46988095Y-66935238D01*
X46892857Y-66982857D01*
X46845238Y-67030476D01*
X46797619Y-67125714D01*
X46797619Y-67316190D01*
X46845238Y-67411428D01*
X46797619Y-66363809D02*
X46845238Y-66459047D01*
X46892857Y-66506666D01*
X46988095Y-66554285D01*
X47273809Y-66554285D01*
X47369047Y-66506666D01*
X47416666Y-66459047D01*
X47464285Y-66363809D01*
X47464285Y-66220952D01*
X47416666Y-66125714D01*
X47369047Y-66078095D01*
X47273809Y-66030476D01*
X46988095Y-66030476D01*
X46892857Y-66078095D01*
X46845238Y-66125714D01*
X46797619Y-66220952D01*
X46797619Y-66363809D01*
X46797619Y-65173333D02*
X47321428Y-65173333D01*
X47416666Y-65220952D01*
X47464285Y-65316190D01*
X47464285Y-65506666D01*
X47416666Y-65601904D01*
X46845238Y-65173333D02*
X46797619Y-65268571D01*
X46797619Y-65506666D01*
X46845238Y-65601904D01*
X46940476Y-65649523D01*
X47035714Y-65649523D01*
X47130952Y-65601904D01*
X47178571Y-65506666D01*
X47178571Y-65268571D01*
X47226190Y-65173333D01*
X46797619Y-64697142D02*
X47464285Y-64697142D01*
X47273809Y-64697142D02*
X47369047Y-64649523D01*
X47416666Y-64601904D01*
X47464285Y-64506666D01*
X47464285Y-64411428D01*
X46797619Y-63649523D02*
X47797619Y-63649523D01*
X46845238Y-63649523D02*
X46797619Y-63744761D01*
X46797619Y-63935238D01*
X46845238Y-64030476D01*
X46892857Y-64078095D01*
X46988095Y-64125714D01*
X47273809Y-64125714D01*
X47369047Y-64078095D01*
X47416666Y-64030476D01*
X47464285Y-63935238D01*
X47464285Y-63744761D01*
X47416666Y-63649523D01*
X47464285Y-62554285D02*
X47464285Y-62173333D01*
X47797619Y-62411428D02*
X46940476Y-62411428D01*
X46845238Y-62363809D01*
X46797619Y-62268571D01*
X46797619Y-62173333D01*
X46797619Y-61697142D02*
X46845238Y-61792380D01*
X46892857Y-61840000D01*
X46988095Y-61887619D01*
X47273809Y-61887619D01*
X47369047Y-61840000D01*
X47416666Y-61792380D01*
X47464285Y-61697142D01*
X47464285Y-61554285D01*
X47416666Y-61459047D01*
X47369047Y-61411428D01*
X47273809Y-61363809D01*
X46988095Y-61363809D01*
X46892857Y-61411428D01*
X46845238Y-61459047D01*
X46797619Y-61554285D01*
X46797619Y-61697142D01*
X47464285Y-60316190D02*
X47464285Y-59935238D01*
X47797619Y-60173333D02*
X46940476Y-60173333D01*
X46845238Y-60125714D01*
X46797619Y-60030476D01*
X46797619Y-59935238D01*
X46797619Y-59601904D02*
X47797619Y-59601904D01*
X46797619Y-59173333D02*
X47321428Y-59173333D01*
X47416666Y-59220952D01*
X47464285Y-59316190D01*
X47464285Y-59459047D01*
X47416666Y-59554285D01*
X47369047Y-59601904D01*
X46797619Y-58697142D02*
X47464285Y-58697142D01*
X47797619Y-58697142D02*
X47750000Y-58744761D01*
X47702380Y-58697142D01*
X47750000Y-58649523D01*
X47797619Y-58697142D01*
X47702380Y-58697142D01*
X46845238Y-58268571D02*
X46797619Y-58173333D01*
X46797619Y-57982857D01*
X46845238Y-57887619D01*
X46940476Y-57840000D01*
X46988095Y-57840000D01*
X47083333Y-57887619D01*
X47130952Y-57982857D01*
X47130952Y-58125714D01*
X47178571Y-58220952D01*
X47273809Y-58268571D01*
X47321428Y-58268571D01*
X47416666Y-58220952D01*
X47464285Y-58125714D01*
X47464285Y-57982857D01*
X47416666Y-57887619D01*
X46845238Y-56697142D02*
X46797619Y-56601904D01*
X46797619Y-56411428D01*
X46845238Y-56316190D01*
X46940476Y-56268571D01*
X46988095Y-56268571D01*
X47083333Y-56316190D01*
X47130952Y-56411428D01*
X47130952Y-56554285D01*
X47178571Y-56649523D01*
X47273809Y-56697142D01*
X47321428Y-56697142D01*
X47416666Y-56649523D01*
X47464285Y-56554285D01*
X47464285Y-56411428D01*
X47416666Y-56316190D01*
X46797619Y-55840000D02*
X47464285Y-55840000D01*
X47797619Y-55840000D02*
X47750000Y-55887619D01*
X47702380Y-55840000D01*
X47750000Y-55792380D01*
X47797619Y-55840000D01*
X47702380Y-55840000D01*
X46797619Y-54935238D02*
X47797619Y-54935238D01*
X46845238Y-54935238D02*
X46797619Y-55030476D01*
X46797619Y-55220952D01*
X46845238Y-55316190D01*
X46892857Y-55363809D01*
X46988095Y-55411428D01*
X47273809Y-55411428D01*
X47369047Y-55363809D01*
X47416666Y-55316190D01*
X47464285Y-55220952D01*
X47464285Y-55030476D01*
X47416666Y-54935238D01*
X46845238Y-54078095D02*
X46797619Y-54173333D01*
X46797619Y-54363809D01*
X46845238Y-54459047D01*
X46940476Y-54506666D01*
X47321428Y-54506666D01*
X47416666Y-54459047D01*
X47464285Y-54363809D01*
X47464285Y-54173333D01*
X47416666Y-54078095D01*
X47321428Y-54030476D01*
X47226190Y-54030476D01*
X47130952Y-54506666D01*
X255702380Y-52078095D02*
X254702380Y-52078095D01*
X254702380Y-52316190D01*
X254750000Y-52459047D01*
X254845238Y-52554285D01*
X254940476Y-52601904D01*
X255130952Y-52649523D01*
X255273809Y-52649523D01*
X255464285Y-52601904D01*
X255559523Y-52554285D01*
X255654761Y-52459047D01*
X255702380Y-52316190D01*
X255702380Y-52078095D01*
X255702380Y-53220952D02*
X255654761Y-53125714D01*
X255607142Y-53078095D01*
X255511904Y-53030476D01*
X255226190Y-53030476D01*
X255130952Y-53078095D01*
X255083333Y-53125714D01*
X255035714Y-53220952D01*
X255035714Y-53363809D01*
X255083333Y-53459047D01*
X255130952Y-53506666D01*
X255226190Y-53554285D01*
X255511904Y-53554285D01*
X255607142Y-53506666D01*
X255654761Y-53459047D01*
X255702380Y-53363809D01*
X255702380Y-53220952D01*
X255035714Y-54744761D02*
X255702380Y-54744761D01*
X255130952Y-54744761D02*
X255083333Y-54792380D01*
X255035714Y-54887619D01*
X255035714Y-55030476D01*
X255083333Y-55125714D01*
X255178571Y-55173333D01*
X255702380Y-55173333D01*
X255702380Y-55792380D02*
X255654761Y-55697142D01*
X255607142Y-55649523D01*
X255511904Y-55601904D01*
X255226190Y-55601904D01*
X255130952Y-55649523D01*
X255083333Y-55697142D01*
X255035714Y-55792380D01*
X255035714Y-55935238D01*
X255083333Y-56030476D01*
X255130952Y-56078095D01*
X255226190Y-56125714D01*
X255511904Y-56125714D01*
X255607142Y-56078095D01*
X255654761Y-56030476D01*
X255702380Y-55935238D01*
X255702380Y-55792380D01*
X255035714Y-56411428D02*
X255035714Y-56792380D01*
X254702380Y-56554285D02*
X255559523Y-56554285D01*
X255654761Y-56601904D01*
X255702380Y-56697142D01*
X255702380Y-56792380D01*
X255654761Y-57840000D02*
X255702380Y-57935238D01*
X255702380Y-58125714D01*
X255654761Y-58220952D01*
X255559523Y-58268571D01*
X255511904Y-58268571D01*
X255416666Y-58220952D01*
X255369047Y-58125714D01*
X255369047Y-57982857D01*
X255321428Y-57887619D01*
X255226190Y-57840000D01*
X255178571Y-57840000D01*
X255083333Y-57887619D01*
X255035714Y-57982857D01*
X255035714Y-58125714D01*
X255083333Y-58220952D01*
X255702380Y-58840000D02*
X255654761Y-58744761D01*
X255607142Y-58697142D01*
X255511904Y-58649523D01*
X255226190Y-58649523D01*
X255130952Y-58697142D01*
X255083333Y-58744761D01*
X255035714Y-58840000D01*
X255035714Y-58982857D01*
X255083333Y-59078095D01*
X255130952Y-59125714D01*
X255226190Y-59173333D01*
X255511904Y-59173333D01*
X255607142Y-59125714D01*
X255654761Y-59078095D01*
X255702380Y-58982857D01*
X255702380Y-58840000D01*
X255702380Y-59744761D02*
X255654761Y-59649523D01*
X255559523Y-59601904D01*
X254702380Y-59601904D01*
X255702380Y-60554285D02*
X254702380Y-60554285D01*
X255654761Y-60554285D02*
X255702380Y-60459047D01*
X255702380Y-60268571D01*
X255654761Y-60173333D01*
X255607142Y-60125714D01*
X255511904Y-60078095D01*
X255226190Y-60078095D01*
X255130952Y-60125714D01*
X255083333Y-60173333D01*
X255035714Y-60268571D01*
X255035714Y-60459047D01*
X255083333Y-60554285D01*
X255654761Y-61411428D02*
X255702380Y-61316190D01*
X255702380Y-61125714D01*
X255654761Y-61030476D01*
X255559523Y-60982857D01*
X255178571Y-60982857D01*
X255083333Y-61030476D01*
X255035714Y-61125714D01*
X255035714Y-61316190D01*
X255083333Y-61411428D01*
X255178571Y-61459047D01*
X255273809Y-61459047D01*
X255369047Y-60982857D01*
X255702380Y-61887619D02*
X255035714Y-61887619D01*
X255226190Y-61887619D02*
X255130952Y-61935238D01*
X255083333Y-61982857D01*
X255035714Y-62078095D01*
X255035714Y-62173333D01*
X255702380Y-63268571D02*
X254702380Y-63268571D01*
X255083333Y-63268571D02*
X255035714Y-63363809D01*
X255035714Y-63554285D01*
X255083333Y-63649523D01*
X255130952Y-63697142D01*
X255226190Y-63744761D01*
X255511904Y-63744761D01*
X255607142Y-63697142D01*
X255654761Y-63649523D01*
X255702380Y-63554285D01*
X255702380Y-63363809D01*
X255654761Y-63268571D01*
X255702380Y-64316190D02*
X255654761Y-64220952D01*
X255607142Y-64173333D01*
X255511904Y-64125714D01*
X255226190Y-64125714D01*
X255130952Y-64173333D01*
X255083333Y-64220952D01*
X255035714Y-64316190D01*
X255035714Y-64459047D01*
X255083333Y-64554285D01*
X255130952Y-64601904D01*
X255226190Y-64649523D01*
X255511904Y-64649523D01*
X255607142Y-64601904D01*
X255654761Y-64554285D01*
X255702380Y-64459047D01*
X255702380Y-64316190D01*
X255702380Y-65506666D02*
X255178571Y-65506666D01*
X255083333Y-65459047D01*
X255035714Y-65363809D01*
X255035714Y-65173333D01*
X255083333Y-65078095D01*
X255654761Y-65506666D02*
X255702380Y-65411428D01*
X255702380Y-65173333D01*
X255654761Y-65078095D01*
X255559523Y-65030476D01*
X255464285Y-65030476D01*
X255369047Y-65078095D01*
X255321428Y-65173333D01*
X255321428Y-65411428D01*
X255273809Y-65506666D01*
X255702380Y-65982857D02*
X255035714Y-65982857D01*
X255226190Y-65982857D02*
X255130952Y-66030476D01*
X255083333Y-66078095D01*
X255035714Y-66173333D01*
X255035714Y-66268571D01*
X255702380Y-67030476D02*
X254702380Y-67030476D01*
X255654761Y-67030476D02*
X255702380Y-66935238D01*
X255702380Y-66744761D01*
X255654761Y-66649523D01*
X255607142Y-66601904D01*
X255511904Y-66554285D01*
X255226190Y-66554285D01*
X255130952Y-66601904D01*
X255083333Y-66649523D01*
X255035714Y-66744761D01*
X255035714Y-66935238D01*
X255083333Y-67030476D01*
X255035714Y-68125714D02*
X255035714Y-68506666D01*
X254702380Y-68268571D02*
X255559523Y-68268571D01*
X255654761Y-68316190D01*
X255702380Y-68411428D01*
X255702380Y-68506666D01*
X255702380Y-68982857D02*
X255654761Y-68887619D01*
X255607142Y-68839999D01*
X255511904Y-68792380D01*
X255226190Y-68792380D01*
X255130952Y-68839999D01*
X255083333Y-68887619D01*
X255035714Y-68982857D01*
X255035714Y-69125714D01*
X255083333Y-69220952D01*
X255130952Y-69268571D01*
X255226190Y-69316190D01*
X255511904Y-69316190D01*
X255607142Y-69268571D01*
X255654761Y-69220952D01*
X255702380Y-69125714D01*
X255702380Y-68982857D01*
X255035714Y-70363809D02*
X255035714Y-70744761D01*
X254702380Y-70506666D02*
X255559523Y-70506666D01*
X255654761Y-70554285D01*
X255702380Y-70649523D01*
X255702380Y-70744761D01*
X255702380Y-71078095D02*
X254702380Y-71078095D01*
X255702380Y-71506666D02*
X255178571Y-71506666D01*
X255083333Y-71459047D01*
X255035714Y-71363809D01*
X255035714Y-71220952D01*
X255083333Y-71125714D01*
X255130952Y-71078095D01*
X255702380Y-71982857D02*
X255035714Y-71982857D01*
X254702380Y-71982857D02*
X254750000Y-71935238D01*
X254797619Y-71982857D01*
X254750000Y-72030476D01*
X254702380Y-71982857D01*
X254797619Y-71982857D01*
X255654761Y-72411428D02*
X255702380Y-72506666D01*
X255702380Y-72697142D01*
X255654761Y-72792380D01*
X255559523Y-72839999D01*
X255511904Y-72839999D01*
X255416666Y-72792380D01*
X255369047Y-72697142D01*
X255369047Y-72554285D01*
X255321428Y-72459047D01*
X255226190Y-72411428D01*
X255178571Y-72411428D01*
X255083333Y-72459047D01*
X255035714Y-72554285D01*
X255035714Y-72697142D01*
X255083333Y-72792380D01*
X255654761Y-73982857D02*
X255702380Y-74078095D01*
X255702380Y-74268571D01*
X255654761Y-74363809D01*
X255559523Y-74411428D01*
X255511904Y-74411428D01*
X255416666Y-74363809D01*
X255369047Y-74268571D01*
X255369047Y-74125714D01*
X255321428Y-74030476D01*
X255226190Y-73982857D01*
X255178571Y-73982857D01*
X255083333Y-74030476D01*
X255035714Y-74125714D01*
X255035714Y-74268571D01*
X255083333Y-74363809D01*
X255702380Y-74840000D02*
X255035714Y-74840000D01*
X254702380Y-74840000D02*
X254750000Y-74792380D01*
X254797619Y-74840000D01*
X254750000Y-74887619D01*
X254702380Y-74840000D01*
X254797619Y-74840000D01*
X255702380Y-75744761D02*
X254702380Y-75744761D01*
X255654761Y-75744761D02*
X255702380Y-75649523D01*
X255702380Y-75459047D01*
X255654761Y-75363809D01*
X255607142Y-75316190D01*
X255511904Y-75268571D01*
X255226190Y-75268571D01*
X255130952Y-75316190D01*
X255083333Y-75363809D01*
X255035714Y-75459047D01*
X255035714Y-75649523D01*
X255083333Y-75744761D01*
X255654761Y-76601904D02*
X255702380Y-76506666D01*
X255702380Y-76316190D01*
X255654761Y-76220952D01*
X255559523Y-76173333D01*
X255178571Y-76173333D01*
X255083333Y-76220952D01*
X255035714Y-76316190D01*
X255035714Y-76506666D01*
X255083333Y-76601904D01*
X255178571Y-76649523D01*
X255273809Y-76649523D01*
X255369047Y-76173333D01*
X123549115Y-95794579D02*
X124071516Y-95539696D01*
X124048897Y-96071613D02*
X124533707Y-95196993D01*
X124200519Y-95012304D01*
X124094135Y-95007780D01*
X124029401Y-95026342D01*
X123941580Y-95086553D01*
X123872321Y-95211499D01*
X123867797Y-95317882D01*
X123886360Y-95382617D01*
X123946571Y-95470438D01*
X124279759Y-95655127D01*
X123049332Y-95517545D02*
X123155715Y-95522068D01*
X123220450Y-95503506D01*
X123308271Y-95443295D01*
X123446788Y-95193404D01*
X123451312Y-95087020D01*
X123432749Y-95022286D01*
X123372538Y-94934465D01*
X123247593Y-94865206D01*
X123141209Y-94860682D01*
X123076475Y-94879245D01*
X122988654Y-94939456D01*
X122850137Y-95189347D01*
X122845613Y-95295730D01*
X122864175Y-95360465D01*
X122924386Y-95448286D01*
X123049332Y-95517545D01*
X122008118Y-94940390D02*
X122262066Y-94482256D01*
X122349887Y-94422045D01*
X122456270Y-94426569D01*
X122622864Y-94518914D01*
X122683075Y-94606735D01*
X122031204Y-94898742D02*
X122091415Y-94986563D01*
X122299658Y-95101993D01*
X122406041Y-95106517D01*
X122493862Y-95046306D01*
X122540035Y-94963009D01*
X122544558Y-94856626D01*
X122484347Y-94768805D01*
X122276105Y-94653374D01*
X122215894Y-94565553D01*
X121216796Y-94501753D02*
X121701605Y-93627133D01*
X121239882Y-94460104D02*
X121300093Y-94547925D01*
X121466687Y-94640270D01*
X121573070Y-94644794D01*
X121637805Y-94626231D01*
X121725626Y-94566020D01*
X121864143Y-94316129D01*
X121868667Y-94209746D01*
X121850104Y-94145011D01*
X121789893Y-94057190D01*
X121623299Y-93964846D01*
X121516916Y-93960322D01*
X120300527Y-93993857D02*
X120822929Y-93738975D01*
X120800310Y-94270891D02*
X121285120Y-93396272D01*
X120951931Y-93211582D01*
X120845548Y-93207058D01*
X120780813Y-93225621D01*
X120692992Y-93285832D01*
X120623734Y-93410777D01*
X120619210Y-93517161D01*
X120637772Y-93581895D01*
X120697983Y-93669716D01*
X121031172Y-93854406D01*
X119874060Y-92995226D02*
X119550853Y-93578306D01*
X120248897Y-93203002D02*
X119994949Y-93661136D01*
X119907128Y-93721347D01*
X119800745Y-93716823D01*
X119675799Y-93647565D01*
X119615588Y-93559744D01*
X119597026Y-93495009D01*
X119457574Y-92764365D02*
X119134368Y-93347444D01*
X119411402Y-92847662D02*
X119392839Y-92782927D01*
X119332628Y-92695106D01*
X119207683Y-92625848D01*
X119101299Y-92621324D01*
X119013479Y-92681535D01*
X118759531Y-93139669D01*
X118666251Y-92325727D02*
X118343045Y-92908807D01*
X118620079Y-92409024D02*
X118601517Y-92344290D01*
X118541306Y-92256469D01*
X118416360Y-92187210D01*
X118309977Y-92182686D01*
X118222156Y-92242897D01*
X117968208Y-92701032D01*
X117241620Y-92243832D02*
X117301831Y-92331653D01*
X117468425Y-92423997D01*
X117574809Y-92428521D01*
X117662630Y-92368310D01*
X117847319Y-92035122D01*
X117851843Y-91928739D01*
X117791632Y-91840918D01*
X117625038Y-91748573D01*
X117518654Y-91744049D01*
X117430833Y-91804260D01*
X117384661Y-91887557D01*
X117754974Y-92201716D01*
X116802048Y-92054619D02*
X117125255Y-91471539D01*
X117032910Y-91638133D02*
X117037434Y-91531750D01*
X117018872Y-91467015D01*
X116958661Y-91379194D01*
X116875363Y-91333022D01*
X116000744Y-90848212D02*
X115469295Y-91315861D01*
X115584258Y-90617351D01*
X114469729Y-90761793D02*
X114969512Y-91038827D01*
X114719621Y-90900310D02*
X115204430Y-90025690D01*
X115218469Y-90196808D01*
X115255594Y-90326278D01*
X115315804Y-90414099D01*
X114141065Y-90470720D02*
X114076330Y-90489283D01*
X114094892Y-90554018D01*
X114159627Y-90535455D01*
X114141065Y-90470720D01*
X114094892Y-90554018D01*
X113996622Y-89356191D02*
X113913325Y-89310019D01*
X113806942Y-89305495D01*
X113742207Y-89324058D01*
X113654386Y-89384269D01*
X113520393Y-89527777D01*
X113404962Y-89736019D01*
X113354266Y-89925700D01*
X113349742Y-90032083D01*
X113368304Y-90096818D01*
X113428515Y-90184639D01*
X113511812Y-90230811D01*
X113618196Y-90235335D01*
X113682930Y-90216772D01*
X113770751Y-90156562D01*
X113904745Y-90013053D01*
X114020175Y-89804811D01*
X114070872Y-89615130D01*
X114075395Y-89508747D01*
X114056833Y-89444012D01*
X113996622Y-89356191D01*
X112891608Y-89778135D02*
X112826873Y-89796698D01*
X112845435Y-89861432D01*
X112910170Y-89842870D01*
X112891608Y-89778135D01*
X112845435Y-89861432D01*
X112747165Y-88663606D02*
X112663868Y-88617434D01*
X112557485Y-88612910D01*
X112492750Y-88631472D01*
X112404929Y-88691683D01*
X112270936Y-88835191D01*
X112155505Y-89043434D01*
X112104809Y-89233115D01*
X112100285Y-89339498D01*
X112118848Y-89404233D01*
X112179059Y-89492054D01*
X112262356Y-89538226D01*
X112368739Y-89542750D01*
X112433474Y-89524187D01*
X112521295Y-89463976D01*
X112655288Y-89320468D01*
X112770719Y-89112226D01*
X112821415Y-88922545D01*
X112825939Y-88816162D01*
X112807376Y-88751427D01*
X112747165Y-88663606D01*
D10*
X48576500Y-46510000D02*
X55307500Y-46510000D01*
X55307500Y-46510000D02*
X55307500Y-49431000D01*
X55307500Y-49431000D02*
X48576500Y-49431000D01*
X48576500Y-49431000D02*
X48576500Y-46510000D01*
X247298000Y-46659000D02*
X253902000Y-46659000D01*
X253902000Y-46659000D02*
X253902000Y-49580000D01*
X253902000Y-49580000D02*
X247298000Y-49580000D01*
X247298000Y-49580000D02*
X247298000Y-46659000D01*
D12*
X150611500Y-64798000D02*
X150222000Y-64798000D01*
D13*
X241367578Y-38328123D02*
X241388045Y-41395419D01*
X231322000Y-112706000D02*
X215352000Y-108516000D01*
X186138747Y-35580174D02*
G75*
G03*
X186908747Y-34743691I-16547J787874D01*
G01*
X209541976Y-100305999D02*
G75*
G03*
X215352000Y-108516000I8093824J-433001D01*
G01*
X225425522Y-35841152D02*
G75*
G03*
X226262000Y-36596000I833778J83052D01*
G01*
X168888600Y-46747500D02*
X168857152Y-37466000D01*
X244952000Y-120456000D02*
X231322000Y-112706000D01*
X134990000Y-103040000D02*
X148180000Y-103020000D01*
X97606622Y-28585523D02*
X114514848Y-28586476D01*
D12*
X241388099Y-41395418D02*
G75*
G03*
X246505730Y-46396000I5059101J58518D01*
G01*
D13*
X97606621Y-28585544D02*
G75*
G03*
X95726622Y-30325523I-56621J-1824456D01*
G01*
X168118601Y-47584025D02*
G75*
G03*
X168888600Y-46747500I-16601J787925D01*
G01*
X208255905Y-34084254D02*
X223545524Y-34101152D01*
D12*
X43042001Y-92484000D02*
G75*
G03*
X45410000Y-103940000I24422759J-924460D01*
G01*
X152516499Y-64798001D02*
G75*
G03*
X150611501Y-64798000I-952499J-380999D01*
G01*
X56626270Y-46390005D02*
G75*
G03*
X61743955Y-41389419I58550J5059135D01*
G01*
D13*
X76870000Y-36589998D02*
G75*
G03*
X77706476Y-35835152I2700J837898D01*
G01*
X152861397Y-49422011D02*
X152856055Y-51234702D01*
D12*
X257722001Y-103946000D02*
G75*
G03*
X260090000Y-92490000I-22054761J10531540D01*
G01*
D13*
X116223260Y-34737691D02*
G75*
G03*
X116993253Y-35574167I786540J-48609D01*
G01*
D12*
X56626270Y-46390000D02*
X43056000Y-46390000D01*
D13*
X87780000Y-108510000D02*
X71810000Y-112700000D01*
X168142000Y-103045995D02*
G75*
G03*
X175042000Y-101616000I685800J14052795D01*
G01*
X63644421Y-36582144D02*
G75*
G03*
X61764422Y-38322123I-56621J-1824456D01*
G01*
X79586478Y-34095099D02*
G75*
G03*
X77706476Y-35835152I-56578J-1824501D01*
G01*
X134274827Y-37460000D02*
G75*
G03*
X132534848Y-35596476I-1824427J40600D01*
G01*
X79586476Y-34095152D02*
X94876095Y-34078254D01*
D12*
X152894493Y-100501022D02*
X152910000Y-88680000D01*
X248372000Y-119676000D02*
X257722000Y-103946000D01*
X152770500Y-88674000D02*
X152516500Y-88674000D01*
D13*
X134243449Y-46741503D02*
G75*
G03*
X135013400Y-47577976I786551J-48597D01*
G01*
X128090000Y-101610000D02*
X106780000Y-90650000D01*
X94876096Y-34078245D02*
G75*
G03*
X95712571Y-33308254I48604J786545D01*
G01*
X134274848Y-37460000D02*
X134243400Y-46741500D01*
X225425471Y-35841154D02*
G75*
G03*
X223545524Y-34101152I-1823371J-84446D01*
G01*
D12*
X152834000Y-59718000D02*
X152516500Y-59718000D01*
D13*
X150270519Y-49416009D02*
G75*
G03*
X148530603Y-47552487I-1824419J40609D01*
G01*
D12*
X152910000Y-59724000D02*
X152856055Y-51234702D01*
D13*
X186908747Y-34743691D02*
X186877152Y-30472476D01*
D12*
X152910000Y-88680000D02*
X152770500Y-88674000D01*
D13*
X207405378Y-30331523D02*
X207419429Y-33314254D01*
X207405399Y-30331522D02*
G75*
G03*
X205525378Y-28591523I-1823399J-84478D01*
G01*
D12*
X152910000Y-59724000D02*
X152834000Y-59718000D01*
X150611500Y-88674000D02*
X150222000Y-88674000D01*
X152834000Y-64798000D02*
X152516500Y-64798000D01*
D13*
X148180000Y-103019994D02*
G75*
G03*
X150237507Y-100495022I-66900J2155294D01*
G01*
X244952000Y-120456000D02*
G75*
G03*
X248372000Y-119676000I1262800J2350800D01*
G01*
X170597151Y-35602455D02*
G75*
G03*
X168857152Y-37466000I84449J-1822945D01*
G01*
X188617154Y-28592529D02*
G75*
G03*
X186877152Y-30472476I84446J-1823371D01*
G01*
D12*
X260076000Y-46396000D02*
X246505730Y-46396000D01*
D13*
X76870000Y-36590000D02*
X63644422Y-36582123D01*
X154601397Y-47558487D02*
X168118600Y-47583976D01*
D12*
X150222000Y-64798000D02*
X150222000Y-83594000D01*
D13*
X54760000Y-119670000D02*
G75*
G03*
X58180000Y-120450000I2157200J1570800D01*
G01*
X209542081Y-100306009D02*
G75*
G03*
X196352000Y-90656000I-9397181J994909D01*
G01*
D12*
X150611501Y-83593999D02*
G75*
G03*
X152516499Y-83594000I952499J380999D01*
G01*
X150275945Y-51228702D02*
X150222000Y-59718000D01*
D13*
X239487578Y-36588123D02*
X226262000Y-36596000D01*
X116254901Y-30466478D02*
G75*
G03*
X114514848Y-28586476I-1824501J56578D01*
G01*
D12*
X150222000Y-88674000D02*
X150237507Y-100495022D01*
X150611501Y-59717999D02*
G75*
G03*
X152516499Y-59718000I952499J380999D01*
G01*
X152910000Y-83600000D02*
X152910000Y-64804000D01*
X43056000Y-46390000D02*
X43042000Y-92484000D01*
D13*
X116993253Y-35574167D02*
X132534848Y-35596476D01*
X106780002Y-90649995D02*
G75*
G03*
X93590000Y-100300000I-3792862J-8655075D01*
G01*
D12*
X150611500Y-83594000D02*
X150222000Y-83594000D01*
D13*
X188617152Y-28592476D02*
X205525378Y-28591523D01*
X61743955Y-41389419D02*
X61764422Y-38322123D01*
X241367599Y-38328122D02*
G75*
G03*
X239487578Y-36588123I-1823399J-84478D01*
G01*
D12*
X152910000Y-64804000D02*
X152834000Y-64798000D01*
D13*
X154952000Y-103026000D02*
X168142000Y-103046000D01*
D12*
X260090000Y-92490000D02*
X260076000Y-46396000D01*
D13*
X154601393Y-47558403D02*
G75*
G03*
X152861397Y-49422011I84507J-1822997D01*
G01*
X116254848Y-30466476D02*
X116223253Y-34737691D01*
X135013400Y-47577976D02*
X148530603Y-47552487D01*
X207419420Y-33314254D02*
G75*
G03*
X208255905Y-34084254I787880J16554D01*
G01*
X150275945Y-51228702D02*
X150270603Y-49416011D01*
X87779993Y-108509977D02*
G75*
G03*
X93590000Y-100300000I-2283793J7776977D01*
G01*
X196352000Y-90656000D02*
X175042000Y-101616000D01*
D12*
X152834000Y-83594000D02*
X152516500Y-83594000D01*
D13*
X128090007Y-101609986D02*
G75*
G03*
X134990000Y-103040000I6214193J12622586D01*
G01*
D12*
X45410000Y-103940000D02*
X54760000Y-119670000D01*
D13*
X95712571Y-33308254D02*
X95726622Y-30325523D01*
X71810000Y-112700000D02*
X58180000Y-120450000D01*
D12*
X152516499Y-88674001D02*
G75*
G03*
X150611501Y-88674000I-952499J-380999D01*
G01*
X150611500Y-59718000D02*
X150222000Y-59718000D01*
X152910000Y-83600000D02*
X152834000Y-83594000D01*
D13*
X170597152Y-35602476D02*
X186138747Y-35580167D01*
X152894487Y-100501021D02*
G75*
G03*
X154952000Y-103026000I2124413J-369679D01*
G01*
D14*
X164374857Y-49744571D02*
X164017714Y-50744571D01*
X163660571Y-49744571D01*
X162303428Y-50744571D02*
X163160571Y-50744571D01*
X162732000Y-50744571D02*
X162732000Y-49244571D01*
X162874857Y-49458857D01*
X163017714Y-49601714D01*
X163160571Y-49673142D01*
X161660571Y-50601714D02*
X161589142Y-50673142D01*
X161660571Y-50744571D01*
X161732000Y-50673142D01*
X161660571Y-50601714D01*
X161660571Y-50744571D01*
X160660571Y-49244571D02*
X160517714Y-49244571D01*
X160374857Y-49316000D01*
X160303428Y-49387428D01*
X160232000Y-49530285D01*
X160160571Y-49816000D01*
X160160571Y-50173142D01*
X160232000Y-50458857D01*
X160303428Y-50601714D01*
X160374857Y-50673142D01*
X160517714Y-50744571D01*
X160660571Y-50744571D01*
X160803428Y-50673142D01*
X160874857Y-50601714D01*
X160946285Y-50458857D01*
X161017714Y-50173142D01*
X161017714Y-49816000D01*
X160946285Y-49530285D01*
X160874857Y-49387428D01*
X160803428Y-49316000D01*
X160660571Y-49244571D01*
D10*
X53335714Y-49211428D02*
X53335714Y-48611428D01*
X53107142Y-48611428D01*
X53050000Y-48640000D01*
X53021428Y-48668571D01*
X52992857Y-48725714D01*
X52992857Y-48811428D01*
X53021428Y-48868571D01*
X53050000Y-48897142D01*
X53107142Y-48925714D01*
X53335714Y-48925714D01*
X52621428Y-48611428D02*
X52507142Y-48611428D01*
X52450000Y-48640000D01*
X52392857Y-48697142D01*
X52364285Y-48811428D01*
X52364285Y-49011428D01*
X52392857Y-49125714D01*
X52450000Y-49182857D01*
X52507142Y-49211428D01*
X52621428Y-49211428D01*
X52678571Y-49182857D01*
X52735714Y-49125714D01*
X52764285Y-49011428D01*
X52764285Y-48811428D01*
X52735714Y-48697142D01*
X52678571Y-48640000D01*
X52621428Y-48611428D01*
X52164285Y-48611428D02*
X52021428Y-49211428D01*
X51907142Y-48782857D01*
X51792857Y-49211428D01*
X51650000Y-48611428D01*
X51421428Y-48897142D02*
X51221428Y-48897142D01*
X51135714Y-49211428D02*
X51421428Y-49211428D01*
X51421428Y-48611428D01*
X51135714Y-48611428D01*
X50535714Y-49211428D02*
X50735714Y-48925714D01*
X50878571Y-49211428D02*
X50878571Y-48611428D01*
X50650000Y-48611428D01*
X50592857Y-48640000D01*
X50564285Y-48668571D01*
X50535714Y-48725714D01*
X50535714Y-48811428D01*
X50564285Y-48868571D01*
X50592857Y-48897142D01*
X50650000Y-48925714D01*
X50878571Y-48925714D01*
D11*
%TO.C,*%
D15*
%TO.C,REF_PUCK_R*%
X96549214Y-61764500D02*
X97549214Y-61764500D01*
X96596833Y-61764500D02*
X96549214Y-61859738D01*
X96549214Y-62050214D01*
X96596833Y-62145452D01*
X96644452Y-62193071D01*
X96739690Y-62240690D01*
X97025404Y-62240690D01*
X97120642Y-62193071D01*
X97168261Y-62145452D01*
X97215880Y-62050214D01*
X97215880Y-61859738D01*
X97168261Y-61764500D01*
X96549214Y-63097833D02*
X97215880Y-63097833D01*
X96549214Y-62669261D02*
X97073023Y-62669261D01*
X97168261Y-62716880D01*
X97215880Y-62812119D01*
X97215880Y-62954976D01*
X97168261Y-63050214D01*
X97120642Y-63097833D01*
X97168261Y-64002595D02*
X97215880Y-63907357D01*
X97215880Y-63716880D01*
X97168261Y-63621642D01*
X97120642Y-63574023D01*
X97025404Y-63526404D01*
X96739690Y-63526404D01*
X96644452Y-63574023D01*
X96596833Y-63621642D01*
X96549214Y-63716880D01*
X96549214Y-63907357D01*
X96596833Y-64002595D01*
X97215880Y-64431166D02*
X96215880Y-64431166D01*
X96834928Y-64526404D02*
X97215880Y-64812119D01*
X96549214Y-64812119D02*
X96930166Y-64431166D01*
X96485714Y-47810500D02*
X96485714Y-48191452D01*
X96152380Y-47953357D02*
X97009523Y-47953357D01*
X97104761Y-48000976D01*
X97152380Y-48096214D01*
X97152380Y-48191452D01*
X97104761Y-48905738D02*
X97152380Y-48810500D01*
X97152380Y-48620023D01*
X97104761Y-48524785D01*
X97009523Y-48477166D01*
X96628571Y-48477166D01*
X96533333Y-48524785D01*
X96485714Y-48620023D01*
X96485714Y-48810500D01*
X96533333Y-48905738D01*
X96628571Y-48953357D01*
X96723809Y-48953357D01*
X96819047Y-48477166D01*
X96485714Y-49381928D02*
X97152380Y-49381928D01*
X96580952Y-49381928D02*
X96533333Y-49429547D01*
X96485714Y-49524785D01*
X96485714Y-49667642D01*
X96533333Y-49762880D01*
X96628571Y-49810500D01*
X97152380Y-49810500D01*
X96485714Y-50143833D02*
X96485714Y-50524785D01*
X96152380Y-50286690D02*
X97009523Y-50286690D01*
X97104761Y-50334309D01*
X97152380Y-50429547D01*
X97152380Y-50524785D01*
X97152380Y-50858119D02*
X96485714Y-50858119D01*
X96152380Y-50858119D02*
X96200000Y-50810500D01*
X96247619Y-50858119D01*
X96200000Y-50905738D01*
X96152380Y-50858119D01*
X96247619Y-50858119D01*
X96485714Y-51334309D02*
X97152380Y-51334309D01*
X96580952Y-51334309D02*
X96533333Y-51381928D01*
X96485714Y-51477166D01*
X96485714Y-51620023D01*
X96533333Y-51715261D01*
X96628571Y-51762880D01*
X97152380Y-51762880D01*
X96485714Y-52667642D02*
X97295238Y-52667642D01*
X97390476Y-52620023D01*
X97438095Y-52572404D01*
X97485714Y-52477166D01*
X97485714Y-52334309D01*
X97438095Y-52239071D01*
X97104761Y-52667642D02*
X97152380Y-52572404D01*
X97152380Y-52381928D01*
X97104761Y-52286690D01*
X97057142Y-52239071D01*
X96961904Y-52191452D01*
X96676190Y-52191452D01*
X96580952Y-52239071D01*
X96533333Y-52286690D01*
X96485714Y-52381928D01*
X96485714Y-52572404D01*
X96533333Y-52667642D01*
%TO.C,e*%
X206213214Y-61764500D02*
X207213214Y-61764500D01*
X206260833Y-61764500D02*
X206213214Y-61859738D01*
X206213214Y-62050214D01*
X206260833Y-62145452D01*
X206308452Y-62193071D01*
X206403690Y-62240690D01*
X206689404Y-62240690D01*
X206784642Y-62193071D01*
X206832261Y-62145452D01*
X206879880Y-62050214D01*
X206879880Y-61859738D01*
X206832261Y-61764500D01*
X206213214Y-63097833D02*
X206879880Y-63097833D01*
X206213214Y-62669261D02*
X206737023Y-62669261D01*
X206832261Y-62716880D01*
X206879880Y-62812119D01*
X206879880Y-62954976D01*
X206832261Y-63050214D01*
X206784642Y-63097833D01*
X206832261Y-64002595D02*
X206879880Y-63907357D01*
X206879880Y-63716880D01*
X206832261Y-63621642D01*
X206784642Y-63574023D01*
X206689404Y-63526404D01*
X206403690Y-63526404D01*
X206308452Y-63574023D01*
X206260833Y-63621642D01*
X206213214Y-63716880D01*
X206213214Y-63907357D01*
X206260833Y-64002595D01*
X206879880Y-64431166D02*
X205879880Y-64431166D01*
X206498928Y-64526404D02*
X206879880Y-64812119D01*
X206213214Y-64812119D02*
X206594166Y-64431166D01*
X206149714Y-47810500D02*
X206149714Y-48191452D01*
X205816380Y-47953357D02*
X206673523Y-47953357D01*
X206768761Y-48000976D01*
X206816380Y-48096214D01*
X206816380Y-48191452D01*
X206768761Y-48905738D02*
X206816380Y-48810500D01*
X206816380Y-48620023D01*
X206768761Y-48524785D01*
X206673523Y-48477166D01*
X206292571Y-48477166D01*
X206197333Y-48524785D01*
X206149714Y-48620023D01*
X206149714Y-48810500D01*
X206197333Y-48905738D01*
X206292571Y-48953357D01*
X206387809Y-48953357D01*
X206483047Y-48477166D01*
X206149714Y-49381928D02*
X206816380Y-49381928D01*
X206244952Y-49381928D02*
X206197333Y-49429547D01*
X206149714Y-49524785D01*
X206149714Y-49667642D01*
X206197333Y-49762880D01*
X206292571Y-49810500D01*
X206816380Y-49810500D01*
X206149714Y-50143833D02*
X206149714Y-50524785D01*
X205816380Y-50286690D02*
X206673523Y-50286690D01*
X206768761Y-50334309D01*
X206816380Y-50429547D01*
X206816380Y-50524785D01*
X206816380Y-50858119D02*
X206149714Y-50858119D01*
X205816380Y-50858119D02*
X205864000Y-50810500D01*
X205911619Y-50858119D01*
X205864000Y-50905738D01*
X205816380Y-50858119D01*
X205911619Y-50858119D01*
X206149714Y-51334309D02*
X206816380Y-51334309D01*
X206244952Y-51334309D02*
X206197333Y-51381928D01*
X206149714Y-51477166D01*
X206149714Y-51620023D01*
X206197333Y-51715261D01*
X206292571Y-51762880D01*
X206816380Y-51762880D01*
X206149714Y-52667642D02*
X206959238Y-52667642D01*
X207054476Y-52620023D01*
X207102095Y-52572404D01*
X207149714Y-52477166D01*
X207149714Y-52334309D01*
X207102095Y-52239071D01*
X206768761Y-52667642D02*
X206816380Y-52572404D01*
X206816380Y-52381928D01*
X206768761Y-52286690D01*
X206721142Y-52239071D01*
X206625904Y-52191452D01*
X206340190Y-52191452D01*
X206244952Y-52239071D01*
X206197333Y-52286690D01*
X206149714Y-52381928D01*
X206149714Y-52572404D01*
X206197333Y-52667642D01*
D11*
%TO.C,U2*%
X54681904Y-71392380D02*
X54681904Y-72201904D01*
X54634285Y-72297142D01*
X54586666Y-72344761D01*
X54491428Y-72392380D01*
X54300952Y-72392380D01*
X54205714Y-72344761D01*
X54158095Y-72297142D01*
X54110476Y-72201904D01*
X54110476Y-71392380D01*
X53681904Y-71487619D02*
X53634285Y-71440000D01*
X53539047Y-71392380D01*
X53300952Y-71392380D01*
X53205714Y-71440000D01*
X53158095Y-71487619D01*
X53110476Y-71582857D01*
X53110476Y-71678095D01*
X53158095Y-71820952D01*
X53729523Y-72392380D01*
X53110476Y-72392380D01*
D16*
%TO.C,REF_PUCK_R*%
X96954000Y-68027001D02*
G75*
G03*
X98082385Y-67967864I0J10794901D01*
G01*
X94096500Y-36911999D02*
G75*
G03*
X89945954Y-37945865I2857500J-20320001D01*
G01*
X89945955Y-76518135D02*
G75*
G03*
X94096500Y-77552000I7008045J19286135D01*
G01*
X99811500Y-77552000D02*
G75*
G03*
X103962045Y-76518135I-2857506J20320019D01*
G01*
X95825615Y-67967864D02*
G75*
G03*
X96954000Y-68027000I1128379J10735785D01*
G01*
X117274000Y-54374500D02*
G75*
G03*
X116240134Y-50223952I-20320000J-2857500D01*
G01*
X103962049Y-37945867D02*
G75*
G03*
X99811500Y-36912000I-7008049J-19286133D01*
G01*
X98082385Y-46496137D02*
G75*
G03*
X96954000Y-46437000I-1128385J-10735763D01*
G01*
X96954000Y-46437000D02*
G75*
G03*
X95825615Y-46496136I-6J-10794921D01*
G01*
X76633999Y-60089500D02*
G75*
G03*
X77667865Y-64240046I20320001J2857500D01*
G01*
X77667865Y-50223956D02*
G75*
G03*
X76634000Y-54374500I19286255J-7008074D01*
G01*
X116240134Y-64240048D02*
G75*
G03*
X117274000Y-60089500I-19286134J7008048D01*
G01*
D10*
X118204000Y-57232000D02*
G75*
G03*
X118204000Y-57232000I-2200000J0D01*
G01*
X80104000Y-57232000D02*
G75*
G03*
X80104000Y-57232000I-2200000J0D01*
G01*
X99154000Y-76282000D02*
G75*
G03*
X99154000Y-76282000I-2200000J0D01*
G01*
X99154000Y-38182000D02*
G75*
G03*
X99154000Y-38182000I-2200000J0D01*
G01*
G36*
X97741184Y-71748669D02*
G01*
X97753413Y-71758717D01*
X97778895Y-71782337D01*
X97815042Y-71817050D01*
X97859266Y-71860375D01*
X97908979Y-71909830D01*
X98070014Y-72071174D01*
X98036132Y-72108989D01*
X98032955Y-72112481D01*
X98011087Y-72135690D01*
X97976741Y-72171436D01*
X97932925Y-72216616D01*
X97882642Y-72268129D01*
X97828900Y-72322872D01*
X97655550Y-72498941D01*
X97035536Y-72498941D01*
X97063837Y-72465306D01*
X97066130Y-72462615D01*
X97086798Y-72439386D01*
X97119556Y-72403546D01*
X97162416Y-72357201D01*
X97213388Y-72302458D01*
X97270484Y-72241423D01*
X97331714Y-72176204D01*
X97395089Y-72108906D01*
X97458622Y-72041636D01*
X97520321Y-71976501D01*
X97578200Y-71915607D01*
X97630267Y-71861061D01*
X97674536Y-71814969D01*
X97709015Y-71779438D01*
X97731718Y-71756575D01*
X97740653Y-71748486D01*
X97741184Y-71748669D01*
G37*
D17*
X97741184Y-71748669D02*
X97753413Y-71758717D01*
X97778895Y-71782337D01*
X97815042Y-71817050D01*
X97859266Y-71860375D01*
X97908979Y-71909830D01*
X98070014Y-72071174D01*
X98036132Y-72108989D01*
X98032955Y-72112481D01*
X98011087Y-72135690D01*
X97976741Y-72171436D01*
X97932925Y-72216616D01*
X97882642Y-72268129D01*
X97828900Y-72322872D01*
X97655550Y-72498941D01*
X97035536Y-72498941D01*
X97063837Y-72465306D01*
X97066130Y-72462615D01*
X97086798Y-72439386D01*
X97119556Y-72403546D01*
X97162416Y-72357201D01*
X97213388Y-72302458D01*
X97270484Y-72241423D01*
X97331714Y-72176204D01*
X97395089Y-72108906D01*
X97458622Y-72041636D01*
X97520321Y-71976501D01*
X97578200Y-71915607D01*
X97630267Y-71861061D01*
X97674536Y-71814969D01*
X97709015Y-71779438D01*
X97731718Y-71756575D01*
X97740653Y-71748486D01*
X97741184Y-71748669D01*
G36*
X96831717Y-71662364D02*
G01*
X96829104Y-71690759D01*
X96820235Y-71737209D01*
X96782682Y-71864369D01*
X96727516Y-71990232D01*
X96657824Y-72108414D01*
X96576693Y-72212534D01*
X96568299Y-72221700D01*
X96459987Y-72322026D01*
X96337567Y-72406023D01*
X96204394Y-72472002D01*
X96063826Y-72518277D01*
X95919218Y-72543158D01*
X95818972Y-72547641D01*
X95670551Y-72536242D01*
X95527132Y-72503989D01*
X95390896Y-72451966D01*
X95264021Y-72381252D01*
X95148688Y-72292930D01*
X95047075Y-72188081D01*
X94961363Y-72067788D01*
X94904108Y-71960869D01*
X94850963Y-71821633D01*
X94819607Y-71677069D01*
X94813103Y-71580705D01*
X95308342Y-71580705D01*
X95308624Y-71585995D01*
X95312942Y-71641298D01*
X95320299Y-71683590D01*
X95332944Y-71722198D01*
X95353125Y-71766444D01*
X95374613Y-71804771D01*
X95416098Y-71863565D01*
X95464155Y-71919021D01*
X95513478Y-71965215D01*
X95558764Y-71996219D01*
X95574931Y-72003995D01*
X95615836Y-72021355D01*
X95658833Y-72037441D01*
X95731660Y-72056729D01*
X95835361Y-72065250D01*
X95936902Y-72052456D01*
X96033688Y-72019324D01*
X96123120Y-71966831D01*
X96202601Y-71895954D01*
X96269535Y-71807671D01*
X96298189Y-71753526D01*
X96328621Y-71659507D01*
X96339193Y-71561958D01*
X96330887Y-71464010D01*
X96304685Y-71368797D01*
X96261572Y-71279450D01*
X96202529Y-71199104D01*
X96128539Y-71130890D01*
X96040587Y-71077941D01*
X96026584Y-71071655D01*
X95928238Y-71041030D01*
X95826886Y-71030848D01*
X95725982Y-71040168D01*
X95628983Y-71068046D01*
X95539347Y-71113542D01*
X95460530Y-71175712D01*
X95395988Y-71253616D01*
X95378218Y-71282145D01*
X95334566Y-71375568D01*
X95311710Y-71473460D01*
X95308342Y-71580705D01*
X94813103Y-71580705D01*
X94809316Y-71524591D01*
X94812877Y-71434921D01*
X94835558Y-71284642D01*
X94878310Y-71142673D01*
X94940120Y-71010688D01*
X95019978Y-70890363D01*
X95116872Y-70783374D01*
X95229792Y-70691394D01*
X95357725Y-70616101D01*
X95427576Y-70583462D01*
X95502714Y-70554245D01*
X95574366Y-70534753D01*
X95650849Y-70522816D01*
X95740484Y-70516264D01*
X95758296Y-70515596D01*
X95897497Y-70522034D01*
X96027880Y-70549710D01*
X96150096Y-70598814D01*
X96264793Y-70669536D01*
X96288927Y-70686738D01*
X96313773Y-70703081D01*
X96326204Y-70709395D01*
X96327112Y-70705365D01*
X96328561Y-70681558D01*
X96329888Y-70638435D01*
X96331057Y-70578360D01*
X96332033Y-70503698D01*
X96332783Y-70416812D01*
X96333272Y-70320067D01*
X96333464Y-70215827D01*
X96333612Y-69722259D01*
X96841316Y-70232285D01*
X96841229Y-70923999D01*
X96841226Y-70935735D01*
X96840965Y-71086209D01*
X96840301Y-71223481D01*
X96839257Y-71346137D01*
X96837854Y-71452766D01*
X96836115Y-71541955D01*
X96835531Y-71561958D01*
X96834062Y-71612292D01*
X96831717Y-71662364D01*
G37*
X96831717Y-71662364D02*
X96829104Y-71690759D01*
X96820235Y-71737209D01*
X96782682Y-71864369D01*
X96727516Y-71990232D01*
X96657824Y-72108414D01*
X96576693Y-72212534D01*
X96568299Y-72221700D01*
X96459987Y-72322026D01*
X96337567Y-72406023D01*
X96204394Y-72472002D01*
X96063826Y-72518277D01*
X95919218Y-72543158D01*
X95818972Y-72547641D01*
X95670551Y-72536242D01*
X95527132Y-72503989D01*
X95390896Y-72451966D01*
X95264021Y-72381252D01*
X95148688Y-72292930D01*
X95047075Y-72188081D01*
X94961363Y-72067788D01*
X94904108Y-71960869D01*
X94850963Y-71821633D01*
X94819607Y-71677069D01*
X94813103Y-71580705D01*
X95308342Y-71580705D01*
X95308624Y-71585995D01*
X95312942Y-71641298D01*
X95320299Y-71683590D01*
X95332944Y-71722198D01*
X95353125Y-71766444D01*
X95374613Y-71804771D01*
X95416098Y-71863565D01*
X95464155Y-71919021D01*
X95513478Y-71965215D01*
X95558764Y-71996219D01*
X95574931Y-72003995D01*
X95615836Y-72021355D01*
X95658833Y-72037441D01*
X95731660Y-72056729D01*
X95835361Y-72065250D01*
X95936902Y-72052456D01*
X96033688Y-72019324D01*
X96123120Y-71966831D01*
X96202601Y-71895954D01*
X96269535Y-71807671D01*
X96298189Y-71753526D01*
X96328621Y-71659507D01*
X96339193Y-71561958D01*
X96330887Y-71464010D01*
X96304685Y-71368797D01*
X96261572Y-71279450D01*
X96202529Y-71199104D01*
X96128539Y-71130890D01*
X96040587Y-71077941D01*
X96026584Y-71071655D01*
X95928238Y-71041030D01*
X95826886Y-71030848D01*
X95725982Y-71040168D01*
X95628983Y-71068046D01*
X95539347Y-71113542D01*
X95460530Y-71175712D01*
X95395988Y-71253616D01*
X95378218Y-71282145D01*
X95334566Y-71375568D01*
X95311710Y-71473460D01*
X95308342Y-71580705D01*
X94813103Y-71580705D01*
X94809316Y-71524591D01*
X94812877Y-71434921D01*
X94835558Y-71284642D01*
X94878310Y-71142673D01*
X94940120Y-71010688D01*
X95019978Y-70890363D01*
X95116872Y-70783374D01*
X95229792Y-70691394D01*
X95357725Y-70616101D01*
X95427576Y-70583462D01*
X95502714Y-70554245D01*
X95574366Y-70534753D01*
X95650849Y-70522816D01*
X95740484Y-70516264D01*
X95758296Y-70515596D01*
X95897497Y-70522034D01*
X96027880Y-70549710D01*
X96150096Y-70598814D01*
X96264793Y-70669536D01*
X96288927Y-70686738D01*
X96313773Y-70703081D01*
X96326204Y-70709395D01*
X96327112Y-70705365D01*
X96328561Y-70681558D01*
X96329888Y-70638435D01*
X96331057Y-70578360D01*
X96332033Y-70503698D01*
X96332783Y-70416812D01*
X96333272Y-70320067D01*
X96333464Y-70215827D01*
X96333612Y-69722259D01*
X96841316Y-70232285D01*
X96841229Y-70923999D01*
X96841226Y-70935735D01*
X96840965Y-71086209D01*
X96840301Y-71223481D01*
X96839257Y-71346137D01*
X96837854Y-71452766D01*
X96836115Y-71541955D01*
X96835531Y-71561958D01*
X96834062Y-71612292D01*
X96831717Y-71662364D01*
G36*
X99034952Y-72458356D02*
G01*
X98944108Y-72366080D01*
X98930327Y-72352084D01*
X98898466Y-72319731D01*
X98852519Y-72273077D01*
X98793703Y-72213359D01*
X98723236Y-72141814D01*
X98642337Y-72059677D01*
X98552222Y-71968184D01*
X98454110Y-71868573D01*
X98349218Y-71762080D01*
X98238764Y-71649940D01*
X98123965Y-71533391D01*
X98006040Y-71413668D01*
X97158816Y-70553531D01*
X97447184Y-70550438D01*
X97735552Y-70547344D01*
X98538498Y-71350044D01*
X98538498Y-69716486D01*
X99034952Y-69716486D01*
X99034952Y-72458356D01*
G37*
X99034952Y-72458356D02*
X98944108Y-72366080D01*
X98930327Y-72352084D01*
X98898466Y-72319731D01*
X98852519Y-72273077D01*
X98793703Y-72213359D01*
X98723236Y-72141814D01*
X98642337Y-72059677D01*
X98552222Y-71968184D01*
X98454110Y-71868573D01*
X98349218Y-71762080D01*
X98238764Y-71649940D01*
X98123965Y-71533391D01*
X98006040Y-71413668D01*
X97158816Y-70553531D01*
X97447184Y-70550438D01*
X97735552Y-70547344D01*
X98538498Y-71350044D01*
X98538498Y-69716486D01*
X99034952Y-69716486D01*
X99034952Y-72458356D01*
%TO.C,SW8_r1*%
G36*
X104700000Y-62448000D02*
G01*
X107200000Y-62448000D01*
X107700000Y-62948000D01*
X107700000Y-65948000D01*
X107200000Y-66448000D01*
X104700000Y-66448000D01*
X102450000Y-64198000D01*
X99700000Y-64198000D01*
X99200000Y-63698000D01*
X99200000Y-60698000D01*
X99700000Y-60198000D01*
X102450000Y-60198000D01*
X104700000Y-62448000D01*
G37*
D10*
X104700000Y-62448000D02*
X107200000Y-62448000D01*
X107700000Y-62948000D01*
X107700000Y-65948000D01*
X107200000Y-66448000D01*
X104700000Y-66448000D01*
X102450000Y-64198000D01*
X99700000Y-64198000D01*
X99200000Y-63698000D01*
X99200000Y-60698000D01*
X99700000Y-60198000D01*
X102450000Y-60198000D01*
X104700000Y-62448000D01*
%TO.C,SW6_r1*%
G36*
X140744000Y-81332000D02*
G01*
X143244000Y-81332000D01*
X143744000Y-81832000D01*
X143744000Y-84832000D01*
X143244000Y-85332000D01*
X140744000Y-85332000D01*
X138494000Y-83082000D01*
X135744000Y-83082000D01*
X135244000Y-82582000D01*
X135244000Y-79582000D01*
X135744000Y-79082000D01*
X138494000Y-79082000D01*
X140744000Y-81332000D01*
G37*
X140744000Y-81332000D02*
X143244000Y-81332000D01*
X143744000Y-81832000D01*
X143744000Y-84832000D01*
X143244000Y-85332000D01*
X140744000Y-85332000D01*
X138494000Y-83082000D01*
X135744000Y-83082000D01*
X135244000Y-82582000D01*
X135244000Y-79582000D01*
X135744000Y-79082000D01*
X138494000Y-79082000D01*
X140744000Y-81332000D01*
%TO.C,SW16*%
G36*
X221254326Y-101816504D02*
G01*
X222845317Y-104572179D01*
X225260131Y-105219227D01*
X225613684Y-105831600D01*
X224837227Y-108729377D01*
X224224855Y-109082930D01*
X221810040Y-108435883D01*
X220219050Y-105680207D01*
X217562754Y-104968454D01*
X217209201Y-104356082D01*
X217985658Y-101458305D01*
X218598030Y-101104751D01*
X221254326Y-101816504D01*
G37*
X221254326Y-101816504D02*
X222845317Y-104572179D01*
X225260131Y-105219227D01*
X225613684Y-105831600D01*
X224837227Y-108729377D01*
X224224855Y-109082930D01*
X221810040Y-108435883D01*
X220219050Y-105680207D01*
X217562754Y-104968454D01*
X217209201Y-104356082D01*
X217985658Y-101458305D01*
X218598030Y-101104751D01*
X221254326Y-101816504D01*
%TO.C,SW12*%
G36*
X177868000Y-86324000D02*
G01*
X180368000Y-86324000D01*
X180868000Y-86824000D01*
X180868000Y-89824000D01*
X180368000Y-90324000D01*
X177868000Y-90324000D01*
X175618000Y-88074000D01*
X172868000Y-88074000D01*
X172368000Y-87574000D01*
X172368000Y-84574000D01*
X172868000Y-84074000D01*
X175618000Y-84074000D01*
X177868000Y-86324000D01*
G37*
X177868000Y-86324000D02*
X180368000Y-86324000D01*
X180868000Y-86824000D01*
X180868000Y-89824000D01*
X180368000Y-90324000D01*
X177868000Y-90324000D01*
X175618000Y-88074000D01*
X172868000Y-88074000D01*
X172368000Y-87574000D01*
X172368000Y-84574000D01*
X172868000Y-84074000D01*
X175618000Y-84074000D01*
X177868000Y-86324000D01*
D11*
%TO.C,BatGND1*%
X255220000Y-48930000D02*
X255220000Y-46930000D01*
X255220000Y-46930000D02*
X257220000Y-46930000D01*
X257220000Y-48930000D02*
X255220000Y-48930000D01*
X257220000Y-46930000D02*
X257220000Y-48930000D01*
D16*
%TO.C,e*%
X205489615Y-67967864D02*
G75*
G03*
X206618000Y-68027000I1128379J10735785D01*
G01*
X225904134Y-64240048D02*
G75*
G03*
X226938000Y-60089500I-19286134J7008048D01*
G01*
X203760500Y-36911999D02*
G75*
G03*
X199609954Y-37945865I2857500J-20320001D01*
G01*
X206618000Y-68027001D02*
G75*
G03*
X207746385Y-67967864I0J10794901D01*
G01*
X209475500Y-77552000D02*
G75*
G03*
X213626045Y-76518135I-2857506J20320019D01*
G01*
X206618000Y-46437000D02*
G75*
G03*
X205489615Y-46496136I-6J-10794921D01*
G01*
X199609955Y-76518135D02*
G75*
G03*
X203760500Y-77552000I7008045J19286135D01*
G01*
X226938000Y-54374500D02*
G75*
G03*
X225904134Y-50223952I-20320000J-2857500D01*
G01*
X213626049Y-37945867D02*
G75*
G03*
X209475500Y-36912000I-7008049J-19286133D01*
G01*
X187331865Y-50223956D02*
G75*
G03*
X186298000Y-54374500I19286255J-7008074D01*
G01*
X186297999Y-60089500D02*
G75*
G03*
X187331865Y-64240046I20320001J2857500D01*
G01*
X207746385Y-46496137D02*
G75*
G03*
X206618000Y-46437000I-1128385J-10735763D01*
G01*
D10*
X208818000Y-76282000D02*
G75*
G03*
X208818000Y-76282000I-2200000J0D01*
G01*
X227868000Y-57232000D02*
G75*
G03*
X227868000Y-57232000I-2200000J0D01*
G01*
X208818000Y-38182000D02*
G75*
G03*
X208818000Y-38182000I-2200000J0D01*
G01*
X189768000Y-57232000D02*
G75*
G03*
X189768000Y-57232000I-2200000J0D01*
G01*
G36*
X208698952Y-72458356D02*
G01*
X208608108Y-72366080D01*
X208594327Y-72352084D01*
X208562466Y-72319731D01*
X208516519Y-72273077D01*
X208457703Y-72213359D01*
X208387236Y-72141814D01*
X208306337Y-72059677D01*
X208216222Y-71968184D01*
X208118110Y-71868573D01*
X208013218Y-71762080D01*
X207902764Y-71649940D01*
X207787965Y-71533391D01*
X207670040Y-71413668D01*
X206822816Y-70553531D01*
X207111184Y-70550438D01*
X207399552Y-70547344D01*
X208202498Y-71350044D01*
X208202498Y-69716486D01*
X208698952Y-69716486D01*
X208698952Y-72458356D01*
G37*
D17*
X208698952Y-72458356D02*
X208608108Y-72366080D01*
X208594327Y-72352084D01*
X208562466Y-72319731D01*
X208516519Y-72273077D01*
X208457703Y-72213359D01*
X208387236Y-72141814D01*
X208306337Y-72059677D01*
X208216222Y-71968184D01*
X208118110Y-71868573D01*
X208013218Y-71762080D01*
X207902764Y-71649940D01*
X207787965Y-71533391D01*
X207670040Y-71413668D01*
X206822816Y-70553531D01*
X207111184Y-70550438D01*
X207399552Y-70547344D01*
X208202498Y-71350044D01*
X208202498Y-69716486D01*
X208698952Y-69716486D01*
X208698952Y-72458356D01*
G36*
X206495717Y-71662364D02*
G01*
X206493104Y-71690759D01*
X206484235Y-71737209D01*
X206446682Y-71864369D01*
X206391516Y-71990232D01*
X206321824Y-72108414D01*
X206240693Y-72212534D01*
X206232299Y-72221700D01*
X206123987Y-72322026D01*
X206001567Y-72406023D01*
X205868394Y-72472002D01*
X205727826Y-72518277D01*
X205583218Y-72543158D01*
X205482972Y-72547641D01*
X205334551Y-72536242D01*
X205191132Y-72503989D01*
X205054896Y-72451966D01*
X204928021Y-72381252D01*
X204812688Y-72292930D01*
X204711075Y-72188081D01*
X204625363Y-72067788D01*
X204568108Y-71960869D01*
X204514963Y-71821633D01*
X204483607Y-71677069D01*
X204477103Y-71580705D01*
X204972342Y-71580705D01*
X204972624Y-71585995D01*
X204976942Y-71641298D01*
X204984299Y-71683590D01*
X204996944Y-71722198D01*
X205017125Y-71766444D01*
X205038613Y-71804771D01*
X205080098Y-71863565D01*
X205128155Y-71919021D01*
X205177478Y-71965215D01*
X205222764Y-71996219D01*
X205238931Y-72003995D01*
X205279836Y-72021355D01*
X205322833Y-72037441D01*
X205395660Y-72056729D01*
X205499361Y-72065250D01*
X205600902Y-72052456D01*
X205697688Y-72019324D01*
X205787120Y-71966831D01*
X205866601Y-71895954D01*
X205933535Y-71807671D01*
X205962189Y-71753526D01*
X205992621Y-71659507D01*
X206003193Y-71561958D01*
X205994887Y-71464010D01*
X205968685Y-71368797D01*
X205925572Y-71279450D01*
X205866529Y-71199104D01*
X205792539Y-71130890D01*
X205704587Y-71077941D01*
X205690584Y-71071655D01*
X205592238Y-71041030D01*
X205490886Y-71030848D01*
X205389982Y-71040168D01*
X205292983Y-71068046D01*
X205203347Y-71113542D01*
X205124530Y-71175712D01*
X205059988Y-71253616D01*
X205042218Y-71282145D01*
X204998566Y-71375568D01*
X204975710Y-71473460D01*
X204972342Y-71580705D01*
X204477103Y-71580705D01*
X204473316Y-71524591D01*
X204476877Y-71434921D01*
X204499558Y-71284642D01*
X204542310Y-71142673D01*
X204604120Y-71010688D01*
X204683978Y-70890363D01*
X204780872Y-70783374D01*
X204893792Y-70691394D01*
X205021725Y-70616101D01*
X205091576Y-70583462D01*
X205166714Y-70554245D01*
X205238366Y-70534753D01*
X205314849Y-70522816D01*
X205404484Y-70516264D01*
X205422296Y-70515596D01*
X205561497Y-70522034D01*
X205691880Y-70549710D01*
X205814096Y-70598814D01*
X205928793Y-70669536D01*
X205952927Y-70686738D01*
X205977773Y-70703081D01*
X205990204Y-70709395D01*
X205991112Y-70705365D01*
X205992561Y-70681558D01*
X205993888Y-70638435D01*
X205995057Y-70578360D01*
X205996033Y-70503698D01*
X205996783Y-70416812D01*
X205997272Y-70320067D01*
X205997464Y-70215827D01*
X205997612Y-69722259D01*
X206505316Y-70232285D01*
X206505229Y-70923999D01*
X206505226Y-70935735D01*
X206504965Y-71086209D01*
X206504301Y-71223481D01*
X206503257Y-71346137D01*
X206501854Y-71452766D01*
X206500115Y-71541955D01*
X206499531Y-71561958D01*
X206498062Y-71612292D01*
X206495717Y-71662364D01*
G37*
X206495717Y-71662364D02*
X206493104Y-71690759D01*
X206484235Y-71737209D01*
X206446682Y-71864369D01*
X206391516Y-71990232D01*
X206321824Y-72108414D01*
X206240693Y-72212534D01*
X206232299Y-72221700D01*
X206123987Y-72322026D01*
X206001567Y-72406023D01*
X205868394Y-72472002D01*
X205727826Y-72518277D01*
X205583218Y-72543158D01*
X205482972Y-72547641D01*
X205334551Y-72536242D01*
X205191132Y-72503989D01*
X205054896Y-72451966D01*
X204928021Y-72381252D01*
X204812688Y-72292930D01*
X204711075Y-72188081D01*
X204625363Y-72067788D01*
X204568108Y-71960869D01*
X204514963Y-71821633D01*
X204483607Y-71677069D01*
X204477103Y-71580705D01*
X204972342Y-71580705D01*
X204972624Y-71585995D01*
X204976942Y-71641298D01*
X204984299Y-71683590D01*
X204996944Y-71722198D01*
X205017125Y-71766444D01*
X205038613Y-71804771D01*
X205080098Y-71863565D01*
X205128155Y-71919021D01*
X205177478Y-71965215D01*
X205222764Y-71996219D01*
X205238931Y-72003995D01*
X205279836Y-72021355D01*
X205322833Y-72037441D01*
X205395660Y-72056729D01*
X205499361Y-72065250D01*
X205600902Y-72052456D01*
X205697688Y-72019324D01*
X205787120Y-71966831D01*
X205866601Y-71895954D01*
X205933535Y-71807671D01*
X205962189Y-71753526D01*
X205992621Y-71659507D01*
X206003193Y-71561958D01*
X205994887Y-71464010D01*
X205968685Y-71368797D01*
X205925572Y-71279450D01*
X205866529Y-71199104D01*
X205792539Y-71130890D01*
X205704587Y-71077941D01*
X205690584Y-71071655D01*
X205592238Y-71041030D01*
X205490886Y-71030848D01*
X205389982Y-71040168D01*
X205292983Y-71068046D01*
X205203347Y-71113542D01*
X205124530Y-71175712D01*
X205059988Y-71253616D01*
X205042218Y-71282145D01*
X204998566Y-71375568D01*
X204975710Y-71473460D01*
X204972342Y-71580705D01*
X204477103Y-71580705D01*
X204473316Y-71524591D01*
X204476877Y-71434921D01*
X204499558Y-71284642D01*
X204542310Y-71142673D01*
X204604120Y-71010688D01*
X204683978Y-70890363D01*
X204780872Y-70783374D01*
X204893792Y-70691394D01*
X205021725Y-70616101D01*
X205091576Y-70583462D01*
X205166714Y-70554245D01*
X205238366Y-70534753D01*
X205314849Y-70522816D01*
X205404484Y-70516264D01*
X205422296Y-70515596D01*
X205561497Y-70522034D01*
X205691880Y-70549710D01*
X205814096Y-70598814D01*
X205928793Y-70669536D01*
X205952927Y-70686738D01*
X205977773Y-70703081D01*
X205990204Y-70709395D01*
X205991112Y-70705365D01*
X205992561Y-70681558D01*
X205993888Y-70638435D01*
X205995057Y-70578360D01*
X205996033Y-70503698D01*
X205996783Y-70416812D01*
X205997272Y-70320067D01*
X205997464Y-70215827D01*
X205997612Y-69722259D01*
X206505316Y-70232285D01*
X206505229Y-70923999D01*
X206505226Y-70935735D01*
X206504965Y-71086209D01*
X206504301Y-71223481D01*
X206503257Y-71346137D01*
X206501854Y-71452766D01*
X206500115Y-71541955D01*
X206499531Y-71561958D01*
X206498062Y-71612292D01*
X206495717Y-71662364D01*
G36*
X207405184Y-71748669D02*
G01*
X207417413Y-71758717D01*
X207442895Y-71782337D01*
X207479042Y-71817050D01*
X207523266Y-71860375D01*
X207572979Y-71909830D01*
X207734014Y-72071174D01*
X207700132Y-72108989D01*
X207696955Y-72112481D01*
X207675087Y-72135690D01*
X207640741Y-72171436D01*
X207596925Y-72216616D01*
X207546642Y-72268129D01*
X207492900Y-72322872D01*
X207319550Y-72498941D01*
X206699536Y-72498941D01*
X206727837Y-72465306D01*
X206730130Y-72462615D01*
X206750798Y-72439386D01*
X206783556Y-72403546D01*
X206826416Y-72357201D01*
X206877388Y-72302458D01*
X206934484Y-72241423D01*
X206995714Y-72176204D01*
X207059089Y-72108906D01*
X207122622Y-72041636D01*
X207184321Y-71976501D01*
X207242200Y-71915607D01*
X207294267Y-71861061D01*
X207338536Y-71814969D01*
X207373015Y-71779438D01*
X207395718Y-71756575D01*
X207404653Y-71748486D01*
X207405184Y-71748669D01*
G37*
X207405184Y-71748669D02*
X207417413Y-71758717D01*
X207442895Y-71782337D01*
X207479042Y-71817050D01*
X207523266Y-71860375D01*
X207572979Y-71909830D01*
X207734014Y-72071174D01*
X207700132Y-72108989D01*
X207696955Y-72112481D01*
X207675087Y-72135690D01*
X207640741Y-72171436D01*
X207596925Y-72216616D01*
X207546642Y-72268129D01*
X207492900Y-72322872D01*
X207319550Y-72498941D01*
X206699536Y-72498941D01*
X206727837Y-72465306D01*
X206730130Y-72462615D01*
X206750798Y-72439386D01*
X206783556Y-72403546D01*
X206826416Y-72357201D01*
X206877388Y-72302458D01*
X206934484Y-72241423D01*
X206995714Y-72176204D01*
X207059089Y-72108906D01*
X207122622Y-72041636D01*
X207184321Y-71976501D01*
X207242200Y-71915607D01*
X207294267Y-71861061D01*
X207338536Y-71814969D01*
X207373015Y-71779438D01*
X207395718Y-71756575D01*
X207404653Y-71748486D01*
X207405184Y-71748669D01*
%TO.C,SW9_r1*%
G36*
X86712000Y-67782000D02*
G01*
X89212000Y-67782000D01*
X89712000Y-68282000D01*
X89712000Y-71282000D01*
X89212000Y-71782000D01*
X86712000Y-71782000D01*
X84462000Y-69532000D01*
X81712000Y-69532000D01*
X81212000Y-69032000D01*
X81212000Y-66032000D01*
X81712000Y-65532000D01*
X84462000Y-65532000D01*
X86712000Y-67782000D01*
G37*
D10*
X86712000Y-67782000D02*
X89212000Y-67782000D01*
X89712000Y-68282000D01*
X89712000Y-71282000D01*
X89212000Y-71782000D01*
X86712000Y-71782000D01*
X84462000Y-69532000D01*
X81712000Y-69532000D01*
X81212000Y-69032000D01*
X81212000Y-66032000D01*
X81712000Y-65532000D01*
X84462000Y-65532000D01*
X86712000Y-67782000D01*
%TO.C,SW12_r1*%
G36*
X122726000Y-86324000D02*
G01*
X125226000Y-86324000D01*
X125726000Y-86824000D01*
X125726000Y-89824000D01*
X125226000Y-90324000D01*
X122726000Y-90324000D01*
X120476000Y-88074000D01*
X117726000Y-88074000D01*
X117226000Y-87574000D01*
X117226000Y-84574000D01*
X117726000Y-84074000D01*
X120476000Y-84074000D01*
X122726000Y-86324000D01*
G37*
X122726000Y-86324000D02*
X125226000Y-86324000D01*
X125726000Y-86824000D01*
X125726000Y-89824000D01*
X125226000Y-90324000D01*
X122726000Y-90324000D01*
X120476000Y-88074000D01*
X117726000Y-88074000D01*
X117226000Y-87574000D01*
X117226000Y-84574000D01*
X117726000Y-84074000D01*
X120476000Y-84074000D01*
X122726000Y-86324000D01*
%TO.C,SW14_r1*%
G36*
X86712000Y-84800000D02*
G01*
X89212000Y-84800000D01*
X89712000Y-85300000D01*
X89712000Y-88300000D01*
X89212000Y-88800000D01*
X86712000Y-88800000D01*
X84462000Y-86550000D01*
X81712000Y-86550000D01*
X81212000Y-86050000D01*
X81212000Y-83050000D01*
X81712000Y-82550000D01*
X84462000Y-82550000D01*
X86712000Y-84800000D01*
G37*
X86712000Y-84800000D02*
X89212000Y-84800000D01*
X89712000Y-85300000D01*
X89712000Y-88300000D01*
X89212000Y-88800000D01*
X86712000Y-88800000D01*
X84462000Y-86550000D01*
X81712000Y-86550000D01*
X81212000Y-86050000D01*
X81212000Y-83050000D01*
X81712000Y-82550000D01*
X84462000Y-82550000D01*
X86712000Y-84800000D01*
D11*
%TO.C,BatGNDr1*%
X56510000Y-49010000D02*
X56510000Y-47010000D01*
X58510000Y-47010000D02*
X58510000Y-49010000D01*
X56510000Y-47010000D02*
X58510000Y-47010000D01*
X58510000Y-49010000D02*
X56510000Y-49010000D01*
%TO.C,SW2_r1*%
G36*
X122726000Y-52332000D02*
G01*
X125226000Y-52332000D01*
X125726000Y-52832000D01*
X125726000Y-55832000D01*
X125226000Y-56332000D01*
X122726000Y-56332000D01*
X120476000Y-54082000D01*
X117726000Y-54082000D01*
X117226000Y-53582000D01*
X117226000Y-50582000D01*
X117726000Y-50082000D01*
X120476000Y-50082000D01*
X122726000Y-52332000D01*
G37*
D10*
X122726000Y-52332000D02*
X125226000Y-52332000D01*
X125726000Y-52832000D01*
X125726000Y-55832000D01*
X125226000Y-56332000D01*
X122726000Y-56332000D01*
X120476000Y-54082000D01*
X117726000Y-54082000D01*
X117226000Y-53582000D01*
X117226000Y-50582000D01*
X117726000Y-50082000D01*
X120476000Y-50082000D01*
X122726000Y-52332000D01*
%TO.C,SW7_r1*%
G36*
X122726000Y-69306000D02*
G01*
X125226000Y-69306000D01*
X125726000Y-69806000D01*
X125726000Y-72806000D01*
X125226000Y-73306000D01*
X122726000Y-73306000D01*
X120476000Y-71056000D01*
X117726000Y-71056000D01*
X117226000Y-70556000D01*
X117226000Y-67556000D01*
X117726000Y-67056000D01*
X120476000Y-67056000D01*
X122726000Y-69306000D01*
G37*
X122726000Y-69306000D02*
X125226000Y-69306000D01*
X125726000Y-69806000D01*
X125726000Y-72806000D01*
X125226000Y-73306000D01*
X122726000Y-73306000D01*
X120476000Y-71056000D01*
X117726000Y-71056000D01*
X117226000Y-70556000D01*
X117226000Y-67556000D01*
X117726000Y-67056000D01*
X120476000Y-67056000D01*
X122726000Y-69306000D01*
D11*
%TO.C,Bat+1*%
X244090000Y-46950000D02*
X246090000Y-46950000D01*
X246090000Y-48950000D02*
X244090000Y-48950000D01*
X244090000Y-48950000D02*
X244090000Y-46950000D01*
X246090000Y-46950000D02*
X246090000Y-48950000D01*
%TO.C,SW10_r1*%
G36*
X73448000Y-60572000D02*
G01*
X76198000Y-60572000D01*
X76698000Y-61072000D01*
X76698000Y-64072000D01*
X76198000Y-64572000D01*
X73448000Y-64572000D01*
X71198000Y-62322000D01*
X68698000Y-62322000D01*
X68198000Y-61822000D01*
X68198000Y-58822000D01*
X68698000Y-58322000D01*
X71198000Y-58322000D01*
X73448000Y-60572000D01*
G37*
D10*
X73448000Y-60572000D02*
X76198000Y-60572000D01*
X76698000Y-61072000D01*
X76698000Y-64072000D01*
X76198000Y-64572000D01*
X73448000Y-64572000D01*
X71198000Y-62322000D01*
X68698000Y-62322000D01*
X68198000Y-61822000D01*
X68198000Y-58822000D01*
X68698000Y-58322000D01*
X71198000Y-58322000D01*
X73448000Y-60572000D01*
%TO.C,SW4*%
G36*
X213868000Y-50832000D02*
G01*
X216368000Y-50832000D01*
X216868000Y-51332000D01*
X216868000Y-54332000D01*
X216368000Y-54832000D01*
X213868000Y-54832000D01*
X211618000Y-52582000D01*
X208868000Y-52582000D01*
X208368000Y-52082000D01*
X208368000Y-49082000D01*
X208868000Y-48582000D01*
X211618000Y-48582000D01*
X213868000Y-50832000D01*
G37*
X213868000Y-50832000D02*
X216368000Y-50832000D01*
X216868000Y-51332000D01*
X216868000Y-54332000D01*
X216368000Y-54832000D01*
X213868000Y-54832000D01*
X211618000Y-52582000D01*
X208868000Y-52582000D01*
X208368000Y-52082000D01*
X208368000Y-49082000D01*
X208868000Y-48582000D01*
X211618000Y-48582000D01*
X213868000Y-50832000D01*
%TO.C,SW10*%
G36*
X231848000Y-70322000D02*
G01*
X234348000Y-70322000D01*
X234848000Y-70822000D01*
X234848000Y-73822000D01*
X234348000Y-74322000D01*
X231848000Y-74322000D01*
X229598000Y-72072000D01*
X226848000Y-72072000D01*
X226348000Y-71572000D01*
X226348000Y-68572000D01*
X226848000Y-68072000D01*
X229598000Y-68072000D01*
X231848000Y-70322000D01*
G37*
X231848000Y-70322000D02*
X234348000Y-70322000D01*
X234848000Y-70822000D01*
X234848000Y-73822000D01*
X234348000Y-74322000D01*
X231848000Y-74322000D01*
X229598000Y-72072000D01*
X226848000Y-72072000D01*
X226348000Y-71572000D01*
X226348000Y-68572000D01*
X226848000Y-68072000D01*
X229598000Y-68072000D01*
X231848000Y-70322000D01*
%TO.C,SW9*%
G36*
X213868000Y-67782000D02*
G01*
X216368000Y-67782000D01*
X216868000Y-68282000D01*
X216868000Y-71282000D01*
X216368000Y-71782000D01*
X213868000Y-71782000D01*
X211618000Y-69532000D01*
X208868000Y-69532000D01*
X208368000Y-69032000D01*
X208368000Y-66032000D01*
X208868000Y-65532000D01*
X211618000Y-65532000D01*
X213868000Y-67782000D01*
G37*
X213868000Y-67782000D02*
X216368000Y-67782000D01*
X216868000Y-68282000D01*
X216868000Y-71282000D01*
X216368000Y-71782000D01*
X213868000Y-71782000D01*
X211618000Y-69532000D01*
X208868000Y-69532000D01*
X208368000Y-69032000D01*
X208368000Y-66032000D01*
X208868000Y-65532000D01*
X211618000Y-65532000D01*
X213868000Y-67782000D01*
%TO.C,SW2*%
G36*
X177868000Y-52332000D02*
G01*
X180368000Y-52332000D01*
X180868000Y-52832000D01*
X180868000Y-55832000D01*
X180368000Y-56332000D01*
X177868000Y-56332000D01*
X175618000Y-54082000D01*
X172868000Y-54082000D01*
X172368000Y-53582000D01*
X172368000Y-50582000D01*
X172868000Y-50082000D01*
X175618000Y-50082000D01*
X177868000Y-52332000D01*
G37*
X177868000Y-52332000D02*
X180368000Y-52332000D01*
X180868000Y-52832000D01*
X180868000Y-55832000D01*
X180368000Y-56332000D01*
X177868000Y-56332000D01*
X175618000Y-54082000D01*
X172868000Y-54082000D01*
X172368000Y-53582000D01*
X172368000Y-50582000D01*
X172868000Y-50082000D01*
X175618000Y-50082000D01*
X177868000Y-52332000D01*
%TO.C,SW17*%
G36*
X239741911Y-108797544D02*
G01*
X240565468Y-111871102D01*
X242730532Y-113121102D01*
X242913544Y-113804114D01*
X241413544Y-116402191D01*
X240730532Y-116585203D01*
X238565468Y-115335203D01*
X237741911Y-112261646D01*
X235360341Y-110886646D01*
X235177329Y-110203633D01*
X236677329Y-107605557D01*
X237360341Y-107422544D01*
X239741911Y-108797544D01*
G37*
X239741911Y-108797544D02*
X240565468Y-111871102D01*
X242730532Y-113121102D01*
X242913544Y-113804114D01*
X241413544Y-116402191D01*
X240730532Y-116585203D01*
X238565468Y-115335203D01*
X237741911Y-112261646D01*
X235360341Y-110886646D01*
X235177329Y-110203633D01*
X236677329Y-107605557D01*
X237360341Y-107422544D01*
X239741911Y-108797544D01*
%TO.C,SW17_r1*%
G36*
X62700671Y-101110367D02*
G01*
X64200671Y-103708443D01*
X64017659Y-104391456D01*
X61636089Y-105766456D01*
X58562532Y-104942898D01*
X56397468Y-106192898D01*
X55714456Y-106009886D01*
X54214456Y-103411809D01*
X54397468Y-102728797D01*
X56562532Y-101478797D01*
X59636089Y-102302354D01*
X62017659Y-100927354D01*
X62700671Y-101110367D01*
G37*
X62700671Y-101110367D02*
X64200671Y-103708443D01*
X64017659Y-104391456D01*
X61636089Y-105766456D01*
X58562532Y-104942898D01*
X56397468Y-106192898D01*
X55714456Y-106009886D01*
X54214456Y-103411809D01*
X54397468Y-102728797D01*
X56562532Y-101478797D01*
X59636089Y-102302354D01*
X62017659Y-100927354D01*
X62700671Y-101110367D01*
%TO.C,SW1_r1*%
G36*
X140744000Y-64332000D02*
G01*
X143244000Y-64332000D01*
X143744000Y-64832000D01*
X143744000Y-67832000D01*
X143244000Y-68332000D01*
X140744000Y-68332000D01*
X138494000Y-66082000D01*
X135744000Y-66082000D01*
X135244000Y-65582000D01*
X135244000Y-62582000D01*
X135744000Y-62082000D01*
X138494000Y-62082000D01*
X140744000Y-64332000D01*
G37*
X140744000Y-64332000D02*
X143244000Y-64332000D01*
X143744000Y-64832000D01*
X143744000Y-67832000D01*
X143244000Y-68332000D01*
X140744000Y-68332000D01*
X138494000Y-66082000D01*
X135744000Y-66082000D01*
X135244000Y-65582000D01*
X135244000Y-62582000D01*
X135744000Y-62082000D01*
X138494000Y-62082000D01*
X140744000Y-64332000D01*
%TO.C,SW6*%
G36*
X164618000Y-71582000D02*
G01*
X167368000Y-71582000D01*
X167868000Y-72082000D01*
X167868000Y-75082000D01*
X167368000Y-75582000D01*
X164618000Y-75582000D01*
X162368000Y-73332000D01*
X159868000Y-73332000D01*
X159368000Y-72832000D01*
X159368000Y-69832000D01*
X159868000Y-69332000D01*
X162368000Y-69332000D01*
X164618000Y-71582000D01*
G37*
X164618000Y-71582000D02*
X167368000Y-71582000D01*
X167868000Y-72082000D01*
X167868000Y-75082000D01*
X167368000Y-75582000D01*
X164618000Y-75582000D01*
X162368000Y-73332000D01*
X159868000Y-73332000D01*
X159368000Y-72832000D01*
X159368000Y-69832000D01*
X159868000Y-69332000D01*
X162368000Y-69332000D01*
X164618000Y-71582000D01*
%TO.C,SW14*%
G36*
X213868000Y-84800000D02*
G01*
X216368000Y-84800000D01*
X216868000Y-85300000D01*
X216868000Y-88300000D01*
X216368000Y-88800000D01*
X213868000Y-88800000D01*
X211618000Y-86550000D01*
X208868000Y-86550000D01*
X208368000Y-86050000D01*
X208368000Y-83050000D01*
X208868000Y-82550000D01*
X211618000Y-82550000D01*
X213868000Y-84800000D01*
G37*
X213868000Y-84800000D02*
X216368000Y-84800000D01*
X216868000Y-85300000D01*
X216868000Y-88300000D01*
X216368000Y-88800000D01*
X213868000Y-88800000D01*
X211618000Y-86550000D01*
X208868000Y-86550000D01*
X208368000Y-86050000D01*
X208368000Y-83050000D01*
X208868000Y-82550000D01*
X211618000Y-82550000D01*
X213868000Y-84800000D01*
%TO.C,SW15*%
G36*
X231848000Y-87340000D02*
G01*
X234348000Y-87340000D01*
X234848000Y-87840000D01*
X234848000Y-90840000D01*
X234348000Y-91340000D01*
X231848000Y-91340000D01*
X229598000Y-89090000D01*
X226848000Y-89090000D01*
X226348000Y-88590000D01*
X226348000Y-85590000D01*
X226848000Y-85090000D01*
X229598000Y-85090000D01*
X231848000Y-87340000D01*
G37*
X231848000Y-87340000D02*
X234348000Y-87340000D01*
X234848000Y-87840000D01*
X234848000Y-90840000D01*
X234348000Y-91340000D01*
X231848000Y-91340000D01*
X229598000Y-89090000D01*
X226848000Y-89090000D01*
X226348000Y-88590000D01*
X226348000Y-85590000D01*
X226848000Y-85090000D01*
X229598000Y-85090000D01*
X231848000Y-87340000D01*
%TO.C,SW1*%
G36*
X164618000Y-54582000D02*
G01*
X167368000Y-54582000D01*
X167868000Y-55082000D01*
X167868000Y-58082000D01*
X167368000Y-58582000D01*
X164618000Y-58582000D01*
X162368000Y-56332000D01*
X159868000Y-56332000D01*
X159368000Y-55832000D01*
X159368000Y-52832000D01*
X159868000Y-52332000D01*
X162368000Y-52332000D01*
X164618000Y-54582000D01*
G37*
X164618000Y-54582000D02*
X167368000Y-54582000D01*
X167868000Y-55082000D01*
X167868000Y-58082000D01*
X167368000Y-58582000D01*
X164618000Y-58582000D01*
X162368000Y-56332000D01*
X159868000Y-56332000D01*
X159368000Y-55832000D01*
X159368000Y-52832000D01*
X159868000Y-52332000D01*
X162368000Y-52332000D01*
X164618000Y-54582000D01*
%TO.C,SW5_r1*%
G36*
X73448000Y-43582000D02*
G01*
X76198000Y-43582000D01*
X76698000Y-44082000D01*
X76698000Y-47082000D01*
X76198000Y-47582000D01*
X73448000Y-47582000D01*
X71198000Y-45332000D01*
X68698000Y-45332000D01*
X68198000Y-44832000D01*
X68198000Y-41832000D01*
X68698000Y-41332000D01*
X71198000Y-41332000D01*
X73448000Y-43582000D01*
G37*
X73448000Y-43582000D02*
X76198000Y-43582000D01*
X76698000Y-44082000D01*
X76698000Y-47082000D01*
X76198000Y-47582000D01*
X73448000Y-47582000D01*
X71198000Y-45332000D01*
X68698000Y-45332000D01*
X68198000Y-44832000D01*
X68198000Y-41832000D01*
X68698000Y-41332000D01*
X71198000Y-41332000D01*
X73448000Y-43582000D01*
%TO.C,SW8*%
G36*
X195868000Y-62448000D02*
G01*
X198368000Y-62448000D01*
X198868000Y-62948000D01*
X198868000Y-65948000D01*
X198368000Y-66448000D01*
X195868000Y-66448000D01*
X193618000Y-64198000D01*
X190868000Y-64198000D01*
X190368000Y-63698000D01*
X190368000Y-60698000D01*
X190868000Y-60198000D01*
X193618000Y-60198000D01*
X195868000Y-62448000D01*
G37*
X195868000Y-62448000D02*
X198368000Y-62448000D01*
X198868000Y-62948000D01*
X198868000Y-65948000D01*
X198368000Y-66448000D01*
X195868000Y-66448000D01*
X193618000Y-64198000D01*
X190868000Y-64198000D01*
X190368000Y-63698000D01*
X190368000Y-60698000D01*
X190868000Y-60198000D01*
X193618000Y-60198000D01*
X195868000Y-62448000D01*
%TO.C,SW7*%
G36*
X177868000Y-69306000D02*
G01*
X180368000Y-69306000D01*
X180868000Y-69806000D01*
X180868000Y-72806000D01*
X180368000Y-73306000D01*
X177868000Y-73306000D01*
X175618000Y-71056000D01*
X172868000Y-71056000D01*
X172368000Y-70556000D01*
X172368000Y-67556000D01*
X172868000Y-67056000D01*
X175618000Y-67056000D01*
X177868000Y-69306000D01*
G37*
X177868000Y-69306000D02*
X180368000Y-69306000D01*
X180868000Y-69806000D01*
X180868000Y-72806000D01*
X180368000Y-73306000D01*
X177868000Y-73306000D01*
X175618000Y-71056000D01*
X172868000Y-71056000D01*
X172368000Y-70556000D01*
X172368000Y-67556000D01*
X172868000Y-67056000D01*
X175618000Y-67056000D01*
X177868000Y-69306000D01*
%TO.C,SW13_r1*%
G36*
X104700000Y-79466000D02*
G01*
X107200000Y-79466000D01*
X107700000Y-79966000D01*
X107700000Y-82966000D01*
X107200000Y-83466000D01*
X104700000Y-83466000D01*
X102450000Y-81216000D01*
X99700000Y-81216000D01*
X99200000Y-80716000D01*
X99200000Y-77716000D01*
X99700000Y-77216000D01*
X102450000Y-77216000D01*
X104700000Y-79466000D01*
G37*
X104700000Y-79466000D02*
X107200000Y-79466000D01*
X107700000Y-79966000D01*
X107700000Y-82966000D01*
X107200000Y-83466000D01*
X104700000Y-83466000D01*
X102450000Y-81216000D01*
X99700000Y-81216000D01*
X99200000Y-80716000D01*
X99200000Y-77716000D01*
X99700000Y-77216000D01*
X102450000Y-77216000D01*
X104700000Y-79466000D01*
%TO.C,SW16_r1*%
G36*
X79932531Y-94572060D02*
G01*
X82588827Y-93860307D01*
X83201199Y-94213861D01*
X83977656Y-97111638D01*
X83624103Y-97724011D01*
X80967807Y-98435763D01*
X78212131Y-96844773D01*
X75797317Y-97491821D01*
X75184944Y-97138267D01*
X74408487Y-94240490D01*
X74762040Y-93628117D01*
X77176855Y-92981070D01*
X79932531Y-94572060D01*
G37*
X79932531Y-94572060D02*
X82588827Y-93860307D01*
X83201199Y-94213861D01*
X83977656Y-97111638D01*
X83624103Y-97724011D01*
X80967807Y-98435763D01*
X78212131Y-96844773D01*
X75797317Y-97491821D01*
X75184944Y-97138267D01*
X74408487Y-94240490D01*
X74762040Y-93628117D01*
X77176855Y-92981070D01*
X79932531Y-94572060D01*
%TO.C,SW5*%
G36*
X231868000Y-53332000D02*
G01*
X234368000Y-53332000D01*
X234868000Y-53832000D01*
X234868000Y-56832000D01*
X234368000Y-57332000D01*
X231868000Y-57332000D01*
X229618000Y-55082000D01*
X226868000Y-55082000D01*
X226368000Y-54582000D01*
X226368000Y-51582000D01*
X226868000Y-51082000D01*
X229618000Y-51082000D01*
X231868000Y-53332000D01*
G37*
X231868000Y-53332000D02*
X234368000Y-53332000D01*
X234868000Y-53832000D01*
X234868000Y-56832000D01*
X234368000Y-57332000D01*
X231868000Y-57332000D01*
X229618000Y-55082000D01*
X226868000Y-55082000D01*
X226368000Y-54582000D01*
X226368000Y-51582000D01*
X226868000Y-51082000D01*
X229618000Y-51082000D01*
X231868000Y-53332000D01*
%TO.C,SW4_r1*%
G36*
X86712000Y-50832000D02*
G01*
X89212000Y-50832000D01*
X89712000Y-51332000D01*
X89712000Y-54332000D01*
X89212000Y-54832000D01*
X86712000Y-54832000D01*
X84462000Y-52582000D01*
X81712000Y-52582000D01*
X81212000Y-52082000D01*
X81212000Y-49082000D01*
X81712000Y-48582000D01*
X84462000Y-48582000D01*
X86712000Y-50832000D01*
G37*
X86712000Y-50832000D02*
X89212000Y-50832000D01*
X89712000Y-51332000D01*
X89712000Y-54332000D01*
X89212000Y-54832000D01*
X86712000Y-54832000D01*
X84462000Y-52582000D01*
X81712000Y-52582000D01*
X81212000Y-52082000D01*
X81212000Y-49082000D01*
X81712000Y-48582000D01*
X84462000Y-48582000D01*
X86712000Y-50832000D01*
%TO.C,SW3*%
G36*
X195868000Y-45332000D02*
G01*
X198368000Y-45332000D01*
X198868000Y-45832000D01*
X198868000Y-48832000D01*
X198368000Y-49332000D01*
X195868000Y-49332000D01*
X193618000Y-47082000D01*
X190868000Y-47082000D01*
X190368000Y-46582000D01*
X190368000Y-43582000D01*
X190868000Y-43082000D01*
X193618000Y-43082000D01*
X195868000Y-45332000D01*
G37*
X195868000Y-45332000D02*
X198368000Y-45332000D01*
X198868000Y-45832000D01*
X198868000Y-48832000D01*
X198368000Y-49332000D01*
X195868000Y-49332000D01*
X193618000Y-47082000D01*
X190868000Y-47082000D01*
X190368000Y-46582000D01*
X190368000Y-43582000D01*
X190868000Y-43082000D01*
X193618000Y-43082000D01*
X195868000Y-45332000D01*
%TO.C,SW11*%
G36*
X164618000Y-88582000D02*
G01*
X167368000Y-88582000D01*
X167868000Y-89082000D01*
X167868000Y-92082000D01*
X167368000Y-92582000D01*
X164618000Y-92582000D01*
X162368000Y-90332000D01*
X159868000Y-90332000D01*
X159368000Y-89832000D01*
X159368000Y-86832000D01*
X159868000Y-86332000D01*
X162368000Y-86332000D01*
X164618000Y-88582000D01*
G37*
X164618000Y-88582000D02*
X167368000Y-88582000D01*
X167868000Y-89082000D01*
X167868000Y-92082000D01*
X167368000Y-92582000D01*
X164618000Y-92582000D01*
X162368000Y-90332000D01*
X159868000Y-90332000D01*
X159368000Y-89832000D01*
X159368000Y-86832000D01*
X159868000Y-86332000D01*
X162368000Y-86332000D01*
X164618000Y-88582000D01*
%TO.C,SW3_r1*%
G36*
X104700000Y-45332000D02*
G01*
X107200000Y-45332000D01*
X107700000Y-45832000D01*
X107700000Y-48832000D01*
X107200000Y-49332000D01*
X104700000Y-49332000D01*
X102450000Y-47082000D01*
X99700000Y-47082000D01*
X99200000Y-46582000D01*
X99200000Y-43582000D01*
X99700000Y-43082000D01*
X102450000Y-43082000D01*
X104700000Y-45332000D01*
G37*
X104700000Y-45332000D02*
X107200000Y-45332000D01*
X107700000Y-45832000D01*
X107700000Y-48832000D01*
X107200000Y-49332000D01*
X104700000Y-49332000D01*
X102450000Y-47082000D01*
X99700000Y-47082000D01*
X99200000Y-46582000D01*
X99200000Y-43582000D01*
X99700000Y-43082000D01*
X102450000Y-43082000D01*
X104700000Y-45332000D01*
%TO.C,SW13*%
G36*
X195868000Y-79466000D02*
G01*
X198368000Y-79466000D01*
X198868000Y-79966000D01*
X198868000Y-82966000D01*
X198368000Y-83466000D01*
X195868000Y-83466000D01*
X193618000Y-81216000D01*
X190868000Y-81216000D01*
X190368000Y-80716000D01*
X190368000Y-77716000D01*
X190868000Y-77216000D01*
X193618000Y-77216000D01*
X195868000Y-79466000D01*
G37*
X195868000Y-79466000D02*
X198368000Y-79466000D01*
X198868000Y-79966000D01*
X198868000Y-82966000D01*
X198368000Y-83466000D01*
X195868000Y-83466000D01*
X193618000Y-81216000D01*
X190868000Y-81216000D01*
X190368000Y-80716000D01*
X190368000Y-77716000D01*
X190868000Y-77216000D01*
X193618000Y-77216000D01*
X195868000Y-79466000D01*
%TO.C,SW15_r1*%
G36*
X73448000Y-77590000D02*
G01*
X76198000Y-77590000D01*
X76698000Y-78090000D01*
X76698000Y-81090000D01*
X76198000Y-81590000D01*
X73448000Y-81590000D01*
X71198000Y-79340000D01*
X68698000Y-79340000D01*
X68198000Y-78840000D01*
X68198000Y-75840000D01*
X68698000Y-75340000D01*
X71198000Y-75340000D01*
X73448000Y-77590000D01*
G37*
X73448000Y-77590000D02*
X76198000Y-77590000D01*
X76698000Y-78090000D01*
X76698000Y-81090000D01*
X76198000Y-81590000D01*
X73448000Y-81590000D01*
X71198000Y-79340000D01*
X68698000Y-79340000D01*
X68198000Y-78840000D01*
X68198000Y-75840000D01*
X68698000Y-75340000D01*
X71198000Y-75340000D01*
X73448000Y-77590000D01*
%TO.C,SW11_r1*%
G36*
X140744000Y-98332000D02*
G01*
X143244000Y-98332000D01*
X143744000Y-98832000D01*
X143744000Y-101832000D01*
X143244000Y-102332000D01*
X140744000Y-102332000D01*
X138494000Y-100082000D01*
X135744000Y-100082000D01*
X135244000Y-99582000D01*
X135244000Y-96582000D01*
X135744000Y-96082000D01*
X138494000Y-96082000D01*
X140744000Y-98332000D01*
G37*
X140744000Y-98332000D02*
X143244000Y-98332000D01*
X143744000Y-98832000D01*
X143744000Y-101832000D01*
X143244000Y-102332000D01*
X140744000Y-102332000D01*
X138494000Y-100082000D01*
X135744000Y-100082000D01*
X135244000Y-99582000D01*
X135244000Y-96582000D01*
X135744000Y-96082000D01*
X138494000Y-96082000D01*
X140744000Y-98332000D01*
D11*
%TO.C,Bat+r1*%
X47320000Y-49030000D02*
X45320000Y-49030000D01*
X45320000Y-49030000D02*
X45320000Y-47030000D01*
X45320000Y-47030000D02*
X47320000Y-47030000D01*
X47320000Y-47030000D02*
X47320000Y-49030000D01*
D10*
%TO.C,U1*%
X244350000Y-77140000D02*
X244350000Y-49200000D01*
X254637000Y-46660000D02*
X259717000Y-46660000D01*
X246763000Y-44120000D02*
X246763000Y-46660000D01*
X254637000Y-44120000D02*
X254637000Y-46660000D01*
X244350000Y-49200000D02*
X241680000Y-49200000D01*
X244350000Y-79680000D02*
X241683000Y-79680000D01*
X257050000Y-51740000D02*
X259720000Y-51740000D01*
X246763000Y-44120000D02*
X254637000Y-44120000D01*
X241683000Y-46660000D02*
X246763000Y-46660000D01*
X257050000Y-79680000D02*
X259720000Y-79680000D01*
X241683000Y-79680000D02*
X241683000Y-46660000D01*
X259717000Y-46660000D02*
X259720000Y-79680000D01*
X257050000Y-49200000D02*
X259720000Y-49200000D01*
X259717000Y-79680000D02*
X244350000Y-79680000D01*
X257050000Y-79680000D02*
X257050000Y-49200000D01*
X244350000Y-77140000D02*
X244350000Y-79680000D01*
%TD*%
M02*
