M48
; DRILL file {KiCad 7.0.10-7.0.10~ubuntu22.04.1} date Sat 24 Feb 2024 02:44:02 PM CST
; FORMAT={-:-/ absolute / inch / decimal}
; #@! TF.CreationDate,2024-02-24T14:44:02-06:00
; #@! TF.GenerationSoftware,Kicad,Pcbnew,7.0.10-7.0.10~ubuntu22.04.1
; #@! TF.FileFunction,Plated,1,2,PTH
FMAT,2
INCH
; #@! TA.AperFunction,Plated,PTH,ViaDrill
T1C0.0157
; #@! TA.AperFunction,Plated,PTH,ComponentDrill
T2C0.0295
; #@! TA.AperFunction,Plated,PTH,ComponentDrill
T3C0.0315
; #@! TA.AperFunction,Plated,PTH,ComponentDrill
T4C0.0320
; #@! TA.AperFunction,Plated,PTH,ComponentDrill
T5C0.0394
; #@! TA.AperFunction,Plated,PTH,ComponentDrill
T6C0.0472
%
G90
G05
T1
X1.0722Y-3.1008
X1.0927Y-3.0079
X1.1348Y-3.0536
X1.1722Y-2.9478
X1.1741Y-3.056
X1.179Y-2.909
X1.2382Y-3.1161
X1.2667Y-3.145
X1.2685Y-2.8138
X1.2851Y-2.9657
X1.4047Y-2.7469
X1.4059Y-2.7896
X1.4472Y-2.2616
X1.4495Y-2.8653
X1.4889Y-2.8644
X1.5291Y-2.8645
X1.5657Y-2.4224
X1.6319Y-3.4508
X1.7244Y-2.4228
X1.8587Y-2.1252
X1.9898Y-3.3114
X2.0241Y-3.0281
X2.0795Y-2.9661
X2.0858Y-1.9047
X2.1012Y-2.9333
X2.2922Y-2.1332
X2.2924Y-2.9728
X2.2933Y-2.2379
X2.3307Y-2.7469
X2.965Y-1.6219
X3.2752Y-2.8783
X3.2772Y-2.4366
X3.2772Y-3.0642
X3.2792Y-2.2654
X3.9854Y-2.2193
X3.9854Y-2.9508
X3.9858Y-1.9976
X3.9858Y-2.853
X4.515Y-1.42
X4.555Y-1.42
X4.695Y-3.35
X4.695Y-2.6913
X4.6957Y-2.5406
X4.7067Y-3.239
X4.715Y-1.42
X4.755Y-1.42
X4.795Y-1.42
X7.037Y-1.4248
X7.0772Y-1.4252
X7.2378Y-1.4268
X7.2493Y-3.006
X7.2496Y-3.1193
X7.25Y-2.2165
X7.25Y-2.4445
X7.2772Y-1.4276
X7.3185Y-1.4299
X7.9583Y-2.764
X7.9591Y-2.6715
X7.9598Y-2.1892
X7.9634Y-2.2945
X8.6646Y-2.849
X8.6665Y-2.9593
X8.6669Y-2.5866
X8.6701Y-2.4041
X9.3299Y-2.4134
X9.3728Y-3.2772
X9.3748Y-2.5843
X9.3748Y-3.0535
X9.5393Y-3.1558
X9.5878Y-3.1929
X9.615Y-2.4004
X9.6476Y-2.4236
X9.6787Y-2.6193
X9.7299Y-4.0295
X9.8303Y-4.0358
X9.8306Y-2.7156
X9.8326Y-2.6733
X9.887Y-2.5567
X9.898Y-3.2091
X9.9146Y-4.067
X9.9246Y-2.5341
X10.1224Y-2.8827
X10.1992Y-3.0055
X10.2028Y-3.4308
X10.213Y-2.598
X10.226Y-2.537
X10.2594Y-3.0258
X10.2718Y-2.7236
X10.2781Y-3.4308
X10.365Y-2.7283
X10.3669Y-3.1193
X10.3799Y-2.9339
X10.3803Y-3.0366
X10.3874Y-3.3118
X10.4085Y-2.8287
X10.4086Y-2.6863
X10.4831Y-2.9976
X10.4893Y-2.9509
X10.5296Y-2.9505
T2
X1.685Y-3.985
X1.7532Y-3.9457
X9.9145Y-3.9481
X9.9827Y-3.9875
T3
X1.3421Y-2.0697
X1.3421Y-2.1697
X1.3421Y-2.2697
X1.3421Y-2.3697
X1.3421Y-2.4697
X1.3421Y-2.5697
X1.3421Y-2.6697
X1.3421Y-2.7697
X1.3421Y-2.8697
X1.3421Y-2.9697
X1.3421Y-3.0697
X1.3421Y-3.1697
X1.9421Y-2.0697
X1.9421Y-2.1697
X1.9421Y-2.2697
X1.9421Y-2.3697
X1.9421Y-2.4697
X1.9421Y-2.5697
X1.9421Y-2.6697
X1.9421Y-2.7697
X1.9421Y-2.8697
X1.9421Y-2.9697
X1.9421Y-3.0697
X1.9421Y-3.1697
X9.7272Y-2.0713
X9.7272Y-2.1713
X9.7272Y-2.2713
X9.7272Y-2.3713
X9.7272Y-2.4713
X9.7272Y-2.5713
X9.7272Y-2.6713
X9.7272Y-2.7713
X9.7272Y-2.8713
X9.7272Y-2.9713
X9.7272Y-3.0713
X9.7272Y-3.1713
X10.3272Y-2.0713
X10.3272Y-2.1713
X10.3272Y-2.2713
X10.3272Y-2.3713
X10.3272Y-2.4713
X10.3272Y-2.5713
X10.3272Y-2.6713
X10.3272Y-2.7713
X10.3272Y-2.8713
X10.3272Y-2.9713
X10.3272Y-3.0713
X10.3272Y-3.1713
T4
X1.4252Y-1.9705
X1.8689Y-1.9697
X9.8Y-1.9721
X10.2381Y-1.9713
T5
X1.4287Y-3.3268
X1.5287Y-3.3268
X1.6287Y-3.3268
X1.7287Y-3.3268
X1.8287Y-3.3268
X9.8388Y-3.3268
X9.9388Y-3.3268
X10.0388Y-3.3268
X10.1388Y-3.3268
X10.2388Y-3.3268
T6
X1.965Y-3.4752
X1.965Y-3.7272
X9.7024Y-3.4764
X9.7024Y-3.7283
M30
