<?xml version="1.0" encoding="UTF-8" standalone="no"?>
<svg xmlns="http://www.w3.org/2000/svg" width="582.116943359375mm" height="748.1187133789062mm" viewBox="0 0 582.116943359375 748.1187133789062">
<desc>Created with Glowforge for Fusion 360. To download visit: https://cam.autodesk.com/hsmposts?p=glowforge</desc>
<!-- CAM Setup Info:
Work Area Width: 582.116943359375mm
Work Area Height: 748.1187133789062mm
Work Area Too Small?: false
Stock box Upper Right: 289.0584716796875,744.1187133789062
Stock box Lower Left: -289.0584716796875,0
Origin: 0,0
Selected Colors: #0000d3, #02abea, #1fb714, #dd0907, #f20884, #fbf305
-->
<g id="global-translation-frame" transform="translate(291.058, 746.119) scale(1, -1)">
<g id="opperation-1">
    <title>2D Profile4 (Op: 1/1)</title>
    <path d="M 284.531 272.847
             A 2.11 2.11 0 0 1 286.641 274.957
             A 2.11 2.11 0 0 1 284.531 277.067
             A 2.11 2.11 0 0 1 282.421 274.957
             A 2.11 2.11 0 0 1 284.531 272.847
             M 282.391 235.634
             A 1.846 1.846 0 0 1 281.498 234.054
             A 1.845 1.845 0 0 1 283.344 232.209
             A 1.845 1.845 0 0 1 285.189 234.054
             A 1.846 1.846 0 0 1 283.343 235.899
             A 1.846 1.846 0 0 1 282.391 235.634
             M 258.058 230.105
             A 1.75 1.75 0 0 1 258.862 231.577
             L 258.862 277.787
             A 0.25 0.25 0 0 0 258.835 277.873
             A 1.75 1.75 0 0 1 257.098 279.405
             L 245.098 279.405
             A 1.75 1.75 0 0 1 243.348 277.655
             L 243.348 268.947
             A 0.25 0.25 0 0 0 243.098 268.697
             A 0.25 0.25 0 0 0 243.053 268.701
             A 4.25 4.25 0 0 1 241.165 268.616
             A 0.25 0.25 0 0 0 240.857 268.79
             A 0.25 0.25 0 0 0 240.848 268.857
             L 240.848 280.155
             A 1.75 1.75 0 0 1 239.098 281.905
             L 227.098 281.905
             A 1.75 1.75 0 0 1 225.348 280.155
             L 225.348 234.187
             L 225.348 234.186
             A 1.75 1.75 0 0 1 225.348 234.175
             L 225.348 234.174
             L 225.348 234.117
             A 1.75 1.75 0 0 1 227.098 232.367
             L 239.098 232.367
             A 1.75 1.75 0 0 1 240.848 234.117
             L 240.848 246.117
             L 240.848 246.118
             A 1.75 1.75 0 0 1 240.848 246.128
             L 240.848 246.129
             L 240.848 251.122
             L 240.848 251.123
             A 1.75 1.75 0 0 1 240.848 251.134
             L 240.848 251.135
             L 240.848 260.18
             A 0.25 0.25 0 0 0 241.098 260.43
             A 0.25 0.25 0 0 0 241.164 260.421
             A 4.251 4.251 0 0 1 243.034 260.333
             A 0.25 0.25 0 0 0 243.324 260.131
             A 0.25 0.25 0 0 0 243.328 260.087
             L 243.328 260.015
             A 0.35 0.35 0 0 1 243.34 259.925
             A 0.25 0.25 0 0 0 243.348 259.861
             L 243.348 249.468
             A 0.25 0.25 0 0 0 243.34 249.404
             A 0.35 0.35 0 0 1 243.328 249.315
             L 243.328 248.665
             A 1.75 1.75 0 0 1 243.346 248.417
             A 0.25 0.25 0 0 0 243.348 248.382
             L 243.348 243.929
             A 0.25 0.25 0 0 0 243.346 243.894
             A 1.75 1.75 0 0 1 243.328 243.647
             L 243.328 242.997
             A 0.35 0.35 0 0 1 243.34 242.907
             A 0.25 0.25 0 0 0 243.348 242.843
             L 243.348 232.45
             A 0.25 0.25 0 0 0 243.34 232.386
             A 0.35 0.35 0 0 1 243.328 232.297
             L 243.328 231.647
             A 1.75 1.75 0 0 1 243.52 230.851
             L 243.524 230.842
             A 1.75 1.75 0 0 1 245.112 229.827
             L 257.112 229.827
             A 1.75 1.75 0 0 1 258.058 230.105
             M 244.109 227.699
             L 239.278 228.994
             A 1.75 1.75 0 0 1 237.135 227.756
             L 233.981 216.095
             A 1.75 1.75 0 0 1 235.219 213.951
             L 246.81 210.845
             A 1.75 1.75 0 0 1 248.714 211.558
             L 252.03 223.467
             L 252.139 223.883
             A 1.75 1.75 0 0 1 250.87 225.888
             L 244.109 227.699
             M 223.983 227.036
             A 3.75 3.75 0 0 1 218.889 225.564
             A 3.75 3.75 0 0 1 220.361 220.47
             A 3.75 3.75 0 0 1 225.455 221.942
             A 3.75 3.75 0 0 1 223.983 227.036
             M 207.348 240.016
             L 207.348 239.521
             A 1.75 1.75 0 0 1 209.098 237.771
             L 221.098 237.771
             A 1.75 1.75 0 0 1 222.848 239.521
             L 222.848 240.171
             A 0.35 0.35 0 0 1 222.842 240.238
             A 0.25 0.25 0 0 0 222.837 240.286
             L 222.837 250.755
             A 0.25 0.25 0 0 0 222.842 250.803
             A 0.35 0.35 0 0 1 222.848 250.87
             L 222.848 250.871
             L 222.848 251.521
             A 1.75 1.75 0 0 1 222.838 251.707
             A 0.25 0.25 0 0 0 222.837 251.733
             L 222.837 256.326
             A 0.25 0.25 0 0 0 222.838 256.352
             A 1.75 1.75 0 0 1 222.848 256.539
             L 222.848 257.189
             A 0.35 0.35 0 0 1 222.842 257.256
             A 0.25 0.25 0 0 0 222.837 257.304
             L 222.837 267.773
             A 0.25 0.25 0 0 0 222.842 267.821
             A 0.35 0.35 0 0 1 222.848 267.888
             L 222.848 267.889
             L 222.848 268.539
             A 1.75 1.75 0 0 1 222.838 268.725
             A 0.25 0.25 0 0 0 222.837 268.751
             L 222.837 273.442
             A 0.25 0.25 0 0 0 222.838 273.468
             A 1.75 1.75 0 0 1 222.848 273.655
             L 222.848 274.305
             A 0.35 0.35 0 0 1 222.842 274.372
             A 0.25 0.25 0 0 0 222.837 274.42
             L 222.837 284.889
             A 0.25 0.25 0 0 0 222.842 284.937
             A 0.35 0.35 0 0 1 222.848 285.004
             L 222.848 285.005
             L 222.848 285.655
             A 1.75 1.75 0 0 1 221.098 287.405
             L 209.098 287.405
             A 1.75 1.75 0 0 1 207.348 285.655
             L 207.348 240.016
             M 189.348 237.655
             L 189.348 232.663
             A 1.75 1.75 0 0 1 191.098 230.913
             L 203.098 230.913
             A 1.75 1.75 0 0 1 204.848 232.663
             L 204.848 278.655
             A 1.75 1.75 0 0 1 203.098 280.405
             L 191.098 280.405
             A 1.75 1.75 0 0 1 189.348 278.655
             L 189.348 237.655
             M 186.848 237.655
             L 186.848 266.655
             A 1.75 1.75 0 0 1 185.098 268.405
             L 173.098 268.405
             A 1.75 1.75 0 0 1 171.348 266.655
             L 171.348 220.655
             A 1.75 1.75 0 0 1 173.098 218.905
             L 185.098 218.905
             A 1.75 1.75 0 0 1 186.848 220.655
             L 186.848 237.655
             M 193.946 224.783
             L 193.794 224.691
             L 193.608 224.54
             L 193.444 224.366
             L 193.305 224.172
             L 193.194 223.96
             L 193.112 223.735
             L 193.062 223.501
             L 193.042 223.255
             L 193.042 215.264
             A 0.25 0.25 0 0 0 193.042 215.251
             L 193.027 214.954
             A 0.25 0.25 0 0 0 193.023 214.922
             L 192.971 214.635
             A 0.25 0.25 0 0 0 192.963 214.605
             L 192.875 214.327
             A 0.25 0.25 0 0 0 192.864 214.296
             L 192.741 214.032
             A 0.25 0.25 0 0 0 192.726 214.005
             L 192.571 213.758
             A 0.25 0.25 0 0 0 192.552 213.732
             L 192.366 213.507
             A 0.25 0.25 0 0 0 192.345 213.484
             L 192.133 213.284
             A 0.25 0.25 0 0 0 192.107 213.263
             L 191.87 213.092
             A 0.25 0.25 0 0 0 191.843 213.075
             L 191.587 212.936
             A 0.25 0.25 0 0 0 191.559 212.923
             L 191.287 212.817
             A 0.25 0.25 0 0 0 191.256 212.807
             L 190.973 212.737
             A 0.25 0.25 0 0 0 190.942 212.732
             L 190.653 212.698
             A 0.25 0.25 0 0 0 190.621 212.696
             L 190.329 212.699
             A 0.25 0.25 0 0 0 190.297 212.701
             L 190.024 212.74
             L 167.636 212.907
             A 0.25 0.25 0 0 0 167.618 212.908
             L 167.334 212.931
             A 0.25 0.25 0 0 0 167.299 212.936
             L 167.021 212.999
             A 0.25 0.25 0 0 0 166.987 213.009
             L 166.721 213.11
             A 0.25 0.25 0 0 0 166.689 213.125
             L 166.44 213.263
             A 0.25 0.25 0 0 0 166.409 213.283
             L 166.182 213.456
             A 0.25 0.25 0 0 0 166.157 213.479
             L 165.956 213.681
             A 0.25 0.25 0 0 0 165.932 213.709
             L 165.763 213.938
             A 0.25 0.25 0 0 0 165.744 213.967
             L 165.608 214.217
             A 0.25 0.25 0 0 0 165.593 214.249
             L 165.494 214.517
             A 0.25 0.25 0 0 0 165.485 214.551
             L 165.425 214.829
             A 0.25 0.25 0 0 0 165.42 214.864
             L 165.399 215.149
             A 0.25 0.25 0 0 0 165.398 215.167
             L 165.398 238.503
             L 165.38 238.657
             L 165.355 238.735
             A 0.25 0.25 0 0 0 165.343 238.812
             L 165.343 244.054
             A 0.25 0.25 0 0 0 165.353 244.124
             L 165.375 244.199
             L 165.388 244.357
             L 165.348 265.77
             L 165.345 265.792
             A 0.25 0.25 0 0 0 165.343 265.825
             L 165.343 271.561
             A 0.25 0.25 0 0 0 165.344 271.58
             L 165.348 271.636
             L 165.308 282.816
             A 0.25 0.25 0 0 0 165.309 282.839
             L 165.367 283.487
             A 0.25 0.25 0 0 0 165.369 283.502
             L 165.466 284.145
             A 0.25 0.25 0 0 0 165.468 284.16
             L 165.603 284.797
             A 0.25 0.25 0 0 0 165.607 284.811
             L 165.78 285.439
             A 0.25 0.25 0 0 0 165.784 285.453
             L 165.994 286.069
             A 0.25 0.25 0 0 0 166 286.083
             L 166.247 286.685
             A 0.25 0.25 0 0 0 166.253 286.699
             L 166.536 287.285
             A 0.25 0.25 0 0 0 166.543 287.298
             L 166.86 287.867
             A 0.25 0.25 0 0 0 166.867 287.88
             L 167.217 288.428
             A 0.25 0.25 0 0 0 167.226 288.44
             L 167.609 288.966
             A 0.25 0.25 0 0 0 167.618 288.978
             L 168.032 289.48
             A 0.25 0.25 0 0 0 168.042 289.491
             L 168.485 289.968
             A 0.25 0.25 0 0 0 168.495 289.979
             L 168.967 290.428
             A 0.25 0.25 0 0 0 168.977 290.438
             L 169.474 290.859
             A 0.25 0.25 0 0 0 169.486 290.868
             L 170.007 291.257
             A 0.25 0.25 0 0 0 170.019 291.266
             L 170.562 291.624
             A 0.25 0.25 0 0 0 170.575 291.632
             L 171.14 291.957
             A 0.25 0.25 0 0 0 171.154 291.964
             L 171.736 292.254
             A 0.25 0.25 0 0 0 171.749 292.26
             L 172.348 292.514
             A 0.25 0.25 0 0 0 172.362 292.519
             L 172.975 292.738
             A 0.25 0.25 0 0 0 172.989 292.743
             L 173.614 292.924
             A 0.25 0.25 0 0 0 173.629 292.928
             L 174.264 293.071
             A 0.25 0.25 0 0 0 174.279 293.074
             L 174.921 293.179
             A 0.25 0.25 0 0 0 174.935 293.181
             L 175.582 293.248
             A 0.25 0.25 0 0 0 175.597 293.249
             L 176.247 293.277
             A 0.25 0.25 0 0 0 176.258 293.277
             L 208.18 293.275
             L 222.147 293.285
             A 0.25 0.25 0 0 0 222.164 293.284
             L 222.45 293.264
             A 0.25 0.25 0 0 0 222.486 293.259
             L 222.766 293.198
             A 0.25 0.25 0 0 0 222.8 293.188
             L 223.069 293.088
             A 0.25 0.25 0 0 0 223.102 293.073
             L 223.354 292.935
             A 0.25 0.25 0 0 0 223.384 292.916
             L 223.613 292.744
             A 0.25 0.25 0 0 0 223.64 292.721
             L 223.843 292.518
             A 0.25 0.25 0 0 0 223.866 292.491
             L 224.038 292.262
             A 0.25 0.25 0 0 0 224.057 292.232
             L 224.195 291.98
             A 0.25 0.25 0 0 0 224.21 291.947
             L 224.31 291.679
             A 0.25 0.25 0 0 0 224.32 291.645
             L 224.381 291.364
             A 0.25 0.25 0 0 0 224.386 291.328
             L 224.406 291.042
             A 0.25 0.25 0 0 0 224.407 291.024
             L 224.4 289.516
             L 224.418 289.259
             L 224.471 289.015
             L 224.557 288.782
             L 224.676 288.563
             L 224.824 288.362
             L 225 288.185
             L 225.199 288.034
             L 225.417 287.913
             L 225.65 287.824
             L 225.893 287.769
             L 226.148 287.748
             L 240.187 287.735
             A 0.25 0.25 0 0 0 240.207 287.734
             L 240.49 287.711
             A 0.25 0.25 0 0 0 240.525 287.706
             L 240.802 287.644
             A 0.25 0.25 0 0 0 240.836 287.634
             L 241.102 287.533
             A 0.25 0.25 0 0 0 241.133 287.518
             L 241.382 287.382
             A 0.25 0.25 0 0 0 241.412 287.363
             L 241.639 287.192
             A 0.25 0.25 0 0 0 241.665 287.169
             L 241.866 286.969
             A 0.25 0.25 0 0 0 241.89 286.942
             L 242.061 286.715
             A 0.25 0.25 0 0 0 242.08 286.686
             L 242.217 286.438
             A 0.25 0.25 0 0 0 242.226 286.419
             L 242.33 286.187
             L 242.453 285.985
             L 242.603 285.803
             L 242.776 285.643
             L 242.97 285.507
             L 243.179 285.399
             L 243.402 285.32
             L 243.633 285.273
             L 243.877 285.257
             L 262.549 285.177
             A 0.25 0.25 0 0 0 262.566 285.176
             L 262.852 285.155
             A 0.25 0.25 0 0 0 262.887 285.15
             L 263.166 285.09
             A 0.25 0.25 0 0 0 263.2 285.08
             L 263.468 284.98
             A 0.25 0.25 0 0 0 263.501 284.965
             L 263.752 284.828
             A 0.25 0.25 0 0 0 263.781 284.81
             L 264.01 284.64
             A 0.25 0.25 0 0 0 264.037 284.616
             L 264.24 284.414
             A 0.25 0.25 0 0 0 264.264 284.388
             L 264.436 284.16
             A 0.25 0.25 0 0 0 264.455 284.129
             L 264.593 283.878
             A 0.25 0.25 0 0 0 264.608 283.846
             L 264.709 283.579
             A 0.25 0.25 0 0 0 264.719 283.545
             L 264.781 283.266
             A 0.25 0.25 0 0 0 264.786 283.23
             L 264.807 282.945
             A 0.25 0.25 0 0 0 264.808 282.927
             L 264.802 276.799
             A 2.25 2.25 0 0 0 262.552 274.551
             L 260.744 274.551
             L 260.744 224.731
             A 0.25 0.25 0 0 0 260.672 224.555
             L 256.022 219.858
             L 251.817 210.468
             L 251.813 210.46
             A 1.75 1.75 0 0 1 252.509 208.173
             L 262.902 202.173
             A 1.75 1.75 0 0 1 265.245 202.735
             L 272.344 215.043
             L 280.667 229.624
             A 0.25 0.25 0 0 0 280.686 229.653
             A 0.75 0.75 0 0 1 280.844 230.113
             L 280.844 275.207
             L 278.81 275.207
             A 1.25 1.25 0 0 0 277.56 276.446
             L 277.558 276.757
             A 0.25 0.25 0 0 0 277.559 276.776
             L 277.579 277.065
             A 0.25 0.25 0 0 0 277.584 277.102
             L 277.647 277.385
             A 0.25 0.25 0 0 0 277.657 277.419
             L 277.759 277.69
             A 0.25 0.25 0 0 0 277.774 277.723
             L 277.914 277.977
             A 0.25 0.25 0 0 0 277.934 278.008
             L 278.11 278.239
             A 0.25 0.25 0 0 0 278.134 278.265
             L 278.34 278.468
             A 0.25 0.25 0 0 0 278.367 278.491
             L 278.601 278.663
             A 0.25 0.25 0 0 0 278.632 278.683
             L 278.888 278.819
             A 0.25 0.25 0 0 0 278.921 278.834
             L 279.194 278.931
             A 0.25 0.25 0 0 0 279.228 278.94
             L 279.512 278.998
             A 0.25 0.25 0 0 0 279.548 279.003
             L 279.838 279.019
             A 0.25 0.25 0 0 0 279.851 279.019
             L 286.047 279.047
             A 0.25 0.25 0 0 0 286.066 279.046
             L 286.353 279.025
             A 0.25 0.25 0 0 0 286.388 279.02
             L 286.668 278.959
             A 0.25 0.25 0 0 0 286.702 278.949
             L 286.97 278.849
             A 0.25 0.25 0 0 0 287.003 278.834
             L 287.255 278.696
             A 0.25 0.25 0 0 0 287.284 278.678
             L 287.514 278.507
             A 0.25 0.25 0 0 0 287.542 278.483
             L 287.745 278.28
             A 0.25 0.25 0 0 0 287.769 278.252
             L 287.94 278.022
             A 0.25 0.25 0 0 0 287.958 277.993
             L 288.096 277.741
             A 0.25 0.25 0 0 0 288.111 277.708
             L 288.211 277.44
             A 0.25 0.25 0 0 0 288.221 277.406
             L 288.282 277.126
             A 0.25 0.25 0 0 0 288.287 277.09
             L 288.307 276.804
             A 0.25 0.25 0 0 0 288.308 276.783
             L 287.718 238.993
             L 287.775 238.101
             A 0.25 0.25 0 0 0 287.776 238.091
             L 287.796 237.188
             A 0.25 0.25 0 0 0 287.796 237.177
             L 287.777 236.275
             A 0.25 0.25 0 0 0 287.776 236.264
             L 287.72 235.362
             A 0.25 0.25 0 0 0 287.719 235.351
             L 287.623 234.453
             A 0.25 0.25 0 0 0 287.621 234.443
             L 287.488 233.55
             A 0.25 0.25 0 0 0 287.486 233.54
             L 287.315 232.654
             A 0.25 0.25 0 0 0 287.313 232.643
             L 287.104 231.764
             A 0.25 0.25 0 0 0 287.102 231.754
             L 286.856 230.885
             A 0.25 0.25 0 0 0 286.853 230.875
             L 286.57 230.017
             A 0.25 0.25 0 0 0 286.567 230.007
             L 286.249 229.162
             A 0.25 0.25 0 0 0 286.245 229.152
             L 285.891 228.321
             A 0.25 0.25 0 0 0 285.887 228.311
             L 285.498 227.496
             A 0.25 0.25 0 0 0 285.493 227.487
             L 285.069 226.69
             L 285.067 226.687
             L 269.507 198.277
             A 0.25 0.25 0 0 0 269.487 198.246
             L 269.195 197.86
             A 0.25 0.25 0 0 0 269.183 197.845
             L 268.862 197.484
             A 0.25 0.25 0 0 0 268.848 197.469
             L 268.499 197.135
             A 0.25 0.25 0 0 0 268.484 197.122
             L 268.109 196.816
             A 0.25 0.25 0 0 0 268.093 196.804
             L 267.695 196.529
             A 0.25 0.25 0 0 0 267.679 196.519
             L 267.261 196.276
             A 0.25 0.25 0 0 0 267.243 196.267
             L 266.807 196.058
             A 0.25 0.25 0 0 0 266.789 196.05
             L 266.338 195.877
             A 0.25 0.25 0 0 0 266.319 195.87
             L 265.855 195.733
             A 0.25 0.25 0 0 0 265.836 195.728
             L 265.363 195.628
             A 0.25 0.25 0 0 0 265.343 195.625
             L 264.863 195.563
             A 0.25 0.25 0 0 0 264.843 195.561
             L 264.36 195.537
             A 0.25 0.25 0 0 0 264.341 195.537
             L 263.858 195.551
             A 0.25 0.25 0 0 0 263.838 195.553
             L 263.357 195.605
             A 0.25 0.25 0 0 0 263.337 195.608
             L 262.862 195.698
             A 0.25 0.25 0 0 0 262.843 195.703
             L 262.377 195.831
             A 0.25 0.25 0 0 0 262.358 195.837
             L 261.903 196.002
             A 0.25 0.25 0 0 0 261.848 196.03
             L 260.305 197.077
             L 258.742 198.089
             L 257.159 199.069
             L 255.555 200.015
             L 253.933 200.928
             L 252.29 201.806
             L 250.631 202.65
             L 248.954 203.459
             L 247.261 204.233
             L 245.55 204.97
             L 243.826 205.672
             L 242.087 206.338
             L 240.335 206.967
             L 238.569 207.559
             L 236.792 208.115
             L 235.003 208.632
             L 233.204 209.113
             L 231.396 209.555
             L 229.578 209.959
             L 227.752 210.325
             L 225.919 210.653
             L 224.081 210.944
             L 222.236 211.194
             L 220.386 211.406
             L 218.53 211.58
             A 0.25 0.25 0 0 0 218.494 211.586
             L 217.833 211.746
             A 0.25 0.25 0 0 0 217.818 211.75
             L 217.169 211.95
             A 0.25 0.25 0 0 0 217.155 211.955
             L 216.519 212.194
             A 0.25 0.25 0 0 0 216.505 212.2
             L 215.885 212.478
             A 0.25 0.25 0 0 0 215.871 212.484
             L 215.269 212.798
             A 0.25 0.25 0 0 0 215.256 212.806
             L 214.674 213.156
             A 0.25 0.25 0 0 0 214.661 213.164
             L 214.101 213.549
             A 0.25 0.25 0 0 0 214.089 213.558
             L 213.553 213.976
             A 0.25 0.25 0 0 0 213.541 213.986
             L 213.032 214.436
             A 0.25 0.25 0 0 0 213.021 214.446
             L 212.54 214.926
             A 0.25 0.25 0 0 0 212.53 214.937
             L 212.08 215.445
             A 0.25 0.25 0 0 0 212.07 215.457
             L 211.65 215.992
             A 0.25 0.25 0 0 0 211.641 216.004
             L 211.255 216.563
             A 0.25 0.25 0 0 0 211.247 216.576
             L 210.896 217.157
             A 0.25 0.25 0 0 0 210.888 217.17
             L 210.573 217.772
             A 0.25 0.25 0 0 0 210.567 217.785
             L 210.288 218.405
             A 0.25 0.25 0 0 0 210.282 218.42
             L 210.042 219.055
             A 0.25 0.25 0 0 0 210.037 219.069
             L 209.836 219.718
             A 0.25 0.25 0 0 0 209.832 219.733
             L 209.671 220.393
             A 0.25 0.25 0 0 0 209.668 220.407
             L 209.546 221.076
             A 0.25 0.25 0 0 0 209.544 221.092
             L 209.464 221.766
             A 0.25 0.25 0 0 0 209.462 221.781
             L 209.423 222.459
             A 0.25 0.25 0 0 0 209.423 222.474
             L 209.425 223.153
             L 209.423 223.426
             L 209.384 223.679
             L 209.307 223.924
             L 209.196 224.155
             L 209.051 224.367
             L 208.877 224.555
             L 208.677 224.716
             L 208.456 224.845
             L 208.218 224.94
             L 207.969 224.998
             L 207.704 225.021
             L 194.942 225.01
             L 194.686 225.009
             L 194.448 224.976
             L 194.218 224.911
             L 193.999 224.816
             L 193.946 224.783" fill="none" stroke="#0000d3" stroke-width="0.1"/>
</g>
</g>
</svg>
