<?xml version="1.0" encoding="UTF-8" standalone="no"?>
<svg xmlns="http://www.w3.org/2000/svg" width="709.616943359375mm" height="748.1187133789062mm" viewBox="0 0 709.616943359375 748.1187133789062">
<desc>Created with Glowforge for Fusion 360. To download visit: https://cam.autodesk.com/hsmposts?p=glowforge</desc>
<!-- CAM Setup Info:
Work Area Width: 709.616943359375mm
Work Area Height: 748.1187133789062mm
Work Area Too Small?: false
Stock box Upper Right: 352.8084716796875,744.1187133789062
Stock box Lower Left: -352.8084716796875,0
Origin: 0,0
Selected Colors: #0000d3, #02abea, #1fb714, #dd0907, #f20884, #fbf305
-->
<g id="global-translation-frame" transform="translate(354.808, 746.119) scale(1, -1)">
<g id="opperation-1">
    <title>2D Profile6 (Op: 1/1)</title>
    <path d="M 232.836 272.847
             A 2.11 2.11 0 0 1 234.946 274.957
             A 2.11 2.11 0 0 1 232.836 277.067
             A 2.11 2.11 0 0 1 230.726 274.957
             A 2.11 2.11 0 0 1 232.836 272.847
             M 234.887 235.685
             A 1.846 1.846 0 0 1 232.392 234.917
             A 1.846 1.846 0 0 1 232.178 234.054
             A 1.846 1.846 0 0 1 234.024 232.209
             A 1.846 1.846 0 0 1 235.869 234.054
             A 1.846 1.846 0 0 1 234.887 235.685
             M 258.504 232.075
             L 258.504 231.577
             A 1.75 1.75 0 0 1 260.254 229.827
             L 272.254 229.827
             A 1.75 1.75 0 0 1 273.843 230.842
             L 273.847 230.851
             A 1.75 1.75 0 0 1 274.039 231.647
             L 274.039 232.297
             A 0.35 0.35 0 0 1 274.027 232.386
             A 0.25 0.25 0 0 0 274.019 232.45
             L 274.019 242.843
             A 0.25 0.25 0 0 0 274.027 242.907
             A 0.35 0.35 0 0 1 274.039 242.997
             L 274.039 243.647
             A 1.75 1.75 0 0 1 274.022 243.894
             A 0.25 0.25 0 0 0 274.019 243.929
             L 274.019 248.382
             A 0.25 0.25 0 0 0 274.022 248.417
             A 1.75 1.75 0 0 1 274.039 248.665
             L 274.039 249.315
             A 0.35 0.35 0 0 1 274.027 249.404
             A 0.25 0.25 0 0 0 274.019 249.468
             L 274.019 259.861
             A 0.25 0.25 0 0 0 274.027 259.925
             A 0.35 0.35 0 0 1 274.039 260.015
             L 274.039 260.087
             A 0.25 0.25 0 0 0 274.289 260.337
             A 0.25 0.25 0 0 0 274.333 260.333
             A 4.251 4.251 0 0 1 276.203 260.421
             A 0.25 0.25 0 0 0 276.51 260.246
             A 0.25 0.25 0 0 0 276.519 260.18
             L 276.519 251.791
             L 276.518 251.144
             L 276.518 251.142
             A 0.25 0.25 0 0 0 276.519 251.122
             L 276.519 246.129
             A 0.25 0.25 0 0 0 276.518 246.107
             L 276.518 245.467
             L 276.519 234.773
             L 276.518 234.117
             A 1.75 1.75 0 0 1 278.268 232.367
             L 290.268 232.367
             A 1.75 1.75 0 0 1 292.018 234.117
             L 292.018 234.174
             A 0.25 0.25 0 0 0 292.019 234.194
             L 292.019 234.197
             L 292.019 280.155
             A 1.75 1.75 0 0 1 290.269 281.905
             L 278.269 281.905
             A 1.75 1.75 0 0 1 276.519 280.155
             L 276.519 268.857
             A 0.25 0.25 0 0 0 276.269 268.607
             A 0.25 0.25 0 0 0 276.202 268.616
             A 4.25 4.25 0 0 1 274.314 268.701
             A 0.25 0.25 0 0 0 274.023 268.902
             A 0.25 0.25 0 0 0 274.019 268.947
             L 274.019 277.655
             A 1.75 1.75 0 0 1 272.269 279.405
             L 260.269 279.405
             A 1.75 1.75 0 0 1 258.532 277.873
             A 0.25 0.25 0 0 0 258.504 277.785
             L 258.504 232.075
             M 273.259 227.699
             L 266.497 225.888
             A 1.75 1.75 0 0 1 265.228 223.883
             L 265.337 223.467
             L 268.653 211.558
             A 1.75 1.75 0 0 1 270.556 210.845
             L 282.148 213.951
             A 1.75 1.75 0 0 1 283.386 216.095
             L 280.232 227.756
             A 1.75 1.75 0 0 1 278.089 228.994
             L 273.259 227.699
             M 293.288 226.982
             A 3.75 3.75 0 0 1 291.966 221.846
             A 3.75 3.75 0 0 1 297.102 220.524
             A 3.75 3.75 0 0 1 298.424 225.66
             A 3.75 3.75 0 0 1 293.288 226.982
             M 309.215 238.049
             A 1.75 1.75 0 0 1 310.019 239.521
             L 310.019 285.655
             A 1.75 1.75 0 0 1 308.269 287.405
             L 296.269 287.405
             A 1.75 1.75 0 0 1 294.519 285.655
             L 294.519 285.005
             L 294.519 285.004
             A 0.35 0.35 0 0 1 294.525 284.937
             A 0.25 0.25 0 0 0 294.53 284.889
             L 294.53 274.42
             A 0.25 0.25 0 0 0 294.525 274.372
             A 0.35 0.35 0 0 1 294.519 274.305
             L 294.519 273.655
             A 1.75 1.75 0 0 1 294.529 273.468
             A 0.25 0.25 0 0 0 294.53 273.442
             L 294.53 268.751
             A 0.25 0.25 0 0 0 294.529 268.725
             A 1.75 1.75 0 0 1 294.519 268.539
             L 294.519 267.889
             L 294.519 267.888
             A 0.35 0.35 0 0 1 294.525 267.821
             A 0.25 0.25 0 0 0 294.53 267.773
             L 294.53 257.304
             A 0.25 0.25 0 0 0 294.525 257.256
             A 0.35 0.35 0 0 1 294.519 257.189
             L 294.519 256.539
             A 1.75 1.75 0 0 1 294.529 256.352
             A 0.25 0.25 0 0 0 294.53 256.326
             L 294.53 251.733
             A 0.25 0.25 0 0 0 294.529 251.707
             A 1.75 1.75 0 0 1 294.519 251.521
             L 294.519 250.871
             L 294.519 250.87
             A 0.35 0.35 0 0 1 294.525 250.803
             A 0.25 0.25 0 0 0 294.53 250.755
             L 294.53 240.286
             A 0.25 0.25 0 0 0 294.525 240.238
             A 0.35 0.35 0 0 1 294.519 240.171
             L 294.519 239.521
             A 1.75 1.75 0 0 1 296.269 237.771
             L 308.269 237.771
             A 1.75 1.75 0 0 1 309.215 238.049
             M 328.019 237.663
             L 328.019 278.655
             A 1.75 1.75 0 0 1 326.269 280.405
             L 314.269 280.405
             A 1.75 1.75 0 0 1 312.519 278.655
             L 312.519 232.663
             A 1.75 1.75 0 0 1 314.269 230.913
             L 326.269 230.913
             A 1.75 1.75 0 0 1 328.019 232.663
             L 328.019 237.663
             M 330.519 237.663
             L 330.519 220.655
             A 1.75 1.75 0 0 1 332.269 218.905
             L 344.269 218.905
             A 1.75 1.75 0 0 1 346.019 220.655
             L 346.019 266.655
             A 1.75 1.75 0 0 1 344.269 268.405
             L 332.269 268.405
             A 1.75 1.75 0 0 1 330.519 266.655
             L 330.519 237.663
             M 324.324 222.74
             L 324.324 223.255
             L 324.305 223.501
             L 324.255 223.735
             L 324.173 223.96
             L 324.062 224.172
             L 323.922 224.366
             L 323.758 224.54
             L 323.573 224.691
             L 323.368 224.816
             L 323.149 224.911
             L 322.919 224.976
             L 322.681 225.009
             L 322.425 225.01
             L 309.663 225.021
             L 309.398 224.998
             L 309.149 224.94
             L 308.911 224.845
             L 308.69 224.716
             L 308.49 224.555
             L 308.316 224.367
             L 308.171 224.155
             L 308.06 223.924
             L 307.983 223.679
             L 307.944 223.426
             L 307.942 223.153
             L 307.944 222.474
             A 0.25 0.25 0 0 0 307.944 222.459
             L 307.905 221.781
             A 0.25 0.25 0 0 0 307.903 221.766
             L 307.823 221.092
             A 0.25 0.25 0 0 0 307.821 221.076
             L 307.699 220.407
             A 0.25 0.25 0 0 0 307.696 220.393
             L 307.535 219.733
             A 0.25 0.25 0 0 0 307.531 219.718
             L 307.33 219.069
             A 0.25 0.25 0 0 0 307.325 219.055
             L 307.085 218.42
             A 0.25 0.25 0 0 0 307.079 218.405
             L 306.8 217.785
             A 0.25 0.25 0 0 0 306.794 217.772
             L 306.479 217.17
             A 0.25 0.25 0 0 0 306.471 217.156
             L 306.119 216.575
             A 0.25 0.25 0 0 0 306.111 216.563
             L 305.726 216.004
             A 0.25 0.25 0 0 0 305.717 215.992
             L 305.297 215.457
             A 0.25 0.25 0 0 0 305.287 215.445
             L 304.837 214.937
             A 0.25 0.25 0 0 0 304.827 214.926
             L 304.346 214.446
             A 0.25 0.25 0 0 0 304.335 214.436
             L 303.826 213.986
             A 0.25 0.25 0 0 0 303.814 213.976
             L 303.278 213.558
             A 0.25 0.25 0 0 0 303.266 213.549
             L 302.706 213.164
             A 0.25 0.25 0 0 0 302.693 213.156
             L 302.111 212.806
             A 0.25 0.25 0 0 0 302.098 212.798
             L 301.496 212.484
             A 0.25 0.25 0 0 0 301.482 212.478
             L 300.862 212.2
             A 0.25 0.25 0 0 0 300.848 212.194
             L 300.212 211.955
             A 0.25 0.25 0 0 0 300.198 211.95
             L 299.549 211.75
             A 0.25 0.25 0 0 0 299.534 211.746
             L 298.873 211.586
             A 0.25 0.25 0 0 0 298.837 211.58
             L 296.981 211.406
             L 295.131 211.194
             L 293.286 210.944
             L 291.448 210.653
             L 289.615 210.325
             L 287.789 209.959
             L 285.971 209.555
             L 284.163 209.113
             L 282.363 208.632
             L 280.575 208.115
             L 278.798 207.559
             L 277.032 206.967
             L 275.28 206.338
             L 273.541 205.672
             L 271.817 204.97
             L 270.107 204.233
             L 268.413 203.459
             L 266.736 202.65
             L 265.077 201.806
             L 263.434 200.928
             L 261.812 200.015
             L 260.208 199.069
             L 258.625 198.089
             L 257.062 197.077
             L 255.518 196.03
             A 0.25 0.25 0 0 0 255.463 196.002
             L 255.009 195.837
             A 0.25 0.25 0 0 0 254.99 195.831
             L 254.523 195.703
             A 0.25 0.25 0 0 0 254.504 195.698
             L 254.03 195.608
             A 0.25 0.25 0 0 0 254.01 195.605
             L 253.529 195.553
             A 0.25 0.25 0 0 0 253.509 195.551
             L 253.026 195.537
             A 0.25 0.25 0 0 0 253.007 195.537
             L 252.524 195.561
             A 0.25 0.25 0 0 0 252.504 195.563
             L 252.024 195.625
             A 0.25 0.25 0 0 0 252.004 195.628
             L 251.531 195.728
             A 0.25 0.25 0 0 0 251.512 195.733
             L 251.048 195.87
             A 0.25 0.25 0 0 0 251.029 195.877
             L 250.578 196.05
             A 0.25 0.25 0 0 0 250.56 196.058
             L 250.124 196.267
             A 0.25 0.25 0 0 0 250.106 196.276
             L 249.688 196.519
             A 0.25 0.25 0 0 0 249.672 196.529
             L 249.274 196.804
             A 0.25 0.25 0 0 0 249.258 196.816
             L 248.883 197.122
             A 0.25 0.25 0 0 0 248.868 197.135
             L 248.519 197.469
             A 0.25 0.25 0 0 0 248.505 197.484
             L 248.183 197.845
             A 0.25 0.25 0 0 0 248.171 197.86
             L 247.879 198.246
             A 0.25 0.25 0 0 0 247.859 198.277
             L 232.299 226.687
             L 232.297 226.69
             L 231.874 227.487
             A 0.25 0.25 0 0 0 231.869 227.496
             L 231.48 228.311
             A 0.25 0.25 0 0 0 231.476 228.321
             L 231.122 229.152
             A 0.25 0.25 0 0 0 231.118 229.162
             L 230.8 230.007
             A 0.25 0.25 0 0 0 230.796 230.017
             L 230.514 230.875
             A 0.25 0.25 0 0 0 230.511 230.885
             L 230.265 231.754
             A 0.25 0.25 0 0 0 230.263 231.764
             L 230.054 232.643
             A 0.25 0.25 0 0 0 230.052 232.654
             L 229.881 233.54
             A 0.25 0.25 0 0 0 229.879 233.55
             L 229.746 234.443
             A 0.25 0.25 0 0 0 229.744 234.453
             L 229.648 235.351
             A 0.25 0.25 0 0 0 229.647 235.362
             L 229.59 236.264
             A 0.25 0.25 0 0 0 229.59 236.275
             L 229.571 237.177
             A 0.25 0.25 0 0 0 229.571 237.188
             L 229.591 238.091
             A 0.25 0.25 0 0 0 229.591 238.101
             L 229.648 238.993
             L 229.058 276.783
             A 0.25 0.25 0 0 0 229.059 276.805
             L 229.08 277.091
             A 0.25 0.25 0 0 0 229.085 277.126
             L 229.146 277.406
             A 0.25 0.25 0 0 0 229.156 277.44
             L 229.256 277.708
             A 0.25 0.25 0 0 0 229.271 277.741
             L 229.409 277.993
             A 0.25 0.25 0 0 0 229.427 278.022
             L 229.598 278.252
             A 0.25 0.25 0 0 0 229.622 278.28
             L 229.825 278.483
             A 0.25 0.25 0 0 0 229.853 278.507
             L 230.083 278.678
             A 0.25 0.25 0 0 0 230.112 278.696
             L 230.364 278.834
             A 0.25 0.25 0 0 0 230.397 278.849
             L 230.665 278.949
             A 0.25 0.25 0 0 0 230.699 278.959
             L 230.979 279.02
             A 0.25 0.25 0 0 0 231.014 279.025
             L 231.3 279.046
             A 0.25 0.25 0 0 0 231.319 279.047
             L 237.516 279.019
             A 0.25 0.25 0 0 0 237.529 279.019
             L 237.819 279.003
             A 0.25 0.25 0 0 0 237.855 278.998
             L 238.139 278.94
             A 0.25 0.25 0 0 0 238.173 278.931
             L 238.446 278.834
             A 0.25 0.25 0 0 0 238.479 278.819
             L 238.735 278.683
             A 0.25 0.25 0 0 0 238.766 278.663
             L 238.999 278.491
             A 0.25 0.25 0 0 0 239.026 278.469
             L 239.233 278.266
             A 0.25 0.25 0 0 0 239.257 278.239
             L 239.433 278.008
             A 0.25 0.25 0 0 0 239.453 277.977
             L 239.593 277.723
             A 0.25 0.25 0 0 0 239.608 277.69
             L 239.71 277.419
             A 0.25 0.25 0 0 0 239.72 277.384
             L 239.782 277.102
             A 0.25 0.25 0 0 0 239.787 277.066
             L 239.808 276.777
             A 0.25 0.25 0 0 0 239.809 276.757
             L 239.806 276.446
             A 1.25 1.25 0 0 0 238.557 275.207
             L 236.523 275.207
             L 236.523 230.113
             A 0.75 0.75 0 0 1 236.68 229.653
             A 0.25 0.25 0 0 0 236.699 229.624
             L 245.02 215.041
             L 252.122 202.735
             A 1.75 1.75 0 0 1 254.465 202.173
             L 264.858 208.173
             A 1.75 1.75 0 0 1 265.554 210.46
             L 265.55 210.468
             L 261.345 219.858
             L 256.694 224.555
             A 0.25 0.25 0 0 0 256.622 224.731
             L 256.622 274.551
             L 254.815 274.551
             A 2.25 2.25 0 0 0 252.565 276.799
             L 252.558 282.927
             A 0.25 0.25 0 0 0 252.559 282.946
             L 252.581 283.231
             A 0.25 0.25 0 0 0 252.586 283.266
             L 252.648 283.545
             A 0.25 0.25 0 0 0 252.658 283.579
             L 252.759 283.846
             A 0.25 0.25 0 0 0 252.774 283.878
             L 252.912 284.129
             A 0.25 0.25 0 0 0 252.931 284.16
             L 253.103 284.388
             A 0.25 0.25 0 0 0 253.127 284.414
             L 253.33 284.616
             A 0.25 0.25 0 0 0 253.357 284.64
             L 253.586 284.81
             A 0.25 0.25 0 0 0 253.615 284.828
             L 253.866 284.965
             A 0.25 0.25 0 0 0 253.899 284.98
             L 254.167 285.08
             A 0.25 0.25 0 0 0 254.201 285.09
             L 254.48 285.15
             A 0.25 0.25 0 0 0 254.515 285.155
             L 254.8 285.176
             A 0.25 0.25 0 0 0 254.817 285.177
             L 273.489 285.257
             L 273.734 285.273
             L 273.965 285.32
             L 274.188 285.399
             L 274.397 285.507
             L 274.591 285.643
             L 274.764 285.803
             L 274.914 285.985
             L 275.037 286.186
             L 275.139 286.418
             A 0.25 0.25 0 0 0 275.15 286.439
             L 275.288 286.687
             A 0.25 0.25 0 0 0 275.306 286.715
             L 275.477 286.942
             A 0.25 0.25 0 0 0 275.501 286.969
             L 275.702 287.169
             A 0.25 0.25 0 0 0 275.728 287.192
             L 275.955 287.363
             A 0.25 0.25 0 0 0 275.985 287.382
             L 276.234 287.518
             A 0.25 0.25 0 0 0 276.265 287.533
             L 276.531 287.634
             A 0.25 0.25 0 0 0 276.565 287.644
             L 276.842 287.706
             A 0.25 0.25 0 0 0 276.877 287.711
             L 277.16 287.734
             A 0.25 0.25 0 0 0 277.18 287.735
             L 291.218 287.748
             L 291.474 287.769
             L 291.717 287.824
             L 291.95 287.913
             L 292.168 288.034
             L 292.367 288.185
             L 292.543 288.362
             L 292.691 288.563
             L 292.81 288.782
             L 292.896 289.015
             L 292.949 289.259
             L 292.967 289.516
             L 292.96 291.024
             A 0.25 0.25 0 0 0 292.961 291.042
             L 292.981 291.328
             A 0.25 0.25 0 0 0 292.986 291.364
             L 293.047 291.645
             A 0.25 0.25 0 0 0 293.057 291.679
             L 293.157 291.947
             A 0.25 0.25 0 0 0 293.172 291.98
             L 293.31 292.232
             A 0.25 0.25 0 0 0 293.329 292.262
             L 293.501 292.491
             A 0.25 0.25 0 0 0 293.524 292.518
             L 293.727 292.721
             A 0.25 0.25 0 0 0 293.754 292.744
             L 293.983 292.916
             A 0.25 0.25 0 0 0 294.013 292.935
             L 294.265 293.073
             A 0.25 0.25 0 0 0 294.298 293.088
             L 294.567 293.188
             A 0.25 0.25 0 0 0 294.601 293.198
             L 294.881 293.259
             A 0.25 0.25 0 0 0 294.917 293.264
             L 295.203 293.284
             A 0.25 0.25 0 0 0 295.22 293.285
             L 309.187 293.275
             L 341.108 293.277
             A 0.25 0.25 0 0 0 341.119 293.277
             L 341.77 293.249
             A 0.25 0.25 0 0 0 341.785 293.248
             L 342.432 293.181
             A 0.25 0.25 0 0 0 342.446 293.179
             L 343.088 293.074
             A 0.25 0.25 0 0 0 343.103 293.071
             L 343.738 292.928
             A 0.25 0.25 0 0 0 343.753 292.924
             L 344.378 292.743
             A 0.25 0.25 0 0 0 344.392 292.738
             L 345.005 292.519
             A 0.25 0.25 0 0 0 345.019 292.514
             L 345.618 292.26
             A 0.25 0.25 0 0 0 345.632 292.254
             L 346.214 291.964
             A 0.25 0.25 0 0 0 346.227 291.957
             L 346.791 291.632
             A 0.25 0.25 0 0 0 346.803 291.624
             L 347.347 291.266
             A 0.25 0.25 0 0 0 347.36 291.257
             L 347.881 290.868
             A 0.25 0.25 0 0 0 347.893 290.859
             L 348.39 290.438
             A 0.25 0.25 0 0 0 348.401 290.428
             L 348.871 289.979
             A 0.25 0.25 0 0 0 348.882 289.968
             L 349.325 289.491
             A 0.25 0.25 0 0 0 349.335 289.48
             L 349.749 288.978
             A 0.25 0.25 0 0 0 349.758 288.966
             L 350.14 288.44
             A 0.25 0.25 0 0 0 350.149 288.428
             L 350.5 287.88
             A 0.25 0.25 0 0 0 350.507 287.867
             L 350.824 287.298
             A 0.25 0.25 0 0 0 350.831 287.285
             L 351.114 286.699
             A 0.25 0.25 0 0 0 351.12 286.685
             L 351.366 286.083
             A 0.25 0.25 0 0 0 351.372 286.069
             L 351.583 285.453
             A 0.25 0.25 0 0 0 351.587 285.439
             L 351.76 284.811
             A 0.25 0.25 0 0 0 351.764 284.797
             L 351.899 284.16
             A 0.25 0.25 0 0 0 351.901 284.145
             L 351.998 283.502
             A 0.25 0.25 0 0 0 352 283.487
             L 352.057 282.839
             A 0.25 0.25 0 0 0 352.058 282.816
             L 352.018 271.638
             L 352.023 271.584
             A 0.25 0.25 0 0 0 352.024 271.561
             L 352.024 265.825
             A 0.25 0.25 0 0 0 352.021 265.786
             L 352.018 265.767
             L 351.978 244.358
             L 351.992 244.2
             L 352.014 244.124
             A 0.25 0.25 0 0 0 352.024 244.054
             L 352.024 238.812
             A 0.25 0.25 0 0 0 352.012 238.735
             L 351.986 238.656
             L 351.968 238.502
             L 351.968 215.167
             A 0.25 0.25 0 0 0 351.967 215.15
             L 351.947 214.865
             A 0.25 0.25 0 0 0 351.942 214.829
             L 351.882 214.551
             A 0.25 0.25 0 0 0 351.872 214.517
             L 351.773 214.249
             A 0.25 0.25 0 0 0 351.759 214.217
             L 351.623 213.967
             A 0.25 0.25 0 0 0 351.604 213.937
             L 351.434 213.708
             A 0.25 0.25 0 0 0 351.411 213.681
             L 351.211 213.479
             A 0.25 0.25 0 0 0 351.185 213.456
             L 350.958 213.283
             A 0.25 0.25 0 0 0 350.927 213.263
             L 350.678 213.125
             A 0.25 0.25 0 0 0 350.645 213.11
             L 350.378 213.009
             A 0.25 0.25 0 0 0 350.345 212.999
             L 350.068 212.936
             A 0.25 0.25 0 0 0 350.033 212.931
             L 349.748 212.908
             A 0.25 0.25 0 0 0 349.73 212.907
             L 327.343 212.74
             L 327.07 212.701
             A 0.25 0.25 0 0 0 327.038 212.699
             L 326.746 212.696
             A 0.25 0.25 0 0 0 326.714 212.698
             L 326.424 212.732
             A 0.25 0.25 0 0 0 326.393 212.737
             L 326.11 212.807
             A 0.25 0.25 0 0 0 326.079 212.817
             L 325.808 212.923
             A 0.25 0.25 0 0 0 325.78 212.936
             L 325.524 213.075
             A 0.25 0.25 0 0 0 325.497 213.092
             L 325.26 213.263
             A 0.25 0.25 0 0 0 325.234 213.284
             L 325.022 213.484
             A 0.25 0.25 0 0 0 325.001 213.507
             L 324.815 213.732
             A 0.25 0.25 0 0 0 324.796 213.758
             L 324.641 214.005
             A 0.25 0.25 0 0 0 324.626 214.032
             L 324.503 214.296
             A 0.25 0.25 0 0 0 324.492 214.327
             L 324.404 214.605
             A 0.25 0.25 0 0 0 324.396 214.635
             L 324.344 214.922
             A 0.25 0.25 0 0 0 324.34 214.954
             L 324.324 215.251
             A 0.25 0.25 0 0 0 324.324 215.264
             L 324.324 222.74" fill="none" stroke="#0000d3" stroke-width="0.1"/>
</g>
</g>
</svg>
