M48
; DRILL file {KiCad 7.0.10-7.0.10~ubuntu22.04.1} date Sat 24 Feb 2024 02:59:31 PM CST
; FORMAT={-:-/ absolute / inch / decimal}
; #@! TF.CreationDate,2024-02-24T14:59:31-06:00
; #@! TF.GenerationSoftware,Kicad,Pcbnew,7.0.10-7.0.10~ubuntu22.04.1
; #@! TF.FileFunction,NonPlated,1,2,NPTH
FMAT,2
INCH
; #@! TA.AperFunction,NonPlated,NPTH,ComponentDrill
T1C0.0197
; #@! TA.AperFunction,NonPlated,NPTH,ComponentDrill
T2C0.0354
; #@! TA.AperFunction,NonPlated,NPTH,ComponentDrill
T3C0.0512
; #@! TA.AperFunction,NonPlated,NPTH,ComponentDrill
T4C0.0709
; #@! TA.AperFunction,NonPlated,NPTH,ComponentDrill
T5C0.1201
; #@! TA.AperFunction,NonPlated,NPTH,ComponentDrill
T6C0.1339
%
G90
G05
T1
X5.7943Y-3.0499
X5.7943Y-3.0899
X5.7943Y-3.1299
X5.7943Y-3.1699
X5.7943Y-3.2099
X5.7962Y-1.9759
X5.7962Y-2.0159
X5.7962Y-2.0559
X5.7962Y-2.0959
X5.7962Y-2.1359
X5.8743Y-3.0499
X5.8743Y-3.0899
X5.8743Y-3.1299
X5.8743Y-3.1699
X5.8743Y-3.2099
X5.8762Y-1.9759
X5.8762Y-2.0159
X5.8762Y-2.0559
X5.8762Y-2.0959
X5.8762Y-2.1359
T2
X1.5886Y-1.9848
X1.7067Y-1.9848
X9.9614Y-1.9793
X10.0795Y-1.9793
T3
X1.9227Y-4.5386
X2.2246Y-2.1076
X2.2246Y-2.7765
X2.2246Y-3.4465
X2.593Y-4.1905
X3.3449Y-1.6784
X3.3449Y-2.3457
X3.3449Y-3.0157
X4.0531Y-1.4619
X4.0531Y-2.1357
X4.0531Y-2.8057
X4.7628Y-1.7375
X4.7628Y-2.4057
X4.7628Y-3.0757
X5.4721Y-2.2099
X5.4721Y-2.8792
X5.4721Y-3.5485
X6.1976Y-2.5379
X6.1976Y-3.2072
X6.1976Y-3.8765
X7.3173Y-1.7347
X7.3173Y-2.403
X7.3173Y-3.073
X8.026Y-1.4591
X8.026Y-2.133
X8.026Y-2.803
X8.7346Y-1.6757
X8.7346Y-2.343
X8.7346Y-3.013
X9.163Y-3.8684
X9.4425Y-2.443
X9.4425Y-3.113
X9.4433Y-1.7741
X9.913Y-4.2494
T4
X1.8305Y-4.4009
X2.2056Y-4.1843
X2.2136Y-1.9422
X2.2136Y-2.6111
X2.2136Y-3.2811
X2.5396Y-4.0337
X2.6467Y-1.9422
X2.6467Y-2.6111
X2.6467Y-3.2811
X2.9228Y-1.8438
X2.9228Y-2.5111
X2.9228Y-3.1811
X2.9579Y-3.9216
X3.3559Y-1.8438
X3.3559Y-2.5111
X3.3559Y-3.1811
X3.631Y-1.6272
X3.631Y-2.3011
X3.631Y-2.9711
X4.0641Y-1.6272
X4.0641Y-2.3011
X4.0641Y-2.9711
X4.3407Y-1.9028
X4.3407Y-2.5711
X4.3407Y-3.2411
X4.7738Y-1.9028
X4.7738Y-2.5711
X4.7738Y-3.2411
X5.0501Y-2.3753
X5.0501Y-3.0446
X5.0501Y-3.7139
X5.4831Y-2.3753
X5.4831Y-3.0446
X5.4831Y-3.7139
X6.1866Y-2.3725
X6.1866Y-3.0418
X6.1866Y-3.7111
X6.6197Y-2.3725
X6.6197Y-3.0418
X6.6197Y-3.7111
X6.8953Y-1.9001
X6.8953Y-2.5683
X6.8953Y-3.2383
X7.3283Y-1.9001
X7.3283Y-2.5683
X7.3283Y-3.2383
X7.6039Y-1.6245
X7.6039Y-2.2983
X7.6039Y-2.9683
X8.037Y-1.6245
X8.037Y-2.2983
X8.037Y-2.9683
X8.3126Y-1.841
X8.3126Y-2.5083
X8.3126Y-3.1783
X8.7125Y-3.9188
X8.7457Y-1.841
X8.7457Y-2.5083
X8.7457Y-3.1783
X9.0205Y-2.6083
X9.0205Y-3.2783
X9.0213Y-1.9394
X9.1308Y-4.0309
X9.4535Y-2.6083
X9.4535Y-3.2783
X9.4543Y-1.9394
X9.4648Y-4.1816
X9.8399Y-4.3981
T5
X1.9019Y-4.0914
X2.1137Y-4.0646
X2.4302Y-1.7099
X2.4302Y-2.3788
X2.4302Y-3.0488
X2.627Y-1.7926
X2.627Y-2.4615
X2.627Y-3.1315
X2.6886Y-3.7533
X2.9002Y-3.7822
X2.9425Y-1.9934
X2.9425Y-2.6607
X2.9425Y-3.3307
X3.1394Y-2.0761
X3.1394Y-2.7434
X3.1394Y-3.4134
X3.6507Y-1.7769
X3.6507Y-2.4507
X3.6507Y-3.1207
X3.8476Y-1.8595
X3.8476Y-2.5334
X3.8476Y-3.2034
X4.3604Y-2.0524
X4.3604Y-2.7207
X4.3604Y-3.3907
X4.5572Y-2.1351
X4.5572Y-2.8034
X4.5572Y-3.4734
X5.0698Y-2.5249
X5.0698Y-3.1942
X5.0698Y-3.8635
X5.2666Y-2.6076
X5.2666Y-3.2769
X5.2666Y-3.9461
X6.4031Y-2.1402
X6.4031Y-2.8095
X6.4031Y-3.4788
X6.6Y-2.2229
X6.6Y-2.8922
X6.6Y-3.5615
X6.915Y-2.0497
X6.915Y-2.718
X6.915Y-3.388
X7.1118Y-2.1324
X7.1118Y-2.8006
X7.1118Y-3.4706
X7.6236Y-1.7741
X7.6236Y-2.448
X7.6236Y-3.118
X7.8205Y-1.8568
X7.8205Y-2.5306
X7.8205Y-3.2006
X8.3323Y-1.9906
X8.3323Y-2.658
X8.3323Y-3.328
X8.5291Y-2.0733
X8.5291Y-2.7406
X8.5291Y-3.4106
X8.6928Y-4.0684
X8.8615Y-4.1993
X9.0402Y-2.758
X9.0402Y-3.428
X9.0409Y-2.0891
X9.237Y-2.8406
X9.237Y-3.5106
X9.2378Y-2.1717
X9.4071Y-4.321
X9.5362Y-4.491
T6
X2.018Y-4.2926
X2.4302Y-1.9422
X2.4302Y-2.6111
X2.4302Y-3.2811
X2.7487Y-3.9776
X3.1394Y-1.8438
X3.1394Y-2.5111
X3.1394Y-3.1811
X3.8476Y-1.6272
X3.8476Y-2.3011
X3.8476Y-2.9711
X4.5572Y-1.9028
X4.5572Y-2.5711
X4.5572Y-3.2411
X5.2666Y-2.3753
X5.2666Y-3.0446
X5.2666Y-3.7139
X6.4031Y-2.3725
X6.4031Y-3.0418
X6.4031Y-3.7111
X7.1118Y-1.9001
X7.1118Y-2.5683
X7.1118Y-3.2383
X7.8205Y-1.6245
X7.8205Y-2.2983
X7.8205Y-2.9683
X8.5291Y-1.841
X8.5291Y-2.5083
X8.5291Y-3.1783
X8.9217Y-3.9749
X9.237Y-2.6083
X9.237Y-3.2783
X9.2378Y-1.9394
X9.6524Y-4.2898
M30
