%TF.GenerationSoftware,KiCad,Pcbnew,7.0.10-7.0.10~ubuntu22.04.1*%
%TF.CreationDate,2024-02-24T14:59:35-06:00*%
%TF.ProjectId,roadrunner,726f6164-7275-46e6-9e65-722e6b696361,rev?*%
%TF.SameCoordinates,Original*%
%TF.FileFunction,Drillmap*%
%TF.FilePolarity,Positive*%
%FSLAX45Y45*%
G04 Gerber Fmt 4.5, Leading zero omitted, Abs format (unit mm)*
G04 Created by KiCad (PCBNEW 7.0.10-7.0.10~ubuntu22.04.1) date 2024-02-24 14:59:35*
%MOMM*%
%LPD*%
G01*
G04 APERTURE LIST*
%ADD10C,0.100000*%
%ADD11C,0.200000*%
%ADD12C,0.120000*%
G04 APERTURE END LIST*
D10*
X3017558Y-6476427D02*
G75*
G03*
X2695502Y-6476427I-161028J0D01*
G01*
X2695502Y-6476427D02*
G75*
G03*
X3017558Y-6476427I161028J0D01*
G01*
X4973358Y-12204127D02*
G75*
G03*
X4651302Y-12204127I-161028J0D01*
G01*
X4651302Y-12204127D02*
G75*
G03*
X4973358Y-12204127I161028J0D01*
G01*
X8868131Y-2989130D02*
X8868874Y-3140873D01*
X12004603Y-9765202D02*
G75*
G03*
X11789719Y-9565630I-201987J-2013D01*
G01*
X9428592Y-10908727D02*
G75*
G03*
X10316373Y-9776376I-230854J1095185D01*
G01*
X14515931Y-4965427D02*
G75*
G03*
X14192073Y-4965427I-161929J0D01*
G01*
X14192073Y-4965427D02*
G75*
G03*
X14515931Y-4965427I161929J0D01*
G01*
X10465874Y-2789131D02*
X9069131Y-2788131D01*
X2537002Y-8193002D02*
G75*
G03*
X2799002Y-9411002I2120594J-181025D01*
G01*
X9466664Y-9716327D02*
G75*
G03*
X8666602Y-9716327I-400031J0D01*
G01*
X8666602Y-9716327D02*
G75*
G03*
X9466664Y-9716327I400031J0D01*
G01*
X8271602Y-9707327D02*
G75*
G03*
X8045310Y-9707327I-113146J0D01*
G01*
X8045310Y-9707327D02*
G75*
G03*
X8271602Y-9707327I113146J0D01*
G01*
X10085352Y-9714827D02*
G75*
G03*
X9853126Y-9714827I-116113J0D01*
G01*
X9853126Y-9714827D02*
G75*
G03*
X10085352Y-9714827I116113J0D01*
G01*
X12004603Y-10565827D02*
G75*
G03*
X12279509Y-10792664I228813J-2698D01*
G01*
X14520002Y-10776002D02*
X12279509Y-10792664D01*
X4828002Y-3799002D02*
X4828874Y-4669002D01*
X13128915Y-3606227D02*
G75*
G03*
X12810689Y-3606227I-159113J0D01*
G01*
X12810689Y-3606227D02*
G75*
G03*
X13128915Y-3606227I159113J0D01*
G01*
X9428592Y-10908727D02*
G75*
G03*
X5085002Y-12468002I737845J-8884871D01*
G01*
X2991794Y-4595927D02*
G75*
G03*
X2669738Y-4595927I-161028J0D01*
G01*
X2669738Y-4595927D02*
G75*
G03*
X2991794Y-4595927I161028J0D01*
G01*
X10512332Y-9564588D02*
G75*
G03*
X10316373Y-9776376I1974J-198377D01*
G01*
X5029002Y-3599008D02*
G75*
G03*
X4828002Y-3799002I-6J-200997D01*
G01*
X2679002Y-4212001D02*
G75*
G03*
X2478002Y-4413002I4J-201004D01*
G01*
X3500783Y-4661584D02*
X3503090Y-4415777D01*
X5851815Y-9619314D02*
G75*
G03*
X5533589Y-9619314I-159113J0D01*
G01*
X5533589Y-9619314D02*
G75*
G03*
X5851815Y-9619314I159113J0D01*
G01*
X9069131Y-2788129D02*
G75*
G03*
X8868131Y-2989130I6J-201006D01*
G01*
X4629002Y-4870002D02*
X3701783Y-4862584D01*
X8670002Y-3341873D02*
X7265130Y-3343130D01*
X2478002Y-4413002D02*
X2537002Y-8193002D01*
X7265130Y-3343129D02*
G75*
G03*
X7084002Y-3460002I2126J-202086D01*
G01*
X14728002Y-3810002D02*
G75*
G03*
X13658002Y-2789002I-1083366J-64183D01*
G01*
X6897002Y-3591002D02*
X5029002Y-3599002D01*
X10497858Y-8737027D02*
G75*
G03*
X10175802Y-8737027I-161028J0D01*
G01*
X10175802Y-8737027D02*
G75*
G03*
X10497858Y-8737027I161028J0D01*
G01*
X10512332Y-9564583D02*
X11789719Y-9565630D01*
X3109033Y-8686227D02*
G75*
G03*
X2789971Y-8686227I-159531J0D01*
G01*
X2789971Y-8686227D02*
G75*
G03*
X3109033Y-8686227I159531J0D01*
G01*
X4355002Y-12252002D02*
X2799002Y-9411002D01*
X5318030Y-3902427D02*
G75*
G03*
X4995974Y-3902427I-161028J0D01*
G01*
X4995974Y-3902427D02*
G75*
G03*
X5318030Y-3902427I161028J0D01*
G01*
X14499002Y-10423427D02*
G75*
G03*
X14176946Y-10423427I-161028J0D01*
G01*
X14176946Y-10423427D02*
G75*
G03*
X14499002Y-10423427I161028J0D01*
G01*
X12004602Y-9765202D02*
X12004602Y-10565302D01*
X3500787Y-4661584D02*
G75*
G03*
X3701783Y-4862584I201009J9D01*
G01*
X8670002Y-3341881D02*
G75*
G03*
X8868874Y-3140873I-2146J201006D01*
G01*
X4629002Y-4870009D02*
G75*
G03*
X4828874Y-4669002I-1136J201004D01*
G01*
X4354999Y-12252004D02*
G75*
G03*
X5085002Y-12468002I500088J348549D01*
G01*
X6897002Y-3591002D02*
G75*
G03*
X7084002Y-3460002I-6J198977D01*
G01*
X13658002Y-2789002D02*
X10465874Y-2789131D01*
X14520002Y-10776002D02*
G75*
G03*
X14719002Y-10575002I-2007J200997D01*
G01*
X12526030Y-10446427D02*
G75*
G03*
X12203974Y-10446427I-161028J0D01*
G01*
X12203974Y-10446427D02*
G75*
G03*
X12526030Y-10446427I161028J0D01*
G01*
X8518058Y-10664427D02*
G75*
G03*
X8196002Y-10664427I-161028J0D01*
G01*
X8196002Y-10664427D02*
G75*
G03*
X8518058Y-10664427I161028J0D01*
G01*
X8849058Y-3600427D02*
G75*
G03*
X8527002Y-3600427I-161028J0D01*
G01*
X8527002Y-3600427D02*
G75*
G03*
X8849058Y-3600427I161028J0D01*
G01*
X3503093Y-4415777D02*
G75*
G03*
X3298654Y-4214777I-201017J12D01*
G01*
X3298654Y-4214777D02*
X2679002Y-4212002D01*
X26134912Y-4417350D02*
X26137219Y-4663157D01*
X22553998Y-3461576D02*
G75*
G03*
X22372871Y-3344703I-183248J-85204D01*
G01*
X21111000Y-3602000D02*
G75*
G03*
X20788944Y-3602000I-161028J0D01*
G01*
X20788944Y-3602000D02*
G75*
G03*
X21111000Y-3602000I161028J0D01*
G01*
X26959000Y-4213575D02*
X26339347Y-4216350D01*
X22372871Y-3344703D02*
X20968000Y-3343446D01*
X24104413Y-9620887D02*
G75*
G03*
X23786187Y-9620887I-159113J0D01*
G01*
X23786187Y-9620887D02*
G75*
G03*
X24104413Y-9620887I159113J0D01*
G01*
X14720006Y-7657000D02*
G75*
G03*
X14919000Y-7660000I99504J-1050D01*
G01*
X27159995Y-4414575D02*
G75*
G03*
X26959000Y-4213575I-200995J5D01*
G01*
X24810003Y-3800575D02*
G75*
G03*
X24609000Y-3600575I-201003J-1005D01*
G01*
X14918999Y-8242000D02*
G75*
G03*
X14719000Y-8240000I-100009J40D01*
G01*
X24553001Y-12469574D02*
G75*
G03*
X20209410Y-10910300I-5081441J-7325616D01*
G01*
X22554003Y-3461574D02*
G75*
G03*
X22741000Y-3592575I186997J67964D01*
G01*
X27101000Y-8194575D02*
X27160000Y-4414575D01*
X16827313Y-3607800D02*
G75*
G03*
X16509087Y-3607800I-159113J0D01*
G01*
X16509087Y-3607800D02*
G75*
G03*
X16827313Y-3607800I159113J0D01*
G01*
X24986700Y-12205700D02*
G75*
G03*
X24664644Y-12205700I-161028J0D01*
G01*
X24664644Y-12205700D02*
G75*
G03*
X24986700Y-12205700I161028J0D01*
G01*
X8073019Y-5641300D02*
G75*
G03*
X7840792Y-5641300I-116113J0D01*
G01*
X7840792Y-5641300D02*
G75*
G03*
X8073019Y-5641300I116113J0D01*
G01*
X14924000Y-4931000D02*
X14910000Y-3812100D01*
X26839000Y-9412575D02*
X25283000Y-12253575D01*
X14923010Y-5520000D02*
X14919000Y-7660000D01*
X24809128Y-4670575D02*
X24810000Y-3800575D01*
X26968264Y-4597500D02*
G75*
G03*
X26646208Y-4597500I-161028J0D01*
G01*
X26646208Y-4597500D02*
G75*
G03*
X26968264Y-4597500I161028J0D01*
G01*
X14719000Y-10575000D02*
X14719000Y-8240000D01*
X21442000Y-10666000D02*
G75*
G03*
X21119944Y-10666000I-161028J0D01*
G01*
X21119944Y-10666000D02*
G75*
G03*
X21442000Y-10666000I161028J0D01*
G01*
X26942500Y-6478000D02*
G75*
G03*
X26620444Y-6478000I-161028J0D01*
G01*
X26620444Y-6478000D02*
G75*
G03*
X26942500Y-6478000I161028J0D01*
G01*
X14923005Y-5520000D02*
G75*
G03*
X14724000Y-5513000I-99556J2000D01*
G01*
X19462200Y-8738600D02*
G75*
G03*
X19140144Y-8738600I-161028J0D01*
G01*
X19140144Y-8738600D02*
G75*
G03*
X19462200Y-8738600I161028J0D01*
G01*
X14724001Y-4929000D02*
G75*
G03*
X14924000Y-4931000I99999J-1040D01*
G01*
X7454331Y-5639800D02*
G75*
G03*
X6654269Y-5639800I-400031J0D01*
G01*
X6654269Y-5639800D02*
G75*
G03*
X7454331Y-5639800I400031J0D01*
G01*
X26339348Y-4216344D02*
G75*
G03*
X26134912Y-4417350I-3410J-200997D01*
G01*
X14724000Y-4929000D02*
X14728000Y-3810000D01*
X17848283Y-9567203D02*
X19125670Y-9566156D01*
X26848031Y-8687800D02*
G75*
G03*
X26528969Y-8687800I-159531J0D01*
G01*
X26528969Y-8687800D02*
G75*
G03*
X26848031Y-8687800I159531J0D01*
G01*
X24642028Y-3904000D02*
G75*
G03*
X24319972Y-3904000I-161028J0D01*
G01*
X24319972Y-3904000D02*
G75*
G03*
X24642028Y-3904000I161028J0D01*
G01*
X6259269Y-5648800D02*
G75*
G03*
X6032977Y-5648800I-113146J0D01*
G01*
X6032977Y-5648800D02*
G75*
G03*
X6259269Y-5648800I113146J0D01*
G01*
X17633400Y-10566875D02*
X17633400Y-9766775D01*
X19784876Y-9716400D02*
G75*
G03*
X19552650Y-9716400I-116113J0D01*
G01*
X19552650Y-9716400D02*
G75*
G03*
X19784876Y-9716400I116113J0D01*
G01*
X15980000Y-2790573D02*
G75*
G03*
X14910000Y-3811575I13370J-1085187D01*
G01*
X19321630Y-9777949D02*
G75*
G03*
X19125670Y-9566156I-197940J13409D01*
G01*
X15461056Y-10425000D02*
G75*
G03*
X15139000Y-10425000I-161028J0D01*
G01*
X15139000Y-10425000D02*
G75*
G03*
X15461056Y-10425000I161028J0D01*
G01*
X14720000Y-7657000D02*
X14724000Y-5513000D01*
X20769132Y-3142446D02*
G75*
G03*
X20968000Y-3343446I201008J-4D01*
G01*
X24553002Y-12469570D02*
G75*
G03*
X25283000Y-12253575I229918J564530D01*
G01*
X20769867Y-2990703D02*
G75*
G03*
X20568872Y-2789703I-200997J3D01*
G01*
X19172129Y-2790703D02*
X15980000Y-2790575D01*
X14918995Y-10576575D02*
G75*
G03*
X15118000Y-10777575I201015J5D01*
G01*
X17434028Y-10448000D02*
G75*
G03*
X17111972Y-10448000I-161028J0D01*
G01*
X17111972Y-10448000D02*
G75*
G03*
X17434028Y-10448000I161028J0D01*
G01*
X25936219Y-4864152D02*
G75*
G03*
X26137219Y-4663157I-2J201002D01*
G01*
X17358493Y-10794237D02*
X15118000Y-10777575D01*
X17358493Y-10794235D02*
G75*
G03*
X17633400Y-10567400I46097J224135D01*
G01*
X21592692Y-9708900D02*
G75*
G03*
X21366400Y-9708900I-113146J0D01*
G01*
X21366400Y-9708900D02*
G75*
G03*
X21592692Y-9708900I113146J0D01*
G01*
X14919000Y-8242000D02*
X14919000Y-10577000D01*
X20971400Y-9717900D02*
G75*
G03*
X20171338Y-9717900I-400031J0D01*
G01*
X20171338Y-9717900D02*
G75*
G03*
X20971400Y-9717900I400031J0D01*
G01*
X25936219Y-4864157D02*
X25009000Y-4871575D01*
X26839000Y-9412575D02*
G75*
G03*
X27101000Y-8194575I-1858590J1036975D01*
G01*
X20568872Y-2789703D02*
X19172129Y-2790703D01*
X24609000Y-3600575D02*
X22741000Y-3592575D01*
X15445929Y-4967000D02*
G75*
G03*
X15122071Y-4967000I-161929J0D01*
G01*
X15122071Y-4967000D02*
G75*
G03*
X15445929Y-4967000I161929J0D01*
G01*
X19321632Y-9777949D02*
G75*
G03*
X20209410Y-10910300I1118628J-37171D01*
G01*
X24809132Y-4670575D02*
G75*
G03*
X25009000Y-4871575I200998J-5D01*
G01*
X17848283Y-9567202D02*
G75*
G03*
X17633400Y-9766775I-12893J-201588D01*
G01*
X20769129Y-3142446D02*
X20769872Y-2990703D01*
D11*
D10*
X2703500Y-7856000D02*
X2743500Y-7896000D01*
X2743500Y-7856000D02*
X2703500Y-7896000D01*
X2755500Y-7620000D02*
X2795500Y-7660000D01*
X2795500Y-7620000D02*
X2755500Y-7660000D01*
X2862421Y-7736130D02*
X2902421Y-7776130D01*
X2902421Y-7736130D02*
X2862421Y-7776130D01*
X2957399Y-7467495D02*
X2997399Y-7507495D01*
X2997399Y-7467495D02*
X2957399Y-7507495D01*
X2962235Y-7742235D02*
X3002235Y-7782235D01*
X3002235Y-7742235D02*
X2962235Y-7782235D01*
X2974589Y-7368983D02*
X3014589Y-7408983D01*
X3014589Y-7368983D02*
X2974589Y-7408983D01*
X3125000Y-7895000D02*
X3165000Y-7935000D01*
X3165000Y-7895000D02*
X3125000Y-7935000D01*
X3197500Y-7968279D02*
X3237500Y-8008279D01*
X3237500Y-7968279D02*
X3197500Y-8008279D01*
X3202000Y-7127000D02*
X3242000Y-7167000D01*
X3242000Y-7127000D02*
X3202000Y-7167000D01*
X3244149Y-7512844D02*
X3284149Y-7552844D01*
X3284149Y-7512844D02*
X3244149Y-7552844D01*
X3548000Y-6957000D02*
X3588000Y-6997000D01*
X3588000Y-6957000D02*
X3548000Y-6997000D01*
X3551000Y-7065500D02*
X3591000Y-7105500D01*
X3591000Y-7065500D02*
X3551000Y-7105500D01*
X3656000Y-5724469D02*
X3696000Y-5764469D01*
X3696000Y-5724469D02*
X3656000Y-5764469D01*
X3661815Y-7257815D02*
X3701815Y-7297815D01*
X3701815Y-7257815D02*
X3661815Y-7297815D01*
X3761788Y-7255476D02*
X3801788Y-7295476D01*
X3801788Y-7255476D02*
X3761788Y-7295476D01*
X3864000Y-7255795D02*
X3904000Y-7295795D01*
X3904000Y-7255795D02*
X3864000Y-7295795D01*
X3957000Y-6133000D02*
X3997000Y-6173000D01*
X3997000Y-6133000D02*
X3957000Y-6173000D01*
X4124945Y-8745055D02*
X4164945Y-8785055D01*
X4164945Y-8745055D02*
X4124945Y-8785055D01*
X4360000Y-6134000D02*
X4400000Y-6174000D01*
X4400000Y-6134000D02*
X4360000Y-6174000D01*
X4701000Y-5378000D02*
X4741000Y-5418000D01*
X4741000Y-5378000D02*
X4701000Y-5418000D01*
X5034000Y-8391000D02*
X5074000Y-8431000D01*
X5074000Y-8391000D02*
X5034000Y-8431000D01*
X5121265Y-7671265D02*
X5161265Y-7711265D01*
X5161265Y-7671265D02*
X5121265Y-7711265D01*
X5262000Y-7514000D02*
X5302000Y-7554000D01*
X5302000Y-7514000D02*
X5262000Y-7554000D01*
X5278000Y-4818000D02*
X5318000Y-4858000D01*
X5318000Y-4818000D02*
X5278000Y-4858000D01*
X5317167Y-7430593D02*
X5357167Y-7470593D01*
X5357167Y-7430593D02*
X5317167Y-7470593D01*
X5802215Y-5398215D02*
X5842215Y-5438215D01*
X5842215Y-5398215D02*
X5802215Y-5438215D01*
X5802600Y-7531000D02*
X5842600Y-7571000D01*
X5842600Y-7531000D02*
X5802600Y-7571000D01*
X5804865Y-5664265D02*
X5844865Y-5704265D01*
X5844865Y-5664265D02*
X5804865Y-5704265D01*
X5900000Y-6957000D02*
X5940000Y-6997000D01*
X5940000Y-6957000D02*
X5900000Y-6997000D01*
X7511000Y-4099500D02*
X7551000Y-4139500D01*
X7551000Y-4099500D02*
X7511000Y-4139500D01*
X8299000Y-7291000D02*
X8339000Y-7331000D01*
X8339000Y-7291000D02*
X8299000Y-7331000D01*
X8304000Y-6169000D02*
X8344000Y-6209000D01*
X8344000Y-6169000D02*
X8304000Y-6209000D01*
X8304000Y-7763000D02*
X8344000Y-7803000D01*
X8344000Y-7763000D02*
X8304000Y-7803000D01*
X8309285Y-5734085D02*
X8349285Y-5774085D01*
X8349285Y-5734085D02*
X8309285Y-5774085D01*
X10102800Y-5617000D02*
X10142800Y-5657000D01*
X10142800Y-5617000D02*
X10102800Y-5657000D01*
X10102800Y-7474958D02*
X10142800Y-7514958D01*
X10142800Y-7474958D02*
X10102800Y-7514958D01*
X10104000Y-5054000D02*
X10144000Y-5094000D01*
X10144000Y-5054000D02*
X10104000Y-5094000D01*
X10104000Y-7226500D02*
X10144000Y-7266500D01*
X10144000Y-7226500D02*
X10104000Y-7266500D01*
X11448100Y-3586800D02*
X11488100Y-3626800D01*
X11488100Y-3586800D02*
X11448100Y-3626800D01*
X11549700Y-3586800D02*
X11589700Y-3626800D01*
X11589700Y-3586800D02*
X11549700Y-3626800D01*
X11905300Y-8489000D02*
X11945300Y-8529000D01*
X11945300Y-8489000D02*
X11905300Y-8529000D01*
X11905400Y-6816000D02*
X11945400Y-6856000D01*
X11945400Y-6816000D02*
X11905400Y-6856000D01*
X11907000Y-6433000D02*
X11947000Y-6473000D01*
X11947000Y-6433000D02*
X11907000Y-6473000D01*
X11935000Y-8207000D02*
X11975000Y-8247000D01*
X11975000Y-8207000D02*
X11935000Y-8247000D01*
X11956100Y-3586800D02*
X11996100Y-3626800D01*
X11996100Y-3586800D02*
X11956100Y-3626800D01*
X12057700Y-3586800D02*
X12097700Y-3626800D01*
X12097700Y-3586800D02*
X12057700Y-3626800D01*
X12159300Y-3586800D02*
X12199300Y-3626800D01*
X12199300Y-3586800D02*
X12159300Y-3626800D01*
X17854000Y-3599000D02*
X17894000Y-3639000D01*
X17894000Y-3599000D02*
X17854000Y-3639000D01*
X17956000Y-3600000D02*
X17996000Y-3640000D01*
X17996000Y-3600000D02*
X17956000Y-3640000D01*
X18364000Y-3604000D02*
X18404000Y-3644000D01*
X18404000Y-3604000D02*
X18364000Y-3644000D01*
X18393235Y-7615235D02*
X18433235Y-7655235D01*
X18433235Y-7615235D02*
X18393235Y-7655235D01*
X18394000Y-7903000D02*
X18434000Y-7943000D01*
X18434000Y-7903000D02*
X18394000Y-7943000D01*
X18395000Y-5610000D02*
X18435000Y-5650000D01*
X18435000Y-5610000D02*
X18395000Y-5650000D01*
X18395000Y-6189000D02*
X18435000Y-6229000D01*
X18435000Y-6189000D02*
X18395000Y-6229000D01*
X18464000Y-3606000D02*
X18504000Y-3646000D01*
X18504000Y-3606000D02*
X18464000Y-3646000D01*
X18569000Y-3612000D02*
X18609000Y-3652000D01*
X18609000Y-3612000D02*
X18569000Y-3652000D01*
X20194000Y-7000500D02*
X20234000Y-7040500D01*
X20234000Y-7000500D02*
X20194000Y-7040500D01*
X20196000Y-6765500D02*
X20236000Y-6805500D01*
X20236000Y-6765500D02*
X20196000Y-6805500D01*
X20198000Y-5540500D02*
X20238000Y-5580500D01*
X20238000Y-5540500D02*
X20198000Y-5580500D01*
X20207000Y-5808000D02*
X20247000Y-5848000D01*
X20247000Y-5808000D02*
X20207000Y-5848000D01*
X21988000Y-7216500D02*
X22028000Y-7256500D01*
X22028000Y-7216500D02*
X21988000Y-7256500D01*
X21993000Y-7496500D02*
X22033000Y-7536500D01*
X22033000Y-7496500D02*
X21993000Y-7536500D01*
X21994000Y-6550000D02*
X22034000Y-6590000D01*
X22034000Y-6550000D02*
X21994000Y-6590000D01*
X22002000Y-6086500D02*
X22042000Y-6126500D01*
X22042000Y-6086500D02*
X22002000Y-6126500D01*
X23678000Y-6110000D02*
X23718000Y-6150000D01*
X23718000Y-6110000D02*
X23678000Y-6150000D01*
X23787000Y-8304000D02*
X23827000Y-8344000D01*
X23827000Y-8304000D02*
X23787000Y-8344000D01*
X23792000Y-6544000D02*
X23832000Y-6584000D01*
X23832000Y-6544000D02*
X23792000Y-6584000D01*
X23792000Y-7736000D02*
X23832000Y-7776000D01*
X23832000Y-7736000D02*
X23792000Y-7776000D01*
X24209735Y-7995735D02*
X24249735Y-8035735D01*
X24249735Y-7995735D02*
X24209735Y-8035735D01*
X24333000Y-8090000D02*
X24373000Y-8130000D01*
X24373000Y-8090000D02*
X24333000Y-8130000D01*
X24402000Y-6077000D02*
X24442000Y-6117000D01*
X24442000Y-6077000D02*
X24402000Y-6117000D01*
X24485000Y-6136000D02*
X24525000Y-6176000D01*
X24525000Y-6136000D02*
X24485000Y-6176000D01*
X24564000Y-6633000D02*
X24604000Y-6673000D01*
X24604000Y-6633000D02*
X24564000Y-6673000D01*
X24694000Y-10215000D02*
X24734000Y-10255000D01*
X24734000Y-10215000D02*
X24694000Y-10255000D01*
X24949000Y-10231000D02*
X24989000Y-10271000D01*
X24989000Y-10231000D02*
X24949000Y-10271000D01*
X24949695Y-6877695D02*
X24989695Y-6917695D01*
X24989695Y-6877695D02*
X24949695Y-6917695D01*
X24954790Y-6770070D02*
X24994790Y-6810070D01*
X24994790Y-6770070D02*
X24954790Y-6810070D01*
X25093045Y-6473955D02*
X25133045Y-6513955D01*
X25133045Y-6473955D02*
X25093045Y-6513955D01*
X25121000Y-8131000D02*
X25161000Y-8171000D01*
X25161000Y-8131000D02*
X25121000Y-8171000D01*
X25163000Y-10310148D02*
X25203000Y-10350148D01*
X25203000Y-10310148D02*
X25163000Y-10350148D01*
X25188415Y-6416585D02*
X25228415Y-6456585D01*
X25228415Y-6416585D02*
X25188415Y-6456585D01*
X25691000Y-7302000D02*
X25731000Y-7342000D01*
X25731000Y-7302000D02*
X25691000Y-7342000D01*
X25886000Y-7614000D02*
X25926000Y-7654000D01*
X25926000Y-7614000D02*
X25886000Y-7654000D01*
X25895000Y-8694265D02*
X25935000Y-8734265D01*
X25935000Y-8694265D02*
X25895000Y-8734265D01*
X25921000Y-6579000D02*
X25961000Y-6619000D01*
X25961000Y-6579000D02*
X25921000Y-6619000D01*
X25954000Y-6424000D02*
X25994000Y-6464000D01*
X25994000Y-6424000D02*
X25954000Y-6464000D01*
X26038904Y-7665489D02*
X26078904Y-7705489D01*
X26078904Y-7665489D02*
X26038904Y-7705489D01*
X26070389Y-6897858D02*
X26110389Y-6937858D01*
X26110389Y-6897858D02*
X26070389Y-6937858D01*
X26086265Y-8694265D02*
X26126265Y-8734265D01*
X26126265Y-8694265D02*
X26086265Y-8734265D01*
X26307000Y-6910000D02*
X26347000Y-6950000D01*
X26347000Y-6910000D02*
X26307000Y-6950000D01*
X26312000Y-7903000D02*
X26352000Y-7943000D01*
X26352000Y-7903000D02*
X26312000Y-7943000D01*
X26345000Y-7432000D02*
X26385000Y-7472000D01*
X26385000Y-7432000D02*
X26345000Y-7472000D01*
X26346000Y-7693000D02*
X26386000Y-7733000D01*
X26386000Y-7693000D02*
X26346000Y-7733000D01*
X26364000Y-8392000D02*
X26404000Y-8432000D01*
X26404000Y-8392000D02*
X26364000Y-8432000D01*
X26417500Y-7165000D02*
X26457500Y-7205000D01*
X26457500Y-7165000D02*
X26417500Y-7205000D01*
X26417765Y-6803235D02*
X26457765Y-6843235D01*
X26457765Y-6803235D02*
X26417765Y-6843235D01*
X26607000Y-7594000D02*
X26647000Y-7634000D01*
X26647000Y-7594000D02*
X26607000Y-7634000D01*
X26622880Y-7475200D02*
X26662880Y-7515200D01*
X26662880Y-7475200D02*
X26622880Y-7515200D01*
X26725242Y-7474255D02*
X26765242Y-7514255D01*
X26765242Y-7474255D02*
X26725242Y-7514255D01*
X4317500Y-10122000D02*
G75*
G03*
X4242500Y-10122000I-37500J0D01*
G01*
X4242500Y-10122000D02*
G75*
G03*
X4317500Y-10122000I37500J0D01*
G01*
X4490705Y-10022000D02*
G75*
G03*
X4415705Y-10022000I-37500J0D01*
G01*
X4415705Y-10022000D02*
G75*
G03*
X4490705Y-10022000I37500J0D01*
G01*
X25220275Y-10028250D02*
G75*
G03*
X25145275Y-10028250I-37500J0D01*
G01*
X25145275Y-10028250D02*
G75*
G03*
X25220275Y-10028250I37500J0D01*
G01*
X25393480Y-10128250D02*
G75*
G03*
X25318480Y-10128250I-37500J0D01*
G01*
X25318480Y-10128250D02*
G75*
G03*
X25393480Y-10128250I37500J0D01*
G01*
X3409000Y-5217000D02*
X3409000Y-5297000D01*
X3369000Y-5257000D02*
X3449000Y-5257000D01*
X3409000Y-5471000D02*
X3409000Y-5551000D01*
X3369000Y-5511000D02*
X3449000Y-5511000D01*
X3409000Y-5725000D02*
X3409000Y-5805000D01*
X3369000Y-5765000D02*
X3449000Y-5765000D01*
X3409000Y-5979000D02*
X3409000Y-6059000D01*
X3369000Y-6019000D02*
X3449000Y-6019000D01*
X3409000Y-6233000D02*
X3409000Y-6313000D01*
X3369000Y-6273000D02*
X3449000Y-6273000D01*
X3409000Y-6487000D02*
X3409000Y-6567000D01*
X3369000Y-6527000D02*
X3449000Y-6527000D01*
X3409000Y-6741000D02*
X3409000Y-6821000D01*
X3369000Y-6781000D02*
X3449000Y-6781000D01*
X3409000Y-6995000D02*
X3409000Y-7075000D01*
X3369000Y-7035000D02*
X3449000Y-7035000D01*
X3409000Y-7249000D02*
X3409000Y-7329000D01*
X3369000Y-7289000D02*
X3449000Y-7289000D01*
X3409000Y-7503000D02*
X3409000Y-7583000D01*
X3369000Y-7543000D02*
X3449000Y-7543000D01*
X3409000Y-7757000D02*
X3409000Y-7837000D01*
X3369000Y-7797000D02*
X3449000Y-7797000D01*
X3409000Y-8011000D02*
X3409000Y-8091000D01*
X3369000Y-8051000D02*
X3449000Y-8051000D01*
X4933000Y-5217000D02*
X4933000Y-5297000D01*
X4893000Y-5257000D02*
X4973000Y-5257000D01*
X4933000Y-5471000D02*
X4933000Y-5551000D01*
X4893000Y-5511000D02*
X4973000Y-5511000D01*
X4933000Y-5725000D02*
X4933000Y-5805000D01*
X4893000Y-5765000D02*
X4973000Y-5765000D01*
X4933000Y-5979000D02*
X4933000Y-6059000D01*
X4893000Y-6019000D02*
X4973000Y-6019000D01*
X4933000Y-6233000D02*
X4933000Y-6313000D01*
X4893000Y-6273000D02*
X4973000Y-6273000D01*
X4933000Y-6487000D02*
X4933000Y-6567000D01*
X4893000Y-6527000D02*
X4973000Y-6527000D01*
X4933000Y-6741000D02*
X4933000Y-6821000D01*
X4893000Y-6781000D02*
X4973000Y-6781000D01*
X4933000Y-6995000D02*
X4933000Y-7075000D01*
X4893000Y-7035000D02*
X4973000Y-7035000D01*
X4933000Y-7249000D02*
X4933000Y-7329000D01*
X4893000Y-7289000D02*
X4973000Y-7289000D01*
X4933000Y-7503000D02*
X4933000Y-7583000D01*
X4893000Y-7543000D02*
X4973000Y-7543000D01*
X4933000Y-7757000D02*
X4933000Y-7837000D01*
X4893000Y-7797000D02*
X4973000Y-7797000D01*
X4933000Y-8011000D02*
X4933000Y-8091000D01*
X4893000Y-8051000D02*
X4973000Y-8051000D01*
X24707000Y-5221000D02*
X24707000Y-5301000D01*
X24667000Y-5261000D02*
X24747000Y-5261000D01*
X24707000Y-5475000D02*
X24707000Y-5555000D01*
X24667000Y-5515000D02*
X24747000Y-5515000D01*
X24707000Y-5729000D02*
X24707000Y-5809000D01*
X24667000Y-5769000D02*
X24747000Y-5769000D01*
X24707000Y-5983000D02*
X24707000Y-6063000D01*
X24667000Y-6023000D02*
X24747000Y-6023000D01*
X24707000Y-6237000D02*
X24707000Y-6317000D01*
X24667000Y-6277000D02*
X24747000Y-6277000D01*
X24707000Y-6491000D02*
X24707000Y-6571000D01*
X24667000Y-6531000D02*
X24747000Y-6531000D01*
X24707000Y-6745000D02*
X24707000Y-6825000D01*
X24667000Y-6785000D02*
X24747000Y-6785000D01*
X24707000Y-6999000D02*
X24707000Y-7079000D01*
X24667000Y-7039000D02*
X24747000Y-7039000D01*
X24707000Y-7253000D02*
X24707000Y-7333000D01*
X24667000Y-7293000D02*
X24747000Y-7293000D01*
X24707000Y-7507000D02*
X24707000Y-7587000D01*
X24667000Y-7547000D02*
X24747000Y-7547000D01*
X24707000Y-7761000D02*
X24707000Y-7841000D01*
X24667000Y-7801000D02*
X24747000Y-7801000D01*
X24707000Y-8015000D02*
X24707000Y-8095000D01*
X24667000Y-8055000D02*
X24747000Y-8055000D01*
X26231000Y-5221000D02*
X26231000Y-5301000D01*
X26191000Y-5261000D02*
X26271000Y-5261000D01*
X26231000Y-5475000D02*
X26231000Y-5555000D01*
X26191000Y-5515000D02*
X26271000Y-5515000D01*
X26231000Y-5729000D02*
X26231000Y-5809000D01*
X26191000Y-5769000D02*
X26271000Y-5769000D01*
X26231000Y-5983000D02*
X26231000Y-6063000D01*
X26191000Y-6023000D02*
X26271000Y-6023000D01*
X26231000Y-6237000D02*
X26231000Y-6317000D01*
X26191000Y-6277000D02*
X26271000Y-6277000D01*
X26231000Y-6491000D02*
X26231000Y-6571000D01*
X26191000Y-6531000D02*
X26271000Y-6531000D01*
X26231000Y-6745000D02*
X26231000Y-6825000D01*
X26191000Y-6785000D02*
X26271000Y-6785000D01*
X26231000Y-6999000D02*
X26231000Y-7079000D01*
X26191000Y-7039000D02*
X26271000Y-7039000D01*
X26231000Y-7253000D02*
X26231000Y-7333000D01*
X26191000Y-7293000D02*
X26271000Y-7293000D01*
X26231000Y-7507000D02*
X26231000Y-7587000D01*
X26191000Y-7547000D02*
X26271000Y-7547000D01*
X26231000Y-7761000D02*
X26231000Y-7841000D01*
X26191000Y-7801000D02*
X26271000Y-7801000D01*
X26231000Y-8015000D02*
X26231000Y-8095000D01*
X26191000Y-8055000D02*
X26271000Y-8055000D01*
X3648737Y-5033737D02*
X3648737Y-4976263D01*
X3591263Y-4976263D01*
X3591263Y-5033737D01*
X3648737Y-5033737D01*
X4775737Y-5031737D02*
X4775737Y-4974263D01*
X4718263Y-4974263D01*
X4718263Y-5031737D01*
X4775737Y-5031737D01*
X24920617Y-5037807D02*
X24920617Y-4980333D01*
X24863143Y-4980333D01*
X24863143Y-5037807D01*
X24920617Y-5037807D01*
X26033617Y-5035807D02*
X26033617Y-4978333D01*
X25976143Y-4978333D01*
X25976143Y-5035807D01*
X26033617Y-5035807D01*
X3629000Y-8500000D02*
X3679000Y-8450000D01*
X3629000Y-8400000D01*
X3579000Y-8450000D01*
X3629000Y-8500000D01*
X3883000Y-8500000D02*
X3933000Y-8450000D01*
X3883000Y-8400000D01*
X3833000Y-8450000D01*
X3883000Y-8500000D01*
X4137000Y-8500000D02*
X4187000Y-8450000D01*
X4137000Y-8400000D01*
X4087000Y-8450000D01*
X4137000Y-8500000D01*
X4391000Y-8500000D02*
X4441000Y-8450000D01*
X4391000Y-8400000D01*
X4341000Y-8450000D01*
X4391000Y-8500000D01*
X4645000Y-8500000D02*
X4695000Y-8450000D01*
X4645000Y-8400000D01*
X4595000Y-8450000D01*
X4645000Y-8500000D01*
X24990500Y-8500000D02*
X25040500Y-8450000D01*
X24990500Y-8400000D01*
X24940500Y-8450000D01*
X24990500Y-8500000D01*
X25244500Y-8500000D02*
X25294500Y-8450000D01*
X25244500Y-8400000D01*
X25194500Y-8450000D01*
X25244500Y-8500000D01*
X25498500Y-8500000D02*
X25548500Y-8450000D01*
X25498500Y-8400000D01*
X25448500Y-8450000D01*
X25498500Y-8500000D01*
X25752500Y-8500000D02*
X25802500Y-8450000D01*
X25752500Y-8400000D01*
X25702500Y-8450000D01*
X25752500Y-8500000D01*
X26006500Y-8500000D02*
X26056500Y-8450000D01*
X26006500Y-8400000D01*
X25956500Y-8450000D01*
X26006500Y-8500000D01*
D12*
X4931000Y-8767000D02*
X5051000Y-8887000D01*
X5051000Y-8767000D02*
X4931000Y-8887000D01*
X5051000Y-8827000D02*
G75*
G03*
X4931000Y-8827000I-60000J0D01*
G01*
X4931000Y-8827000D02*
G75*
G03*
X5051000Y-8827000I60000J0D01*
G01*
X4931000Y-9407000D02*
X5051000Y-9527000D01*
X5051000Y-9407000D02*
X4931000Y-9527000D01*
X5051000Y-9467000D02*
G75*
G03*
X4931000Y-9467000I-60000J0D01*
G01*
X4931000Y-9467000D02*
G75*
G03*
X5051000Y-9467000I60000J0D01*
G01*
X24584000Y-8770000D02*
X24704000Y-8890000D01*
X24704000Y-8770000D02*
X24584000Y-8890000D01*
X24704000Y-8830000D02*
G75*
G03*
X24584000Y-8830000I-60000J0D01*
G01*
X24584000Y-8830000D02*
G75*
G03*
X24704000Y-8830000I60000J0D01*
G01*
X24584000Y-9410000D02*
X24704000Y-9530000D01*
X24704000Y-9410000D02*
X24584000Y-9530000D01*
X24704000Y-9470000D02*
G75*
G03*
X24584000Y-9470000I-60000J0D01*
G01*
X24584000Y-9470000D02*
G75*
G03*
X24704000Y-9470000I60000J0D01*
G01*
D11*
X2733779Y-12831078D02*
X2733779Y-12631078D01*
X2733779Y-12631078D02*
X2781398Y-12631078D01*
X2781398Y-12631078D02*
X2809969Y-12640602D01*
X2809969Y-12640602D02*
X2829017Y-12659650D01*
X2829017Y-12659650D02*
X2838541Y-12678697D01*
X2838541Y-12678697D02*
X2848064Y-12716792D01*
X2848064Y-12716792D02*
X2848064Y-12745364D01*
X2848064Y-12745364D02*
X2838541Y-12783459D01*
X2838541Y-12783459D02*
X2829017Y-12802507D01*
X2829017Y-12802507D02*
X2809969Y-12821554D01*
X2809969Y-12821554D02*
X2781398Y-12831078D01*
X2781398Y-12831078D02*
X2733779Y-12831078D01*
X2933779Y-12831078D02*
X2933779Y-12697745D01*
X2933779Y-12735840D02*
X2943303Y-12716792D01*
X2943303Y-12716792D02*
X2952826Y-12707269D01*
X2952826Y-12707269D02*
X2971874Y-12697745D01*
X2971874Y-12697745D02*
X2990922Y-12697745D01*
X3057588Y-12831078D02*
X3057588Y-12697745D01*
X3057588Y-12631078D02*
X3048064Y-12640602D01*
X3048064Y-12640602D02*
X3057588Y-12650126D01*
X3057588Y-12650126D02*
X3067112Y-12640602D01*
X3067112Y-12640602D02*
X3057588Y-12631078D01*
X3057588Y-12631078D02*
X3057588Y-12650126D01*
X3181398Y-12831078D02*
X3162350Y-12821554D01*
X3162350Y-12821554D02*
X3152826Y-12802507D01*
X3152826Y-12802507D02*
X3152826Y-12631078D01*
X3286160Y-12831078D02*
X3267112Y-12821554D01*
X3267112Y-12821554D02*
X3257588Y-12802507D01*
X3257588Y-12802507D02*
X3257588Y-12631078D01*
X3514731Y-12831078D02*
X3514731Y-12631078D01*
X3514731Y-12631078D02*
X3581398Y-12773935D01*
X3581398Y-12773935D02*
X3648064Y-12631078D01*
X3648064Y-12631078D02*
X3648064Y-12831078D01*
X3829017Y-12831078D02*
X3829017Y-12726316D01*
X3829017Y-12726316D02*
X3819493Y-12707269D01*
X3819493Y-12707269D02*
X3800445Y-12697745D01*
X3800445Y-12697745D02*
X3762350Y-12697745D01*
X3762350Y-12697745D02*
X3743303Y-12707269D01*
X3829017Y-12821554D02*
X3809969Y-12831078D01*
X3809969Y-12831078D02*
X3762350Y-12831078D01*
X3762350Y-12831078D02*
X3743303Y-12821554D01*
X3743303Y-12821554D02*
X3733779Y-12802507D01*
X3733779Y-12802507D02*
X3733779Y-12783459D01*
X3733779Y-12783459D02*
X3743303Y-12764411D01*
X3743303Y-12764411D02*
X3762350Y-12754888D01*
X3762350Y-12754888D02*
X3809969Y-12754888D01*
X3809969Y-12754888D02*
X3829017Y-12745364D01*
X3924255Y-12697745D02*
X3924255Y-12897745D01*
X3924255Y-12707269D02*
X3943303Y-12697745D01*
X3943303Y-12697745D02*
X3981398Y-12697745D01*
X3981398Y-12697745D02*
X4000445Y-12707269D01*
X4000445Y-12707269D02*
X4009969Y-12716792D01*
X4009969Y-12716792D02*
X4019493Y-12735840D01*
X4019493Y-12735840D02*
X4019493Y-12792983D01*
X4019493Y-12792983D02*
X4009969Y-12812030D01*
X4009969Y-12812030D02*
X4000445Y-12821554D01*
X4000445Y-12821554D02*
X3981398Y-12831078D01*
X3981398Y-12831078D02*
X3943303Y-12831078D01*
X3943303Y-12831078D02*
X3924255Y-12821554D01*
X4105207Y-12812030D02*
X4114731Y-12821554D01*
X4114731Y-12821554D02*
X4105207Y-12831078D01*
X4105207Y-12831078D02*
X4095684Y-12821554D01*
X4095684Y-12821554D02*
X4105207Y-12812030D01*
X4105207Y-12812030D02*
X4105207Y-12831078D01*
X4105207Y-12707269D02*
X4114731Y-12716792D01*
X4114731Y-12716792D02*
X4105207Y-12726316D01*
X4105207Y-12726316D02*
X4095684Y-12716792D01*
X4095684Y-12716792D02*
X4105207Y-12707269D01*
X4105207Y-12707269D02*
X4105207Y-12726316D01*
D10*
X2433002Y-13139594D02*
X2473002Y-13179594D01*
X2473002Y-13139594D02*
X2433002Y-13179594D01*
D11*
X2771874Y-13051078D02*
X2790922Y-13051078D01*
X2790922Y-13051078D02*
X2809969Y-13060602D01*
X2809969Y-13060602D02*
X2819493Y-13070126D01*
X2819493Y-13070126D02*
X2829017Y-13089173D01*
X2829017Y-13089173D02*
X2838541Y-13127269D01*
X2838541Y-13127269D02*
X2838541Y-13174888D01*
X2838541Y-13174888D02*
X2829017Y-13212983D01*
X2829017Y-13212983D02*
X2819493Y-13232030D01*
X2819493Y-13232030D02*
X2809969Y-13241554D01*
X2809969Y-13241554D02*
X2790922Y-13251078D01*
X2790922Y-13251078D02*
X2771874Y-13251078D01*
X2771874Y-13251078D02*
X2752826Y-13241554D01*
X2752826Y-13241554D02*
X2743303Y-13232030D01*
X2743303Y-13232030D02*
X2733779Y-13212983D01*
X2733779Y-13212983D02*
X2724255Y-13174888D01*
X2724255Y-13174888D02*
X2724255Y-13127269D01*
X2724255Y-13127269D02*
X2733779Y-13089173D01*
X2733779Y-13089173D02*
X2743303Y-13070126D01*
X2743303Y-13070126D02*
X2752826Y-13060602D01*
X2752826Y-13060602D02*
X2771874Y-13051078D01*
X2924255Y-13232030D02*
X2933779Y-13241554D01*
X2933779Y-13241554D02*
X2924255Y-13251078D01*
X2924255Y-13251078D02*
X2914731Y-13241554D01*
X2914731Y-13241554D02*
X2924255Y-13232030D01*
X2924255Y-13232030D02*
X2924255Y-13251078D01*
X3105207Y-13117745D02*
X3105207Y-13251078D01*
X3057588Y-13041554D02*
X3009969Y-13184411D01*
X3009969Y-13184411D02*
X3133779Y-13184411D01*
X3248064Y-13051078D02*
X3267112Y-13051078D01*
X3267112Y-13051078D02*
X3286160Y-13060602D01*
X3286160Y-13060602D02*
X3295684Y-13070126D01*
X3295684Y-13070126D02*
X3305207Y-13089173D01*
X3305207Y-13089173D02*
X3314731Y-13127269D01*
X3314731Y-13127269D02*
X3314731Y-13174888D01*
X3314731Y-13174888D02*
X3305207Y-13212983D01*
X3305207Y-13212983D02*
X3295684Y-13232030D01*
X3295684Y-13232030D02*
X3286160Y-13241554D01*
X3286160Y-13241554D02*
X3267112Y-13251078D01*
X3267112Y-13251078D02*
X3248064Y-13251078D01*
X3248064Y-13251078D02*
X3229017Y-13241554D01*
X3229017Y-13241554D02*
X3219493Y-13232030D01*
X3219493Y-13232030D02*
X3209969Y-13212983D01*
X3209969Y-13212983D02*
X3200445Y-13174888D01*
X3200445Y-13174888D02*
X3200445Y-13127269D01*
X3200445Y-13127269D02*
X3209969Y-13089173D01*
X3209969Y-13089173D02*
X3219493Y-13070126D01*
X3219493Y-13070126D02*
X3229017Y-13060602D01*
X3229017Y-13060602D02*
X3248064Y-13051078D01*
X3438541Y-13051078D02*
X3457588Y-13051078D01*
X3457588Y-13051078D02*
X3476636Y-13060602D01*
X3476636Y-13060602D02*
X3486160Y-13070126D01*
X3486160Y-13070126D02*
X3495684Y-13089173D01*
X3495684Y-13089173D02*
X3505207Y-13127269D01*
X3505207Y-13127269D02*
X3505207Y-13174888D01*
X3505207Y-13174888D02*
X3495684Y-13212983D01*
X3495684Y-13212983D02*
X3486160Y-13232030D01*
X3486160Y-13232030D02*
X3476636Y-13241554D01*
X3476636Y-13241554D02*
X3457588Y-13251078D01*
X3457588Y-13251078D02*
X3438541Y-13251078D01*
X3438541Y-13251078D02*
X3419493Y-13241554D01*
X3419493Y-13241554D02*
X3409969Y-13232030D01*
X3409969Y-13232030D02*
X3400445Y-13212983D01*
X3400445Y-13212983D02*
X3390922Y-13174888D01*
X3390922Y-13174888D02*
X3390922Y-13127269D01*
X3390922Y-13127269D02*
X3400445Y-13089173D01*
X3400445Y-13089173D02*
X3409969Y-13070126D01*
X3409969Y-13070126D02*
X3419493Y-13060602D01*
X3419493Y-13060602D02*
X3438541Y-13051078D01*
X3590922Y-13251078D02*
X3590922Y-13117745D01*
X3590922Y-13136792D02*
X3600445Y-13127269D01*
X3600445Y-13127269D02*
X3619493Y-13117745D01*
X3619493Y-13117745D02*
X3648065Y-13117745D01*
X3648065Y-13117745D02*
X3667112Y-13127269D01*
X3667112Y-13127269D02*
X3676636Y-13146316D01*
X3676636Y-13146316D02*
X3676636Y-13251078D01*
X3676636Y-13146316D02*
X3686160Y-13127269D01*
X3686160Y-13127269D02*
X3705207Y-13117745D01*
X3705207Y-13117745D02*
X3733779Y-13117745D01*
X3733779Y-13117745D02*
X3752826Y-13127269D01*
X3752826Y-13127269D02*
X3762350Y-13146316D01*
X3762350Y-13146316D02*
X3762350Y-13251078D01*
X3857588Y-13251078D02*
X3857588Y-13117745D01*
X3857588Y-13136792D02*
X3867112Y-13127269D01*
X3867112Y-13127269D02*
X3886160Y-13117745D01*
X3886160Y-13117745D02*
X3914731Y-13117745D01*
X3914731Y-13117745D02*
X3933779Y-13127269D01*
X3933779Y-13127269D02*
X3943303Y-13146316D01*
X3943303Y-13146316D02*
X3943303Y-13251078D01*
X3943303Y-13146316D02*
X3952826Y-13127269D01*
X3952826Y-13127269D02*
X3971874Y-13117745D01*
X3971874Y-13117745D02*
X4000445Y-13117745D01*
X4000445Y-13117745D02*
X4019493Y-13127269D01*
X4019493Y-13127269D02*
X4029017Y-13146316D01*
X4029017Y-13146316D02*
X4029017Y-13251078D01*
X4419493Y-13041554D02*
X4248065Y-13298697D01*
X4676636Y-13051078D02*
X4695684Y-13051078D01*
X4695684Y-13051078D02*
X4714731Y-13060602D01*
X4714731Y-13060602D02*
X4724255Y-13070126D01*
X4724255Y-13070126D02*
X4733779Y-13089173D01*
X4733779Y-13089173D02*
X4743303Y-13127269D01*
X4743303Y-13127269D02*
X4743303Y-13174888D01*
X4743303Y-13174888D02*
X4733779Y-13212983D01*
X4733779Y-13212983D02*
X4724255Y-13232030D01*
X4724255Y-13232030D02*
X4714731Y-13241554D01*
X4714731Y-13241554D02*
X4695684Y-13251078D01*
X4695684Y-13251078D02*
X4676636Y-13251078D01*
X4676636Y-13251078D02*
X4657589Y-13241554D01*
X4657589Y-13241554D02*
X4648065Y-13232030D01*
X4648065Y-13232030D02*
X4638541Y-13212983D01*
X4638541Y-13212983D02*
X4629017Y-13174888D01*
X4629017Y-13174888D02*
X4629017Y-13127269D01*
X4629017Y-13127269D02*
X4638541Y-13089173D01*
X4638541Y-13089173D02*
X4648065Y-13070126D01*
X4648065Y-13070126D02*
X4657589Y-13060602D01*
X4657589Y-13060602D02*
X4676636Y-13051078D01*
X4829017Y-13232030D02*
X4838541Y-13241554D01*
X4838541Y-13241554D02*
X4829017Y-13251078D01*
X4829017Y-13251078D02*
X4819493Y-13241554D01*
X4819493Y-13241554D02*
X4829017Y-13232030D01*
X4829017Y-13232030D02*
X4829017Y-13251078D01*
X4962350Y-13051078D02*
X4981398Y-13051078D01*
X4981398Y-13051078D02*
X5000446Y-13060602D01*
X5000446Y-13060602D02*
X5009970Y-13070126D01*
X5009970Y-13070126D02*
X5019493Y-13089173D01*
X5019493Y-13089173D02*
X5029017Y-13127269D01*
X5029017Y-13127269D02*
X5029017Y-13174888D01*
X5029017Y-13174888D02*
X5019493Y-13212983D01*
X5019493Y-13212983D02*
X5009970Y-13232030D01*
X5009970Y-13232030D02*
X5000446Y-13241554D01*
X5000446Y-13241554D02*
X4981398Y-13251078D01*
X4981398Y-13251078D02*
X4962350Y-13251078D01*
X4962350Y-13251078D02*
X4943303Y-13241554D01*
X4943303Y-13241554D02*
X4933779Y-13232030D01*
X4933779Y-13232030D02*
X4924255Y-13212983D01*
X4924255Y-13212983D02*
X4914731Y-13174888D01*
X4914731Y-13174888D02*
X4914731Y-13127269D01*
X4914731Y-13127269D02*
X4924255Y-13089173D01*
X4924255Y-13089173D02*
X4933779Y-13070126D01*
X4933779Y-13070126D02*
X4943303Y-13060602D01*
X4943303Y-13060602D02*
X4962350Y-13051078D01*
X5219493Y-13251078D02*
X5105208Y-13251078D01*
X5162350Y-13251078D02*
X5162350Y-13051078D01*
X5162350Y-13051078D02*
X5143303Y-13079650D01*
X5143303Y-13079650D02*
X5124255Y-13098697D01*
X5124255Y-13098697D02*
X5105208Y-13108221D01*
X5400446Y-13051078D02*
X5305208Y-13051078D01*
X5305208Y-13051078D02*
X5295684Y-13146316D01*
X5295684Y-13146316D02*
X5305208Y-13136792D01*
X5305208Y-13136792D02*
X5324255Y-13127269D01*
X5324255Y-13127269D02*
X5371874Y-13127269D01*
X5371874Y-13127269D02*
X5390922Y-13136792D01*
X5390922Y-13136792D02*
X5400446Y-13146316D01*
X5400446Y-13146316D02*
X5409970Y-13165364D01*
X5409970Y-13165364D02*
X5409970Y-13212983D01*
X5409970Y-13212983D02*
X5400446Y-13232030D01*
X5400446Y-13232030D02*
X5390922Y-13241554D01*
X5390922Y-13241554D02*
X5371874Y-13251078D01*
X5371874Y-13251078D02*
X5324255Y-13251078D01*
X5324255Y-13251078D02*
X5305208Y-13241554D01*
X5305208Y-13241554D02*
X5295684Y-13232030D01*
X5476636Y-13051078D02*
X5609969Y-13051078D01*
X5609969Y-13051078D02*
X5524255Y-13251078D01*
X5676636Y-13051078D02*
X5676636Y-13089173D01*
X5752827Y-13051078D02*
X5752827Y-13089173D01*
X6048065Y-13327269D02*
X6038541Y-13317745D01*
X6038541Y-13317745D02*
X6019493Y-13289173D01*
X6019493Y-13289173D02*
X6009970Y-13270126D01*
X6009970Y-13270126D02*
X6000446Y-13241554D01*
X6000446Y-13241554D02*
X5990922Y-13193935D01*
X5990922Y-13193935D02*
X5990922Y-13155840D01*
X5990922Y-13155840D02*
X6000446Y-13108221D01*
X6000446Y-13108221D02*
X6009970Y-13079650D01*
X6009970Y-13079650D02*
X6019493Y-13060602D01*
X6019493Y-13060602D02*
X6038541Y-13032030D01*
X6038541Y-13032030D02*
X6048065Y-13022507D01*
X6133779Y-13251078D02*
X6171874Y-13251078D01*
X6171874Y-13251078D02*
X6190922Y-13241554D01*
X6190922Y-13241554D02*
X6200446Y-13232030D01*
X6200446Y-13232030D02*
X6219493Y-13203459D01*
X6219493Y-13203459D02*
X6229017Y-13165364D01*
X6229017Y-13165364D02*
X6229017Y-13089173D01*
X6229017Y-13089173D02*
X6219493Y-13070126D01*
X6219493Y-13070126D02*
X6209970Y-13060602D01*
X6209970Y-13060602D02*
X6190922Y-13051078D01*
X6190922Y-13051078D02*
X6152827Y-13051078D01*
X6152827Y-13051078D02*
X6133779Y-13060602D01*
X6133779Y-13060602D02*
X6124255Y-13070126D01*
X6124255Y-13070126D02*
X6114731Y-13089173D01*
X6114731Y-13089173D02*
X6114731Y-13136792D01*
X6114731Y-13136792D02*
X6124255Y-13155840D01*
X6124255Y-13155840D02*
X6133779Y-13165364D01*
X6133779Y-13165364D02*
X6152827Y-13174888D01*
X6152827Y-13174888D02*
X6190922Y-13174888D01*
X6190922Y-13174888D02*
X6209970Y-13165364D01*
X6209970Y-13165364D02*
X6219493Y-13155840D01*
X6219493Y-13155840D02*
X6229017Y-13136792D01*
X6324255Y-13251078D02*
X6362350Y-13251078D01*
X6362350Y-13251078D02*
X6381398Y-13241554D01*
X6381398Y-13241554D02*
X6390922Y-13232030D01*
X6390922Y-13232030D02*
X6409970Y-13203459D01*
X6409970Y-13203459D02*
X6419493Y-13165364D01*
X6419493Y-13165364D02*
X6419493Y-13089173D01*
X6419493Y-13089173D02*
X6409970Y-13070126D01*
X6409970Y-13070126D02*
X6400446Y-13060602D01*
X6400446Y-13060602D02*
X6381398Y-13051078D01*
X6381398Y-13051078D02*
X6343303Y-13051078D01*
X6343303Y-13051078D02*
X6324255Y-13060602D01*
X6324255Y-13060602D02*
X6314731Y-13070126D01*
X6314731Y-13070126D02*
X6305208Y-13089173D01*
X6305208Y-13089173D02*
X6305208Y-13136792D01*
X6305208Y-13136792D02*
X6314731Y-13155840D01*
X6314731Y-13155840D02*
X6324255Y-13165364D01*
X6324255Y-13165364D02*
X6343303Y-13174888D01*
X6343303Y-13174888D02*
X6381398Y-13174888D01*
X6381398Y-13174888D02*
X6400446Y-13165364D01*
X6400446Y-13165364D02*
X6409970Y-13155840D01*
X6409970Y-13155840D02*
X6419493Y-13136792D01*
X6657589Y-13251078D02*
X6657589Y-13051078D01*
X6743303Y-13251078D02*
X6743303Y-13146316D01*
X6743303Y-13146316D02*
X6733779Y-13127269D01*
X6733779Y-13127269D02*
X6714732Y-13117745D01*
X6714732Y-13117745D02*
X6686160Y-13117745D01*
X6686160Y-13117745D02*
X6667112Y-13127269D01*
X6667112Y-13127269D02*
X6657589Y-13136792D01*
X6867112Y-13251078D02*
X6848065Y-13241554D01*
X6848065Y-13241554D02*
X6838541Y-13232030D01*
X6838541Y-13232030D02*
X6829017Y-13212983D01*
X6829017Y-13212983D02*
X6829017Y-13155840D01*
X6829017Y-13155840D02*
X6838541Y-13136792D01*
X6838541Y-13136792D02*
X6848065Y-13127269D01*
X6848065Y-13127269D02*
X6867112Y-13117745D01*
X6867112Y-13117745D02*
X6895684Y-13117745D01*
X6895684Y-13117745D02*
X6914732Y-13127269D01*
X6914732Y-13127269D02*
X6924255Y-13136792D01*
X6924255Y-13136792D02*
X6933779Y-13155840D01*
X6933779Y-13155840D02*
X6933779Y-13212983D01*
X6933779Y-13212983D02*
X6924255Y-13232030D01*
X6924255Y-13232030D02*
X6914732Y-13241554D01*
X6914732Y-13241554D02*
X6895684Y-13251078D01*
X6895684Y-13251078D02*
X6867112Y-13251078D01*
X7048065Y-13251078D02*
X7029017Y-13241554D01*
X7029017Y-13241554D02*
X7019493Y-13222507D01*
X7019493Y-13222507D02*
X7019493Y-13051078D01*
X7200446Y-13241554D02*
X7181398Y-13251078D01*
X7181398Y-13251078D02*
X7143303Y-13251078D01*
X7143303Y-13251078D02*
X7124255Y-13241554D01*
X7124255Y-13241554D02*
X7114732Y-13222507D01*
X7114732Y-13222507D02*
X7114732Y-13146316D01*
X7114732Y-13146316D02*
X7124255Y-13127269D01*
X7124255Y-13127269D02*
X7143303Y-13117745D01*
X7143303Y-13117745D02*
X7181398Y-13117745D01*
X7181398Y-13117745D02*
X7200446Y-13127269D01*
X7200446Y-13127269D02*
X7209970Y-13146316D01*
X7209970Y-13146316D02*
X7209970Y-13165364D01*
X7209970Y-13165364D02*
X7114732Y-13184411D01*
X7286160Y-13241554D02*
X7305208Y-13251078D01*
X7305208Y-13251078D02*
X7343303Y-13251078D01*
X7343303Y-13251078D02*
X7362351Y-13241554D01*
X7362351Y-13241554D02*
X7371874Y-13222507D01*
X7371874Y-13222507D02*
X7371874Y-13212983D01*
X7371874Y-13212983D02*
X7362351Y-13193935D01*
X7362351Y-13193935D02*
X7343303Y-13184411D01*
X7343303Y-13184411D02*
X7314732Y-13184411D01*
X7314732Y-13184411D02*
X7295684Y-13174888D01*
X7295684Y-13174888D02*
X7286160Y-13155840D01*
X7286160Y-13155840D02*
X7286160Y-13146316D01*
X7286160Y-13146316D02*
X7295684Y-13127269D01*
X7295684Y-13127269D02*
X7314732Y-13117745D01*
X7314732Y-13117745D02*
X7343303Y-13117745D01*
X7343303Y-13117745D02*
X7362351Y-13127269D01*
X7438541Y-13327269D02*
X7448065Y-13317745D01*
X7448065Y-13317745D02*
X7467113Y-13289173D01*
X7467113Y-13289173D02*
X7476636Y-13270126D01*
X7476636Y-13270126D02*
X7486160Y-13241554D01*
X7486160Y-13241554D02*
X7495684Y-13193935D01*
X7495684Y-13193935D02*
X7495684Y-13155840D01*
X7495684Y-13155840D02*
X7486160Y-13108221D01*
X7486160Y-13108221D02*
X7476636Y-13079650D01*
X7476636Y-13079650D02*
X7467113Y-13060602D01*
X7467113Y-13060602D02*
X7448065Y-13032030D01*
X7448065Y-13032030D02*
X7438541Y-13022507D01*
D10*
X2473002Y-13423594D02*
G75*
G03*
X2398002Y-13423594I-37500J0D01*
G01*
X2398002Y-13423594D02*
G75*
G03*
X2473002Y-13423594I37500J0D01*
G01*
D11*
X2771874Y-13315078D02*
X2790922Y-13315078D01*
X2790922Y-13315078D02*
X2809969Y-13324602D01*
X2809969Y-13324602D02*
X2819493Y-13334126D01*
X2819493Y-13334126D02*
X2829017Y-13353173D01*
X2829017Y-13353173D02*
X2838541Y-13391269D01*
X2838541Y-13391269D02*
X2838541Y-13438888D01*
X2838541Y-13438888D02*
X2829017Y-13476983D01*
X2829017Y-13476983D02*
X2819493Y-13496030D01*
X2819493Y-13496030D02*
X2809969Y-13505554D01*
X2809969Y-13505554D02*
X2790922Y-13515078D01*
X2790922Y-13515078D02*
X2771874Y-13515078D01*
X2771874Y-13515078D02*
X2752826Y-13505554D01*
X2752826Y-13505554D02*
X2743303Y-13496030D01*
X2743303Y-13496030D02*
X2733779Y-13476983D01*
X2733779Y-13476983D02*
X2724255Y-13438888D01*
X2724255Y-13438888D02*
X2724255Y-13391269D01*
X2724255Y-13391269D02*
X2733779Y-13353173D01*
X2733779Y-13353173D02*
X2743303Y-13334126D01*
X2743303Y-13334126D02*
X2752826Y-13324602D01*
X2752826Y-13324602D02*
X2771874Y-13315078D01*
X2924255Y-13496030D02*
X2933779Y-13505554D01*
X2933779Y-13505554D02*
X2924255Y-13515078D01*
X2924255Y-13515078D02*
X2914731Y-13505554D01*
X2914731Y-13505554D02*
X2924255Y-13496030D01*
X2924255Y-13496030D02*
X2924255Y-13515078D01*
X3000445Y-13315078D02*
X3133779Y-13315078D01*
X3133779Y-13315078D02*
X3048064Y-13515078D01*
X3305207Y-13315078D02*
X3209969Y-13315078D01*
X3209969Y-13315078D02*
X3200445Y-13410316D01*
X3200445Y-13410316D02*
X3209969Y-13400792D01*
X3209969Y-13400792D02*
X3229017Y-13391269D01*
X3229017Y-13391269D02*
X3276636Y-13391269D01*
X3276636Y-13391269D02*
X3295684Y-13400792D01*
X3295684Y-13400792D02*
X3305207Y-13410316D01*
X3305207Y-13410316D02*
X3314731Y-13429364D01*
X3314731Y-13429364D02*
X3314731Y-13476983D01*
X3314731Y-13476983D02*
X3305207Y-13496030D01*
X3305207Y-13496030D02*
X3295684Y-13505554D01*
X3295684Y-13505554D02*
X3276636Y-13515078D01*
X3276636Y-13515078D02*
X3229017Y-13515078D01*
X3229017Y-13515078D02*
X3209969Y-13505554D01*
X3209969Y-13505554D02*
X3200445Y-13496030D01*
X3438541Y-13315078D02*
X3457588Y-13315078D01*
X3457588Y-13315078D02*
X3476636Y-13324602D01*
X3476636Y-13324602D02*
X3486160Y-13334126D01*
X3486160Y-13334126D02*
X3495684Y-13353173D01*
X3495684Y-13353173D02*
X3505207Y-13391269D01*
X3505207Y-13391269D02*
X3505207Y-13438888D01*
X3505207Y-13438888D02*
X3495684Y-13476983D01*
X3495684Y-13476983D02*
X3486160Y-13496030D01*
X3486160Y-13496030D02*
X3476636Y-13505554D01*
X3476636Y-13505554D02*
X3457588Y-13515078D01*
X3457588Y-13515078D02*
X3438541Y-13515078D01*
X3438541Y-13515078D02*
X3419493Y-13505554D01*
X3419493Y-13505554D02*
X3409969Y-13496030D01*
X3409969Y-13496030D02*
X3400445Y-13476983D01*
X3400445Y-13476983D02*
X3390922Y-13438888D01*
X3390922Y-13438888D02*
X3390922Y-13391269D01*
X3390922Y-13391269D02*
X3400445Y-13353173D01*
X3400445Y-13353173D02*
X3409969Y-13334126D01*
X3409969Y-13334126D02*
X3419493Y-13324602D01*
X3419493Y-13324602D02*
X3438541Y-13315078D01*
X3590922Y-13515078D02*
X3590922Y-13381745D01*
X3590922Y-13400792D02*
X3600445Y-13391269D01*
X3600445Y-13391269D02*
X3619493Y-13381745D01*
X3619493Y-13381745D02*
X3648065Y-13381745D01*
X3648065Y-13381745D02*
X3667112Y-13391269D01*
X3667112Y-13391269D02*
X3676636Y-13410316D01*
X3676636Y-13410316D02*
X3676636Y-13515078D01*
X3676636Y-13410316D02*
X3686160Y-13391269D01*
X3686160Y-13391269D02*
X3705207Y-13381745D01*
X3705207Y-13381745D02*
X3733779Y-13381745D01*
X3733779Y-13381745D02*
X3752826Y-13391269D01*
X3752826Y-13391269D02*
X3762350Y-13410316D01*
X3762350Y-13410316D02*
X3762350Y-13515078D01*
X3857588Y-13515078D02*
X3857588Y-13381745D01*
X3857588Y-13400792D02*
X3867112Y-13391269D01*
X3867112Y-13391269D02*
X3886160Y-13381745D01*
X3886160Y-13381745D02*
X3914731Y-13381745D01*
X3914731Y-13381745D02*
X3933779Y-13391269D01*
X3933779Y-13391269D02*
X3943303Y-13410316D01*
X3943303Y-13410316D02*
X3943303Y-13515078D01*
X3943303Y-13410316D02*
X3952826Y-13391269D01*
X3952826Y-13391269D02*
X3971874Y-13381745D01*
X3971874Y-13381745D02*
X4000445Y-13381745D01*
X4000445Y-13381745D02*
X4019493Y-13391269D01*
X4019493Y-13391269D02*
X4029017Y-13410316D01*
X4029017Y-13410316D02*
X4029017Y-13515078D01*
X4419493Y-13305554D02*
X4248065Y-13562697D01*
X4676636Y-13315078D02*
X4695684Y-13315078D01*
X4695684Y-13315078D02*
X4714731Y-13324602D01*
X4714731Y-13324602D02*
X4724255Y-13334126D01*
X4724255Y-13334126D02*
X4733779Y-13353173D01*
X4733779Y-13353173D02*
X4743303Y-13391269D01*
X4743303Y-13391269D02*
X4743303Y-13438888D01*
X4743303Y-13438888D02*
X4733779Y-13476983D01*
X4733779Y-13476983D02*
X4724255Y-13496030D01*
X4724255Y-13496030D02*
X4714731Y-13505554D01*
X4714731Y-13505554D02*
X4695684Y-13515078D01*
X4695684Y-13515078D02*
X4676636Y-13515078D01*
X4676636Y-13515078D02*
X4657589Y-13505554D01*
X4657589Y-13505554D02*
X4648065Y-13496030D01*
X4648065Y-13496030D02*
X4638541Y-13476983D01*
X4638541Y-13476983D02*
X4629017Y-13438888D01*
X4629017Y-13438888D02*
X4629017Y-13391269D01*
X4629017Y-13391269D02*
X4638541Y-13353173D01*
X4638541Y-13353173D02*
X4648065Y-13334126D01*
X4648065Y-13334126D02*
X4657589Y-13324602D01*
X4657589Y-13324602D02*
X4676636Y-13315078D01*
X4829017Y-13496030D02*
X4838541Y-13505554D01*
X4838541Y-13505554D02*
X4829017Y-13515078D01*
X4829017Y-13515078D02*
X4819493Y-13505554D01*
X4819493Y-13505554D02*
X4829017Y-13496030D01*
X4829017Y-13496030D02*
X4829017Y-13515078D01*
X4962350Y-13315078D02*
X4981398Y-13315078D01*
X4981398Y-13315078D02*
X5000446Y-13324602D01*
X5000446Y-13324602D02*
X5009970Y-13334126D01*
X5009970Y-13334126D02*
X5019493Y-13353173D01*
X5019493Y-13353173D02*
X5029017Y-13391269D01*
X5029017Y-13391269D02*
X5029017Y-13438888D01*
X5029017Y-13438888D02*
X5019493Y-13476983D01*
X5019493Y-13476983D02*
X5009970Y-13496030D01*
X5009970Y-13496030D02*
X5000446Y-13505554D01*
X5000446Y-13505554D02*
X4981398Y-13515078D01*
X4981398Y-13515078D02*
X4962350Y-13515078D01*
X4962350Y-13515078D02*
X4943303Y-13505554D01*
X4943303Y-13505554D02*
X4933779Y-13496030D01*
X4933779Y-13496030D02*
X4924255Y-13476983D01*
X4924255Y-13476983D02*
X4914731Y-13438888D01*
X4914731Y-13438888D02*
X4914731Y-13391269D01*
X4914731Y-13391269D02*
X4924255Y-13353173D01*
X4924255Y-13353173D02*
X4933779Y-13334126D01*
X4933779Y-13334126D02*
X4943303Y-13324602D01*
X4943303Y-13324602D02*
X4962350Y-13315078D01*
X5105208Y-13334126D02*
X5114731Y-13324602D01*
X5114731Y-13324602D02*
X5133779Y-13315078D01*
X5133779Y-13315078D02*
X5181398Y-13315078D01*
X5181398Y-13315078D02*
X5200446Y-13324602D01*
X5200446Y-13324602D02*
X5209970Y-13334126D01*
X5209970Y-13334126D02*
X5219493Y-13353173D01*
X5219493Y-13353173D02*
X5219493Y-13372221D01*
X5219493Y-13372221D02*
X5209970Y-13400792D01*
X5209970Y-13400792D02*
X5095684Y-13515078D01*
X5095684Y-13515078D02*
X5219493Y-13515078D01*
X5314731Y-13515078D02*
X5352827Y-13515078D01*
X5352827Y-13515078D02*
X5371874Y-13505554D01*
X5371874Y-13505554D02*
X5381398Y-13496030D01*
X5381398Y-13496030D02*
X5400446Y-13467459D01*
X5400446Y-13467459D02*
X5409970Y-13429364D01*
X5409970Y-13429364D02*
X5409970Y-13353173D01*
X5409970Y-13353173D02*
X5400446Y-13334126D01*
X5400446Y-13334126D02*
X5390922Y-13324602D01*
X5390922Y-13324602D02*
X5371874Y-13315078D01*
X5371874Y-13315078D02*
X5333779Y-13315078D01*
X5333779Y-13315078D02*
X5314731Y-13324602D01*
X5314731Y-13324602D02*
X5305208Y-13334126D01*
X5305208Y-13334126D02*
X5295684Y-13353173D01*
X5295684Y-13353173D02*
X5295684Y-13400792D01*
X5295684Y-13400792D02*
X5305208Y-13419840D01*
X5305208Y-13419840D02*
X5314731Y-13429364D01*
X5314731Y-13429364D02*
X5333779Y-13438888D01*
X5333779Y-13438888D02*
X5371874Y-13438888D01*
X5371874Y-13438888D02*
X5390922Y-13429364D01*
X5390922Y-13429364D02*
X5400446Y-13419840D01*
X5400446Y-13419840D02*
X5409970Y-13400792D01*
X5590922Y-13315078D02*
X5495684Y-13315078D01*
X5495684Y-13315078D02*
X5486160Y-13410316D01*
X5486160Y-13410316D02*
X5495684Y-13400792D01*
X5495684Y-13400792D02*
X5514731Y-13391269D01*
X5514731Y-13391269D02*
X5562351Y-13391269D01*
X5562351Y-13391269D02*
X5581398Y-13400792D01*
X5581398Y-13400792D02*
X5590922Y-13410316D01*
X5590922Y-13410316D02*
X5600446Y-13429364D01*
X5600446Y-13429364D02*
X5600446Y-13476983D01*
X5600446Y-13476983D02*
X5590922Y-13496030D01*
X5590922Y-13496030D02*
X5581398Y-13505554D01*
X5581398Y-13505554D02*
X5562351Y-13515078D01*
X5562351Y-13515078D02*
X5514731Y-13515078D01*
X5514731Y-13515078D02*
X5495684Y-13505554D01*
X5495684Y-13505554D02*
X5486160Y-13496030D01*
X5676636Y-13315078D02*
X5676636Y-13353173D01*
X5752827Y-13315078D02*
X5752827Y-13353173D01*
X6048065Y-13591269D02*
X6038541Y-13581745D01*
X6038541Y-13581745D02*
X6019493Y-13553173D01*
X6019493Y-13553173D02*
X6009970Y-13534126D01*
X6009970Y-13534126D02*
X6000446Y-13505554D01*
X6000446Y-13505554D02*
X5990922Y-13457935D01*
X5990922Y-13457935D02*
X5990922Y-13419840D01*
X5990922Y-13419840D02*
X6000446Y-13372221D01*
X6000446Y-13372221D02*
X6009970Y-13343650D01*
X6009970Y-13343650D02*
X6019493Y-13324602D01*
X6019493Y-13324602D02*
X6038541Y-13296030D01*
X6038541Y-13296030D02*
X6048065Y-13286507D01*
X6209970Y-13381745D02*
X6209970Y-13515078D01*
X6162350Y-13305554D02*
X6114731Y-13448411D01*
X6114731Y-13448411D02*
X6238541Y-13448411D01*
X6467112Y-13515078D02*
X6467112Y-13315078D01*
X6552827Y-13515078D02*
X6552827Y-13410316D01*
X6552827Y-13410316D02*
X6543303Y-13391269D01*
X6543303Y-13391269D02*
X6524255Y-13381745D01*
X6524255Y-13381745D02*
X6495684Y-13381745D01*
X6495684Y-13381745D02*
X6476636Y-13391269D01*
X6476636Y-13391269D02*
X6467112Y-13400792D01*
X6676636Y-13515078D02*
X6657589Y-13505554D01*
X6657589Y-13505554D02*
X6648065Y-13496030D01*
X6648065Y-13496030D02*
X6638541Y-13476983D01*
X6638541Y-13476983D02*
X6638541Y-13419840D01*
X6638541Y-13419840D02*
X6648065Y-13400792D01*
X6648065Y-13400792D02*
X6657589Y-13391269D01*
X6657589Y-13391269D02*
X6676636Y-13381745D01*
X6676636Y-13381745D02*
X6705208Y-13381745D01*
X6705208Y-13381745D02*
X6724255Y-13391269D01*
X6724255Y-13391269D02*
X6733779Y-13400792D01*
X6733779Y-13400792D02*
X6743303Y-13419840D01*
X6743303Y-13419840D02*
X6743303Y-13476983D01*
X6743303Y-13476983D02*
X6733779Y-13496030D01*
X6733779Y-13496030D02*
X6724255Y-13505554D01*
X6724255Y-13505554D02*
X6705208Y-13515078D01*
X6705208Y-13515078D02*
X6676636Y-13515078D01*
X6857589Y-13515078D02*
X6838541Y-13505554D01*
X6838541Y-13505554D02*
X6829017Y-13486507D01*
X6829017Y-13486507D02*
X6829017Y-13315078D01*
X7009970Y-13505554D02*
X6990922Y-13515078D01*
X6990922Y-13515078D02*
X6952827Y-13515078D01*
X6952827Y-13515078D02*
X6933779Y-13505554D01*
X6933779Y-13505554D02*
X6924255Y-13486507D01*
X6924255Y-13486507D02*
X6924255Y-13410316D01*
X6924255Y-13410316D02*
X6933779Y-13391269D01*
X6933779Y-13391269D02*
X6952827Y-13381745D01*
X6952827Y-13381745D02*
X6990922Y-13381745D01*
X6990922Y-13381745D02*
X7009970Y-13391269D01*
X7009970Y-13391269D02*
X7019493Y-13410316D01*
X7019493Y-13410316D02*
X7019493Y-13429364D01*
X7019493Y-13429364D02*
X6924255Y-13448411D01*
X7095684Y-13505554D02*
X7114732Y-13515078D01*
X7114732Y-13515078D02*
X7152827Y-13515078D01*
X7152827Y-13515078D02*
X7171874Y-13505554D01*
X7171874Y-13505554D02*
X7181398Y-13486507D01*
X7181398Y-13486507D02*
X7181398Y-13476983D01*
X7181398Y-13476983D02*
X7171874Y-13457935D01*
X7171874Y-13457935D02*
X7152827Y-13448411D01*
X7152827Y-13448411D02*
X7124255Y-13448411D01*
X7124255Y-13448411D02*
X7105208Y-13438888D01*
X7105208Y-13438888D02*
X7095684Y-13419840D01*
X7095684Y-13419840D02*
X7095684Y-13410316D01*
X7095684Y-13410316D02*
X7105208Y-13391269D01*
X7105208Y-13391269D02*
X7124255Y-13381745D01*
X7124255Y-13381745D02*
X7152827Y-13381745D01*
X7152827Y-13381745D02*
X7171874Y-13391269D01*
X7248065Y-13591269D02*
X7257589Y-13581745D01*
X7257589Y-13581745D02*
X7276636Y-13553173D01*
X7276636Y-13553173D02*
X7286160Y-13534126D01*
X7286160Y-13534126D02*
X7295684Y-13505554D01*
X7295684Y-13505554D02*
X7305208Y-13457935D01*
X7305208Y-13457935D02*
X7305208Y-13419840D01*
X7305208Y-13419840D02*
X7295684Y-13372221D01*
X7295684Y-13372221D02*
X7286160Y-13343650D01*
X7286160Y-13343650D02*
X7276636Y-13324602D01*
X7276636Y-13324602D02*
X7257589Y-13296030D01*
X7257589Y-13296030D02*
X7248065Y-13286507D01*
D10*
X2433002Y-13647594D02*
X2433002Y-13727594D01*
X2393002Y-13687594D02*
X2473002Y-13687594D01*
D11*
X2771874Y-13579078D02*
X2790922Y-13579078D01*
X2790922Y-13579078D02*
X2809969Y-13588602D01*
X2809969Y-13588602D02*
X2819493Y-13598126D01*
X2819493Y-13598126D02*
X2829017Y-13617173D01*
X2829017Y-13617173D02*
X2838541Y-13655269D01*
X2838541Y-13655269D02*
X2838541Y-13702888D01*
X2838541Y-13702888D02*
X2829017Y-13740983D01*
X2829017Y-13740983D02*
X2819493Y-13760030D01*
X2819493Y-13760030D02*
X2809969Y-13769554D01*
X2809969Y-13769554D02*
X2790922Y-13779078D01*
X2790922Y-13779078D02*
X2771874Y-13779078D01*
X2771874Y-13779078D02*
X2752826Y-13769554D01*
X2752826Y-13769554D02*
X2743303Y-13760030D01*
X2743303Y-13760030D02*
X2733779Y-13740983D01*
X2733779Y-13740983D02*
X2724255Y-13702888D01*
X2724255Y-13702888D02*
X2724255Y-13655269D01*
X2724255Y-13655269D02*
X2733779Y-13617173D01*
X2733779Y-13617173D02*
X2743303Y-13598126D01*
X2743303Y-13598126D02*
X2752826Y-13588602D01*
X2752826Y-13588602D02*
X2771874Y-13579078D01*
X2924255Y-13760030D02*
X2933779Y-13769554D01*
X2933779Y-13769554D02*
X2924255Y-13779078D01*
X2924255Y-13779078D02*
X2914731Y-13769554D01*
X2914731Y-13769554D02*
X2924255Y-13760030D01*
X2924255Y-13760030D02*
X2924255Y-13779078D01*
X3048064Y-13664792D02*
X3029017Y-13655269D01*
X3029017Y-13655269D02*
X3019493Y-13645745D01*
X3019493Y-13645745D02*
X3009969Y-13626697D01*
X3009969Y-13626697D02*
X3009969Y-13617173D01*
X3009969Y-13617173D02*
X3019493Y-13598126D01*
X3019493Y-13598126D02*
X3029017Y-13588602D01*
X3029017Y-13588602D02*
X3048064Y-13579078D01*
X3048064Y-13579078D02*
X3086160Y-13579078D01*
X3086160Y-13579078D02*
X3105207Y-13588602D01*
X3105207Y-13588602D02*
X3114731Y-13598126D01*
X3114731Y-13598126D02*
X3124255Y-13617173D01*
X3124255Y-13617173D02*
X3124255Y-13626697D01*
X3124255Y-13626697D02*
X3114731Y-13645745D01*
X3114731Y-13645745D02*
X3105207Y-13655269D01*
X3105207Y-13655269D02*
X3086160Y-13664792D01*
X3086160Y-13664792D02*
X3048064Y-13664792D01*
X3048064Y-13664792D02*
X3029017Y-13674316D01*
X3029017Y-13674316D02*
X3019493Y-13683840D01*
X3019493Y-13683840D02*
X3009969Y-13702888D01*
X3009969Y-13702888D02*
X3009969Y-13740983D01*
X3009969Y-13740983D02*
X3019493Y-13760030D01*
X3019493Y-13760030D02*
X3029017Y-13769554D01*
X3029017Y-13769554D02*
X3048064Y-13779078D01*
X3048064Y-13779078D02*
X3086160Y-13779078D01*
X3086160Y-13779078D02*
X3105207Y-13769554D01*
X3105207Y-13769554D02*
X3114731Y-13760030D01*
X3114731Y-13760030D02*
X3124255Y-13740983D01*
X3124255Y-13740983D02*
X3124255Y-13702888D01*
X3124255Y-13702888D02*
X3114731Y-13683840D01*
X3114731Y-13683840D02*
X3105207Y-13674316D01*
X3105207Y-13674316D02*
X3086160Y-13664792D01*
X3248064Y-13579078D02*
X3267112Y-13579078D01*
X3267112Y-13579078D02*
X3286160Y-13588602D01*
X3286160Y-13588602D02*
X3295684Y-13598126D01*
X3295684Y-13598126D02*
X3305207Y-13617173D01*
X3305207Y-13617173D02*
X3314731Y-13655269D01*
X3314731Y-13655269D02*
X3314731Y-13702888D01*
X3314731Y-13702888D02*
X3305207Y-13740983D01*
X3305207Y-13740983D02*
X3295684Y-13760030D01*
X3295684Y-13760030D02*
X3286160Y-13769554D01*
X3286160Y-13769554D02*
X3267112Y-13779078D01*
X3267112Y-13779078D02*
X3248064Y-13779078D01*
X3248064Y-13779078D02*
X3229017Y-13769554D01*
X3229017Y-13769554D02*
X3219493Y-13760030D01*
X3219493Y-13760030D02*
X3209969Y-13740983D01*
X3209969Y-13740983D02*
X3200445Y-13702888D01*
X3200445Y-13702888D02*
X3200445Y-13655269D01*
X3200445Y-13655269D02*
X3209969Y-13617173D01*
X3209969Y-13617173D02*
X3219493Y-13598126D01*
X3219493Y-13598126D02*
X3229017Y-13588602D01*
X3229017Y-13588602D02*
X3248064Y-13579078D01*
X3438541Y-13579078D02*
X3457588Y-13579078D01*
X3457588Y-13579078D02*
X3476636Y-13588602D01*
X3476636Y-13588602D02*
X3486160Y-13598126D01*
X3486160Y-13598126D02*
X3495684Y-13617173D01*
X3495684Y-13617173D02*
X3505207Y-13655269D01*
X3505207Y-13655269D02*
X3505207Y-13702888D01*
X3505207Y-13702888D02*
X3495684Y-13740983D01*
X3495684Y-13740983D02*
X3486160Y-13760030D01*
X3486160Y-13760030D02*
X3476636Y-13769554D01*
X3476636Y-13769554D02*
X3457588Y-13779078D01*
X3457588Y-13779078D02*
X3438541Y-13779078D01*
X3438541Y-13779078D02*
X3419493Y-13769554D01*
X3419493Y-13769554D02*
X3409969Y-13760030D01*
X3409969Y-13760030D02*
X3400445Y-13740983D01*
X3400445Y-13740983D02*
X3390922Y-13702888D01*
X3390922Y-13702888D02*
X3390922Y-13655269D01*
X3390922Y-13655269D02*
X3400445Y-13617173D01*
X3400445Y-13617173D02*
X3409969Y-13598126D01*
X3409969Y-13598126D02*
X3419493Y-13588602D01*
X3419493Y-13588602D02*
X3438541Y-13579078D01*
X3590922Y-13779078D02*
X3590922Y-13645745D01*
X3590922Y-13664792D02*
X3600445Y-13655269D01*
X3600445Y-13655269D02*
X3619493Y-13645745D01*
X3619493Y-13645745D02*
X3648065Y-13645745D01*
X3648065Y-13645745D02*
X3667112Y-13655269D01*
X3667112Y-13655269D02*
X3676636Y-13674316D01*
X3676636Y-13674316D02*
X3676636Y-13779078D01*
X3676636Y-13674316D02*
X3686160Y-13655269D01*
X3686160Y-13655269D02*
X3705207Y-13645745D01*
X3705207Y-13645745D02*
X3733779Y-13645745D01*
X3733779Y-13645745D02*
X3752826Y-13655269D01*
X3752826Y-13655269D02*
X3762350Y-13674316D01*
X3762350Y-13674316D02*
X3762350Y-13779078D01*
X3857588Y-13779078D02*
X3857588Y-13645745D01*
X3857588Y-13664792D02*
X3867112Y-13655269D01*
X3867112Y-13655269D02*
X3886160Y-13645745D01*
X3886160Y-13645745D02*
X3914731Y-13645745D01*
X3914731Y-13645745D02*
X3933779Y-13655269D01*
X3933779Y-13655269D02*
X3943303Y-13674316D01*
X3943303Y-13674316D02*
X3943303Y-13779078D01*
X3943303Y-13674316D02*
X3952826Y-13655269D01*
X3952826Y-13655269D02*
X3971874Y-13645745D01*
X3971874Y-13645745D02*
X4000445Y-13645745D01*
X4000445Y-13645745D02*
X4019493Y-13655269D01*
X4019493Y-13655269D02*
X4029017Y-13674316D01*
X4029017Y-13674316D02*
X4029017Y-13779078D01*
X4419493Y-13569554D02*
X4248065Y-13826697D01*
X4676636Y-13579078D02*
X4695684Y-13579078D01*
X4695684Y-13579078D02*
X4714731Y-13588602D01*
X4714731Y-13588602D02*
X4724255Y-13598126D01*
X4724255Y-13598126D02*
X4733779Y-13617173D01*
X4733779Y-13617173D02*
X4743303Y-13655269D01*
X4743303Y-13655269D02*
X4743303Y-13702888D01*
X4743303Y-13702888D02*
X4733779Y-13740983D01*
X4733779Y-13740983D02*
X4724255Y-13760030D01*
X4724255Y-13760030D02*
X4714731Y-13769554D01*
X4714731Y-13769554D02*
X4695684Y-13779078D01*
X4695684Y-13779078D02*
X4676636Y-13779078D01*
X4676636Y-13779078D02*
X4657589Y-13769554D01*
X4657589Y-13769554D02*
X4648065Y-13760030D01*
X4648065Y-13760030D02*
X4638541Y-13740983D01*
X4638541Y-13740983D02*
X4629017Y-13702888D01*
X4629017Y-13702888D02*
X4629017Y-13655269D01*
X4629017Y-13655269D02*
X4638541Y-13617173D01*
X4638541Y-13617173D02*
X4648065Y-13598126D01*
X4648065Y-13598126D02*
X4657589Y-13588602D01*
X4657589Y-13588602D02*
X4676636Y-13579078D01*
X4829017Y-13760030D02*
X4838541Y-13769554D01*
X4838541Y-13769554D02*
X4829017Y-13779078D01*
X4829017Y-13779078D02*
X4819493Y-13769554D01*
X4819493Y-13769554D02*
X4829017Y-13760030D01*
X4829017Y-13760030D02*
X4829017Y-13779078D01*
X4962350Y-13579078D02*
X4981398Y-13579078D01*
X4981398Y-13579078D02*
X5000446Y-13588602D01*
X5000446Y-13588602D02*
X5009970Y-13598126D01*
X5009970Y-13598126D02*
X5019493Y-13617173D01*
X5019493Y-13617173D02*
X5029017Y-13655269D01*
X5029017Y-13655269D02*
X5029017Y-13702888D01*
X5029017Y-13702888D02*
X5019493Y-13740983D01*
X5019493Y-13740983D02*
X5009970Y-13760030D01*
X5009970Y-13760030D02*
X5000446Y-13769554D01*
X5000446Y-13769554D02*
X4981398Y-13779078D01*
X4981398Y-13779078D02*
X4962350Y-13779078D01*
X4962350Y-13779078D02*
X4943303Y-13769554D01*
X4943303Y-13769554D02*
X4933779Y-13760030D01*
X4933779Y-13760030D02*
X4924255Y-13740983D01*
X4924255Y-13740983D02*
X4914731Y-13702888D01*
X4914731Y-13702888D02*
X4914731Y-13655269D01*
X4914731Y-13655269D02*
X4924255Y-13617173D01*
X4924255Y-13617173D02*
X4933779Y-13598126D01*
X4933779Y-13598126D02*
X4943303Y-13588602D01*
X4943303Y-13588602D02*
X4962350Y-13579078D01*
X5095684Y-13579078D02*
X5219493Y-13579078D01*
X5219493Y-13579078D02*
X5152827Y-13655269D01*
X5152827Y-13655269D02*
X5181398Y-13655269D01*
X5181398Y-13655269D02*
X5200446Y-13664792D01*
X5200446Y-13664792D02*
X5209970Y-13674316D01*
X5209970Y-13674316D02*
X5219493Y-13693364D01*
X5219493Y-13693364D02*
X5219493Y-13740983D01*
X5219493Y-13740983D02*
X5209970Y-13760030D01*
X5209970Y-13760030D02*
X5200446Y-13769554D01*
X5200446Y-13769554D02*
X5181398Y-13779078D01*
X5181398Y-13779078D02*
X5124255Y-13779078D01*
X5124255Y-13779078D02*
X5105208Y-13769554D01*
X5105208Y-13769554D02*
X5095684Y-13760030D01*
X5409970Y-13779078D02*
X5295684Y-13779078D01*
X5352827Y-13779078D02*
X5352827Y-13579078D01*
X5352827Y-13579078D02*
X5333779Y-13607650D01*
X5333779Y-13607650D02*
X5314731Y-13626697D01*
X5314731Y-13626697D02*
X5295684Y-13636221D01*
X5590922Y-13579078D02*
X5495684Y-13579078D01*
X5495684Y-13579078D02*
X5486160Y-13674316D01*
X5486160Y-13674316D02*
X5495684Y-13664792D01*
X5495684Y-13664792D02*
X5514731Y-13655269D01*
X5514731Y-13655269D02*
X5562351Y-13655269D01*
X5562351Y-13655269D02*
X5581398Y-13664792D01*
X5581398Y-13664792D02*
X5590922Y-13674316D01*
X5590922Y-13674316D02*
X5600446Y-13693364D01*
X5600446Y-13693364D02*
X5600446Y-13740983D01*
X5600446Y-13740983D02*
X5590922Y-13760030D01*
X5590922Y-13760030D02*
X5581398Y-13769554D01*
X5581398Y-13769554D02*
X5562351Y-13779078D01*
X5562351Y-13779078D02*
X5514731Y-13779078D01*
X5514731Y-13779078D02*
X5495684Y-13769554D01*
X5495684Y-13769554D02*
X5486160Y-13760030D01*
X5676636Y-13579078D02*
X5676636Y-13617173D01*
X5752827Y-13579078D02*
X5752827Y-13617173D01*
X6048065Y-13855269D02*
X6038541Y-13845745D01*
X6038541Y-13845745D02*
X6019493Y-13817173D01*
X6019493Y-13817173D02*
X6009970Y-13798126D01*
X6009970Y-13798126D02*
X6000446Y-13769554D01*
X6000446Y-13769554D02*
X5990922Y-13721935D01*
X5990922Y-13721935D02*
X5990922Y-13683840D01*
X5990922Y-13683840D02*
X6000446Y-13636221D01*
X6000446Y-13636221D02*
X6009970Y-13607650D01*
X6009970Y-13607650D02*
X6019493Y-13588602D01*
X6019493Y-13588602D02*
X6038541Y-13560030D01*
X6038541Y-13560030D02*
X6048065Y-13550507D01*
X6209970Y-13645745D02*
X6209970Y-13779078D01*
X6162350Y-13569554D02*
X6114731Y-13712411D01*
X6114731Y-13712411D02*
X6238541Y-13712411D01*
X6343303Y-13664792D02*
X6324255Y-13655269D01*
X6324255Y-13655269D02*
X6314731Y-13645745D01*
X6314731Y-13645745D02*
X6305208Y-13626697D01*
X6305208Y-13626697D02*
X6305208Y-13617173D01*
X6305208Y-13617173D02*
X6314731Y-13598126D01*
X6314731Y-13598126D02*
X6324255Y-13588602D01*
X6324255Y-13588602D02*
X6343303Y-13579078D01*
X6343303Y-13579078D02*
X6381398Y-13579078D01*
X6381398Y-13579078D02*
X6400446Y-13588602D01*
X6400446Y-13588602D02*
X6409970Y-13598126D01*
X6409970Y-13598126D02*
X6419493Y-13617173D01*
X6419493Y-13617173D02*
X6419493Y-13626697D01*
X6419493Y-13626697D02*
X6409970Y-13645745D01*
X6409970Y-13645745D02*
X6400446Y-13655269D01*
X6400446Y-13655269D02*
X6381398Y-13664792D01*
X6381398Y-13664792D02*
X6343303Y-13664792D01*
X6343303Y-13664792D02*
X6324255Y-13674316D01*
X6324255Y-13674316D02*
X6314731Y-13683840D01*
X6314731Y-13683840D02*
X6305208Y-13702888D01*
X6305208Y-13702888D02*
X6305208Y-13740983D01*
X6305208Y-13740983D02*
X6314731Y-13760030D01*
X6314731Y-13760030D02*
X6324255Y-13769554D01*
X6324255Y-13769554D02*
X6343303Y-13779078D01*
X6343303Y-13779078D02*
X6381398Y-13779078D01*
X6381398Y-13779078D02*
X6400446Y-13769554D01*
X6400446Y-13769554D02*
X6409970Y-13760030D01*
X6409970Y-13760030D02*
X6419493Y-13740983D01*
X6419493Y-13740983D02*
X6419493Y-13702888D01*
X6419493Y-13702888D02*
X6409970Y-13683840D01*
X6409970Y-13683840D02*
X6400446Y-13674316D01*
X6400446Y-13674316D02*
X6381398Y-13664792D01*
X6657589Y-13779078D02*
X6657589Y-13579078D01*
X6743303Y-13779078D02*
X6743303Y-13674316D01*
X6743303Y-13674316D02*
X6733779Y-13655269D01*
X6733779Y-13655269D02*
X6714732Y-13645745D01*
X6714732Y-13645745D02*
X6686160Y-13645745D01*
X6686160Y-13645745D02*
X6667112Y-13655269D01*
X6667112Y-13655269D02*
X6657589Y-13664792D01*
X6867112Y-13779078D02*
X6848065Y-13769554D01*
X6848065Y-13769554D02*
X6838541Y-13760030D01*
X6838541Y-13760030D02*
X6829017Y-13740983D01*
X6829017Y-13740983D02*
X6829017Y-13683840D01*
X6829017Y-13683840D02*
X6838541Y-13664792D01*
X6838541Y-13664792D02*
X6848065Y-13655269D01*
X6848065Y-13655269D02*
X6867112Y-13645745D01*
X6867112Y-13645745D02*
X6895684Y-13645745D01*
X6895684Y-13645745D02*
X6914732Y-13655269D01*
X6914732Y-13655269D02*
X6924255Y-13664792D01*
X6924255Y-13664792D02*
X6933779Y-13683840D01*
X6933779Y-13683840D02*
X6933779Y-13740983D01*
X6933779Y-13740983D02*
X6924255Y-13760030D01*
X6924255Y-13760030D02*
X6914732Y-13769554D01*
X6914732Y-13769554D02*
X6895684Y-13779078D01*
X6895684Y-13779078D02*
X6867112Y-13779078D01*
X7048065Y-13779078D02*
X7029017Y-13769554D01*
X7029017Y-13769554D02*
X7019493Y-13750507D01*
X7019493Y-13750507D02*
X7019493Y-13579078D01*
X7200446Y-13769554D02*
X7181398Y-13779078D01*
X7181398Y-13779078D02*
X7143303Y-13779078D01*
X7143303Y-13779078D02*
X7124255Y-13769554D01*
X7124255Y-13769554D02*
X7114732Y-13750507D01*
X7114732Y-13750507D02*
X7114732Y-13674316D01*
X7114732Y-13674316D02*
X7124255Y-13655269D01*
X7124255Y-13655269D02*
X7143303Y-13645745D01*
X7143303Y-13645745D02*
X7181398Y-13645745D01*
X7181398Y-13645745D02*
X7200446Y-13655269D01*
X7200446Y-13655269D02*
X7209970Y-13674316D01*
X7209970Y-13674316D02*
X7209970Y-13693364D01*
X7209970Y-13693364D02*
X7114732Y-13712411D01*
X7286160Y-13769554D02*
X7305208Y-13779078D01*
X7305208Y-13779078D02*
X7343303Y-13779078D01*
X7343303Y-13779078D02*
X7362351Y-13769554D01*
X7362351Y-13769554D02*
X7371874Y-13750507D01*
X7371874Y-13750507D02*
X7371874Y-13740983D01*
X7371874Y-13740983D02*
X7362351Y-13721935D01*
X7362351Y-13721935D02*
X7343303Y-13712411D01*
X7343303Y-13712411D02*
X7314732Y-13712411D01*
X7314732Y-13712411D02*
X7295684Y-13702888D01*
X7295684Y-13702888D02*
X7286160Y-13683840D01*
X7286160Y-13683840D02*
X7286160Y-13674316D01*
X7286160Y-13674316D02*
X7295684Y-13655269D01*
X7295684Y-13655269D02*
X7314732Y-13645745D01*
X7314732Y-13645745D02*
X7343303Y-13645745D01*
X7343303Y-13645745D02*
X7362351Y-13655269D01*
X7438541Y-13855269D02*
X7448065Y-13845745D01*
X7448065Y-13845745D02*
X7467113Y-13817173D01*
X7467113Y-13817173D02*
X7476636Y-13798126D01*
X7476636Y-13798126D02*
X7486160Y-13769554D01*
X7486160Y-13769554D02*
X7495684Y-13721935D01*
X7495684Y-13721935D02*
X7495684Y-13683840D01*
X7495684Y-13683840D02*
X7486160Y-13636221D01*
X7486160Y-13636221D02*
X7476636Y-13607650D01*
X7476636Y-13607650D02*
X7467113Y-13588602D01*
X7467113Y-13588602D02*
X7448065Y-13560030D01*
X7448065Y-13560030D02*
X7438541Y-13550507D01*
D10*
X2461099Y-13980331D02*
X2461099Y-13922857D01*
X2403625Y-13922857D01*
X2403625Y-13980331D01*
X2461099Y-13980331D01*
D11*
X2771874Y-13843078D02*
X2790922Y-13843078D01*
X2790922Y-13843078D02*
X2809969Y-13852602D01*
X2809969Y-13852602D02*
X2819493Y-13862126D01*
X2819493Y-13862126D02*
X2829017Y-13881173D01*
X2829017Y-13881173D02*
X2838541Y-13919269D01*
X2838541Y-13919269D02*
X2838541Y-13966888D01*
X2838541Y-13966888D02*
X2829017Y-14004983D01*
X2829017Y-14004983D02*
X2819493Y-14024030D01*
X2819493Y-14024030D02*
X2809969Y-14033554D01*
X2809969Y-14033554D02*
X2790922Y-14043078D01*
X2790922Y-14043078D02*
X2771874Y-14043078D01*
X2771874Y-14043078D02*
X2752826Y-14033554D01*
X2752826Y-14033554D02*
X2743303Y-14024030D01*
X2743303Y-14024030D02*
X2733779Y-14004983D01*
X2733779Y-14004983D02*
X2724255Y-13966888D01*
X2724255Y-13966888D02*
X2724255Y-13919269D01*
X2724255Y-13919269D02*
X2733779Y-13881173D01*
X2733779Y-13881173D02*
X2743303Y-13862126D01*
X2743303Y-13862126D02*
X2752826Y-13852602D01*
X2752826Y-13852602D02*
X2771874Y-13843078D01*
X2924255Y-14024030D02*
X2933779Y-14033554D01*
X2933779Y-14033554D02*
X2924255Y-14043078D01*
X2924255Y-14043078D02*
X2914731Y-14033554D01*
X2914731Y-14033554D02*
X2924255Y-14024030D01*
X2924255Y-14024030D02*
X2924255Y-14043078D01*
X3048064Y-13928792D02*
X3029017Y-13919269D01*
X3029017Y-13919269D02*
X3019493Y-13909745D01*
X3019493Y-13909745D02*
X3009969Y-13890697D01*
X3009969Y-13890697D02*
X3009969Y-13881173D01*
X3009969Y-13881173D02*
X3019493Y-13862126D01*
X3019493Y-13862126D02*
X3029017Y-13852602D01*
X3029017Y-13852602D02*
X3048064Y-13843078D01*
X3048064Y-13843078D02*
X3086160Y-13843078D01*
X3086160Y-13843078D02*
X3105207Y-13852602D01*
X3105207Y-13852602D02*
X3114731Y-13862126D01*
X3114731Y-13862126D02*
X3124255Y-13881173D01*
X3124255Y-13881173D02*
X3124255Y-13890697D01*
X3124255Y-13890697D02*
X3114731Y-13909745D01*
X3114731Y-13909745D02*
X3105207Y-13919269D01*
X3105207Y-13919269D02*
X3086160Y-13928792D01*
X3086160Y-13928792D02*
X3048064Y-13928792D01*
X3048064Y-13928792D02*
X3029017Y-13938316D01*
X3029017Y-13938316D02*
X3019493Y-13947840D01*
X3019493Y-13947840D02*
X3009969Y-13966888D01*
X3009969Y-13966888D02*
X3009969Y-14004983D01*
X3009969Y-14004983D02*
X3019493Y-14024030D01*
X3019493Y-14024030D02*
X3029017Y-14033554D01*
X3029017Y-14033554D02*
X3048064Y-14043078D01*
X3048064Y-14043078D02*
X3086160Y-14043078D01*
X3086160Y-14043078D02*
X3105207Y-14033554D01*
X3105207Y-14033554D02*
X3114731Y-14024030D01*
X3114731Y-14024030D02*
X3124255Y-14004983D01*
X3124255Y-14004983D02*
X3124255Y-13966888D01*
X3124255Y-13966888D02*
X3114731Y-13947840D01*
X3114731Y-13947840D02*
X3105207Y-13938316D01*
X3105207Y-13938316D02*
X3086160Y-13928792D01*
X3314731Y-14043078D02*
X3200445Y-14043078D01*
X3257588Y-14043078D02*
X3257588Y-13843078D01*
X3257588Y-13843078D02*
X3238541Y-13871650D01*
X3238541Y-13871650D02*
X3219493Y-13890697D01*
X3219493Y-13890697D02*
X3200445Y-13900221D01*
X3381398Y-13843078D02*
X3505207Y-13843078D01*
X3505207Y-13843078D02*
X3438541Y-13919269D01*
X3438541Y-13919269D02*
X3467112Y-13919269D01*
X3467112Y-13919269D02*
X3486160Y-13928792D01*
X3486160Y-13928792D02*
X3495684Y-13938316D01*
X3495684Y-13938316D02*
X3505207Y-13957364D01*
X3505207Y-13957364D02*
X3505207Y-14004983D01*
X3505207Y-14004983D02*
X3495684Y-14024030D01*
X3495684Y-14024030D02*
X3486160Y-14033554D01*
X3486160Y-14033554D02*
X3467112Y-14043078D01*
X3467112Y-14043078D02*
X3409969Y-14043078D01*
X3409969Y-14043078D02*
X3390922Y-14033554D01*
X3390922Y-14033554D02*
X3381398Y-14024030D01*
X3590922Y-14043078D02*
X3590922Y-13909745D01*
X3590922Y-13928792D02*
X3600445Y-13919269D01*
X3600445Y-13919269D02*
X3619493Y-13909745D01*
X3619493Y-13909745D02*
X3648065Y-13909745D01*
X3648065Y-13909745D02*
X3667112Y-13919269D01*
X3667112Y-13919269D02*
X3676636Y-13938316D01*
X3676636Y-13938316D02*
X3676636Y-14043078D01*
X3676636Y-13938316D02*
X3686160Y-13919269D01*
X3686160Y-13919269D02*
X3705207Y-13909745D01*
X3705207Y-13909745D02*
X3733779Y-13909745D01*
X3733779Y-13909745D02*
X3752826Y-13919269D01*
X3752826Y-13919269D02*
X3762350Y-13938316D01*
X3762350Y-13938316D02*
X3762350Y-14043078D01*
X3857588Y-14043078D02*
X3857588Y-13909745D01*
X3857588Y-13928792D02*
X3867112Y-13919269D01*
X3867112Y-13919269D02*
X3886160Y-13909745D01*
X3886160Y-13909745D02*
X3914731Y-13909745D01*
X3914731Y-13909745D02*
X3933779Y-13919269D01*
X3933779Y-13919269D02*
X3943303Y-13938316D01*
X3943303Y-13938316D02*
X3943303Y-14043078D01*
X3943303Y-13938316D02*
X3952826Y-13919269D01*
X3952826Y-13919269D02*
X3971874Y-13909745D01*
X3971874Y-13909745D02*
X4000445Y-13909745D01*
X4000445Y-13909745D02*
X4019493Y-13919269D01*
X4019493Y-13919269D02*
X4029017Y-13938316D01*
X4029017Y-13938316D02*
X4029017Y-14043078D01*
X4419493Y-13833554D02*
X4248065Y-14090697D01*
X4676636Y-13843078D02*
X4695684Y-13843078D01*
X4695684Y-13843078D02*
X4714731Y-13852602D01*
X4714731Y-13852602D02*
X4724255Y-13862126D01*
X4724255Y-13862126D02*
X4733779Y-13881173D01*
X4733779Y-13881173D02*
X4743303Y-13919269D01*
X4743303Y-13919269D02*
X4743303Y-13966888D01*
X4743303Y-13966888D02*
X4733779Y-14004983D01*
X4733779Y-14004983D02*
X4724255Y-14024030D01*
X4724255Y-14024030D02*
X4714731Y-14033554D01*
X4714731Y-14033554D02*
X4695684Y-14043078D01*
X4695684Y-14043078D02*
X4676636Y-14043078D01*
X4676636Y-14043078D02*
X4657589Y-14033554D01*
X4657589Y-14033554D02*
X4648065Y-14024030D01*
X4648065Y-14024030D02*
X4638541Y-14004983D01*
X4638541Y-14004983D02*
X4629017Y-13966888D01*
X4629017Y-13966888D02*
X4629017Y-13919269D01*
X4629017Y-13919269D02*
X4638541Y-13881173D01*
X4638541Y-13881173D02*
X4648065Y-13862126D01*
X4648065Y-13862126D02*
X4657589Y-13852602D01*
X4657589Y-13852602D02*
X4676636Y-13843078D01*
X4829017Y-14024030D02*
X4838541Y-14033554D01*
X4838541Y-14033554D02*
X4829017Y-14043078D01*
X4829017Y-14043078D02*
X4819493Y-14033554D01*
X4819493Y-14033554D02*
X4829017Y-14024030D01*
X4829017Y-14024030D02*
X4829017Y-14043078D01*
X4962350Y-13843078D02*
X4981398Y-13843078D01*
X4981398Y-13843078D02*
X5000446Y-13852602D01*
X5000446Y-13852602D02*
X5009970Y-13862126D01*
X5009970Y-13862126D02*
X5019493Y-13881173D01*
X5019493Y-13881173D02*
X5029017Y-13919269D01*
X5029017Y-13919269D02*
X5029017Y-13966888D01*
X5029017Y-13966888D02*
X5019493Y-14004983D01*
X5019493Y-14004983D02*
X5009970Y-14024030D01*
X5009970Y-14024030D02*
X5000446Y-14033554D01*
X5000446Y-14033554D02*
X4981398Y-14043078D01*
X4981398Y-14043078D02*
X4962350Y-14043078D01*
X4962350Y-14043078D02*
X4943303Y-14033554D01*
X4943303Y-14033554D02*
X4933779Y-14024030D01*
X4933779Y-14024030D02*
X4924255Y-14004983D01*
X4924255Y-14004983D02*
X4914731Y-13966888D01*
X4914731Y-13966888D02*
X4914731Y-13919269D01*
X4914731Y-13919269D02*
X4924255Y-13881173D01*
X4924255Y-13881173D02*
X4933779Y-13862126D01*
X4933779Y-13862126D02*
X4943303Y-13852602D01*
X4943303Y-13852602D02*
X4962350Y-13843078D01*
X5095684Y-13843078D02*
X5219493Y-13843078D01*
X5219493Y-13843078D02*
X5152827Y-13919269D01*
X5152827Y-13919269D02*
X5181398Y-13919269D01*
X5181398Y-13919269D02*
X5200446Y-13928792D01*
X5200446Y-13928792D02*
X5209970Y-13938316D01*
X5209970Y-13938316D02*
X5219493Y-13957364D01*
X5219493Y-13957364D02*
X5219493Y-14004983D01*
X5219493Y-14004983D02*
X5209970Y-14024030D01*
X5209970Y-14024030D02*
X5200446Y-14033554D01*
X5200446Y-14033554D02*
X5181398Y-14043078D01*
X5181398Y-14043078D02*
X5124255Y-14043078D01*
X5124255Y-14043078D02*
X5105208Y-14033554D01*
X5105208Y-14033554D02*
X5095684Y-14024030D01*
X5295684Y-13862126D02*
X5305208Y-13852602D01*
X5305208Y-13852602D02*
X5324255Y-13843078D01*
X5324255Y-13843078D02*
X5371874Y-13843078D01*
X5371874Y-13843078D02*
X5390922Y-13852602D01*
X5390922Y-13852602D02*
X5400446Y-13862126D01*
X5400446Y-13862126D02*
X5409970Y-13881173D01*
X5409970Y-13881173D02*
X5409970Y-13900221D01*
X5409970Y-13900221D02*
X5400446Y-13928792D01*
X5400446Y-13928792D02*
X5286160Y-14043078D01*
X5286160Y-14043078D02*
X5409970Y-14043078D01*
X5533779Y-13843078D02*
X5552827Y-13843078D01*
X5552827Y-13843078D02*
X5571874Y-13852602D01*
X5571874Y-13852602D02*
X5581398Y-13862126D01*
X5581398Y-13862126D02*
X5590922Y-13881173D01*
X5590922Y-13881173D02*
X5600446Y-13919269D01*
X5600446Y-13919269D02*
X5600446Y-13966888D01*
X5600446Y-13966888D02*
X5590922Y-14004983D01*
X5590922Y-14004983D02*
X5581398Y-14024030D01*
X5581398Y-14024030D02*
X5571874Y-14033554D01*
X5571874Y-14033554D02*
X5552827Y-14043078D01*
X5552827Y-14043078D02*
X5533779Y-14043078D01*
X5533779Y-14043078D02*
X5514731Y-14033554D01*
X5514731Y-14033554D02*
X5505208Y-14024030D01*
X5505208Y-14024030D02*
X5495684Y-14004983D01*
X5495684Y-14004983D02*
X5486160Y-13966888D01*
X5486160Y-13966888D02*
X5486160Y-13919269D01*
X5486160Y-13919269D02*
X5495684Y-13881173D01*
X5495684Y-13881173D02*
X5505208Y-13862126D01*
X5505208Y-13862126D02*
X5514731Y-13852602D01*
X5514731Y-13852602D02*
X5533779Y-13843078D01*
X5676636Y-13843078D02*
X5676636Y-13881173D01*
X5752827Y-13843078D02*
X5752827Y-13881173D01*
X6048065Y-14119269D02*
X6038541Y-14109745D01*
X6038541Y-14109745D02*
X6019493Y-14081173D01*
X6019493Y-14081173D02*
X6009970Y-14062126D01*
X6009970Y-14062126D02*
X6000446Y-14033554D01*
X6000446Y-14033554D02*
X5990922Y-13985935D01*
X5990922Y-13985935D02*
X5990922Y-13947840D01*
X5990922Y-13947840D02*
X6000446Y-13900221D01*
X6000446Y-13900221D02*
X6009970Y-13871650D01*
X6009970Y-13871650D02*
X6019493Y-13852602D01*
X6019493Y-13852602D02*
X6038541Y-13824030D01*
X6038541Y-13824030D02*
X6048065Y-13814507D01*
X6209970Y-13909745D02*
X6209970Y-14043078D01*
X6162350Y-13833554D02*
X6114731Y-13976411D01*
X6114731Y-13976411D02*
X6238541Y-13976411D01*
X6467112Y-14043078D02*
X6467112Y-13843078D01*
X6552827Y-14043078D02*
X6552827Y-13938316D01*
X6552827Y-13938316D02*
X6543303Y-13919269D01*
X6543303Y-13919269D02*
X6524255Y-13909745D01*
X6524255Y-13909745D02*
X6495684Y-13909745D01*
X6495684Y-13909745D02*
X6476636Y-13919269D01*
X6476636Y-13919269D02*
X6467112Y-13928792D01*
X6676636Y-14043078D02*
X6657589Y-14033554D01*
X6657589Y-14033554D02*
X6648065Y-14024030D01*
X6648065Y-14024030D02*
X6638541Y-14004983D01*
X6638541Y-14004983D02*
X6638541Y-13947840D01*
X6638541Y-13947840D02*
X6648065Y-13928792D01*
X6648065Y-13928792D02*
X6657589Y-13919269D01*
X6657589Y-13919269D02*
X6676636Y-13909745D01*
X6676636Y-13909745D02*
X6705208Y-13909745D01*
X6705208Y-13909745D02*
X6724255Y-13919269D01*
X6724255Y-13919269D02*
X6733779Y-13928792D01*
X6733779Y-13928792D02*
X6743303Y-13947840D01*
X6743303Y-13947840D02*
X6743303Y-14004983D01*
X6743303Y-14004983D02*
X6733779Y-14024030D01*
X6733779Y-14024030D02*
X6724255Y-14033554D01*
X6724255Y-14033554D02*
X6705208Y-14043078D01*
X6705208Y-14043078D02*
X6676636Y-14043078D01*
X6857589Y-14043078D02*
X6838541Y-14033554D01*
X6838541Y-14033554D02*
X6829017Y-14014507D01*
X6829017Y-14014507D02*
X6829017Y-13843078D01*
X7009970Y-14033554D02*
X6990922Y-14043078D01*
X6990922Y-14043078D02*
X6952827Y-14043078D01*
X6952827Y-14043078D02*
X6933779Y-14033554D01*
X6933779Y-14033554D02*
X6924255Y-14014507D01*
X6924255Y-14014507D02*
X6924255Y-13938316D01*
X6924255Y-13938316D02*
X6933779Y-13919269D01*
X6933779Y-13919269D02*
X6952827Y-13909745D01*
X6952827Y-13909745D02*
X6990922Y-13909745D01*
X6990922Y-13909745D02*
X7009970Y-13919269D01*
X7009970Y-13919269D02*
X7019493Y-13938316D01*
X7019493Y-13938316D02*
X7019493Y-13957364D01*
X7019493Y-13957364D02*
X6924255Y-13976411D01*
X7095684Y-14033554D02*
X7114732Y-14043078D01*
X7114732Y-14043078D02*
X7152827Y-14043078D01*
X7152827Y-14043078D02*
X7171874Y-14033554D01*
X7171874Y-14033554D02*
X7181398Y-14014507D01*
X7181398Y-14014507D02*
X7181398Y-14004983D01*
X7181398Y-14004983D02*
X7171874Y-13985935D01*
X7171874Y-13985935D02*
X7152827Y-13976411D01*
X7152827Y-13976411D02*
X7124255Y-13976411D01*
X7124255Y-13976411D02*
X7105208Y-13966888D01*
X7105208Y-13966888D02*
X7095684Y-13947840D01*
X7095684Y-13947840D02*
X7095684Y-13938316D01*
X7095684Y-13938316D02*
X7105208Y-13919269D01*
X7105208Y-13919269D02*
X7124255Y-13909745D01*
X7124255Y-13909745D02*
X7152827Y-13909745D01*
X7152827Y-13909745D02*
X7171874Y-13919269D01*
X7248065Y-14119269D02*
X7257589Y-14109745D01*
X7257589Y-14109745D02*
X7276636Y-14081173D01*
X7276636Y-14081173D02*
X7286160Y-14062126D01*
X7286160Y-14062126D02*
X7295684Y-14033554D01*
X7295684Y-14033554D02*
X7305208Y-13985935D01*
X7305208Y-13985935D02*
X7305208Y-13947840D01*
X7305208Y-13947840D02*
X7295684Y-13900221D01*
X7295684Y-13900221D02*
X7286160Y-13871650D01*
X7286160Y-13871650D02*
X7276636Y-13852602D01*
X7276636Y-13852602D02*
X7257589Y-13824030D01*
X7257589Y-13824030D02*
X7248065Y-13814507D01*
D10*
X2423002Y-14265594D02*
X2473002Y-14215594D01*
X2423002Y-14165594D01*
X2373002Y-14215594D01*
X2423002Y-14265594D01*
D11*
X2838541Y-14307078D02*
X2724255Y-14307078D01*
X2781398Y-14307078D02*
X2781398Y-14107078D01*
X2781398Y-14107078D02*
X2762350Y-14135650D01*
X2762350Y-14135650D02*
X2743303Y-14154697D01*
X2743303Y-14154697D02*
X2724255Y-14164221D01*
X2924255Y-14288030D02*
X2933779Y-14297554D01*
X2933779Y-14297554D02*
X2924255Y-14307078D01*
X2924255Y-14307078D02*
X2914731Y-14297554D01*
X2914731Y-14297554D02*
X2924255Y-14288030D01*
X2924255Y-14288030D02*
X2924255Y-14307078D01*
X3057588Y-14107078D02*
X3076636Y-14107078D01*
X3076636Y-14107078D02*
X3095684Y-14116602D01*
X3095684Y-14116602D02*
X3105207Y-14126126D01*
X3105207Y-14126126D02*
X3114731Y-14145173D01*
X3114731Y-14145173D02*
X3124255Y-14183269D01*
X3124255Y-14183269D02*
X3124255Y-14230888D01*
X3124255Y-14230888D02*
X3114731Y-14268983D01*
X3114731Y-14268983D02*
X3105207Y-14288030D01*
X3105207Y-14288030D02*
X3095684Y-14297554D01*
X3095684Y-14297554D02*
X3076636Y-14307078D01*
X3076636Y-14307078D02*
X3057588Y-14307078D01*
X3057588Y-14307078D02*
X3038541Y-14297554D01*
X3038541Y-14297554D02*
X3029017Y-14288030D01*
X3029017Y-14288030D02*
X3019493Y-14268983D01*
X3019493Y-14268983D02*
X3009969Y-14230888D01*
X3009969Y-14230888D02*
X3009969Y-14183269D01*
X3009969Y-14183269D02*
X3019493Y-14145173D01*
X3019493Y-14145173D02*
X3029017Y-14126126D01*
X3029017Y-14126126D02*
X3038541Y-14116602D01*
X3038541Y-14116602D02*
X3057588Y-14107078D01*
X3248064Y-14107078D02*
X3267112Y-14107078D01*
X3267112Y-14107078D02*
X3286160Y-14116602D01*
X3286160Y-14116602D02*
X3295684Y-14126126D01*
X3295684Y-14126126D02*
X3305207Y-14145173D01*
X3305207Y-14145173D02*
X3314731Y-14183269D01*
X3314731Y-14183269D02*
X3314731Y-14230888D01*
X3314731Y-14230888D02*
X3305207Y-14268983D01*
X3305207Y-14268983D02*
X3295684Y-14288030D01*
X3295684Y-14288030D02*
X3286160Y-14297554D01*
X3286160Y-14297554D02*
X3267112Y-14307078D01*
X3267112Y-14307078D02*
X3248064Y-14307078D01*
X3248064Y-14307078D02*
X3229017Y-14297554D01*
X3229017Y-14297554D02*
X3219493Y-14288030D01*
X3219493Y-14288030D02*
X3209969Y-14268983D01*
X3209969Y-14268983D02*
X3200445Y-14230888D01*
X3200445Y-14230888D02*
X3200445Y-14183269D01*
X3200445Y-14183269D02*
X3209969Y-14145173D01*
X3209969Y-14145173D02*
X3219493Y-14126126D01*
X3219493Y-14126126D02*
X3229017Y-14116602D01*
X3229017Y-14116602D02*
X3248064Y-14107078D01*
X3438541Y-14107078D02*
X3457588Y-14107078D01*
X3457588Y-14107078D02*
X3476636Y-14116602D01*
X3476636Y-14116602D02*
X3486160Y-14126126D01*
X3486160Y-14126126D02*
X3495684Y-14145173D01*
X3495684Y-14145173D02*
X3505207Y-14183269D01*
X3505207Y-14183269D02*
X3505207Y-14230888D01*
X3505207Y-14230888D02*
X3495684Y-14268983D01*
X3495684Y-14268983D02*
X3486160Y-14288030D01*
X3486160Y-14288030D02*
X3476636Y-14297554D01*
X3476636Y-14297554D02*
X3457588Y-14307078D01*
X3457588Y-14307078D02*
X3438541Y-14307078D01*
X3438541Y-14307078D02*
X3419493Y-14297554D01*
X3419493Y-14297554D02*
X3409969Y-14288030D01*
X3409969Y-14288030D02*
X3400445Y-14268983D01*
X3400445Y-14268983D02*
X3390922Y-14230888D01*
X3390922Y-14230888D02*
X3390922Y-14183269D01*
X3390922Y-14183269D02*
X3400445Y-14145173D01*
X3400445Y-14145173D02*
X3409969Y-14126126D01*
X3409969Y-14126126D02*
X3419493Y-14116602D01*
X3419493Y-14116602D02*
X3438541Y-14107078D01*
X3590922Y-14307078D02*
X3590922Y-14173745D01*
X3590922Y-14192792D02*
X3600445Y-14183269D01*
X3600445Y-14183269D02*
X3619493Y-14173745D01*
X3619493Y-14173745D02*
X3648065Y-14173745D01*
X3648065Y-14173745D02*
X3667112Y-14183269D01*
X3667112Y-14183269D02*
X3676636Y-14202316D01*
X3676636Y-14202316D02*
X3676636Y-14307078D01*
X3676636Y-14202316D02*
X3686160Y-14183269D01*
X3686160Y-14183269D02*
X3705207Y-14173745D01*
X3705207Y-14173745D02*
X3733779Y-14173745D01*
X3733779Y-14173745D02*
X3752826Y-14183269D01*
X3752826Y-14183269D02*
X3762350Y-14202316D01*
X3762350Y-14202316D02*
X3762350Y-14307078D01*
X3857588Y-14307078D02*
X3857588Y-14173745D01*
X3857588Y-14192792D02*
X3867112Y-14183269D01*
X3867112Y-14183269D02*
X3886160Y-14173745D01*
X3886160Y-14173745D02*
X3914731Y-14173745D01*
X3914731Y-14173745D02*
X3933779Y-14183269D01*
X3933779Y-14183269D02*
X3943303Y-14202316D01*
X3943303Y-14202316D02*
X3943303Y-14307078D01*
X3943303Y-14202316D02*
X3952826Y-14183269D01*
X3952826Y-14183269D02*
X3971874Y-14173745D01*
X3971874Y-14173745D02*
X4000445Y-14173745D01*
X4000445Y-14173745D02*
X4019493Y-14183269D01*
X4019493Y-14183269D02*
X4029017Y-14202316D01*
X4029017Y-14202316D02*
X4029017Y-14307078D01*
X4419493Y-14097554D02*
X4248065Y-14354697D01*
X4676636Y-14107078D02*
X4695684Y-14107078D01*
X4695684Y-14107078D02*
X4714731Y-14116602D01*
X4714731Y-14116602D02*
X4724255Y-14126126D01*
X4724255Y-14126126D02*
X4733779Y-14145173D01*
X4733779Y-14145173D02*
X4743303Y-14183269D01*
X4743303Y-14183269D02*
X4743303Y-14230888D01*
X4743303Y-14230888D02*
X4733779Y-14268983D01*
X4733779Y-14268983D02*
X4724255Y-14288030D01*
X4724255Y-14288030D02*
X4714731Y-14297554D01*
X4714731Y-14297554D02*
X4695684Y-14307078D01*
X4695684Y-14307078D02*
X4676636Y-14307078D01*
X4676636Y-14307078D02*
X4657589Y-14297554D01*
X4657589Y-14297554D02*
X4648065Y-14288030D01*
X4648065Y-14288030D02*
X4638541Y-14268983D01*
X4638541Y-14268983D02*
X4629017Y-14230888D01*
X4629017Y-14230888D02*
X4629017Y-14183269D01*
X4629017Y-14183269D02*
X4638541Y-14145173D01*
X4638541Y-14145173D02*
X4648065Y-14126126D01*
X4648065Y-14126126D02*
X4657589Y-14116602D01*
X4657589Y-14116602D02*
X4676636Y-14107078D01*
X4829017Y-14288030D02*
X4838541Y-14297554D01*
X4838541Y-14297554D02*
X4829017Y-14307078D01*
X4829017Y-14307078D02*
X4819493Y-14297554D01*
X4819493Y-14297554D02*
X4829017Y-14288030D01*
X4829017Y-14288030D02*
X4829017Y-14307078D01*
X4962350Y-14107078D02*
X4981398Y-14107078D01*
X4981398Y-14107078D02*
X5000446Y-14116602D01*
X5000446Y-14116602D02*
X5009970Y-14126126D01*
X5009970Y-14126126D02*
X5019493Y-14145173D01*
X5019493Y-14145173D02*
X5029017Y-14183269D01*
X5029017Y-14183269D02*
X5029017Y-14230888D01*
X5029017Y-14230888D02*
X5019493Y-14268983D01*
X5019493Y-14268983D02*
X5009970Y-14288030D01*
X5009970Y-14288030D02*
X5000446Y-14297554D01*
X5000446Y-14297554D02*
X4981398Y-14307078D01*
X4981398Y-14307078D02*
X4962350Y-14307078D01*
X4962350Y-14307078D02*
X4943303Y-14297554D01*
X4943303Y-14297554D02*
X4933779Y-14288030D01*
X4933779Y-14288030D02*
X4924255Y-14268983D01*
X4924255Y-14268983D02*
X4914731Y-14230888D01*
X4914731Y-14230888D02*
X4914731Y-14183269D01*
X4914731Y-14183269D02*
X4924255Y-14145173D01*
X4924255Y-14145173D02*
X4933779Y-14126126D01*
X4933779Y-14126126D02*
X4943303Y-14116602D01*
X4943303Y-14116602D02*
X4962350Y-14107078D01*
X5095684Y-14107078D02*
X5219493Y-14107078D01*
X5219493Y-14107078D02*
X5152827Y-14183269D01*
X5152827Y-14183269D02*
X5181398Y-14183269D01*
X5181398Y-14183269D02*
X5200446Y-14192792D01*
X5200446Y-14192792D02*
X5209970Y-14202316D01*
X5209970Y-14202316D02*
X5219493Y-14221364D01*
X5219493Y-14221364D02*
X5219493Y-14268983D01*
X5219493Y-14268983D02*
X5209970Y-14288030D01*
X5209970Y-14288030D02*
X5200446Y-14297554D01*
X5200446Y-14297554D02*
X5181398Y-14307078D01*
X5181398Y-14307078D02*
X5124255Y-14307078D01*
X5124255Y-14307078D02*
X5105208Y-14297554D01*
X5105208Y-14297554D02*
X5095684Y-14288030D01*
X5314731Y-14307078D02*
X5352827Y-14307078D01*
X5352827Y-14307078D02*
X5371874Y-14297554D01*
X5371874Y-14297554D02*
X5381398Y-14288030D01*
X5381398Y-14288030D02*
X5400446Y-14259459D01*
X5400446Y-14259459D02*
X5409970Y-14221364D01*
X5409970Y-14221364D02*
X5409970Y-14145173D01*
X5409970Y-14145173D02*
X5400446Y-14126126D01*
X5400446Y-14126126D02*
X5390922Y-14116602D01*
X5390922Y-14116602D02*
X5371874Y-14107078D01*
X5371874Y-14107078D02*
X5333779Y-14107078D01*
X5333779Y-14107078D02*
X5314731Y-14116602D01*
X5314731Y-14116602D02*
X5305208Y-14126126D01*
X5305208Y-14126126D02*
X5295684Y-14145173D01*
X5295684Y-14145173D02*
X5295684Y-14192792D01*
X5295684Y-14192792D02*
X5305208Y-14211840D01*
X5305208Y-14211840D02*
X5314731Y-14221364D01*
X5314731Y-14221364D02*
X5333779Y-14230888D01*
X5333779Y-14230888D02*
X5371874Y-14230888D01*
X5371874Y-14230888D02*
X5390922Y-14221364D01*
X5390922Y-14221364D02*
X5400446Y-14211840D01*
X5400446Y-14211840D02*
X5409970Y-14192792D01*
X5581398Y-14173745D02*
X5581398Y-14307078D01*
X5533779Y-14097554D02*
X5486160Y-14240411D01*
X5486160Y-14240411D02*
X5609969Y-14240411D01*
X5676636Y-14107078D02*
X5676636Y-14145173D01*
X5752827Y-14107078D02*
X5752827Y-14145173D01*
X6048065Y-14383269D02*
X6038541Y-14373745D01*
X6038541Y-14373745D02*
X6019493Y-14345173D01*
X6019493Y-14345173D02*
X6009970Y-14326126D01*
X6009970Y-14326126D02*
X6000446Y-14297554D01*
X6000446Y-14297554D02*
X5990922Y-14249935D01*
X5990922Y-14249935D02*
X5990922Y-14211840D01*
X5990922Y-14211840D02*
X6000446Y-14164221D01*
X6000446Y-14164221D02*
X6009970Y-14135650D01*
X6009970Y-14135650D02*
X6019493Y-14116602D01*
X6019493Y-14116602D02*
X6038541Y-14088030D01*
X6038541Y-14088030D02*
X6048065Y-14078507D01*
X6229017Y-14307078D02*
X6114731Y-14307078D01*
X6171874Y-14307078D02*
X6171874Y-14107078D01*
X6171874Y-14107078D02*
X6152827Y-14135650D01*
X6152827Y-14135650D02*
X6133779Y-14154697D01*
X6133779Y-14154697D02*
X6114731Y-14164221D01*
X6352827Y-14107078D02*
X6371874Y-14107078D01*
X6371874Y-14107078D02*
X6390922Y-14116602D01*
X6390922Y-14116602D02*
X6400446Y-14126126D01*
X6400446Y-14126126D02*
X6409970Y-14145173D01*
X6409970Y-14145173D02*
X6419493Y-14183269D01*
X6419493Y-14183269D02*
X6419493Y-14230888D01*
X6419493Y-14230888D02*
X6409970Y-14268983D01*
X6409970Y-14268983D02*
X6400446Y-14288030D01*
X6400446Y-14288030D02*
X6390922Y-14297554D01*
X6390922Y-14297554D02*
X6371874Y-14307078D01*
X6371874Y-14307078D02*
X6352827Y-14307078D01*
X6352827Y-14307078D02*
X6333779Y-14297554D01*
X6333779Y-14297554D02*
X6324255Y-14288030D01*
X6324255Y-14288030D02*
X6314731Y-14268983D01*
X6314731Y-14268983D02*
X6305208Y-14230888D01*
X6305208Y-14230888D02*
X6305208Y-14183269D01*
X6305208Y-14183269D02*
X6314731Y-14145173D01*
X6314731Y-14145173D02*
X6324255Y-14126126D01*
X6324255Y-14126126D02*
X6333779Y-14116602D01*
X6333779Y-14116602D02*
X6352827Y-14107078D01*
X6657589Y-14307078D02*
X6657589Y-14107078D01*
X6743303Y-14307078D02*
X6743303Y-14202316D01*
X6743303Y-14202316D02*
X6733779Y-14183269D01*
X6733779Y-14183269D02*
X6714732Y-14173745D01*
X6714732Y-14173745D02*
X6686160Y-14173745D01*
X6686160Y-14173745D02*
X6667112Y-14183269D01*
X6667112Y-14183269D02*
X6657589Y-14192792D01*
X6867112Y-14307078D02*
X6848065Y-14297554D01*
X6848065Y-14297554D02*
X6838541Y-14288030D01*
X6838541Y-14288030D02*
X6829017Y-14268983D01*
X6829017Y-14268983D02*
X6829017Y-14211840D01*
X6829017Y-14211840D02*
X6838541Y-14192792D01*
X6838541Y-14192792D02*
X6848065Y-14183269D01*
X6848065Y-14183269D02*
X6867112Y-14173745D01*
X6867112Y-14173745D02*
X6895684Y-14173745D01*
X6895684Y-14173745D02*
X6914732Y-14183269D01*
X6914732Y-14183269D02*
X6924255Y-14192792D01*
X6924255Y-14192792D02*
X6933779Y-14211840D01*
X6933779Y-14211840D02*
X6933779Y-14268983D01*
X6933779Y-14268983D02*
X6924255Y-14288030D01*
X6924255Y-14288030D02*
X6914732Y-14297554D01*
X6914732Y-14297554D02*
X6895684Y-14307078D01*
X6895684Y-14307078D02*
X6867112Y-14307078D01*
X7048065Y-14307078D02*
X7029017Y-14297554D01*
X7029017Y-14297554D02*
X7019493Y-14278507D01*
X7019493Y-14278507D02*
X7019493Y-14107078D01*
X7200446Y-14297554D02*
X7181398Y-14307078D01*
X7181398Y-14307078D02*
X7143303Y-14307078D01*
X7143303Y-14307078D02*
X7124255Y-14297554D01*
X7124255Y-14297554D02*
X7114732Y-14278507D01*
X7114732Y-14278507D02*
X7114732Y-14202316D01*
X7114732Y-14202316D02*
X7124255Y-14183269D01*
X7124255Y-14183269D02*
X7143303Y-14173745D01*
X7143303Y-14173745D02*
X7181398Y-14173745D01*
X7181398Y-14173745D02*
X7200446Y-14183269D01*
X7200446Y-14183269D02*
X7209970Y-14202316D01*
X7209970Y-14202316D02*
X7209970Y-14221364D01*
X7209970Y-14221364D02*
X7114732Y-14240411D01*
X7286160Y-14297554D02*
X7305208Y-14307078D01*
X7305208Y-14307078D02*
X7343303Y-14307078D01*
X7343303Y-14307078D02*
X7362351Y-14297554D01*
X7362351Y-14297554D02*
X7371874Y-14278507D01*
X7371874Y-14278507D02*
X7371874Y-14268983D01*
X7371874Y-14268983D02*
X7362351Y-14249935D01*
X7362351Y-14249935D02*
X7343303Y-14240411D01*
X7343303Y-14240411D02*
X7314732Y-14240411D01*
X7314732Y-14240411D02*
X7295684Y-14230888D01*
X7295684Y-14230888D02*
X7286160Y-14211840D01*
X7286160Y-14211840D02*
X7286160Y-14202316D01*
X7286160Y-14202316D02*
X7295684Y-14183269D01*
X7295684Y-14183269D02*
X7314732Y-14173745D01*
X7314732Y-14173745D02*
X7343303Y-14173745D01*
X7343303Y-14173745D02*
X7362351Y-14183269D01*
X7438541Y-14383269D02*
X7448065Y-14373745D01*
X7448065Y-14373745D02*
X7467113Y-14345173D01*
X7467113Y-14345173D02*
X7476636Y-14326126D01*
X7476636Y-14326126D02*
X7486160Y-14297554D01*
X7486160Y-14297554D02*
X7495684Y-14249935D01*
X7495684Y-14249935D02*
X7495684Y-14211840D01*
X7495684Y-14211840D02*
X7486160Y-14164221D01*
X7486160Y-14164221D02*
X7476636Y-14135650D01*
X7476636Y-14135650D02*
X7467113Y-14116602D01*
X7467113Y-14116602D02*
X7448065Y-14088030D01*
X7448065Y-14088030D02*
X7438541Y-14078507D01*
D12*
X2353002Y-14419594D02*
X2473002Y-14539594D01*
X2473002Y-14419594D02*
X2353002Y-14539594D01*
X2473002Y-14479594D02*
G75*
G03*
X2353002Y-14479594I-60000J0D01*
G01*
X2353002Y-14479594D02*
G75*
G03*
X2473002Y-14479594I60000J0D01*
G01*
D11*
X2838541Y-14571078D02*
X2724255Y-14571078D01*
X2781398Y-14571078D02*
X2781398Y-14371078D01*
X2781398Y-14371078D02*
X2762350Y-14399650D01*
X2762350Y-14399650D02*
X2743303Y-14418697D01*
X2743303Y-14418697D02*
X2724255Y-14428221D01*
X2924255Y-14552030D02*
X2933779Y-14561554D01*
X2933779Y-14561554D02*
X2924255Y-14571078D01*
X2924255Y-14571078D02*
X2914731Y-14561554D01*
X2914731Y-14561554D02*
X2924255Y-14552030D01*
X2924255Y-14552030D02*
X2924255Y-14571078D01*
X3009969Y-14390126D02*
X3019493Y-14380602D01*
X3019493Y-14380602D02*
X3038541Y-14371078D01*
X3038541Y-14371078D02*
X3086160Y-14371078D01*
X3086160Y-14371078D02*
X3105207Y-14380602D01*
X3105207Y-14380602D02*
X3114731Y-14390126D01*
X3114731Y-14390126D02*
X3124255Y-14409173D01*
X3124255Y-14409173D02*
X3124255Y-14428221D01*
X3124255Y-14428221D02*
X3114731Y-14456792D01*
X3114731Y-14456792D02*
X3000445Y-14571078D01*
X3000445Y-14571078D02*
X3124255Y-14571078D01*
X3248064Y-14371078D02*
X3267112Y-14371078D01*
X3267112Y-14371078D02*
X3286160Y-14380602D01*
X3286160Y-14380602D02*
X3295684Y-14390126D01*
X3295684Y-14390126D02*
X3305207Y-14409173D01*
X3305207Y-14409173D02*
X3314731Y-14447269D01*
X3314731Y-14447269D02*
X3314731Y-14494888D01*
X3314731Y-14494888D02*
X3305207Y-14532983D01*
X3305207Y-14532983D02*
X3295684Y-14552030D01*
X3295684Y-14552030D02*
X3286160Y-14561554D01*
X3286160Y-14561554D02*
X3267112Y-14571078D01*
X3267112Y-14571078D02*
X3248064Y-14571078D01*
X3248064Y-14571078D02*
X3229017Y-14561554D01*
X3229017Y-14561554D02*
X3219493Y-14552030D01*
X3219493Y-14552030D02*
X3209969Y-14532983D01*
X3209969Y-14532983D02*
X3200445Y-14494888D01*
X3200445Y-14494888D02*
X3200445Y-14447269D01*
X3200445Y-14447269D02*
X3209969Y-14409173D01*
X3209969Y-14409173D02*
X3219493Y-14390126D01*
X3219493Y-14390126D02*
X3229017Y-14380602D01*
X3229017Y-14380602D02*
X3248064Y-14371078D01*
X3438541Y-14371078D02*
X3457588Y-14371078D01*
X3457588Y-14371078D02*
X3476636Y-14380602D01*
X3476636Y-14380602D02*
X3486160Y-14390126D01*
X3486160Y-14390126D02*
X3495684Y-14409173D01*
X3495684Y-14409173D02*
X3505207Y-14447269D01*
X3505207Y-14447269D02*
X3505207Y-14494888D01*
X3505207Y-14494888D02*
X3495684Y-14532983D01*
X3495684Y-14532983D02*
X3486160Y-14552030D01*
X3486160Y-14552030D02*
X3476636Y-14561554D01*
X3476636Y-14561554D02*
X3457588Y-14571078D01*
X3457588Y-14571078D02*
X3438541Y-14571078D01*
X3438541Y-14571078D02*
X3419493Y-14561554D01*
X3419493Y-14561554D02*
X3409969Y-14552030D01*
X3409969Y-14552030D02*
X3400445Y-14532983D01*
X3400445Y-14532983D02*
X3390922Y-14494888D01*
X3390922Y-14494888D02*
X3390922Y-14447269D01*
X3390922Y-14447269D02*
X3400445Y-14409173D01*
X3400445Y-14409173D02*
X3409969Y-14390126D01*
X3409969Y-14390126D02*
X3419493Y-14380602D01*
X3419493Y-14380602D02*
X3438541Y-14371078D01*
X3590922Y-14571078D02*
X3590922Y-14437745D01*
X3590922Y-14456792D02*
X3600445Y-14447269D01*
X3600445Y-14447269D02*
X3619493Y-14437745D01*
X3619493Y-14437745D02*
X3648065Y-14437745D01*
X3648065Y-14437745D02*
X3667112Y-14447269D01*
X3667112Y-14447269D02*
X3676636Y-14466316D01*
X3676636Y-14466316D02*
X3676636Y-14571078D01*
X3676636Y-14466316D02*
X3686160Y-14447269D01*
X3686160Y-14447269D02*
X3705207Y-14437745D01*
X3705207Y-14437745D02*
X3733779Y-14437745D01*
X3733779Y-14437745D02*
X3752826Y-14447269D01*
X3752826Y-14447269D02*
X3762350Y-14466316D01*
X3762350Y-14466316D02*
X3762350Y-14571078D01*
X3857588Y-14571078D02*
X3857588Y-14437745D01*
X3857588Y-14456792D02*
X3867112Y-14447269D01*
X3867112Y-14447269D02*
X3886160Y-14437745D01*
X3886160Y-14437745D02*
X3914731Y-14437745D01*
X3914731Y-14437745D02*
X3933779Y-14447269D01*
X3933779Y-14447269D02*
X3943303Y-14466316D01*
X3943303Y-14466316D02*
X3943303Y-14571078D01*
X3943303Y-14466316D02*
X3952826Y-14447269D01*
X3952826Y-14447269D02*
X3971874Y-14437745D01*
X3971874Y-14437745D02*
X4000445Y-14437745D01*
X4000445Y-14437745D02*
X4019493Y-14447269D01*
X4019493Y-14447269D02*
X4029017Y-14466316D01*
X4029017Y-14466316D02*
X4029017Y-14571078D01*
X4419493Y-14361554D02*
X4248065Y-14618697D01*
X4676636Y-14371078D02*
X4695684Y-14371078D01*
X4695684Y-14371078D02*
X4714731Y-14380602D01*
X4714731Y-14380602D02*
X4724255Y-14390126D01*
X4724255Y-14390126D02*
X4733779Y-14409173D01*
X4733779Y-14409173D02*
X4743303Y-14447269D01*
X4743303Y-14447269D02*
X4743303Y-14494888D01*
X4743303Y-14494888D02*
X4733779Y-14532983D01*
X4733779Y-14532983D02*
X4724255Y-14552030D01*
X4724255Y-14552030D02*
X4714731Y-14561554D01*
X4714731Y-14561554D02*
X4695684Y-14571078D01*
X4695684Y-14571078D02*
X4676636Y-14571078D01*
X4676636Y-14571078D02*
X4657589Y-14561554D01*
X4657589Y-14561554D02*
X4648065Y-14552030D01*
X4648065Y-14552030D02*
X4638541Y-14532983D01*
X4638541Y-14532983D02*
X4629017Y-14494888D01*
X4629017Y-14494888D02*
X4629017Y-14447269D01*
X4629017Y-14447269D02*
X4638541Y-14409173D01*
X4638541Y-14409173D02*
X4648065Y-14390126D01*
X4648065Y-14390126D02*
X4657589Y-14380602D01*
X4657589Y-14380602D02*
X4676636Y-14371078D01*
X4829017Y-14552030D02*
X4838541Y-14561554D01*
X4838541Y-14561554D02*
X4829017Y-14571078D01*
X4829017Y-14571078D02*
X4819493Y-14561554D01*
X4819493Y-14561554D02*
X4829017Y-14552030D01*
X4829017Y-14552030D02*
X4829017Y-14571078D01*
X4962350Y-14371078D02*
X4981398Y-14371078D01*
X4981398Y-14371078D02*
X5000446Y-14380602D01*
X5000446Y-14380602D02*
X5009970Y-14390126D01*
X5009970Y-14390126D02*
X5019493Y-14409173D01*
X5019493Y-14409173D02*
X5029017Y-14447269D01*
X5029017Y-14447269D02*
X5029017Y-14494888D01*
X5029017Y-14494888D02*
X5019493Y-14532983D01*
X5019493Y-14532983D02*
X5009970Y-14552030D01*
X5009970Y-14552030D02*
X5000446Y-14561554D01*
X5000446Y-14561554D02*
X4981398Y-14571078D01*
X4981398Y-14571078D02*
X4962350Y-14571078D01*
X4962350Y-14571078D02*
X4943303Y-14561554D01*
X4943303Y-14561554D02*
X4933779Y-14552030D01*
X4933779Y-14552030D02*
X4924255Y-14532983D01*
X4924255Y-14532983D02*
X4914731Y-14494888D01*
X4914731Y-14494888D02*
X4914731Y-14447269D01*
X4914731Y-14447269D02*
X4924255Y-14409173D01*
X4924255Y-14409173D02*
X4933779Y-14390126D01*
X4933779Y-14390126D02*
X4943303Y-14380602D01*
X4943303Y-14380602D02*
X4962350Y-14371078D01*
X5200446Y-14437745D02*
X5200446Y-14571078D01*
X5152827Y-14361554D02*
X5105208Y-14504411D01*
X5105208Y-14504411D02*
X5229017Y-14504411D01*
X5286160Y-14371078D02*
X5419493Y-14371078D01*
X5419493Y-14371078D02*
X5333779Y-14571078D01*
X5486160Y-14390126D02*
X5495684Y-14380602D01*
X5495684Y-14380602D02*
X5514731Y-14371078D01*
X5514731Y-14371078D02*
X5562351Y-14371078D01*
X5562351Y-14371078D02*
X5581398Y-14380602D01*
X5581398Y-14380602D02*
X5590922Y-14390126D01*
X5590922Y-14390126D02*
X5600446Y-14409173D01*
X5600446Y-14409173D02*
X5600446Y-14428221D01*
X5600446Y-14428221D02*
X5590922Y-14456792D01*
X5590922Y-14456792D02*
X5476636Y-14571078D01*
X5476636Y-14571078D02*
X5600446Y-14571078D01*
X5676636Y-14371078D02*
X5676636Y-14409173D01*
X5752827Y-14371078D02*
X5752827Y-14409173D01*
X6048065Y-14647269D02*
X6038541Y-14637745D01*
X6038541Y-14637745D02*
X6019493Y-14609173D01*
X6019493Y-14609173D02*
X6009970Y-14590126D01*
X6009970Y-14590126D02*
X6000446Y-14561554D01*
X6000446Y-14561554D02*
X5990922Y-14513935D01*
X5990922Y-14513935D02*
X5990922Y-14475840D01*
X5990922Y-14475840D02*
X6000446Y-14428221D01*
X6000446Y-14428221D02*
X6009970Y-14399650D01*
X6009970Y-14399650D02*
X6019493Y-14380602D01*
X6019493Y-14380602D02*
X6038541Y-14352030D01*
X6038541Y-14352030D02*
X6048065Y-14342507D01*
X6209970Y-14437745D02*
X6209970Y-14571078D01*
X6162350Y-14361554D02*
X6114731Y-14504411D01*
X6114731Y-14504411D02*
X6238541Y-14504411D01*
X6467112Y-14571078D02*
X6467112Y-14371078D01*
X6552827Y-14571078D02*
X6552827Y-14466316D01*
X6552827Y-14466316D02*
X6543303Y-14447269D01*
X6543303Y-14447269D02*
X6524255Y-14437745D01*
X6524255Y-14437745D02*
X6495684Y-14437745D01*
X6495684Y-14437745D02*
X6476636Y-14447269D01*
X6476636Y-14447269D02*
X6467112Y-14456792D01*
X6676636Y-14571078D02*
X6657589Y-14561554D01*
X6657589Y-14561554D02*
X6648065Y-14552030D01*
X6648065Y-14552030D02*
X6638541Y-14532983D01*
X6638541Y-14532983D02*
X6638541Y-14475840D01*
X6638541Y-14475840D02*
X6648065Y-14456792D01*
X6648065Y-14456792D02*
X6657589Y-14447269D01*
X6657589Y-14447269D02*
X6676636Y-14437745D01*
X6676636Y-14437745D02*
X6705208Y-14437745D01*
X6705208Y-14437745D02*
X6724255Y-14447269D01*
X6724255Y-14447269D02*
X6733779Y-14456792D01*
X6733779Y-14456792D02*
X6743303Y-14475840D01*
X6743303Y-14475840D02*
X6743303Y-14532983D01*
X6743303Y-14532983D02*
X6733779Y-14552030D01*
X6733779Y-14552030D02*
X6724255Y-14561554D01*
X6724255Y-14561554D02*
X6705208Y-14571078D01*
X6705208Y-14571078D02*
X6676636Y-14571078D01*
X6857589Y-14571078D02*
X6838541Y-14561554D01*
X6838541Y-14561554D02*
X6829017Y-14542507D01*
X6829017Y-14542507D02*
X6829017Y-14371078D01*
X7009970Y-14561554D02*
X6990922Y-14571078D01*
X6990922Y-14571078D02*
X6952827Y-14571078D01*
X6952827Y-14571078D02*
X6933779Y-14561554D01*
X6933779Y-14561554D02*
X6924255Y-14542507D01*
X6924255Y-14542507D02*
X6924255Y-14466316D01*
X6924255Y-14466316D02*
X6933779Y-14447269D01*
X6933779Y-14447269D02*
X6952827Y-14437745D01*
X6952827Y-14437745D02*
X6990922Y-14437745D01*
X6990922Y-14437745D02*
X7009970Y-14447269D01*
X7009970Y-14447269D02*
X7019493Y-14466316D01*
X7019493Y-14466316D02*
X7019493Y-14485364D01*
X7019493Y-14485364D02*
X6924255Y-14504411D01*
X7095684Y-14561554D02*
X7114732Y-14571078D01*
X7114732Y-14571078D02*
X7152827Y-14571078D01*
X7152827Y-14571078D02*
X7171874Y-14561554D01*
X7171874Y-14561554D02*
X7181398Y-14542507D01*
X7181398Y-14542507D02*
X7181398Y-14532983D01*
X7181398Y-14532983D02*
X7171874Y-14513935D01*
X7171874Y-14513935D02*
X7152827Y-14504411D01*
X7152827Y-14504411D02*
X7124255Y-14504411D01*
X7124255Y-14504411D02*
X7105208Y-14494888D01*
X7105208Y-14494888D02*
X7095684Y-14475840D01*
X7095684Y-14475840D02*
X7095684Y-14466316D01*
X7095684Y-14466316D02*
X7105208Y-14447269D01*
X7105208Y-14447269D02*
X7124255Y-14437745D01*
X7124255Y-14437745D02*
X7152827Y-14437745D01*
X7152827Y-14437745D02*
X7171874Y-14447269D01*
X7248065Y-14647269D02*
X7257589Y-14637745D01*
X7257589Y-14637745D02*
X7276636Y-14609173D01*
X7276636Y-14609173D02*
X7286160Y-14590126D01*
X7286160Y-14590126D02*
X7295684Y-14561554D01*
X7295684Y-14561554D02*
X7305208Y-14513935D01*
X7305208Y-14513935D02*
X7305208Y-14475840D01*
X7305208Y-14475840D02*
X7295684Y-14428221D01*
X7295684Y-14428221D02*
X7286160Y-14399650D01*
X7286160Y-14399650D02*
X7276636Y-14380602D01*
X7276636Y-14380602D02*
X7257589Y-14352030D01*
X7257589Y-14352030D02*
X7248065Y-14342507D01*
M02*
