<?xml version="1.0" standalone="no"?>
 <!DOCTYPE svg PUBLIC "-//W3C//DTD SVG 1.1//EN" 
 "http://www.w3.org/Graphics/SVG/1.1/DTD/svg11.dtd"> 
<svg
  xmlns:svg="http://www.w3.org/2000/svg"
  xmlns="http://www.w3.org/2000/svg"
  xmlns:xlink="http://www.w3.org/1999/xlink"
  version="1.1"
  width="297.002200mm" height="210.007200mm" viewBox="0.000000 0.000000 297.002200 210.007200">
<title>SVG Image created as roadrunner-Edge_Cuts.svg date 2024/02/24 15:00:00 </title>
  <desc>Image generated by PCBNEW </desc>
<g style="fill:#000000; fill-opacity:1.000000;stroke:#000000; stroke-opacity:1.000000;
stroke-linecap:round; stroke-linejoin:round;"
 transform="translate(0 0) scale(1 1)">
</g>
<g style="fill:#000000; fill-opacity:0.0; 
stroke:#000000; stroke-width:0.000000; stroke-opacity:1; 
stroke-linecap:round; stroke-linejoin:round;">
</g>
<g style="fill:#000000; fill-opacity:0.0; 
stroke:#000000; stroke-width:0.100000; stroke-opacity:1; 
stroke-linecap:round; stroke-linejoin:round;">
<circle cx="28.565299" cy="64.764271" r="1.610279" /> 
<circle cx="48.123299" cy="122.041271" r="1.610279" /> 
<path d="M88.681305 29.891305
L88.688735 31.408735
" />
<path d="M120.046020 97.652019 A2.019964 2.019964 0.0 0 0 117.897192 95.656300" />
<path d="M94.285920 109.087269 A11.192515 11.192515 0.0 0 0 103.163729 97.763758" />
<circle cx="143.540020" cy="49.654271" r="1.619290" /> 
<path d="M104.658735 27.891305
L90.691305 27.881305
" />
<path d="M25.370020 81.930019 A21.283069 21.283069 0.0 0 0 27.990020 94.110019" />
<circle cx="90.666332" cy="97.163271" r="4.000312" /> 
<circle cx="81.584561" cy="97.073271" r="1.131459" /> 
<circle cx="99.692390" cy="97.148271" r="1.161133" /> 
<path d="M120.046020 105.658271 A2.288296 2.288296 0.0 0 0 122.795095 107.926637" />
<path d="M145.200020 107.760020
L122.795095 107.926637
" />
<path d="M48.280020 37.990020
L48.288735 46.690020
" />
<circle cx="129.698020" cy="36.062271" r="1.591132" /> 
<path d="M94.285919 109.087271 A89.154555 89.154555 0.0 0 0 50.850019 124.680020" />
<circle cx="28.307660" cy="45.959271" r="1.610279" /> 
<path d="M105.123320 95.645830 A1.983896 1.983896 0.0 0 0 103.163730 97.763759" />
<path d="M50.290020 35.990020 A2.010000 2.010000 0.0 0 0 48.280020 37.990020" />
<path d="M26.790019 42.120019 A2.010038 2.010038 0.0 0 0 24.780019 44.130020" />
<path d="M35.007830 46.615844
L35.030903 44.157772
" />
<circle cx="56.927020" cy="96.193140" r="1.591132" /> 
<path d="M90.691305 27.881304 A2.010053 2.010053 0.0 0 0 88.681304 29.891305" />
<path d="M46.290020 48.700020
L37.017830 48.625844
" />
<path d="M86.700020 33.418735
L72.651305 33.431305
" />
<path d="M24.780020 44.130020
L25.370020 81.930020
" />
<path d="M72.651304 33.431305 A2.020967 2.020967 0.0 0 0 70.840019 34.600020" />
<path d="M147.280020 38.100020 A10.852655 10.852655 0.0 0 0 136.580020 27.890020" />
<path d="M68.970020 35.910020
L50.290020 35.990020
" />
<circle cx="103.368299" cy="87.370271" r="1.610279" /> 
<path d="M105.123320 95.645830
L117.897192 95.656301
" />
<circle cx="29.495020" cy="86.862271" r="1.595306" /> 
<path d="M43.550020 122.520020
L27.990020 94.110020
" />
<circle cx="51.570020" cy="39.024271" r="1.610279" /> 
<circle cx="143.379741" cy="104.234271" r="1.610279" /> 
<path d="M120.046020 97.652020
L120.046020 105.653020
" />
<path d="M35.007829 46.615843 A2.010114 2.010114 0.0 0 0 37.017829 48.625844" />
<path d="M86.700020 33.418735 A2.010135 2.010135 0.0 0 0 88.688735 31.408735" />
<path d="M46.290019 48.700019 A2.010036 2.010036 0.0 0 0 48.288734 46.690019" />
<path d="M43.550019 122.520020 A6.095670 6.095670 0.0 0 0 50.850019 124.680020" />
<path d="M68.970019 35.910020 A1.989771 1.989771 0.0 0 0 70.840019 34.600020" />
<path d="M136.580020 27.890020
L104.658735 27.891305
" />
<path d="M145.200020 107.760019 A2.010068 2.010068 0.0 0 0 147.190020 105.750019" />
<circle cx="123.650020" cy="104.464271" r="1.610279" /> 
<circle cx="83.570299" cy="106.644271" r="1.610279" /> 
<circle cx="86.880299" cy="36.004271" r="1.610279" /> 
<path d="M35.030903 44.157771 A2.010155 2.010155 0.0 0 0 32.986545 42.147771" />
<path d="M32.986545 42.147772
L26.790020 42.120020
" />
<path d="M261.349117 44.173501
L261.372190 46.631573
" />
<path d="M225.539999 34.615748 A2.020890 2.020890 0.0 0 0 223.728714 33.447033" />
<circle cx="209.499721" cy="36.020000" r="1.610279" /> 
<path d="M269.590000 42.135749
L263.393475 42.163501
" />
<path d="M223.728715 33.447034
L209.680000 33.434464
" />
<circle cx="239.453000" cy="96.208869" r="1.591132" /> 
<path d="M147.199999 76.569999 A0.995123 0.995123 0.0 0 0 149.189999 76.599999" />
<path d="M271.599999 44.145749 A2.009976 2.009976 0.0 0 0 269.589999 42.135748" />
<path d="M248.100000 38.005749 A2.010038 2.010038 0.0 0 0 246.090000 36.005749" />
<path d="M149.189999 82.420000 A1.000096 1.000096 0.0 0 0 147.189999 82.400000" />
<path d="M245.529999 124.695749 A89.154742 89.154742 0.0 0 0 202.094099 109.103000" />
<path d="M225.539999 34.615748 A1.989664 1.989664 0.0 0 0 227.409999 35.925748" />
<path d="M271.010000 81.945749
L271.600000 44.145749
" />
<circle cx="166.682000" cy="36.078000" r="1.591132" /> 
<circle cx="248.256721" cy="122.057000" r="1.610279" /> 
<circle cx="79.569058" cy="56.413000" r="1.161133" /> 
<path d="M149.240000 49.310000
L149.100000 38.121000
" />
<path d="M268.390000 94.125749
L252.830000 122.535749
" />
<path d="M149.230096 55.200000
L149.190000 76.600000
" />
<path d="M248.091285 46.705749
L248.100000 38.005749
" />
<circle cx="268.072360" cy="45.975000" r="1.610279" /> 
<path d="M147.190000 105.750000
L147.190000 82.400000
" />
<circle cx="212.809721" cy="106.660000" r="1.610279" /> 
<circle cx="267.814721" cy="64.780000" r="1.610279" /> 
<path d="M149.230096 55.199999 A0.995776 0.995776 0.0 0 0 147.240000 55.129999" />
<circle cx="193.011721" cy="87.386000" r="1.610279" /> 
<path d="M147.240000 49.289999 A1.000050 1.000050 0.0 1 0 149.240000 49.309999" />
<circle cx="70.543000" cy="56.398000" r="4.000312" /> 
<path d="M263.393474 42.163500 A2.010228 2.010228 0.0 0 0 261.349116 44.173500" />
<path d="M147.240000 49.290000
L147.280000 38.100000
" />
<path d="M178.482828 95.672030
L191.256700 95.661559
" />
<circle cx="266.885000" cy="86.878000" r="1.595306" /> 
<circle cx="244.810000" cy="39.040000" r="1.610279" /> 
<circle cx="61.461229" cy="56.488000" r="1.131459" /> 
<path d="M176.334000 105.668749
L176.334000 97.667749
" />
<circle cx="196.687630" cy="97.164000" r="1.161133" /> 
<path d="M159.800000 27.905749 A10.852686 10.852686 0.0 0 0 149.100000 38.115749" />
<path d="M193.216289 97.779488 A1.983933 1.983933 0.0 0 0 191.256699 95.661559" />
<circle cx="153.000279" cy="104.250000" r="1.610279" /> 
<path d="M147.200000 76.570000
L147.240000 55.130000
" />
<path d="M207.691285 31.424464 A2.010096 2.010096 0.0 0 0 209.680000 33.434464" />
<path d="M245.530000 124.695748 A6.095570 6.095570 0.0 0 0 252.830000 122.535748" />
<path d="M207.698714 29.907034 A2.009991 2.009991 0.0 0 0 205.688714 27.897033" />
<path d="M191.721285 27.907034
L159.800000 27.905749
" />
<path d="M149.189999 105.765748 A2.010125 2.010125 0.0 0 0 151.179999 107.775748" />
<circle cx="172.730000" cy="104.480000" r="1.610279" /> 
<path d="M259.362189 48.641572 A2.010040 2.010040 0.0 0 0 261.372189 46.631572" />
<path d="M173.584925 107.942366
L151.180000 107.775749
" />
<path d="M173.584925 107.942365 A2.288269 2.288269 0.0 0 0 176.334000 105.673999" />
<circle cx="214.795459" cy="97.089000" r="1.131459" /> 
<path d="M149.190000 82.420000
L149.190000 105.770000
" />
<circle cx="205.713688" cy="97.179000" r="4.000312" /> 
<path d="M259.362190 48.641573
L250.090000 48.715749
" />
<path d="M268.389999 94.125748 A21.283028 21.283028 0.0 0 0 271.009999 81.945748" />
<path d="M205.688715 27.897034
L191.721285 27.907034
" />
<path d="M246.090000 36.005749
L227.410000 35.925749
" />
<circle cx="152.840000" cy="49.670000" r="1.619290" /> 
<path d="M193.216291 97.779488 A11.192470 11.192470 0.0 0 0 202.094100 109.102999" />
<path d="M248.091284 46.705748 A2.009998 2.009998 0.0 0 0 250.089999 48.715748" />
<path d="M178.482828 95.672029 A2.019995 2.019995 0.0 0 0 176.334000 97.667748" />
<path d="M207.691285 31.424464
L207.698715 29.907034
" />
<g >
</g>
<g >
</g>
<g >
</g>
<g >
</g>
<g >
</g>
<g >
</g>
<g >
</g>
<g >
</g>
<g >
</g>
<g >
</g>
<g >
</g>
<g >
</g>
<g >
</g>
<g >
</g>
<g >
</g>
<g >
</g>
<g >
</g>
<g >
</g>
<g >
</g>
<g >
</g>
<g >
</g>
<g >
</g>
<g >
</g>
<g >
</g>
<g >
</g>
<g >
</g>
<g >
</g>
<g >
</g>
<g >
</g>
<g >
</g>
<g >
</g>
<g >
</g>
<g >
</g>
<g >
</g>
<g >
</g>
<g >
</g>
<g >
</g>
<g >
</g>
<g >
</g>
<g >
</g>
<g >
</g>
<g >
</g>
<g >
</g>
<g >
</g>
<g >
</g>
<g >
</g>
<g >
</g>
<g >
</g>
<g >
</g>
<g >
</g>
<g >
</g>
<g >
</g>
<g >
</g>
<g >
</g>
<g >
</g>
<g >
</g>
<g >
</g>
<g >
</g>
<g >
</g>
<g >
</g>
<g >
</g>
<g >
</g>
<g >
</g>
<g >
</g>
<g >
</g>
<g >
</g>
<g >
</g>
<g >
</g>
<g >
</g>
<g >
</g>
<g >
</g>
<g >
</g>
<g >
</g>
<g >
</g>
<g >
</g>
<g >
</g>
<g >
</g>
<g >
</g>
<g >
</g>
<g >
</g>
<g >
</g>
<g >
</g>
<g >
</g>
<g >
</g>
<g >
</g>
<g >
</g>
<g >
</g>
<g >
</g>
<g >
</g>
<g >
</g>
<g >
</g>
</g> 
</svg>
