%TF.GenerationSoftware,KiCad,Pcbnew,7.0.10-7.0.10~ubuntu22.04.1*%
%TF.CreationDate,2024-02-24T14:59:25-06:00*%
%TF.ProjectId,roadrunner,726f6164-7275-46e6-9e65-722e6b696361,rev?*%
%TF.SameCoordinates,Original*%
%TF.FileFunction,Profile,NP*%
%FSLAX46Y46*%
G04 Gerber Fmt 4.6, Leading zero omitted, Abs format (unit mm)*
G04 Created by KiCad (PCBNEW 7.0.10-7.0.10~ubuntu22.04.1) date 2024-02-24 14:59:25*
%MOMM*%
%LPD*%
G01*
G04 APERTURE LIST*
%TA.AperFunction,Profile*%
%ADD10C,0.100000*%
%TD*%
G04 APERTURE END LIST*
D10*
X30175578Y-64764271D02*
G75*
G03*
X26955020Y-64764271I-1610279J0D01*
G01*
X26955020Y-64764271D02*
G75*
G03*
X30175578Y-64764271I1610279J0D01*
G01*
X49733578Y-122041271D02*
G75*
G03*
X46513020Y-122041271I-1610279J0D01*
G01*
X46513020Y-122041271D02*
G75*
G03*
X49733578Y-122041271I1610279J0D01*
G01*
X88681305Y-29891305D02*
X88688735Y-31408735D01*
X120046035Y-97652020D02*
G75*
G03*
X117897192Y-95656302I-2019871J-20131D01*
G01*
X94285921Y-109087274D02*
G75*
G03*
X103163729Y-97763759I-2308537J10951853D01*
G01*
X145159310Y-49654271D02*
G75*
G03*
X141920730Y-49654271I-1619290J0D01*
G01*
X141920730Y-49654271D02*
G75*
G03*
X145159310Y-49654271I1619290J0D01*
G01*
X104658735Y-27891305D02*
X90691305Y-27881305D01*
X25370022Y-81930020D02*
G75*
G03*
X27990021Y-94110020I21205942J-1810251D01*
G01*
X94666644Y-97163271D02*
G75*
G03*
X86666020Y-97163271I-4000312J0D01*
G01*
X86666020Y-97163271D02*
G75*
G03*
X94666644Y-97163271I4000312J0D01*
G01*
X82716020Y-97073271D02*
G75*
G03*
X80453102Y-97073271I-1131459J0D01*
G01*
X80453102Y-97073271D02*
G75*
G03*
X82716020Y-97073271I1131459J0D01*
G01*
X100853523Y-97148271D02*
G75*
G03*
X98531257Y-97148271I-1161133J0D01*
G01*
X98531257Y-97148271D02*
G75*
G03*
X100853523Y-97148271I1161133J0D01*
G01*
X120046034Y-105658271D02*
G75*
G03*
X122795095Y-107926637I2288130J-26980D01*
G01*
X145200020Y-107760020D02*
X122795095Y-107926637D01*
X48280020Y-37990020D02*
X48288735Y-46690020D01*
X131289152Y-36062271D02*
G75*
G03*
X128106888Y-36062271I-1591132J0D01*
G01*
X128106888Y-36062271D02*
G75*
G03*
X131289152Y-36062271I1591132J0D01*
G01*
X94285920Y-109087274D02*
G75*
G03*
X50850020Y-124680020I7378454J-88848707D01*
G01*
X29917939Y-45959271D02*
G75*
G03*
X26697381Y-45959271I-1610279J0D01*
G01*
X26697381Y-45959271D02*
G75*
G03*
X29917939Y-45959271I1610279J0D01*
G01*
X105123320Y-95645878D02*
G75*
G03*
X103163731Y-97763759I19744J-1983773D01*
G01*
X50290020Y-35990082D02*
G75*
G03*
X48280020Y-37990020I-56J-2009969D01*
G01*
X26790020Y-42120007D02*
G75*
G03*
X24780020Y-44130020I44J-2010044D01*
G01*
X35007830Y-46615844D02*
X35030903Y-44157772D01*
X58518152Y-96193140D02*
G75*
G03*
X55335888Y-96193140I-1591132J0D01*
G01*
X55335888Y-96193140D02*
G75*
G03*
X58518152Y-96193140I1591132J0D01*
G01*
X90691305Y-27881292D02*
G75*
G03*
X88681305Y-29891305I59J-2010059D01*
G01*
X46290020Y-48700020D02*
X37017830Y-48625844D01*
X86700020Y-33418735D02*
X72651305Y-33431305D01*
X24780020Y-44130020D02*
X25370020Y-81930020D01*
X72651305Y-33431287D02*
G75*
G03*
X70840020Y-34600020I21259J-2020864D01*
G01*
X147280019Y-38100020D02*
G75*
G03*
X136580020Y-27890020I-10833659J-641832D01*
G01*
X68970020Y-35910020D02*
X50290020Y-35990020D01*
X104978578Y-87370271D02*
G75*
G03*
X101758020Y-87370271I-1610279J0D01*
G01*
X101758020Y-87370271D02*
G75*
G03*
X104978578Y-87370271I1610279J0D01*
G01*
X105123320Y-95645830D02*
X117897192Y-95656301D01*
X31090326Y-86862271D02*
G75*
G03*
X27899714Y-86862271I-1595306J0D01*
G01*
X27899714Y-86862271D02*
G75*
G03*
X31090326Y-86862271I1595306J0D01*
G01*
X43550020Y-122520020D02*
X27990020Y-94110020D01*
X53180299Y-39024271D02*
G75*
G03*
X49959741Y-39024271I-1610279J0D01*
G01*
X49959741Y-39024271D02*
G75*
G03*
X53180299Y-39024271I1610279J0D01*
G01*
X144990020Y-104234271D02*
G75*
G03*
X141769462Y-104234271I-1610279J0D01*
G01*
X141769462Y-104234271D02*
G75*
G03*
X144990020Y-104234271I1610279J0D01*
G01*
X120046020Y-97652020D02*
X120046020Y-105653020D01*
X35007871Y-46615844D02*
G75*
G03*
X37017830Y-48625844I2010093J93D01*
G01*
X86700021Y-33418807D02*
G75*
G03*
X88688735Y-31408735I-21457J2010056D01*
G01*
X46290020Y-48700090D02*
G75*
G03*
X48288735Y-46690020I-11356J2010039D01*
G01*
X43549986Y-122520044D02*
G75*
G03*
X50850020Y-124680020I5000878J3485493D01*
G01*
X68970020Y-35910023D02*
G75*
G03*
X70840019Y-34600020I-56J1989772D01*
G01*
X136580020Y-27890020D02*
X104658735Y-27891305D01*
X145200020Y-107760017D02*
G75*
G03*
X147190020Y-105750020I-20066J2009966D01*
G01*
X125260299Y-104464271D02*
G75*
G03*
X122039741Y-104464271I-1610279J0D01*
G01*
X122039741Y-104464271D02*
G75*
G03*
X125260299Y-104464271I1610279J0D01*
G01*
X85180578Y-106644271D02*
G75*
G03*
X81960020Y-106644271I-1610279J0D01*
G01*
X81960020Y-106644271D02*
G75*
G03*
X85180578Y-106644271I1610279J0D01*
G01*
X88490578Y-36004271D02*
G75*
G03*
X85270020Y-36004271I-1610279J0D01*
G01*
X85270020Y-36004271D02*
G75*
G03*
X88490578Y-36004271I1610279J0D01*
G01*
X35030934Y-44157772D02*
G75*
G03*
X32986545Y-42147772I-2010170J121D01*
G01*
X32986545Y-42147772D02*
X26790020Y-42120020D01*
X261349117Y-44173501D02*
X261372190Y-46631573D01*
X225539977Y-34615760D02*
G75*
G03*
X223728715Y-33447034I-1832477J-852040D01*
G01*
X211110000Y-36020000D02*
G75*
G03*
X207889442Y-36020000I-1610279J0D01*
G01*
X207889442Y-36020000D02*
G75*
G03*
X211110000Y-36020000I1610279J0D01*
G01*
X269590000Y-42135749D02*
X263393475Y-42163501D01*
X223728715Y-33447034D02*
X209680000Y-33434464D01*
X241044132Y-96208869D02*
G75*
G03*
X237861868Y-96208869I-1591132J0D01*
G01*
X237861868Y-96208869D02*
G75*
G03*
X241044132Y-96208869I1591132J0D01*
G01*
X147200064Y-76570001D02*
G75*
G03*
X149190000Y-76600000I995036J-10499D01*
G01*
X271599951Y-44145749D02*
G75*
G03*
X269590000Y-42135749I-2009951J49D01*
G01*
X248100026Y-38005749D02*
G75*
G03*
X246090000Y-36005749I-2010026J-10051D01*
G01*
X149189992Y-82420000D02*
G75*
G03*
X147190000Y-82400000I-1000092J400D01*
G01*
X245530008Y-124695738D02*
G75*
G03*
X202094100Y-109103000I-50814408J-73256162D01*
G01*
X225540028Y-34615739D02*
G75*
G03*
X227410000Y-35925749I1869972J679639D01*
G01*
X271010000Y-81945749D02*
X271600000Y-44145749D01*
X168273132Y-36078000D02*
G75*
G03*
X165090868Y-36078000I-1591132J0D01*
G01*
X165090868Y-36078000D02*
G75*
G03*
X168273132Y-36078000I1591132J0D01*
G01*
X249867000Y-122057000D02*
G75*
G03*
X246646442Y-122057000I-1610279J0D01*
G01*
X246646442Y-122057000D02*
G75*
G03*
X249867000Y-122057000I1610279J0D01*
G01*
X80730191Y-56413000D02*
G75*
G03*
X78407925Y-56413000I-1161133J0D01*
G01*
X78407925Y-56413000D02*
G75*
G03*
X80730191Y-56413000I1161133J0D01*
G01*
X149240000Y-49310000D02*
X149100000Y-38121000D01*
X268390000Y-94125749D02*
X252830000Y-122535749D01*
X149230096Y-55200000D02*
X149190000Y-76600000D01*
X248091285Y-46705749D02*
X248100000Y-38005749D01*
X269682639Y-45975000D02*
G75*
G03*
X266462081Y-45975000I-1610279J0D01*
G01*
X266462081Y-45975000D02*
G75*
G03*
X269682639Y-45975000I1610279J0D01*
G01*
X147190000Y-105750000D02*
X147190000Y-82400000D01*
X214420000Y-106660000D02*
G75*
G03*
X211199442Y-106660000I-1610279J0D01*
G01*
X211199442Y-106660000D02*
G75*
G03*
X214420000Y-106660000I1610279J0D01*
G01*
X269425000Y-64780000D02*
G75*
G03*
X266204442Y-64780000I-1610279J0D01*
G01*
X266204442Y-64780000D02*
G75*
G03*
X269425000Y-64780000I1610279J0D01*
G01*
X149230055Y-55199999D02*
G75*
G03*
X147240000Y-55130000I-995555J19999D01*
G01*
X194622000Y-87386000D02*
G75*
G03*
X191401442Y-87386000I-1610279J0D01*
G01*
X191401442Y-87386000D02*
G75*
G03*
X194622000Y-87386000I1610279J0D01*
G01*
X147240008Y-49290000D02*
G75*
G03*
X149240000Y-49310000I999992J-10400D01*
G01*
X74543312Y-56398000D02*
G75*
G03*
X66542688Y-56398000I-4000312J0D01*
G01*
X66542688Y-56398000D02*
G75*
G03*
X74543312Y-56398000I4000312J0D01*
G01*
X263393476Y-42163440D02*
G75*
G03*
X261349117Y-44173501I-34101J-2009969D01*
G01*
X147240000Y-49290000D02*
X147280000Y-38100000D01*
X178482828Y-95672030D02*
X191256700Y-95661559D01*
X268480306Y-86878000D02*
G75*
G03*
X265289694Y-86878000I-1595306J0D01*
G01*
X265289694Y-86878000D02*
G75*
G03*
X268480306Y-86878000I1595306J0D01*
G01*
X246420279Y-39040000D02*
G75*
G03*
X243199721Y-39040000I-1610279J0D01*
G01*
X243199721Y-39040000D02*
G75*
G03*
X246420279Y-39040000I1610279J0D01*
G01*
X62592688Y-56488000D02*
G75*
G03*
X60329770Y-56488000I-1131459J0D01*
G01*
X60329770Y-56488000D02*
G75*
G03*
X62592688Y-56488000I1131459J0D01*
G01*
X176334000Y-105668749D02*
X176334000Y-97667749D01*
X197848763Y-97164000D02*
G75*
G03*
X195526497Y-97164000I-1161133J0D01*
G01*
X195526497Y-97164000D02*
G75*
G03*
X197848763Y-97164000I1161133J0D01*
G01*
X159800000Y-27905728D02*
G75*
G03*
X149100001Y-38115749I133700J-10851872D01*
G01*
X193216302Y-97779489D02*
G75*
G03*
X191256700Y-95661560I-1979402J134089D01*
G01*
X154610558Y-104250000D02*
G75*
G03*
X151390000Y-104250000I-1610279J0D01*
G01*
X151390000Y-104250000D02*
G75*
G03*
X154610558Y-104250000I1610279J0D01*
G01*
X147200000Y-76570000D02*
X147240000Y-55130000D01*
X207691323Y-31424464D02*
G75*
G03*
X209680000Y-33434463I2010077J-36D01*
G01*
X245530019Y-124695701D02*
G75*
G03*
X252830000Y-122535749I2299181J5645301D01*
G01*
X207698666Y-29907034D02*
G75*
G03*
X205688715Y-27897034I-2009966J34D01*
G01*
X191721285Y-27907034D02*
X159800000Y-27905749D01*
X149189951Y-105765749D02*
G75*
G03*
X151180000Y-107775749I2010149J49D01*
G01*
X174340279Y-104480000D02*
G75*
G03*
X171119721Y-104480000I-1610279J0D01*
G01*
X171119721Y-104480000D02*
G75*
G03*
X174340279Y-104480000I1610279J0D01*
G01*
X259362190Y-48641524D02*
G75*
G03*
X261372190Y-46631573I-15J2010015D01*
G01*
X173584925Y-107942366D02*
X151180000Y-107775749D01*
X173584929Y-107942347D02*
G75*
G03*
X176334000Y-105674000I460971J2241347D01*
G01*
X215926918Y-97089000D02*
G75*
G03*
X213664000Y-97089000I-1131459J0D01*
G01*
X213664000Y-97089000D02*
G75*
G03*
X215926918Y-97089000I1131459J0D01*
G01*
X149190000Y-82420000D02*
X149190000Y-105770000D01*
X209714000Y-97179000D02*
G75*
G03*
X201713376Y-97179000I-4000312J0D01*
G01*
X201713376Y-97179000D02*
G75*
G03*
X209714000Y-97179000I4000312J0D01*
G01*
X259362190Y-48641573D02*
X250090000Y-48715749D01*
X268389996Y-94125747D02*
G75*
G03*
X271010000Y-81945749I-18585896J10369747D01*
G01*
X205688715Y-27897034D02*
X191721285Y-27907034D01*
X246090000Y-36005749D02*
X227410000Y-35925749D01*
X154459290Y-49670000D02*
G75*
G03*
X151220710Y-49670000I-1619290J0D01*
G01*
X151220710Y-49670000D02*
G75*
G03*
X154459290Y-49670000I1619290J0D01*
G01*
X193216318Y-97779489D02*
G75*
G03*
X202094100Y-109102999I11186282J-371711D01*
G01*
X248091320Y-46705749D02*
G75*
G03*
X250090000Y-48715748I2009980J-51D01*
G01*
X178482829Y-95672019D02*
G75*
G03*
X176334001Y-97667749I-128929J-2015881D01*
G01*
X207691285Y-31424464D02*
X207698715Y-29907034D01*
M02*
