<?xml version="1.0" standalone="no"?>
 <!DOCTYPE svg PUBLIC "-//W3C//DTD SVG 1.1//EN" 
 "http://www.w3.org/Graphics/SVG/1.1/DTD/svg11.dtd"> 
<svg
  xmlns:svg="http://www.w3.org/2000/svg"
  xmlns="http://www.w3.org/2000/svg"
  xmlns:xlink="http://www.w3.org/1999/xlink"
  version="1.1"
  width="297.002200mm" height="210.007200mm" viewBox="0.000000 0.000000 297.002200 210.007200">
<title>SVG Image created as roadrunner-B_Paste.svg date 2024/02/24 15:00:00 </title>
  <desc>Image generated by PCBNEW </desc>
<g style="fill:#000000; fill-opacity:1.000000;stroke:#000000; stroke-opacity:1.000000;
stroke-linecap:round; stroke-linejoin:round;"
 transform="translate(0 0) scale(1 1)">
</g>
<g style="fill:#000000; fill-opacity:0.0; 
stroke:#000000; stroke-width:0.000000; stroke-opacity:1; 
stroke-linecap:round; stroke-linejoin:round;">
<g >
</g>
<g style="fill:#000000; fill-opacity:0.0; 
stroke:#000000; stroke-width:0.000000; stroke-opacity:1; 
stroke-linecap:round; stroke-linejoin:round;">
</g>
<g style="fill:#000000; fill-opacity:1.000000; 
stroke:#000000; stroke-width:0.000000; stroke-opacity:1; 
stroke-linecap:round; stroke-linejoin:round;">
<path style="fill:#000000; fill-opacity:1.000000; 
stroke:#000000; stroke-width:0.000000; stroke-opacity:1; 
stroke-linecap:round; stroke-linejoin:round;fill-rule:evenodd;"
d="M 102.503000,65.448000
102.483970,65.543671
102.429777,65.624777
102.348671,65.678970
102.253000,65.698000
100.203000,65.698000
100.107329,65.678970
100.026223,65.624777
99.972030,65.543671
99.953000,65.448000
99.953000,63.448000
99.972030,63.352329
100.026223,63.271223
100.107329,63.217030
100.203000,63.198000
102.253000,63.198000
102.348671,63.217030
102.429777,63.271223
102.483970,63.352329
102.503000,63.448000
Z" /> 
<path style="fill:#000000; fill-opacity:1.000000; 
stroke:#000000; stroke-width:0.000000; stroke-opacity:1; 
stroke-linecap:round; stroke-linejoin:round;fill-rule:evenodd;"
d="M 90.503000,63.248000
90.483970,63.343671
90.429777,63.424777
90.348671,63.478970
90.253000,63.498000
88.203000,63.498000
88.107329,63.478970
88.026223,63.424777
87.972030,63.343671
87.953000,63.248000
87.953000,61.248000
87.972030,61.152329
88.026223,61.071223
88.107329,61.017030
88.203000,60.998000
90.253000,60.998000
90.348671,61.017030
90.429777,61.071223
90.483970,61.152329
90.503000,61.248000
Z" /> 
</g>
<g >
</g>
<g style="fill:#000000; fill-opacity:1.000000; 
stroke:#000000; stroke-width:0.000000; stroke-opacity:1; 
stroke-linecap:round; stroke-linejoin:round;">
<path style="fill:#000000; fill-opacity:1.000000; 
stroke:#000000; stroke-width:0.000000; stroke-opacity:1; 
stroke-linecap:round; stroke-linejoin:round;fill-rule:evenodd;"
d="M 138.547000,84.332000
138.527970,84.427671
138.473777,84.508777
138.392671,84.562970
138.297000,84.582000
136.247000,84.582000
136.151329,84.562970
136.070223,84.508777
136.016030,84.427671
135.997000,84.332000
135.997000,82.332000
136.016030,82.236329
136.070223,82.155223
136.151329,82.101030
136.247000,82.082000
138.297000,82.082000
138.392671,82.101030
138.473777,82.155223
138.527970,82.236329
138.547000,82.332000
Z" /> 
<path style="fill:#000000; fill-opacity:1.000000; 
stroke:#000000; stroke-width:0.000000; stroke-opacity:1; 
stroke-linecap:round; stroke-linejoin:round;fill-rule:evenodd;"
d="M 126.547000,82.132000
126.527970,82.227671
126.473777,82.308777
126.392671,82.362970
126.297000,82.382000
124.247000,82.382000
124.151329,82.362970
124.070223,82.308777
124.016030,82.227671
123.997000,82.132000
123.997000,80.132000
124.016030,80.036329
124.070223,79.955223
124.151329,79.901030
124.247000,79.882000
126.297000,79.882000
126.392671,79.901030
126.473777,79.955223
126.527970,80.036329
126.547000,80.132000
Z" /> 
</g>
<g >
</g>
<g >
</g>
<g style="fill:#000000; fill-opacity:1.000000; 
stroke:#000000; stroke-width:0.000000; stroke-opacity:1; 
stroke-linecap:round; stroke-linejoin:round;">
<path style="fill:#000000; fill-opacity:1.000000; 
stroke:#000000; stroke-width:0.000000; stroke-opacity:1; 
stroke-linecap:round; stroke-linejoin:round;fill-rule:evenodd;"
d="M 229.410562,108.959342
229.367419,109.046828
229.294081,109.111144
229.201713,109.142499
229.104376,109.136119
227.124228,108.605540
227.036742,108.562397
226.972426,108.489059
226.941072,108.396690
226.947452,108.299354
227.465090,106.367502
227.508233,106.280016
227.581571,106.215700
227.673939,106.184345
227.771276,106.190725
229.751424,106.721304
229.838910,106.764447
229.903226,106.837785
229.934580,106.930154
229.928200,107.027490
Z" /> 
<path style="fill:#000000; fill-opacity:1.000000; 
stroke:#000000; stroke-width:0.000000; stroke-opacity:1; 
stroke-linecap:round; stroke-linejoin:round;fill-rule:evenodd;"
d="M 218.388854,103.728476
218.345711,103.815962
218.272373,103.880278
218.180005,103.911633
218.082668,103.905253
216.102520,103.374674
216.015034,103.331531
215.950718,103.258193
215.919364,103.165824
215.925744,103.068488
216.443382,101.136636
216.486525,101.049150
216.559863,100.984834
216.652231,100.953479
216.749568,100.959859
218.729716,101.490438
218.817202,101.533581
218.881518,101.606919
218.912872,101.699288
218.906492,101.796624
Z" /> 
</g>
<g >
</g>
<g style="fill:#000000; fill-opacity:1.000000; 
stroke:#000000; stroke-width:0.000000; stroke-opacity:1; 
stroke-linecap:round; stroke-linejoin:round;">
<path style="fill:#000000; fill-opacity:1.000000; 
stroke:#000000; stroke-width:0.000000; stroke-opacity:1; 
stroke-linecap:round; stroke-linejoin:round;fill-rule:evenodd;"
d="M 185.415000,89.254000
185.395970,89.349671
185.341777,89.430777
185.260671,89.484970
185.165000,89.504000
183.115000,89.504000
183.019329,89.484970
182.938223,89.430777
182.884030,89.349671
182.865000,89.254000
182.865000,87.254000
182.884030,87.158329
182.938223,87.077223
183.019329,87.023030
183.115000,87.004000
185.165000,87.004000
185.260671,87.023030
185.341777,87.077223
185.395970,87.158329
185.415000,87.254000
Z" /> 
<path style="fill:#000000; fill-opacity:1.000000; 
stroke:#000000; stroke-width:0.000000; stroke-opacity:1; 
stroke-linecap:round; stroke-linejoin:round;fill-rule:evenodd;"
d="M 173.415000,87.054000
173.395970,87.149671
173.341777,87.230777
173.260671,87.284970
173.165000,87.304000
171.115000,87.304000
171.019329,87.284970
170.938223,87.230777
170.884030,87.149671
170.865000,87.054000
170.865000,85.054000
170.884030,84.958329
170.938223,84.877223
171.019329,84.823030
171.115000,84.804000
173.165000,84.804000
173.260671,84.823030
173.341777,84.877223
173.395970,84.958329
173.415000,85.054000
Z" /> 
</g>
<g >
</g>
<g >
</g>
<g >
</g>
<g style="fill:#000000; fill-opacity:1.000000; 
stroke:#000000; stroke-width:0.000000; stroke-opacity:1; 
stroke-linecap:round; stroke-linejoin:round;">
<path style="fill:#000000; fill-opacity:1.000000; 
stroke:#000000; stroke-width:0.000000; stroke-opacity:1; 
stroke-linecap:round; stroke-linejoin:round;fill-rule:evenodd;"
d="M 84.515000,70.782000
84.495970,70.877671
84.441777,70.958777
84.360671,71.012970
84.265000,71.032000
82.215000,71.032000
82.119329,71.012970
82.038223,70.958777
81.984030,70.877671
81.965000,70.782000
81.965000,68.782000
81.984030,68.686329
82.038223,68.605223
82.119329,68.551030
82.215000,68.532000
84.265000,68.532000
84.360671,68.551030
84.441777,68.605223
84.495970,68.686329
84.515000,68.782000
Z" /> 
<path style="fill:#000000; fill-opacity:1.000000; 
stroke:#000000; stroke-width:0.000000; stroke-opacity:1; 
stroke-linecap:round; stroke-linejoin:round;fill-rule:evenodd;"
d="M 72.515000,68.582000
72.495970,68.677671
72.441777,68.758777
72.360671,68.812970
72.265000,68.832000
70.215000,68.832000
70.119329,68.812970
70.038223,68.758777
69.984030,68.677671
69.965000,68.582000
69.965000,66.582000
69.984030,66.486329
70.038223,66.405223
70.119329,66.351030
70.215000,66.332000
72.265000,66.332000
72.360671,66.351030
72.441777,66.405223
72.495970,66.486329
72.515000,66.582000
Z" /> 
</g>
<g >
</g>
<g style="fill:#000000; fill-opacity:1.000000; 
stroke:#000000; stroke-width:0.000000; stroke-opacity:1; 
stroke-linecap:round; stroke-linejoin:round;">
<path style="fill:#000000; fill-opacity:1.000000; 
stroke:#000000; stroke-width:0.000000; stroke-opacity:1; 
stroke-linecap:round; stroke-linejoin:round;fill-rule:evenodd;"
d="M 120.529000,89.324000
120.509970,89.419671
120.455777,89.500777
120.374671,89.554970
120.279000,89.574000
118.229000,89.574000
118.133329,89.554970
118.052223,89.500777
117.998030,89.419671
117.979000,89.324000
117.979000,87.324000
117.998030,87.228329
118.052223,87.147223
118.133329,87.093030
118.229000,87.074000
120.279000,87.074000
120.374671,87.093030
120.455777,87.147223
120.509970,87.228329
120.529000,87.324000
Z" /> 
<path style="fill:#000000; fill-opacity:1.000000; 
stroke:#000000; stroke-width:0.000000; stroke-opacity:1; 
stroke-linecap:round; stroke-linejoin:round;fill-rule:evenodd;"
d="M 108.529000,87.124000
108.509970,87.219671
108.455777,87.300777
108.374671,87.354970
108.279000,87.374000
106.229000,87.374000
106.133329,87.354970
106.052223,87.300777
105.998030,87.219671
105.979000,87.124000
105.979000,85.124000
105.998030,85.028329
106.052223,84.947223
106.133329,84.893030
106.229000,84.874000
108.279000,84.874000
108.374671,84.893030
108.455777,84.947223
108.509970,85.028329
108.529000,85.124000
Z" /> 
</g>
<g >
</g>
<g style="fill:#000000; fill-opacity:1.000000; 
stroke:#000000; stroke-width:0.000000; stroke-opacity:1; 
stroke-linecap:round; stroke-linejoin:round;">
<path style="fill:#000000; fill-opacity:1.000000; 
stroke:#000000; stroke-width:0.000000; stroke-opacity:1; 
stroke-linecap:round; stroke-linejoin:round;fill-rule:evenodd;"
d="M 84.515000,87.800000
84.495970,87.895671
84.441777,87.976777
84.360671,88.030970
84.265000,88.050000
82.215000,88.050000
82.119329,88.030970
82.038223,87.976777
81.984030,87.895671
81.965000,87.800000
81.965000,85.800000
81.984030,85.704329
82.038223,85.623223
82.119329,85.569030
82.215000,85.550000
84.265000,85.550000
84.360671,85.569030
84.441777,85.623223
84.495970,85.704329
84.515000,85.800000
Z" /> 
<path style="fill:#000000; fill-opacity:1.000000; 
stroke:#000000; stroke-width:0.000000; stroke-opacity:1; 
stroke-linecap:round; stroke-linejoin:round;fill-rule:evenodd;"
d="M 72.515000,85.600000
72.495970,85.695671
72.441777,85.776777
72.360671,85.830970
72.265000,85.850000
70.215000,85.850000
70.119329,85.830970
70.038223,85.776777
69.984030,85.695671
69.965000,85.600000
69.965000,83.600000
69.984030,83.504329
70.038223,83.423223
70.119329,83.369030
70.215000,83.350000
72.265000,83.350000
72.360671,83.369030
72.441777,83.423223
72.495970,83.504329
72.515000,83.600000
Z" /> 
</g>
<g >
</g>
<g >
</g>
<g style="fill:#000000; fill-opacity:1.000000; 
stroke:#000000; stroke-width:0.000000; stroke-opacity:1; 
stroke-linecap:round; stroke-linejoin:round;">
<path style="fill:#000000; fill-opacity:1.000000; 
stroke:#000000; stroke-width:0.000000; stroke-opacity:1; 
stroke-linecap:round; stroke-linejoin:round;fill-rule:evenodd;"
d="M 120.529000,55.332000
120.509970,55.427671
120.455777,55.508777
120.374671,55.562970
120.279000,55.582000
118.229000,55.582000
118.133329,55.562970
118.052223,55.508777
117.998030,55.427671
117.979000,55.332000
117.979000,53.332000
117.998030,53.236329
118.052223,53.155223
118.133329,53.101030
118.229000,53.082000
120.279000,53.082000
120.374671,53.101030
120.455777,53.155223
120.509970,53.236329
120.529000,53.332000
Z" /> 
<path style="fill:#000000; fill-opacity:1.000000; 
stroke:#000000; stroke-width:0.000000; stroke-opacity:1; 
stroke-linecap:round; stroke-linejoin:round;fill-rule:evenodd;"
d="M 108.529000,53.132000
108.509970,53.227671
108.455777,53.308777
108.374671,53.362970
108.279000,53.382000
106.229000,53.382000
106.133329,53.362970
106.052223,53.308777
105.998030,53.227671
105.979000,53.132000
105.979000,51.132000
105.998030,51.036329
106.052223,50.955223
106.133329,50.901030
106.229000,50.882000
108.279000,50.882000
108.374671,50.901030
108.455777,50.955223
108.509970,51.036329
108.529000,51.132000
Z" /> 
</g>
<g >
</g>
<g style="fill:#000000; fill-opacity:1.000000; 
stroke:#000000; stroke-width:0.000000; stroke-opacity:1; 
stroke-linecap:round; stroke-linejoin:round;">
<path style="fill:#000000; fill-opacity:1.000000; 
stroke:#000000; stroke-width:0.000000; stroke-opacity:1; 
stroke-linecap:round; stroke-linejoin:round;fill-rule:evenodd;"
d="M 120.529000,72.306000
120.509970,72.401671
120.455777,72.482777
120.374671,72.536970
120.279000,72.556000
118.229000,72.556000
118.133329,72.536970
118.052223,72.482777
117.998030,72.401671
117.979000,72.306000
117.979000,70.306000
117.998030,70.210329
118.052223,70.129223
118.133329,70.075030
118.229000,70.056000
120.279000,70.056000
120.374671,70.075030
120.455777,70.129223
120.509970,70.210329
120.529000,70.306000
Z" /> 
<path style="fill:#000000; fill-opacity:1.000000; 
stroke:#000000; stroke-width:0.000000; stroke-opacity:1; 
stroke-linecap:round; stroke-linejoin:round;fill-rule:evenodd;"
d="M 108.529000,70.106000
108.509970,70.201671
108.455777,70.282777
108.374671,70.336970
108.279000,70.356000
106.229000,70.356000
106.133329,70.336970
106.052223,70.282777
105.998030,70.201671
105.979000,70.106000
105.979000,68.106000
105.998030,68.010329
106.052223,67.929223
106.133329,67.875030
106.229000,67.856000
108.279000,67.856000
108.374671,67.875030
108.455777,67.929223
108.509970,68.010329
108.529000,68.106000
Z" /> 
</g>
<g >
</g>
<g >
</g>
<g style="fill:#000000; fill-opacity:1.000000; 
stroke:#000000; stroke-width:0.000000; stroke-opacity:1; 
stroke-linecap:round; stroke-linejoin:round;">
<path style="fill:#000000; fill-opacity:1.000000; 
stroke:#000000; stroke-width:0.000000; stroke-opacity:1; 
stroke-linecap:round; stroke-linejoin:round;fill-rule:evenodd;"
d="M 56.951000,59.322000
56.970030,59.226329
57.024223,59.145223
57.105329,59.091030
57.201000,59.072000
59.251000,59.072000
59.346671,59.091030
59.427777,59.145223
59.481970,59.226329
59.501000,59.322000
59.501000,61.322000
59.481970,61.417671
59.427777,61.498777
59.346671,61.552970
59.251000,61.572000
57.201000,61.572000
57.105329,61.552970
57.024223,61.498777
56.970030,61.417671
56.951000,61.322000
Z" /> 
<path style="fill:#000000; fill-opacity:1.000000; 
stroke:#000000; stroke-width:0.000000; stroke-opacity:1; 
stroke-linecap:round; stroke-linejoin:round;fill-rule:evenodd;"
d="M 68.951000,61.522000
68.970030,61.426329
69.024223,61.345223
69.105329,61.291030
69.201000,61.272000
71.251000,61.272000
71.346671,61.291030
71.427777,61.345223
71.481970,61.426329
71.501000,61.522000
71.501000,63.522000
71.481970,63.617671
71.427777,63.698777
71.346671,63.752970
71.251000,63.772000
69.201000,63.772000
69.105329,63.752970
69.024223,63.698777
68.970030,63.617671
68.951000,63.522000
Z" /> 
</g>
<g >
</g>
<g style="fill:#000000; fill-opacity:1.000000; 
stroke:#000000; stroke-width:0.000000; stroke-opacity:1; 
stroke-linecap:round; stroke-linejoin:round;">
<path style="fill:#000000; fill-opacity:1.000000; 
stroke:#000000; stroke-width:0.000000; stroke-opacity:1; 
stroke-linecap:round; stroke-linejoin:round;fill-rule:evenodd;"
d="M 221.415000,53.762000
221.395970,53.857671
221.341777,53.938777
221.260671,53.992970
221.165000,54.012000
219.115000,54.012000
219.019329,53.992970
218.938223,53.938777
218.884030,53.857671
218.865000,53.762000
218.865000,51.762000
218.884030,51.666329
218.938223,51.585223
219.019329,51.531030
219.115000,51.512000
221.165000,51.512000
221.260671,51.531030
221.341777,51.585223
221.395970,51.666329
221.415000,51.762000
Z" /> 
<path style="fill:#000000; fill-opacity:1.000000; 
stroke:#000000; stroke-width:0.000000; stroke-opacity:1; 
stroke-linecap:round; stroke-linejoin:round;fill-rule:evenodd;"
d="M 209.415000,51.562000
209.395970,51.657671
209.341777,51.738777
209.260671,51.792970
209.165000,51.812000
207.115000,51.812000
207.019329,51.792970
206.938223,51.738777
206.884030,51.657671
206.865000,51.562000
206.865000,49.562000
206.884030,49.466329
206.938223,49.385223
207.019329,49.331030
207.115000,49.312000
209.165000,49.312000
209.260671,49.331030
209.341777,49.385223
209.395970,49.466329
209.415000,49.562000
Z" /> 
</g>
<g >
</g>
<g >
</g>
<g style="fill:#000000; fill-opacity:1.000000; 
stroke:#000000; stroke-width:0.000000; stroke-opacity:1; 
stroke-linecap:round; stroke-linejoin:round;">
<path style="fill:#000000; fill-opacity:1.000000; 
stroke:#000000; stroke-width:0.000000; stroke-opacity:1; 
stroke-linecap:round; stroke-linejoin:round;fill-rule:evenodd;"
d="M 239.395000,73.252000
239.375970,73.347671
239.321777,73.428777
239.240671,73.482970
239.145000,73.502000
237.095000,73.502000
236.999329,73.482970
236.918223,73.428777
236.864030,73.347671
236.845000,73.252000
236.845000,71.252000
236.864030,71.156329
236.918223,71.075223
236.999329,71.021030
237.095000,71.002000
239.145000,71.002000
239.240671,71.021030
239.321777,71.075223
239.375970,71.156329
239.395000,71.252000
Z" /> 
<path style="fill:#000000; fill-opacity:1.000000; 
stroke:#000000; stroke-width:0.000000; stroke-opacity:1; 
stroke-linecap:round; stroke-linejoin:round;fill-rule:evenodd;"
d="M 227.395000,71.052000
227.375970,71.147671
227.321777,71.228777
227.240671,71.282970
227.145000,71.302000
225.095000,71.302000
224.999329,71.282970
224.918223,71.228777
224.864030,71.147671
224.845000,71.052000
224.845000,69.052000
224.864030,68.956329
224.918223,68.875223
224.999329,68.821030
225.095000,68.802000
227.145000,68.802000
227.240671,68.821030
227.321777,68.875223
227.375970,68.956329
227.395000,69.052000
Z" /> 
</g>
<g >
</g>
<g style="fill:#000000; fill-opacity:1.000000; 
stroke:#000000; stroke-width:0.000000; stroke-opacity:1; 
stroke-linecap:round; stroke-linejoin:round;">
<path style="fill:#000000; fill-opacity:1.000000; 
stroke:#000000; stroke-width:0.000000; stroke-opacity:1; 
stroke-linecap:round; stroke-linejoin:round;fill-rule:evenodd;"
d="M 221.415000,70.712000
221.395970,70.807671
221.341777,70.888777
221.260671,70.942970
221.165000,70.962000
219.115000,70.962000
219.019329,70.942970
218.938223,70.888777
218.884030,70.807671
218.865000,70.712000
218.865000,68.712000
218.884030,68.616329
218.938223,68.535223
219.019329,68.481030
219.115000,68.462000
221.165000,68.462000
221.260671,68.481030
221.341777,68.535223
221.395970,68.616329
221.415000,68.712000
Z" /> 
<path style="fill:#000000; fill-opacity:1.000000; 
stroke:#000000; stroke-width:0.000000; stroke-opacity:1; 
stroke-linecap:round; stroke-linejoin:round;fill-rule:evenodd;"
d="M 209.415000,68.512000
209.395970,68.607671
209.341777,68.688777
209.260671,68.742970
209.165000,68.762000
207.115000,68.762000
207.019329,68.742970
206.938223,68.688777
206.884030,68.607671
206.865000,68.512000
206.865000,66.512000
206.884030,66.416329
206.938223,66.335223
207.019329,66.281030
207.115000,66.262000
209.165000,66.262000
209.260671,66.281030
209.341777,66.335223
209.395970,66.416329
209.415000,66.512000
Z" /> 
</g>
<g >
</g>
<g style="fill:#000000; fill-opacity:1.000000; 
stroke:#000000; stroke-width:0.000000; stroke-opacity:1; 
stroke-linecap:round; stroke-linejoin:round;">
<path style="fill:#000000; fill-opacity:1.000000; 
stroke:#000000; stroke-width:0.000000; stroke-opacity:1; 
stroke-linecap:round; stroke-linejoin:round;fill-rule:evenodd;"
d="M 185.415000,55.262000
185.395970,55.357671
185.341777,55.438777
185.260671,55.492970
185.165000,55.512000
183.115000,55.512000
183.019329,55.492970
182.938223,55.438777
182.884030,55.357671
182.865000,55.262000
182.865000,53.262000
182.884030,53.166329
182.938223,53.085223
183.019329,53.031030
183.115000,53.012000
185.165000,53.012000
185.260671,53.031030
185.341777,53.085223
185.395970,53.166329
185.415000,53.262000
Z" /> 
<path style="fill:#000000; fill-opacity:1.000000; 
stroke:#000000; stroke-width:0.000000; stroke-opacity:1; 
stroke-linecap:round; stroke-linejoin:round;fill-rule:evenodd;"
d="M 173.415000,53.062000
173.395970,53.157671
173.341777,53.238777
173.260671,53.292970
173.165000,53.312000
171.115000,53.312000
171.019329,53.292970
170.938223,53.238777
170.884030,53.157671
170.865000,53.062000
170.865000,51.062000
170.884030,50.966329
170.938223,50.885223
171.019329,50.831030
171.115000,50.812000
173.165000,50.812000
173.260671,50.831030
173.341777,50.885223
173.395970,50.966329
173.415000,51.062000
Z" /> 
</g>
<g >
</g>
<g style="fill:#000000; fill-opacity:1.000000; 
stroke:#000000; stroke-width:0.000000; stroke-opacity:1; 
stroke-linecap:round; stroke-linejoin:round;">
<path style="fill:#000000; fill-opacity:1.000000; 
stroke:#000000; stroke-width:0.000000; stroke-opacity:1; 
stroke-linecap:round; stroke-linejoin:round;fill-rule:evenodd;"
d="M 245.805271,117.411677
245.740955,117.485016
245.653470,117.528159
245.556134,117.534539
245.463765,117.503184
243.688413,116.478184
243.615074,116.413868
243.571931,116.326382
243.565552,116.229046
243.596907,116.136677
244.596907,114.404627
244.661223,114.331288
244.748708,114.288145
244.846044,114.281765
244.938413,114.313120
246.713765,115.338120
246.787104,115.402436
246.830247,115.489922
246.836626,115.587258
246.805271,115.679627
Z" /> 
<path style="fill:#000000; fill-opacity:1.000000; 
stroke:#000000; stroke-width:0.000000; stroke-opacity:1; 
stroke-linecap:round; stroke-linejoin:round;fill-rule:evenodd;"
d="M 236.512966,109.506422
236.448650,109.579761
236.361165,109.622904
236.263829,109.629284
236.171460,109.597929
234.396108,108.572929
234.322769,108.508613
234.279626,108.421127
234.273247,108.323791
234.304602,108.231422
235.304602,106.499372
235.368918,106.426033
235.456403,106.382890
235.553739,106.376510
235.646108,106.407865
237.421460,107.432865
237.494799,107.497181
237.537942,107.584667
237.544321,107.682003
237.512966,107.774372
Z" /> 
</g>
<g >
</g>
<g style="fill:#000000; fill-opacity:1.000000; 
stroke:#000000; stroke-width:0.000000; stroke-opacity:1; 
stroke-linecap:round; stroke-linejoin:round;">
<path style="fill:#000000; fill-opacity:1.000000; 
stroke:#000000; stroke-width:0.000000; stroke-opacity:1; 
stroke-linecap:round; stroke-linejoin:round;fill-rule:evenodd;"
d="M 43.622729,105.357323
43.591374,105.264954
43.597753,105.167618
43.640896,105.080132
43.714235,105.015816
45.489587,103.990816
45.581956,103.959461
45.679292,103.965841
45.766777,104.008984
45.831093,104.082323
46.831093,105.814373
46.862448,105.906742
46.856069,106.004078
46.812926,106.091564
46.739587,106.155880
44.964235,107.180880
44.871866,107.212235
44.774530,107.205855
44.687045,107.162712
44.622729,107.089373
Z" /> 
<path style="fill:#000000; fill-opacity:1.000000; 
stroke:#000000; stroke-width:0.000000; stroke-opacity:1; 
stroke-linecap:round; stroke-linejoin:round;fill-rule:evenodd;"
d="M 55.115034,101.262578
55.083679,101.170209
55.090058,101.072873
55.133201,100.985387
55.206540,100.921071
56.981892,99.896071
57.074261,99.864716
57.171597,99.871096
57.259082,99.914239
57.323398,99.987578
58.323398,101.719628
58.354753,101.811997
58.348374,101.909333
58.305231,101.996819
58.231892,102.061135
56.456540,103.086135
56.364171,103.117490
56.266835,103.111110
56.179350,103.067967
56.115034,102.994628
Z" /> 
</g>
<g >
</g>
<g >
</g>
<g style="fill:#000000; fill-opacity:1.000000; 
stroke:#000000; stroke-width:0.000000; stroke-opacity:1; 
stroke-linecap:round; stroke-linejoin:round;">
<path style="fill:#000000; fill-opacity:1.000000; 
stroke:#000000; stroke-width:0.000000; stroke-opacity:1; 
stroke-linecap:round; stroke-linejoin:round;fill-rule:evenodd;"
d="M 138.547000,67.332000
138.527970,67.427671
138.473777,67.508777
138.392671,67.562970
138.297000,67.582000
136.247000,67.582000
136.151329,67.562970
136.070223,67.508777
136.016030,67.427671
135.997000,67.332000
135.997000,65.332000
136.016030,65.236329
136.070223,65.155223
136.151329,65.101030
136.247000,65.082000
138.297000,65.082000
138.392671,65.101030
138.473777,65.155223
138.527970,65.236329
138.547000,65.332000
Z" /> 
<path style="fill:#000000; fill-opacity:1.000000; 
stroke:#000000; stroke-width:0.000000; stroke-opacity:1; 
stroke-linecap:round; stroke-linejoin:round;fill-rule:evenodd;"
d="M 126.547000,65.132000
126.527970,65.227671
126.473777,65.308777
126.392671,65.362970
126.297000,65.382000
124.247000,65.382000
124.151329,65.362970
124.070223,65.308777
124.016030,65.227671
123.997000,65.132000
123.997000,63.132000
124.016030,63.036329
124.070223,62.955223
124.151329,62.901030
124.247000,62.882000
126.297000,62.882000
126.392671,62.901030
126.473777,62.955223
126.527970,63.036329
126.547000,63.132000
Z" /> 
</g>
<g >
</g>
<g style="fill:#000000; fill-opacity:1.000000; 
stroke:#000000; stroke-width:0.000000; stroke-opacity:1; 
stroke-linecap:round; stroke-linejoin:round;">
<path style="fill:#000000; fill-opacity:1.000000; 
stroke:#000000; stroke-width:0.000000; stroke-opacity:1; 
stroke-linecap:round; stroke-linejoin:round;fill-rule:evenodd;"
d="M 157.865000,70.262000
157.884030,70.166329
157.938223,70.085223
158.019329,70.031030
158.115000,70.012000
160.165000,70.012000
160.260671,70.031030
160.341777,70.085223
160.395970,70.166329
160.415000,70.262000
160.415000,72.262000
160.395970,72.357671
160.341777,72.438777
160.260671,72.492970
160.165000,72.512000
158.115000,72.512000
158.019329,72.492970
157.938223,72.438777
157.884030,72.357671
157.865000,72.262000
Z" /> 
<path style="fill:#000000; fill-opacity:1.000000; 
stroke:#000000; stroke-width:0.000000; stroke-opacity:1; 
stroke-linecap:round; stroke-linejoin:round;fill-rule:evenodd;"
d="M 169.865000,72.462000
169.884030,72.366329
169.938223,72.285223
170.019329,72.231030
170.115000,72.212000
172.165000,72.212000
172.260671,72.231030
172.341777,72.285223
172.395970,72.366329
172.415000,72.462000
172.415000,74.462000
172.395970,74.557671
172.341777,74.638777
172.260671,74.692970
172.165000,74.712000
170.115000,74.712000
170.019329,74.692970
169.938223,74.638777
169.884030,74.557671
169.865000,74.462000
Z" /> 
</g>
<g >
</g>
<g style="fill:#000000; fill-opacity:1.000000; 
stroke:#000000; stroke-width:0.000000; stroke-opacity:1; 
stroke-linecap:round; stroke-linejoin:round;">
<path style="fill:#000000; fill-opacity:1.000000; 
stroke:#000000; stroke-width:0.000000; stroke-opacity:1; 
stroke-linecap:round; stroke-linejoin:round;fill-rule:evenodd;"
d="M 221.415000,87.730000
221.395970,87.825671
221.341777,87.906777
221.260671,87.960970
221.165000,87.980000
219.115000,87.980000
219.019329,87.960970
218.938223,87.906777
218.884030,87.825671
218.865000,87.730000
218.865000,85.730000
218.884030,85.634329
218.938223,85.553223
219.019329,85.499030
219.115000,85.480000
221.165000,85.480000
221.260671,85.499030
221.341777,85.553223
221.395970,85.634329
221.415000,85.730000
Z" /> 
<path style="fill:#000000; fill-opacity:1.000000; 
stroke:#000000; stroke-width:0.000000; stroke-opacity:1; 
stroke-linecap:round; stroke-linejoin:round;fill-rule:evenodd;"
d="M 209.415000,85.530000
209.395970,85.625671
209.341777,85.706777
209.260671,85.760970
209.165000,85.780000
207.115000,85.780000
207.019329,85.760970
206.938223,85.706777
206.884030,85.625671
206.865000,85.530000
206.865000,83.530000
206.884030,83.434329
206.938223,83.353223
207.019329,83.299030
207.115000,83.280000
209.165000,83.280000
209.260671,83.299030
209.341777,83.353223
209.395970,83.434329
209.415000,83.530000
Z" /> 
</g>
<g >
</g>
<g style="fill:#000000; fill-opacity:1.000000; 
stroke:#000000; stroke-width:0.000000; stroke-opacity:1; 
stroke-linecap:round; stroke-linejoin:round;">
<path style="fill:#000000; fill-opacity:1.000000; 
stroke:#000000; stroke-width:0.000000; stroke-opacity:1; 
stroke-linecap:round; stroke-linejoin:round;fill-rule:evenodd;"
d="M 239.395000,90.270000
239.375970,90.365671
239.321777,90.446777
239.240671,90.500970
239.145000,90.520000
237.095000,90.520000
236.999329,90.500970
236.918223,90.446777
236.864030,90.365671
236.845000,90.270000
236.845000,88.270000
236.864030,88.174329
236.918223,88.093223
236.999329,88.039030
237.095000,88.020000
239.145000,88.020000
239.240671,88.039030
239.321777,88.093223
239.375970,88.174329
239.395000,88.270000
Z" /> 
<path style="fill:#000000; fill-opacity:1.000000; 
stroke:#000000; stroke-width:0.000000; stroke-opacity:1; 
stroke-linecap:round; stroke-linejoin:round;fill-rule:evenodd;"
d="M 227.395000,88.070000
227.375970,88.165671
227.321777,88.246777
227.240671,88.300970
227.145000,88.320000
225.095000,88.320000
224.999329,88.300970
224.918223,88.246777
224.864030,88.165671
224.845000,88.070000
224.845000,86.070000
224.864030,85.974329
224.918223,85.893223
224.999329,85.839030
225.095000,85.820000
227.145000,85.820000
227.240671,85.839030
227.321777,85.893223
227.375970,85.974329
227.395000,86.070000
Z" /> 
</g>
<g >
</g>
<g style="fill:#000000; fill-opacity:1.000000; 
stroke:#000000; stroke-width:0.000000; stroke-opacity:1; 
stroke-linecap:round; stroke-linejoin:round;">
<path style="fill:#000000; fill-opacity:1.000000; 
stroke:#000000; stroke-width:0.000000; stroke-opacity:1; 
stroke-linecap:round; stroke-linejoin:round;fill-rule:evenodd;"
d="M 157.865000,53.262000
157.884030,53.166329
157.938223,53.085223
158.019329,53.031030
158.115000,53.012000
160.165000,53.012000
160.260671,53.031030
160.341777,53.085223
160.395970,53.166329
160.415000,53.262000
160.415000,55.262000
160.395970,55.357671
160.341777,55.438777
160.260671,55.492970
160.165000,55.512000
158.115000,55.512000
158.019329,55.492970
157.938223,55.438777
157.884030,55.357671
157.865000,55.262000
Z" /> 
<path style="fill:#000000; fill-opacity:1.000000; 
stroke:#000000; stroke-width:0.000000; stroke-opacity:1; 
stroke-linecap:round; stroke-linejoin:round;fill-rule:evenodd;"
d="M 169.865000,55.462000
169.884030,55.366329
169.938223,55.285223
170.019329,55.231030
170.115000,55.212000
172.165000,55.212000
172.260671,55.231030
172.341777,55.285223
172.395970,55.366329
172.415000,55.462000
172.415000,57.462000
172.395970,57.557671
172.341777,57.638777
172.260671,57.692970
172.165000,57.712000
170.115000,57.712000
170.019329,57.692970
169.938223,57.638777
169.884030,57.557671
169.865000,57.462000
Z" /> 
</g>
<g >
</g>
<g >
</g>
<g style="fill:#000000; fill-opacity:1.000000; 
stroke:#000000; stroke-width:0.000000; stroke-opacity:1; 
stroke-linecap:round; stroke-linejoin:round;">
<path style="fill:#000000; fill-opacity:1.000000; 
stroke:#000000; stroke-width:0.000000; stroke-opacity:1; 
stroke-linecap:round; stroke-linejoin:round;fill-rule:evenodd;"
d="M 56.951000,42.332000
56.970030,42.236329
57.024223,42.155223
57.105329,42.101030
57.201000,42.082000
59.251000,42.082000
59.346671,42.101030
59.427777,42.155223
59.481970,42.236329
59.501000,42.332000
59.501000,44.332000
59.481970,44.427671
59.427777,44.508777
59.346671,44.562970
59.251000,44.582000
57.201000,44.582000
57.105329,44.562970
57.024223,44.508777
56.970030,44.427671
56.951000,44.332000
Z" /> 
<path style="fill:#000000; fill-opacity:1.000000; 
stroke:#000000; stroke-width:0.000000; stroke-opacity:1; 
stroke-linecap:round; stroke-linejoin:round;fill-rule:evenodd;"
d="M 68.951000,44.532000
68.970030,44.436329
69.024223,44.355223
69.105329,44.301030
69.201000,44.282000
71.251000,44.282000
71.346671,44.301030
71.427777,44.355223
71.481970,44.436329
71.501000,44.532000
71.501000,46.532000
71.481970,46.627671
71.427777,46.708777
71.346671,46.762970
71.251000,46.782000
69.201000,46.782000
69.105329,46.762970
69.024223,46.708777
68.970030,46.627671
68.951000,46.532000
Z" /> 
</g>
<g >
</g>
<g style="fill:#000000; fill-opacity:1.000000; 
stroke:#000000; stroke-width:0.000000; stroke-opacity:1; 
stroke-linecap:round; stroke-linejoin:round;">
<path style="fill:#000000; fill-opacity:1.000000; 
stroke:#000000; stroke-width:0.000000; stroke-opacity:1; 
stroke-linecap:round; stroke-linejoin:round;fill-rule:evenodd;"
d="M 203.415000,65.378000
203.395970,65.473671
203.341777,65.554777
203.260671,65.608970
203.165000,65.628000
201.115000,65.628000
201.019329,65.608970
200.938223,65.554777
200.884030,65.473671
200.865000,65.378000
200.865000,63.378000
200.884030,63.282329
200.938223,63.201223
201.019329,63.147030
201.115000,63.128000
203.165000,63.128000
203.260671,63.147030
203.341777,63.201223
203.395970,63.282329
203.415000,63.378000
Z" /> 
<path style="fill:#000000; fill-opacity:1.000000; 
stroke:#000000; stroke-width:0.000000; stroke-opacity:1; 
stroke-linecap:round; stroke-linejoin:round;fill-rule:evenodd;"
d="M 191.415000,63.178000
191.395970,63.273671
191.341777,63.354777
191.260671,63.408970
191.165000,63.428000
189.115000,63.428000
189.019329,63.408970
188.938223,63.354777
188.884030,63.273671
188.865000,63.178000
188.865000,61.178000
188.884030,61.082329
188.938223,61.001223
189.019329,60.947030
189.115000,60.928000
191.165000,60.928000
191.260671,60.947030
191.341777,61.001223
191.395970,61.082329
191.415000,61.178000
Z" /> 
</g>
<g >
</g>
<g >
</g>
<g >
</g>
<g style="fill:#000000; fill-opacity:1.000000; 
stroke:#000000; stroke-width:0.000000; stroke-opacity:1; 
stroke-linecap:round; stroke-linejoin:round;">
<path style="fill:#000000; fill-opacity:1.000000; 
stroke:#000000; stroke-width:0.000000; stroke-opacity:1; 
stroke-linecap:round; stroke-linejoin:round;fill-rule:evenodd;"
d="M 185.415000,72.236000
185.395970,72.331671
185.341777,72.412777
185.260671,72.466970
185.165000,72.486000
183.115000,72.486000
183.019329,72.466970
182.938223,72.412777
182.884030,72.331671
182.865000,72.236000
182.865000,70.236000
182.884030,70.140329
182.938223,70.059223
183.019329,70.005030
183.115000,69.986000
185.165000,69.986000
185.260671,70.005030
185.341777,70.059223
185.395970,70.140329
185.415000,70.236000
Z" /> 
<path style="fill:#000000; fill-opacity:1.000000; 
stroke:#000000; stroke-width:0.000000; stroke-opacity:1; 
stroke-linecap:round; stroke-linejoin:round;fill-rule:evenodd;"
d="M 173.415000,70.036000
173.395970,70.131671
173.341777,70.212777
173.260671,70.266970
173.165000,70.286000
171.115000,70.286000
171.019329,70.266970
170.938223,70.212777
170.884030,70.131671
170.865000,70.036000
170.865000,68.036000
170.884030,67.940329
170.938223,67.859223
171.019329,67.805030
171.115000,67.786000
173.165000,67.786000
173.260671,67.805030
173.341777,67.859223
173.395970,67.940329
173.415000,68.036000
Z" /> 
</g>
<g >
</g>
<g style="fill:#000000; fill-opacity:1.000000; 
stroke:#000000; stroke-width:0.000000; stroke-opacity:1; 
stroke-linecap:round; stroke-linejoin:round;">
<path style="fill:#000000; fill-opacity:1.000000; 
stroke:#000000; stroke-width:0.000000; stroke-opacity:1; 
stroke-linecap:round; stroke-linejoin:round;fill-rule:evenodd;"
d="M 102.503000,82.466000
102.483970,82.561671
102.429777,82.642777
102.348671,82.696970
102.253000,82.716000
100.203000,82.716000
100.107329,82.696970
100.026223,82.642777
99.972030,82.561671
99.953000,82.466000
99.953000,80.466000
99.972030,80.370329
100.026223,80.289223
100.107329,80.235030
100.203000,80.216000
102.253000,80.216000
102.348671,80.235030
102.429777,80.289223
102.483970,80.370329
102.503000,80.466000
Z" /> 
<path style="fill:#000000; fill-opacity:1.000000; 
stroke:#000000; stroke-width:0.000000; stroke-opacity:1; 
stroke-linecap:round; stroke-linejoin:round;fill-rule:evenodd;"
d="M 90.503000,80.266000
90.483970,80.361671
90.429777,80.442777
90.348671,80.496970
90.253000,80.516000
88.203000,80.516000
88.107329,80.496970
88.026223,80.442777
87.972030,80.361671
87.953000,80.266000
87.953000,78.266000
87.972030,78.170329
88.026223,78.089223
88.107329,78.035030
88.203000,78.016000
90.253000,78.016000
90.348671,78.035030
90.429777,78.089223
90.483970,78.170329
90.503000,78.266000
Z" /> 
</g>
<g >
</g>
<g style="fill:#000000; fill-opacity:1.000000; 
stroke:#000000; stroke-width:0.000000; stroke-opacity:1; 
stroke-linecap:round; stroke-linejoin:round;">
<path style="fill:#000000; fill-opacity:1.000000; 
stroke:#000000; stroke-width:0.000000; stroke-opacity:1; 
stroke-linecap:round; stroke-linejoin:round;fill-rule:evenodd;"
d="M 63.393971,95.506380
63.387591,95.409044
63.418945,95.316675
63.483261,95.243337
63.570747,95.200194
65.550895,94.669615
65.648232,94.663235
65.740600,94.694590
65.813938,94.758906
65.857081,94.846392
66.374719,96.778244
66.381099,96.875580
66.349745,96.967949
66.285429,97.041287
66.197943,97.084430
64.217795,97.615009
64.120458,97.621389
64.028090,97.590034
63.954752,97.525718
63.911609,97.438232
Z" /> 
<path style="fill:#000000; fill-opacity:1.000000; 
stroke:#000000; stroke-width:0.000000; stroke-opacity:1; 
stroke-linecap:round; stroke-linejoin:round;fill-rule:evenodd;"
d="M 75.554483,94.525588
75.548103,94.428252
75.579457,94.335883
75.643773,94.262545
75.731259,94.219402
77.711407,93.688823
77.808744,93.682443
77.901112,93.713798
77.974450,93.778114
78.017593,93.865600
78.535231,95.797452
78.541611,95.894788
78.510257,95.987157
78.445941,96.060495
78.358455,96.103638
76.378307,96.634217
76.280970,96.640597
76.188602,96.609242
76.115264,96.544926
76.072121,96.457440
Z" /> 
</g>
<g >
</g>
<g style="fill:#000000; fill-opacity:1.000000; 
stroke:#000000; stroke-width:0.000000; stroke-opacity:1; 
stroke-linecap:round; stroke-linejoin:round;">
<path style="fill:#000000; fill-opacity:1.000000; 
stroke:#000000; stroke-width:0.000000; stroke-opacity:1; 
stroke-linecap:round; stroke-linejoin:round;fill-rule:evenodd;"
d="M 239.415000,56.262000
239.395970,56.357671
239.341777,56.438777
239.260671,56.492970
239.165000,56.512000
237.115000,56.512000
237.019329,56.492970
236.938223,56.438777
236.884030,56.357671
236.865000,56.262000
236.865000,54.262000
236.884030,54.166329
236.938223,54.085223
237.019329,54.031030
237.115000,54.012000
239.165000,54.012000
239.260671,54.031030
239.341777,54.085223
239.395970,54.166329
239.415000,54.262000
Z" /> 
<path style="fill:#000000; fill-opacity:1.000000; 
stroke:#000000; stroke-width:0.000000; stroke-opacity:1; 
stroke-linecap:round; stroke-linejoin:round;fill-rule:evenodd;"
d="M 227.415000,54.062000
227.395970,54.157671
227.341777,54.238777
227.260671,54.292970
227.165000,54.312000
225.115000,54.312000
225.019329,54.292970
224.938223,54.238777
224.884030,54.157671
224.865000,54.062000
224.865000,52.062000
224.884030,51.966329
224.938223,51.885223
225.019329,51.831030
225.115000,51.812000
227.165000,51.812000
227.260671,51.831030
227.341777,51.885223
227.395970,51.966329
227.415000,52.062000
Z" /> 
</g>
<g >
</g>
<g style="fill:#000000; fill-opacity:1.000000; 
stroke:#000000; stroke-width:0.000000; stroke-opacity:1; 
stroke-linecap:round; stroke-linejoin:round;">
<path style="fill:#000000; fill-opacity:1.000000; 
stroke:#000000; stroke-width:0.000000; stroke-opacity:1; 
stroke-linecap:round; stroke-linejoin:round;fill-rule:evenodd;"
d="M 84.515000,53.832000
84.495970,53.927671
84.441777,54.008777
84.360671,54.062970
84.265000,54.082000
82.215000,54.082000
82.119329,54.062970
82.038223,54.008777
81.984030,53.927671
81.965000,53.832000
81.965000,51.832000
81.984030,51.736329
82.038223,51.655223
82.119329,51.601030
82.215000,51.582000
84.265000,51.582000
84.360671,51.601030
84.441777,51.655223
84.495970,51.736329
84.515000,51.832000
Z" /> 
<path style="fill:#000000; fill-opacity:1.000000; 
stroke:#000000; stroke-width:0.000000; stroke-opacity:1; 
stroke-linecap:round; stroke-linejoin:round;fill-rule:evenodd;"
d="M 72.515000,51.632000
72.495970,51.727671
72.441777,51.808777
72.360671,51.862970
72.265000,51.882000
70.215000,51.882000
70.119329,51.862970
70.038223,51.808777
69.984030,51.727671
69.965000,51.632000
69.965000,49.632000
69.984030,49.536329
70.038223,49.455223
70.119329,49.401030
70.215000,49.382000
72.265000,49.382000
72.360671,49.401030
72.441777,49.455223
72.495970,49.536329
72.515000,49.632000
Z" /> 
</g>
<g >
</g>
<g style="fill:#000000; fill-opacity:1.000000; 
stroke:#000000; stroke-width:0.000000; stroke-opacity:1; 
stroke-linecap:round; stroke-linejoin:round;">
<path style="fill:#000000; fill-opacity:1.000000; 
stroke:#000000; stroke-width:0.000000; stroke-opacity:1; 
stroke-linecap:round; stroke-linejoin:round;fill-rule:evenodd;"
d="M 203.415000,48.262000
203.395970,48.357671
203.341777,48.438777
203.260671,48.492970
203.165000,48.512000
201.115000,48.512000
201.019329,48.492970
200.938223,48.438777
200.884030,48.357671
200.865000,48.262000
200.865000,46.262000
200.884030,46.166329
200.938223,46.085223
201.019329,46.031030
201.115000,46.012000
203.165000,46.012000
203.260671,46.031030
203.341777,46.085223
203.395970,46.166329
203.415000,46.262000
Z" /> 
<path style="fill:#000000; fill-opacity:1.000000; 
stroke:#000000; stroke-width:0.000000; stroke-opacity:1; 
stroke-linecap:round; stroke-linejoin:round;fill-rule:evenodd;"
d="M 191.415000,46.062000
191.395970,46.157671
191.341777,46.238777
191.260671,46.292970
191.165000,46.312000
189.115000,46.312000
189.019329,46.292970
188.938223,46.238777
188.884030,46.157671
188.865000,46.062000
188.865000,44.062000
188.884030,43.966329
188.938223,43.885223
189.019329,43.831030
189.115000,43.812000
191.165000,43.812000
191.260671,43.831030
191.341777,43.885223
191.395970,43.966329
191.415000,44.062000
Z" /> 
</g>
<g >
</g>
<g >
</g>
<g >
</g>
<g style="fill:#000000; fill-opacity:1.000000; 
stroke:#000000; stroke-width:0.000000; stroke-opacity:1; 
stroke-linecap:round; stroke-linejoin:round;">
<path style="fill:#000000; fill-opacity:1.000000; 
stroke:#000000; stroke-width:0.000000; stroke-opacity:1; 
stroke-linecap:round; stroke-linejoin:round;fill-rule:evenodd;"
d="M 157.865000,87.262000
157.884030,87.166329
157.938223,87.085223
158.019329,87.031030
158.115000,87.012000
160.165000,87.012000
160.260671,87.031030
160.341777,87.085223
160.395970,87.166329
160.415000,87.262000
160.415000,89.262000
160.395970,89.357671
160.341777,89.438777
160.260671,89.492970
160.165000,89.512000
158.115000,89.512000
158.019329,89.492970
157.938223,89.438777
157.884030,89.357671
157.865000,89.262000
Z" /> 
<path style="fill:#000000; fill-opacity:1.000000; 
stroke:#000000; stroke-width:0.000000; stroke-opacity:1; 
stroke-linecap:round; stroke-linejoin:round;fill-rule:evenodd;"
d="M 169.865000,89.462000
169.884030,89.366329
169.938223,89.285223
170.019329,89.231030
170.115000,89.212000
172.165000,89.212000
172.260671,89.231030
172.341777,89.285223
172.395970,89.366329
172.415000,89.462000
172.415000,91.462000
172.395970,91.557671
172.341777,91.638777
172.260671,91.692970
172.165000,91.712000
170.115000,91.712000
170.019329,91.692970
169.938223,91.638777
169.884030,91.557671
169.865000,91.462000
Z" /> 
</g>
<g >
</g>
<g style="fill:#000000; fill-opacity:1.000000; 
stroke:#000000; stroke-width:0.000000; stroke-opacity:1; 
stroke-linecap:round; stroke-linejoin:round;">
<path style="fill:#000000; fill-opacity:1.000000; 
stroke:#000000; stroke-width:0.000000; stroke-opacity:1; 
stroke-linecap:round; stroke-linejoin:round;fill-rule:evenodd;"
d="M 102.503000,48.332000
102.483970,48.427671
102.429777,48.508777
102.348671,48.562970
102.253000,48.582000
100.203000,48.582000
100.107329,48.562970
100.026223,48.508777
99.972030,48.427671
99.953000,48.332000
99.953000,46.332000
99.972030,46.236329
100.026223,46.155223
100.107329,46.101030
100.203000,46.082000
102.253000,46.082000
102.348671,46.101030
102.429777,46.155223
102.483970,46.236329
102.503000,46.332000
Z" /> 
<path style="fill:#000000; fill-opacity:1.000000; 
stroke:#000000; stroke-width:0.000000; stroke-opacity:1; 
stroke-linecap:round; stroke-linejoin:round;fill-rule:evenodd;"
d="M 90.503000,46.132000
90.483970,46.227671
90.429777,46.308777
90.348671,46.362970
90.253000,46.382000
88.203000,46.382000
88.107329,46.362970
88.026223,46.308777
87.972030,46.227671
87.953000,46.132000
87.953000,44.132000
87.972030,44.036329
88.026223,43.955223
88.107329,43.901030
88.203000,43.882000
90.253000,43.882000
90.348671,43.901030
90.429777,43.955223
90.483970,44.036329
90.503000,44.132000
Z" /> 
</g>
<g >
</g>
<g style="fill:#000000; fill-opacity:1.000000; 
stroke:#000000; stroke-width:0.000000; stroke-opacity:1; 
stroke-linecap:round; stroke-linejoin:round;">
<path style="fill:#000000; fill-opacity:1.000000; 
stroke:#000000; stroke-width:0.000000; stroke-opacity:1; 
stroke-linecap:round; stroke-linejoin:round;fill-rule:evenodd;"
d="M 203.415000,82.396000
203.395970,82.491671
203.341777,82.572777
203.260671,82.626970
203.165000,82.646000
201.115000,82.646000
201.019329,82.626970
200.938223,82.572777
200.884030,82.491671
200.865000,82.396000
200.865000,80.396000
200.884030,80.300329
200.938223,80.219223
201.019329,80.165030
201.115000,80.146000
203.165000,80.146000
203.260671,80.165030
203.341777,80.219223
203.395970,80.300329
203.415000,80.396000
Z" /> 
<path style="fill:#000000; fill-opacity:1.000000; 
stroke:#000000; stroke-width:0.000000; stroke-opacity:1; 
stroke-linecap:round; stroke-linejoin:round;fill-rule:evenodd;"
d="M 191.415000,80.196000
191.395970,80.291671
191.341777,80.372777
191.260671,80.426970
191.165000,80.446000
189.115000,80.446000
189.019329,80.426970
188.938223,80.372777
188.884030,80.291671
188.865000,80.196000
188.865000,78.196000
188.884030,78.100329
188.938223,78.019223
189.019329,77.965030
189.115000,77.946000
191.165000,77.946000
191.260671,77.965030
191.341777,78.019223
191.395970,78.100329
191.415000,78.196000
Z" /> 
</g>
<g >
</g>
<g >
</g>
<g style="fill:#000000; fill-opacity:1.000000; 
stroke:#000000; stroke-width:0.000000; stroke-opacity:1; 
stroke-linecap:round; stroke-linejoin:round;">
<path style="fill:#000000; fill-opacity:1.000000; 
stroke:#000000; stroke-width:0.000000; stroke-opacity:1; 
stroke-linecap:round; stroke-linejoin:round;fill-rule:evenodd;"
d="M 56.951000,76.340000
56.970030,76.244329
57.024223,76.163223
57.105329,76.109030
57.201000,76.090000
59.251000,76.090000
59.346671,76.109030
59.427777,76.163223
59.481970,76.244329
59.501000,76.340000
59.501000,78.340000
59.481970,78.435671
59.427777,78.516777
59.346671,78.570970
59.251000,78.590000
57.201000,78.590000
57.105329,78.570970
57.024223,78.516777
56.970030,78.435671
56.951000,78.340000
Z" /> 
<path style="fill:#000000; fill-opacity:1.000000; 
stroke:#000000; stroke-width:0.000000; stroke-opacity:1; 
stroke-linecap:round; stroke-linejoin:round;fill-rule:evenodd;"
d="M 68.951000,78.540000
68.970030,78.444329
69.024223,78.363223
69.105329,78.309030
69.201000,78.290000
71.251000,78.290000
71.346671,78.309030
71.427777,78.363223
71.481970,78.444329
71.501000,78.540000
71.501000,80.540000
71.481970,80.635671
71.427777,80.716777
71.346671,80.770970
71.251000,80.790000
69.201000,80.790000
69.105329,80.770970
69.024223,80.716777
68.970030,80.635671
68.951000,80.540000
Z" /> 
</g>
<g >
</g>
<g style="fill:#000000; fill-opacity:1.000000; 
stroke:#000000; stroke-width:0.000000; stroke-opacity:1; 
stroke-linecap:round; stroke-linejoin:round;">
<path style="fill:#000000; fill-opacity:1.000000; 
stroke:#000000; stroke-width:0.000000; stroke-opacity:1; 
stroke-linecap:round; stroke-linejoin:round;fill-rule:evenodd;"
d="M 138.547000,101.332000
138.527970,101.427671
138.473777,101.508777
138.392671,101.562970
138.297000,101.582000
136.247000,101.582000
136.151329,101.562970
136.070223,101.508777
136.016030,101.427671
135.997000,101.332000
135.997000,99.332000
136.016030,99.236329
136.070223,99.155223
136.151329,99.101030
136.247000,99.082000
138.297000,99.082000
138.392671,99.101030
138.473777,99.155223
138.527970,99.236329
138.547000,99.332000
Z" /> 
<path style="fill:#000000; fill-opacity:1.000000; 
stroke:#000000; stroke-width:0.000000; stroke-opacity:1; 
stroke-linecap:round; stroke-linejoin:round;fill-rule:evenodd;"
d="M 126.547000,99.132000
126.527970,99.227671
126.473777,99.308777
126.392671,99.362970
126.297000,99.382000
124.247000,99.382000
124.151329,99.362970
124.070223,99.308777
124.016030,99.227671
123.997000,99.132000
123.997000,97.132000
124.016030,97.036329
124.070223,96.955223
124.151329,96.901030
124.247000,96.882000
126.297000,96.882000
126.392671,96.901030
126.473777,96.955223
126.527970,97.036329
126.547000,97.132000
Z" /> 
</g>
<g >
</g>
<g >
</g>
<g style="fill:#000000; fill-opacity:1.000000; 
stroke:#000000; stroke-width:0.000000; stroke-opacity:1; 
stroke-linecap:round; stroke-linejoin:round;">
<path style="fill:#000000; fill-opacity:1.000000; 
stroke:#000000; stroke-width:0.000000; stroke-opacity:1; 
stroke-linecap:round; stroke-linejoin:round;fill-rule:evenodd;"
d="M 258.670000,50.925000
258.670000,51.825000
257.770000,51.825000
257.770000,50.925000
Z" /> 
<path style="fill:#000000; fill-opacity:1.000000; 
stroke:#000000; stroke-width:0.000000; stroke-opacity:1; 
stroke-linecap:round; stroke-linejoin:round;fill-rule:evenodd;"
d="M 258.670000,48.725000
258.670000,49.625000
257.770000,49.625000
257.770000,48.725000
Z" /> 
<path style="fill:#000000; fill-opacity:1.000000; 
stroke:#000000; stroke-width:0.000000; stroke-opacity:1; 
stroke-linecap:round; stroke-linejoin:round;fill-rule:evenodd;"
d="M 251.270000,50.925000
251.270000,51.825000
250.370000,51.825000
250.370000,50.925000
Z" /> 
<path style="fill:#000000; fill-opacity:1.000000; 
stroke:#000000; stroke-width:0.000000; stroke-opacity:1; 
stroke-linecap:round; stroke-linejoin:round;fill-rule:evenodd;"
d="M 251.270000,48.725000
251.270000,49.625000
250.370000,49.625000
250.370000,48.725000
Z" /> 
<path style="fill:#000000; fill-opacity:1.000000; 
stroke:#000000; stroke-width:0.000000; stroke-opacity:1; 
stroke-linecap:round; stroke-linejoin:round;fill-rule:evenodd;"
d="M 252.720000,51.725000
252.720000,52.975000
251.820000,52.975000
251.820000,51.725000
Z" /> 
<path style="fill:#000000; fill-opacity:1.000000; 
stroke:#000000; stroke-width:0.000000; stroke-opacity:1; 
stroke-linecap:round; stroke-linejoin:round;fill-rule:evenodd;"
d="M 255.720000,51.725000
255.720000,52.975000
254.820000,52.975000
254.820000,51.725000
Z" /> 
<path style="fill:#000000; fill-opacity:1.000000; 
stroke:#000000; stroke-width:0.000000; stroke-opacity:1; 
stroke-linecap:round; stroke-linejoin:round;fill-rule:evenodd;"
d="M 257.220000,51.725000
257.220000,52.975000
256.320000,52.975000
256.320000,51.725000
Z" /> 
</g>
<g >
</g>
<g style="fill:#000000; fill-opacity:1.000000; 
stroke:#000000; stroke-width:0.000000; stroke-opacity:1; 
stroke-linecap:round; stroke-linejoin:round;">
<path style="fill:#000000; fill-opacity:1.000000; 
stroke:#000000; stroke-width:0.000000; stroke-opacity:1; 
stroke-linecap:round; stroke-linejoin:round;fill-rule:evenodd;"
d="M 68.013000,71.155000
68.013000,72.355000
67.113000,72.355000
67.113000,71.155000
Z" /> 
<path style="fill:#000000; fill-opacity:1.000000; 
stroke:#000000; stroke-width:0.000000; stroke-opacity:1; 
stroke-linecap:round; stroke-linejoin:round;fill-rule:evenodd;"
d="M 64.713000,71.155000
64.713000,72.355000
63.813000,72.355000
63.813000,71.155000
Z" /> 
</g>
<g >
</g>
<g style="fill:#000000; fill-opacity:1.000000; 
stroke:#000000; stroke-width:0.000000; stroke-opacity:1; 
stroke-linecap:round; stroke-linejoin:round;">
<path style="fill:#000000; fill-opacity:1.000000; 
stroke:#000000; stroke-width:0.000000; stroke-opacity:1; 
stroke-linecap:round; stroke-linejoin:round;fill-rule:evenodd;"
d="M 113.479000,76.489000
113.479000,77.689000
112.579000,77.689000
112.579000,76.489000
Z" /> 
<path style="fill:#000000; fill-opacity:1.000000; 
stroke:#000000; stroke-width:0.000000; stroke-opacity:1; 
stroke-linecap:round; stroke-linejoin:round;fill-rule:evenodd;"
d="M 110.179000,76.489000
110.179000,77.689000
109.279000,77.689000
109.279000,76.489000
Z" /> 
</g>
<g >
</g>
<g style="fill:#000000; fill-opacity:1.000000; 
stroke:#000000; stroke-width:0.000000; stroke-opacity:1; 
stroke-linecap:round; stroke-linejoin:round;">
<path style="fill:#000000; fill-opacity:1.000000; 
stroke:#000000; stroke-width:0.000000; stroke-opacity:1; 
stroke-linecap:round; stroke-linejoin:round;fill-rule:evenodd;"
d="M 195.990000,34.620000
195.990000,35.820000
195.090000,35.820000
195.090000,34.620000
Z" /> 
<path style="fill:#000000; fill-opacity:1.000000; 
stroke:#000000; stroke-width:0.000000; stroke-opacity:1; 
stroke-linecap:round; stroke-linejoin:round;fill-rule:evenodd;"
d="M 192.690000,34.620000
192.690000,35.820000
191.790000,35.820000
191.790000,34.620000
Z" /> 
</g>
<g >
</g>
<g style="fill:#000000; fill-opacity:1.000000; 
stroke:#000000; stroke-width:0.000000; stroke-opacity:1; 
stroke-linecap:round; stroke-linejoin:round;">
<path style="fill:#000000; fill-opacity:1.000000; 
stroke:#000000; stroke-width:0.000000; stroke-opacity:1; 
stroke-linecap:round; stroke-linejoin:round;fill-rule:evenodd;"
d="M 77.157000,40.802000
77.157000,42.002000
76.257000,42.002000
76.257000,40.802000
Z" /> 
<path style="fill:#000000; fill-opacity:1.000000; 
stroke:#000000; stroke-width:0.000000; stroke-opacity:1; 
stroke-linecap:round; stroke-linejoin:round;fill-rule:evenodd;"
d="M 73.857000,40.802000
73.857000,42.002000
72.957000,42.002000
72.957000,40.802000
Z" /> 
</g>
<g >
</g>
<g style="fill:#000000; fill-opacity:1.000000; 
stroke:#000000; stroke-width:0.000000; stroke-opacity:1; 
stroke-linecap:round; stroke-linejoin:round;">
<path style="fill:#000000; fill-opacity:1.000000; 
stroke:#000000; stroke-width:0.000000; stroke-opacity:1; 
stroke-linecap:round; stroke-linejoin:round;fill-rule:evenodd;"
d="M 232.200000,60.780000
232.200000,61.980000
231.300000,61.980000
231.300000,60.780000
Z" /> 
<path style="fill:#000000; fill-opacity:1.000000; 
stroke:#000000; stroke-width:0.000000; stroke-opacity:1; 
stroke-linecap:round; stroke-linejoin:round;fill-rule:evenodd;"
d="M 228.900000,60.780000
228.900000,61.980000
228.000000,61.980000
228.000000,60.780000
Z" /> 
</g>
<g >
</g>
<g style="fill:#000000; fill-opacity:1.000000; 
stroke:#000000; stroke-width:0.000000; stroke-opacity:1; 
stroke-linecap:round; stroke-linejoin:round;">
<path style="fill:#000000; fill-opacity:1.000000; 
stroke:#000000; stroke-width:0.000000; stroke-opacity:1; 
stroke-linecap:round; stroke-linejoin:round;fill-rule:evenodd;"
d="M 113.420000,42.290000
113.420000,43.490000
112.520000,43.490000
112.520000,42.290000
Z" /> 
<path style="fill:#000000; fill-opacity:1.000000; 
stroke:#000000; stroke-width:0.000000; stroke-opacity:1; 
stroke-linecap:round; stroke-linejoin:round;fill-rule:evenodd;"
d="M 110.120000,42.290000
110.120000,43.490000
109.220000,43.490000
109.220000,42.290000
Z" /> 
</g>
<g >
</g>
<g style="fill:#000000; fill-opacity:1.000000; 
stroke:#000000; stroke-width:0.000000; stroke-opacity:1; 
stroke-linecap:round; stroke-linejoin:round;">
<path style="fill:#000000; fill-opacity:1.000000; 
stroke:#000000; stroke-width:0.000000; stroke-opacity:1; 
stroke-linecap:round; stroke-linejoin:round;fill-rule:evenodd;"
d="M 196.080000,68.880000
196.080000,70.080000
195.180000,70.080000
195.180000,68.880000
Z" /> 
<path style="fill:#000000; fill-opacity:1.000000; 
stroke:#000000; stroke-width:0.000000; stroke-opacity:1; 
stroke-linecap:round; stroke-linejoin:round;fill-rule:evenodd;"
d="M 192.780000,68.880000
192.780000,70.080000
191.880000,70.080000
191.880000,68.880000
Z" /> 
</g>
<g >
</g>
<g style="fill:#000000; fill-opacity:1.000000; 
stroke:#000000; stroke-width:0.000000; stroke-opacity:1; 
stroke-linecap:round; stroke-linejoin:round;">
<path style="fill:#000000; fill-opacity:1.000000; 
stroke:#000000; stroke-width:0.000000; stroke-opacity:1; 
stroke-linecap:round; stroke-linejoin:round;fill-rule:evenodd;"
d="M 178.130000,75.790000
178.130000,76.990000
177.230000,76.990000
177.230000,75.790000
Z" /> 
<path style="fill:#000000; fill-opacity:1.000000; 
stroke:#000000; stroke-width:0.000000; stroke-opacity:1; 
stroke-linecap:round; stroke-linejoin:round;fill-rule:evenodd;"
d="M 174.830000,75.790000
174.830000,76.990000
173.930000,76.990000
173.930000,75.790000
Z" /> 
</g>
<g >
</g>
<g style="fill:#000000; fill-opacity:1.000000; 
stroke:#000000; stroke-width:0.000000; stroke-opacity:1; 
stroke-linecap:round; stroke-linejoin:round;">
<path style="fill:#000000; fill-opacity:1.000000; 
stroke:#000000; stroke-width:0.000000; stroke-opacity:1; 
stroke-linecap:round; stroke-linejoin:round;fill-rule:evenodd;"
d="M 196.130000,51.750000
196.130000,52.950000
195.230000,52.950000
195.230000,51.750000
Z" /> 
<path style="fill:#000000; fill-opacity:1.000000; 
stroke:#000000; stroke-width:0.000000; stroke-opacity:1; 
stroke-linecap:round; stroke-linejoin:round;fill-rule:evenodd;"
d="M 192.830000,51.750000
192.830000,52.950000
191.930000,52.950000
191.930000,51.750000
Z" /> 
</g>
<g >
</g>
<g style="fill:#000000; fill-opacity:1.000000; 
stroke:#000000; stroke-width:0.000000; stroke-opacity:1; 
stroke-linecap:round; stroke-linejoin:round;">
<path style="fill:#000000; fill-opacity:1.000000; 
stroke:#000000; stroke-width:0.000000; stroke-opacity:1; 
stroke-linecap:round; stroke-linejoin:round;fill-rule:evenodd;"
d="M 77.030000,104.048000
77.030000,105.248000
76.130000,105.248000
76.130000,104.048000
Z" /> 
<path style="fill:#000000; fill-opacity:1.000000; 
stroke:#000000; stroke-width:0.000000; stroke-opacity:1; 
stroke-linecap:round; stroke-linejoin:round;fill-rule:evenodd;"
d="M 73.730000,104.048000
73.730000,105.248000
72.830000,105.248000
72.830000,104.048000
Z" /> 
</g>
<g >
</g>
<g style="fill:#000000; fill-opacity:1.000000; 
stroke:#000000; stroke-width:0.000000; stroke-opacity:1; 
stroke-linecap:round; stroke-linejoin:round;">
<path style="fill:#000000; fill-opacity:1.000000; 
stroke:#000000; stroke-width:0.000000; stroke-opacity:1; 
stroke-linecap:round; stroke-linejoin:round;fill-rule:evenodd;"
d="M 67.759000,88.046000
67.759000,89.246000
66.859000,89.246000
66.859000,88.046000
Z" /> 
<path style="fill:#000000; fill-opacity:1.000000; 
stroke:#000000; stroke-width:0.000000; stroke-opacity:1; 
stroke-linecap:round; stroke-linejoin:round;fill-rule:evenodd;"
d="M 64.459000,88.046000
64.459000,89.246000
63.559000,89.246000
63.559000,88.046000
Z" /> 
</g>
<g >
</g>
<g style="fill:#000000; fill-opacity:1.000000; 
stroke:#000000; stroke-width:0.000000; stroke-opacity:1; 
stroke-linecap:round; stroke-linejoin:round;">
<path style="fill:#000000; fill-opacity:1.000000; 
stroke:#000000; stroke-width:0.000000; stroke-opacity:1; 
stroke-linecap:round; stroke-linejoin:round;fill-rule:evenodd;"
d="M 122.068000,31.809000
122.068000,33.809000
121.458000,33.809000
121.458000,31.809000
Z" /> 
<path style="fill:#000000; fill-opacity:1.000000; 
stroke:#000000; stroke-width:0.000000; stroke-opacity:1; 
stroke-linecap:round; stroke-linejoin:round;fill-rule:evenodd;"
d="M 121.068000,31.809000
121.068000,33.809000
120.458000,33.809000
120.458000,31.809000
Z" /> 
<path style="fill:#000000; fill-opacity:1.000000; 
stroke:#000000; stroke-width:0.000000; stroke-opacity:1; 
stroke-linecap:round; stroke-linejoin:round;fill-rule:evenodd;"
d="M 120.068000,31.809000
120.068000,33.809000
119.458000,33.809000
119.458000,31.809000
Z" /> 
<path style="fill:#000000; fill-opacity:1.000000; 
stroke:#000000; stroke-width:0.000000; stroke-opacity:1; 
stroke-linecap:round; stroke-linejoin:round;fill-rule:evenodd;"
d="M 119.068000,31.809000
119.068000,33.809000
118.458000,33.809000
118.458000,31.809000
Z" /> 
<path style="fill:#000000; fill-opacity:1.000000; 
stroke:#000000; stroke-width:0.000000; stroke-opacity:1; 
stroke-linecap:round; stroke-linejoin:round;fill-rule:evenodd;"
d="M 118.068000,31.809000
118.068000,33.809000
117.458000,33.809000
117.458000,31.809000
Z" /> 
<path style="fill:#000000; fill-opacity:1.000000; 
stroke:#000000; stroke-width:0.000000; stroke-opacity:1; 
stroke-linecap:round; stroke-linejoin:round;fill-rule:evenodd;"
d="M 117.068000,31.809000
117.068000,33.809000
116.458000,33.809000
116.458000,31.809000
Z" /> 
<path style="fill:#000000; fill-opacity:1.000000; 
stroke:#000000; stroke-width:0.000000; stroke-opacity:1; 
stroke-linecap:round; stroke-linejoin:round;fill-rule:evenodd;"
d="M 116.068000,31.809000
116.068000,33.809000
115.458000,33.809000
115.458000,31.809000
Z" /> 
<path style="fill:#000000; fill-opacity:1.000000; 
stroke:#000000; stroke-width:0.000000; stroke-opacity:1; 
stroke-linecap:round; stroke-linejoin:round;fill-rule:evenodd;"
d="M 115.068000,31.809000
115.068000,33.809000
114.458000,33.809000
114.458000,31.809000
Z" /> 
<path style="fill:#000000; fill-opacity:1.000000; 
stroke:#000000; stroke-width:0.000000; stroke-opacity:1; 
stroke-linecap:round; stroke-linejoin:round;fill-rule:evenodd;"
d="M 114.068000,31.809000
114.068000,33.809000
113.458000,33.809000
113.458000,31.809000
Z" /> 
<path style="fill:#000000; fill-opacity:1.000000; 
stroke:#000000; stroke-width:0.000000; stroke-opacity:1; 
stroke-linecap:round; stroke-linejoin:round;fill-rule:evenodd;"
d="M 113.068000,31.809000
113.068000,33.809000
112.458000,33.809000
112.458000,31.809000
Z" /> 
<path style="fill:#000000; fill-opacity:1.000000; 
stroke:#000000; stroke-width:0.000000; stroke-opacity:1; 
stroke-linecap:round; stroke-linejoin:round;fill-rule:evenodd;"
d="M 112.068000,31.809000
112.068000,33.809000
111.458000,33.809000
111.458000,31.809000
Z" /> 
<path style="fill:#000000; fill-opacity:1.000000; 
stroke:#000000; stroke-width:0.000000; stroke-opacity:1; 
stroke-linecap:round; stroke-linejoin:round;fill-rule:evenodd;"
d="M 111.068000,31.809000
111.068000,33.809000
110.458000,33.809000
110.458000,31.809000
Z" /> 
<path style="fill:#000000; fill-opacity:1.000000; 
stroke:#000000; stroke-width:0.000000; stroke-opacity:1; 
stroke-linecap:round; stroke-linejoin:round;fill-rule:evenodd;"
d="M 126.093000,33.809000
126.093000,37.409000
123.413000,37.409000
123.413000,33.809000
Z" /> 
<path style="fill:#000000; fill-opacity:1.000000; 
stroke:#000000; stroke-width:0.000000; stroke-opacity:1; 
stroke-linecap:round; stroke-linejoin:round;fill-rule:evenodd;"
d="M 109.113000,33.809000
109.113000,37.409000
106.433000,37.409000
106.433000,33.809000
Z" /> 
</g>
<g >
</g>
<g style="fill:#000000; fill-opacity:1.000000; 
stroke:#000000; stroke-width:0.000000; stroke-opacity:1; 
stroke-linecap:round; stroke-linejoin:round;">
<path style="fill:#000000; fill-opacity:1.000000; 
stroke:#000000; stroke-width:0.000000; stroke-opacity:1; 
stroke-linecap:round; stroke-linejoin:round;fill-rule:evenodd;"
d="M 169.570000,82.590000
169.570000,83.790000
168.670000,83.790000
168.670000,82.590000
Z" /> 
<path style="fill:#000000; fill-opacity:1.000000; 
stroke:#000000; stroke-width:0.000000; stroke-opacity:1; 
stroke-linecap:round; stroke-linejoin:round;fill-rule:evenodd;"
d="M 166.270000,82.590000
166.270000,83.790000
165.370000,83.790000
165.370000,82.590000
Z" /> 
</g>
<g >
</g>
<g style="fill:#000000; fill-opacity:1.000000; 
stroke:#000000; stroke-width:0.000000; stroke-opacity:1; 
stroke-linecap:round; stroke-linejoin:round;">
<path style="fill:#000000; fill-opacity:1.000000; 
stroke:#000000; stroke-width:0.000000; stroke-opacity:1; 
stroke-linecap:round; stroke-linejoin:round;fill-rule:evenodd;"
d="M 131.190000,54.264000
131.190000,55.464000
130.290000,55.464000
130.290000,54.264000
Z" /> 
<path style="fill:#000000; fill-opacity:1.000000; 
stroke:#000000; stroke-width:0.000000; stroke-opacity:1; 
stroke-linecap:round; stroke-linejoin:round;fill-rule:evenodd;"
d="M 127.890000,54.264000
127.890000,55.464000
126.990000,55.464000
126.990000,54.264000
Z" /> 
</g>
<g >
</g>
<g style="fill:#000000; fill-opacity:1.000000; 
stroke:#000000; stroke-width:0.000000; stroke-opacity:1; 
stroke-linecap:round; stroke-linejoin:round;">
<path style="fill:#000000; fill-opacity:1.000000; 
stroke:#000000; stroke-width:0.000000; stroke-opacity:1; 
stroke-linecap:round; stroke-linejoin:round;fill-rule:evenodd;"
d="M 95.318000,35.214000
95.318000,36.414000
94.418000,36.414000
94.418000,35.214000
Z" /> 
<path style="fill:#000000; fill-opacity:1.000000; 
stroke:#000000; stroke-width:0.000000; stroke-opacity:1; 
stroke-linecap:round; stroke-linejoin:round;fill-rule:evenodd;"
d="M 92.018000,35.214000
92.018000,36.414000
91.118000,36.414000
91.118000,35.214000
Z" /> 
</g>
<g >
</g>
<g style="fill:#000000; fill-opacity:1.000000; 
stroke:#000000; stroke-width:0.000000; stroke-opacity:1; 
stroke-linecap:round; stroke-linejoin:round;">
<path style="fill:#000000; fill-opacity:1.000000; 
stroke:#000000; stroke-width:0.000000; stroke-opacity:1; 
stroke-linecap:round; stroke-linejoin:round;fill-rule:evenodd;"
d="M 214.000000,57.150000
214.000000,58.350000
213.100000,58.350000
213.100000,57.150000
Z" /> 
<path style="fill:#000000; fill-opacity:1.000000; 
stroke:#000000; stroke-width:0.000000; stroke-opacity:1; 
stroke-linecap:round; stroke-linejoin:round;fill-rule:evenodd;"
d="M 210.700000,57.150000
210.700000,58.350000
209.800000,58.350000
209.800000,57.150000
Z" /> 
</g>
<g >
</g>
<g style="fill:#000000; fill-opacity:1.000000; 
stroke:#000000; stroke-width:0.000000; stroke-opacity:1; 
stroke-linecap:round; stroke-linejoin:round;">
<path style="fill:#000000; fill-opacity:1.000000; 
stroke:#000000; stroke-width:0.000000; stroke-opacity:1; 
stroke-linecap:round; stroke-linejoin:round;fill-rule:evenodd;"
d="M 95.318000,52.740000
95.318000,53.940000
94.418000,53.940000
94.418000,52.740000
Z" /> 
<path style="fill:#000000; fill-opacity:1.000000; 
stroke:#000000; stroke-width:0.000000; stroke-opacity:1; 
stroke-linecap:round; stroke-linejoin:round;fill-rule:evenodd;"
d="M 92.018000,52.740000
92.018000,53.940000
91.118000,53.940000
91.118000,52.740000
Z" /> 
</g>
<g >
</g>
<g style="fill:#000000; fill-opacity:1.000000; 
stroke:#000000; stroke-width:0.000000; stroke-opacity:1; 
stroke-linecap:round; stroke-linejoin:round;">
<path style="fill:#000000; fill-opacity:1.000000; 
stroke:#000000; stroke-width:0.000000; stroke-opacity:1; 
stroke-linecap:round; stroke-linejoin:round;fill-rule:evenodd;"
d="M 131.513000,88.427000
131.513000,89.627000
130.613000,89.627000
130.613000,88.427000
Z" /> 
<path style="fill:#000000; fill-opacity:1.000000; 
stroke:#000000; stroke-width:0.000000; stroke-opacity:1; 
stroke-linecap:round; stroke-linejoin:round;fill-rule:evenodd;"
d="M 128.213000,88.427000
128.213000,89.627000
127.313000,89.627000
127.313000,88.427000
Z" /> 
</g>
<g >
</g>
<g style="fill:#000000; fill-opacity:1.000000; 
stroke:#000000; stroke-width:0.000000; stroke-opacity:1; 
stroke-linecap:round; stroke-linejoin:round;">
<path style="fill:#000000; fill-opacity:1.000000; 
stroke:#000000; stroke-width:0.000000; stroke-opacity:1; 
stroke-linecap:round; stroke-linejoin:round;fill-rule:evenodd;"
d="M 186.076000,32.063000
186.076000,34.063000
185.466000,34.063000
185.466000,32.063000
Z" /> 
<path style="fill:#000000; fill-opacity:1.000000; 
stroke:#000000; stroke-width:0.000000; stroke-opacity:1; 
stroke-linecap:round; stroke-linejoin:round;fill-rule:evenodd;"
d="M 185.076000,32.063000
185.076000,34.063000
184.466000,34.063000
184.466000,32.063000
Z" /> 
<path style="fill:#000000; fill-opacity:1.000000; 
stroke:#000000; stroke-width:0.000000; stroke-opacity:1; 
stroke-linecap:round; stroke-linejoin:round;fill-rule:evenodd;"
d="M 184.076000,32.063000
184.076000,34.063000
183.466000,34.063000
183.466000,32.063000
Z" /> 
<path style="fill:#000000; fill-opacity:1.000000; 
stroke:#000000; stroke-width:0.000000; stroke-opacity:1; 
stroke-linecap:round; stroke-linejoin:round;fill-rule:evenodd;"
d="M 183.076000,32.063000
183.076000,34.063000
182.466000,34.063000
182.466000,32.063000
Z" /> 
<path style="fill:#000000; fill-opacity:1.000000; 
stroke:#000000; stroke-width:0.000000; stroke-opacity:1; 
stroke-linecap:round; stroke-linejoin:round;fill-rule:evenodd;"
d="M 182.076000,32.063000
182.076000,34.063000
181.466000,34.063000
181.466000,32.063000
Z" /> 
<path style="fill:#000000; fill-opacity:1.000000; 
stroke:#000000; stroke-width:0.000000; stroke-opacity:1; 
stroke-linecap:round; stroke-linejoin:round;fill-rule:evenodd;"
d="M 181.076000,32.063000
181.076000,34.063000
180.466000,34.063000
180.466000,32.063000
Z" /> 
<path style="fill:#000000; fill-opacity:1.000000; 
stroke:#000000; stroke-width:0.000000; stroke-opacity:1; 
stroke-linecap:round; stroke-linejoin:round;fill-rule:evenodd;"
d="M 180.076000,32.063000
180.076000,34.063000
179.466000,34.063000
179.466000,32.063000
Z" /> 
<path style="fill:#000000; fill-opacity:1.000000; 
stroke:#000000; stroke-width:0.000000; stroke-opacity:1; 
stroke-linecap:round; stroke-linejoin:round;fill-rule:evenodd;"
d="M 179.076000,32.063000
179.076000,34.063000
178.466000,34.063000
178.466000,32.063000
Z" /> 
<path style="fill:#000000; fill-opacity:1.000000; 
stroke:#000000; stroke-width:0.000000; stroke-opacity:1; 
stroke-linecap:round; stroke-linejoin:round;fill-rule:evenodd;"
d="M 178.076000,32.063000
178.076000,34.063000
177.466000,34.063000
177.466000,32.063000
Z" /> 
<path style="fill:#000000; fill-opacity:1.000000; 
stroke:#000000; stroke-width:0.000000; stroke-opacity:1; 
stroke-linecap:round; stroke-linejoin:round;fill-rule:evenodd;"
d="M 177.076000,32.063000
177.076000,34.063000
176.466000,34.063000
176.466000,32.063000
Z" /> 
<path style="fill:#000000; fill-opacity:1.000000; 
stroke:#000000; stroke-width:0.000000; stroke-opacity:1; 
stroke-linecap:round; stroke-linejoin:round;fill-rule:evenodd;"
d="M 176.076000,32.063000
176.076000,34.063000
175.466000,34.063000
175.466000,32.063000
Z" /> 
<path style="fill:#000000; fill-opacity:1.000000; 
stroke:#000000; stroke-width:0.000000; stroke-opacity:1; 
stroke-linecap:round; stroke-linejoin:round;fill-rule:evenodd;"
d="M 175.076000,32.063000
175.076000,34.063000
174.466000,34.063000
174.466000,32.063000
Z" /> 
<path style="fill:#000000; fill-opacity:1.000000; 
stroke:#000000; stroke-width:0.000000; stroke-opacity:1; 
stroke-linecap:round; stroke-linejoin:round;fill-rule:evenodd;"
d="M 190.101000,34.063000
190.101000,37.663000
187.421000,37.663000
187.421000,34.063000
Z" /> 
<path style="fill:#000000; fill-opacity:1.000000; 
stroke:#000000; stroke-width:0.000000; stroke-opacity:1; 
stroke-linecap:round; stroke-linejoin:round;fill-rule:evenodd;"
d="M 173.121000,34.063000
173.121000,37.663000
170.441000,37.663000
170.441000,34.063000
Z" /> 
</g>
<g >
</g>
<g style="fill:#000000; fill-opacity:1.000000; 
stroke:#000000; stroke-width:0.000000; stroke-opacity:1; 
stroke-linecap:round; stroke-linejoin:round;">
<path style="fill:#000000; fill-opacity:1.000000; 
stroke:#000000; stroke-width:0.000000; stroke-opacity:1; 
stroke-linecap:round; stroke-linejoin:round;fill-rule:evenodd;"
d="M 113.606000,59.598000
113.606000,60.798000
112.706000,60.798000
112.706000,59.598000
Z" /> 
<path style="fill:#000000; fill-opacity:1.000000; 
stroke:#000000; stroke-width:0.000000; stroke-opacity:1; 
stroke-linecap:round; stroke-linejoin:round;fill-rule:evenodd;"
d="M 110.306000,59.598000
110.306000,60.798000
109.406000,60.798000
109.406000,59.598000
Z" /> 
</g>
<g >
</g>
<g style="fill:#000000; fill-opacity:1.000000; 
stroke:#000000; stroke-width:0.000000; stroke-opacity:1; 
stroke-linecap:round; stroke-linejoin:round;">
<path style="fill:#000000; fill-opacity:1.000000; 
stroke:#000000; stroke-width:0.000000; stroke-opacity:1; 
stroke-linecap:round; stroke-linejoin:round;fill-rule:evenodd;"
d="M 231.970000,78.560000
231.970000,79.760000
231.070000,79.760000
231.070000,78.560000
Z" /> 
<path style="fill:#000000; fill-opacity:1.000000; 
stroke:#000000; stroke-width:0.000000; stroke-opacity:1; 
stroke-linecap:round; stroke-linejoin:round;fill-rule:evenodd;"
d="M 228.670000,78.560000
228.670000,79.760000
227.770000,79.760000
227.770000,78.560000
Z" /> 
</g>
<g >
</g>
<g style="fill:#000000; fill-opacity:1.000000; 
stroke:#000000; stroke-width:0.000000; stroke-opacity:1; 
stroke-linecap:round; stroke-linejoin:round;">
<path style="fill:#000000; fill-opacity:1.000000; 
stroke:#000000; stroke-width:0.000000; stroke-opacity:1; 
stroke-linecap:round; stroke-linejoin:round;fill-rule:evenodd;"
d="M 44.550000,51.865000
44.550000,53.115000
43.650000,53.115000
43.650000,51.865000
Z" /> 
<path style="fill:#000000; fill-opacity:1.000000; 
stroke:#000000; stroke-width:0.000000; stroke-opacity:1; 
stroke-linecap:round; stroke-linejoin:round;fill-rule:evenodd;"
d="M 43.050000,51.865000
43.050000,53.115000
42.150000,53.115000
42.150000,51.865000
Z" /> 
<path style="fill:#000000; fill-opacity:1.000000; 
stroke:#000000; stroke-width:0.000000; stroke-opacity:1; 
stroke-linecap:round; stroke-linejoin:round;fill-rule:evenodd;"
d="M 40.050000,51.865000
40.050000,53.115000
39.150000,53.115000
39.150000,51.865000
Z" /> 
<path style="fill:#000000; fill-opacity:1.000000; 
stroke:#000000; stroke-width:0.000000; stroke-opacity:1; 
stroke-linecap:round; stroke-linejoin:round;fill-rule:evenodd;"
d="M 38.600000,48.865000
38.600000,49.765000
37.700000,49.765000
37.700000,48.865000
Z" /> 
<path style="fill:#000000; fill-opacity:1.000000; 
stroke:#000000; stroke-width:0.000000; stroke-opacity:1; 
stroke-linecap:round; stroke-linejoin:round;fill-rule:evenodd;"
d="M 38.600000,51.065000
38.600000,51.965000
37.700000,51.965000
37.700000,51.065000
Z" /> 
<path style="fill:#000000; fill-opacity:1.000000; 
stroke:#000000; stroke-width:0.000000; stroke-opacity:1; 
stroke-linecap:round; stroke-linejoin:round;fill-rule:evenodd;"
d="M 46.000000,48.865000
46.000000,49.765000
45.100000,49.765000
45.100000,48.865000
Z" /> 
<path style="fill:#000000; fill-opacity:1.000000; 
stroke:#000000; stroke-width:0.000000; stroke-opacity:1; 
stroke-linecap:round; stroke-linejoin:round;fill-rule:evenodd;"
d="M 46.000000,51.065000
46.000000,51.965000
45.100000,51.965000
45.100000,51.065000
Z" /> 
</g>
<g >
</g>
<g style="fill:#000000; fill-opacity:1.000000; 
stroke:#000000; stroke-width:0.000000; stroke-opacity:1; 
stroke-linecap:round; stroke-linejoin:round;">
<path style="fill:#000000; fill-opacity:1.000000; 
stroke:#000000; stroke-width:0.000000; stroke-opacity:1; 
stroke-linecap:round; stroke-linejoin:round;fill-rule:evenodd;"
d="M 214.100000,40.300000
214.100000,41.500000
213.200000,41.500000
213.200000,40.300000
Z" /> 
<path style="fill:#000000; fill-opacity:1.000000; 
stroke:#000000; stroke-width:0.000000; stroke-opacity:1; 
stroke-linecap:round; stroke-linejoin:round;fill-rule:evenodd;"
d="M 210.800000,40.300000
210.800000,41.500000
209.900000,41.500000
209.900000,40.300000
Z" /> 
</g>
<g >
</g>
<g >
</g>
<g style="fill:#000000; fill-opacity:1.000000; 
stroke:#000000; stroke-width:0.000000; stroke-opacity:1; 
stroke-linecap:round; stroke-linejoin:round;">
<path style="fill:#000000; fill-opacity:1.000000; 
stroke:#000000; stroke-width:0.000000; stroke-opacity:1; 
stroke-linecap:round; stroke-linejoin:round;fill-rule:evenodd;"
d="M 131.259000,71.409000
131.259000,72.609000
130.359000,72.609000
130.359000,71.409000
Z" /> 
<path style="fill:#000000; fill-opacity:1.000000; 
stroke:#000000; stroke-width:0.000000; stroke-opacity:1; 
stroke-linecap:round; stroke-linejoin:round;fill-rule:evenodd;"
d="M 127.959000,71.409000
127.959000,72.609000
127.059000,72.609000
127.059000,71.409000
Z" /> 
</g>
<g >
</g>
<g style="fill:#000000; fill-opacity:1.000000; 
stroke:#000000; stroke-width:0.000000; stroke-opacity:1; 
stroke-linecap:round; stroke-linejoin:round;">
<path style="fill:#000000; fill-opacity:1.000000; 
stroke:#000000; stroke-width:0.000000; stroke-opacity:1; 
stroke-linecap:round; stroke-linejoin:round;fill-rule:evenodd;"
d="M 169.370000,99.222000
169.370000,100.422000
168.470000,100.422000
168.470000,99.222000
Z" /> 
<path style="fill:#000000; fill-opacity:1.000000; 
stroke:#000000; stroke-width:0.000000; stroke-opacity:1; 
stroke-linecap:round; stroke-linejoin:round;fill-rule:evenodd;"
d="M 166.070000,99.222000
166.070000,100.422000
165.170000,100.422000
165.170000,99.222000
Z" /> 
</g>
<g >
</g>
<g >
</g>
<g style="fill:#000000; fill-opacity:1.000000; 
stroke:#000000; stroke-width:0.000000; stroke-opacity:1; 
stroke-linecap:round; stroke-linejoin:round;">
<path style="fill:#000000; fill-opacity:1.000000; 
stroke:#000000; stroke-width:0.000000; stroke-opacity:1; 
stroke-linecap:round; stroke-linejoin:round;fill-rule:evenodd;"
d="M 77.411000,74.965000
77.411000,76.165000
76.511000,76.165000
76.511000,74.965000
Z" /> 
<path style="fill:#000000; fill-opacity:1.000000; 
stroke:#000000; stroke-width:0.000000; stroke-opacity:1; 
stroke-linecap:round; stroke-linejoin:round;fill-rule:evenodd;"
d="M 74.111000,74.965000
74.111000,76.165000
73.211000,76.165000
73.211000,74.965000
Z" /> 
</g>
<g >
</g>
<g style="fill:#000000; fill-opacity:1.000000; 
stroke:#000000; stroke-width:0.000000; stroke-opacity:1; 
stroke-linecap:round; stroke-linejoin:round;">
<path style="fill:#000000; fill-opacity:1.000000; 
stroke:#000000; stroke-width:0.000000; stroke-opacity:1; 
stroke-linecap:round; stroke-linejoin:round;fill-rule:evenodd;"
d="M 232.020000,42.720000
232.020000,43.920000
231.120000,43.920000
231.120000,42.720000
Z" /> 
<path style="fill:#000000; fill-opacity:1.000000; 
stroke:#000000; stroke-width:0.000000; stroke-opacity:1; 
stroke-linecap:round; stroke-linejoin:round;fill-rule:evenodd;"
d="M 228.720000,42.720000
228.720000,43.920000
227.820000,43.920000
227.820000,42.720000
Z" /> 
</g>
<g >
</g>
<g style="fill:#000000; fill-opacity:1.000000; 
stroke:#000000; stroke-width:0.000000; stroke-opacity:1; 
stroke-linecap:round; stroke-linejoin:round;">
<path style="fill:#000000; fill-opacity:1.000000; 
stroke:#000000; stroke-width:0.000000; stroke-opacity:1; 
stroke-linecap:round; stroke-linejoin:round;fill-rule:evenodd;"
d="M 66.420000,52.496000
66.420000,53.696000
65.520000,53.696000
65.520000,52.496000
Z" /> 
<path style="fill:#000000; fill-opacity:1.000000; 
stroke:#000000; stroke-width:0.000000; stroke-opacity:1; 
stroke-linecap:round; stroke-linejoin:round;fill-rule:evenodd;"
d="M 63.120000,52.496000
63.120000,53.696000
62.220000,53.696000
62.220000,52.496000
Z" /> 
</g>
<g >
</g>
<g style="fill:#000000; fill-opacity:1.000000; 
stroke:#000000; stroke-width:0.000000; stroke-opacity:1; 
stroke-linecap:round; stroke-linejoin:round;">
<path style="fill:#000000; fill-opacity:1.000000; 
stroke:#000000; stroke-width:0.000000; stroke-opacity:1; 
stroke-linecap:round; stroke-linejoin:round;fill-rule:evenodd;"
d="M 245.790000,101.690000
245.790000,102.890000
244.890000,102.890000
244.890000,101.690000
Z" /> 
<path style="fill:#000000; fill-opacity:1.000000; 
stroke:#000000; stroke-width:0.000000; stroke-opacity:1; 
stroke-linecap:round; stroke-linejoin:round;fill-rule:evenodd;"
d="M 242.490000,101.690000
242.490000,102.890000
241.590000,102.890000
241.590000,101.690000
Z" /> 
</g>
<g >
</g>
<g style="fill:#000000; fill-opacity:1.000000; 
stroke:#000000; stroke-width:0.000000; stroke-opacity:1; 
stroke-linecap:round; stroke-linejoin:round;">
<path style="fill:#000000; fill-opacity:1.000000; 
stroke:#000000; stroke-width:0.000000; stroke-opacity:1; 
stroke-linecap:round; stroke-linejoin:round;fill-rule:evenodd;"
d="M 95.445000,69.758000
95.445000,70.958000
94.545000,70.958000
94.545000,69.758000
Z" /> 
<path style="fill:#000000; fill-opacity:1.000000; 
stroke:#000000; stroke-width:0.000000; stroke-opacity:1; 
stroke-linecap:round; stroke-linejoin:round;fill-rule:evenodd;"
d="M 92.145000,69.758000
92.145000,70.958000
91.245000,70.958000
91.245000,69.758000
Z" /> 
</g>
<g >
</g>
<g style="fill:#000000; fill-opacity:1.000000; 
stroke:#000000; stroke-width:0.000000; stroke-opacity:1; 
stroke-linecap:round; stroke-linejoin:round;">
<path style="fill:#000000; fill-opacity:1.000000; 
stroke:#000000; stroke-width:0.000000; stroke-opacity:1; 
stroke-linecap:round; stroke-linejoin:round;fill-rule:evenodd;"
d="M 215.170000,74.090000
215.170000,75.290000
214.270000,75.290000
214.270000,74.090000
Z" /> 
<path style="fill:#000000; fill-opacity:1.000000; 
stroke:#000000; stroke-width:0.000000; stroke-opacity:1; 
stroke-linecap:round; stroke-linejoin:round;fill-rule:evenodd;"
d="M 211.870000,74.090000
211.870000,75.290000
210.970000,75.290000
210.970000,74.090000
Z" /> 
</g>
<g >
</g>
<g style="fill:#000000; fill-opacity:1.000000; 
stroke:#000000; stroke-width:0.000000; stroke-opacity:1; 
stroke-linecap:round; stroke-linejoin:round;">
<path style="fill:#000000; fill-opacity:1.000000; 
stroke:#000000; stroke-width:0.000000; stroke-opacity:1; 
stroke-linecap:round; stroke-linejoin:round;fill-rule:evenodd;"
d="M 177.900000,58.620000
177.900000,59.820000
177.000000,59.820000
177.000000,58.620000
Z" /> 
<path style="fill:#000000; fill-opacity:1.000000; 
stroke:#000000; stroke-width:0.000000; stroke-opacity:1; 
stroke-linecap:round; stroke-linejoin:round;fill-rule:evenodd;"
d="M 174.600000,58.620000
174.600000,59.820000
173.700000,59.820000
173.700000,58.620000
Z" /> 
</g>
<g >
</g>
<g style="fill:#000000; fill-opacity:1.000000; 
stroke:#000000; stroke-width:0.000000; stroke-opacity:1; 
stroke-linecap:round; stroke-linejoin:round;">
<path style="fill:#000000; fill-opacity:1.000000; 
stroke:#000000; stroke-width:0.000000; stroke-opacity:1; 
stroke-linecap:round; stroke-linejoin:round;fill-rule:evenodd;"
d="M 178.140000,44.460000
178.140000,45.660000
177.240000,45.660000
177.240000,44.460000
Z" /> 
<path style="fill:#000000; fill-opacity:1.000000; 
stroke:#000000; stroke-width:0.000000; stroke-opacity:1; 
stroke-linecap:round; stroke-linejoin:round;fill-rule:evenodd;"
d="M 174.840000,44.460000
174.840000,45.660000
173.940000,45.660000
173.940000,44.460000
Z" /> 
</g>
<g >
</g>
<g style="fill:#000000; fill-opacity:1.000000; 
stroke:#000000; stroke-width:0.000000; stroke-opacity:1; 
stroke-linecap:round; stroke-linejoin:round;">
<path style="fill:#000000; fill-opacity:1.000000; 
stroke:#000000; stroke-width:0.000000; stroke-opacity:1; 
stroke-linecap:round; stroke-linejoin:round;fill-rule:evenodd;"
d="M 78.680000,59.450000
78.680000,60.650000
77.780000,60.650000
77.780000,59.450000
Z" /> 
<path style="fill:#000000; fill-opacity:1.000000; 
stroke:#000000; stroke-width:0.000000; stroke-opacity:1; 
stroke-linecap:round; stroke-linejoin:round;fill-rule:evenodd;"
d="M 75.380000,59.450000
75.380000,60.650000
74.480000,60.650000
74.480000,59.450000
Z" /> 
</g>
<g >
</g>
<g style="fill:#000000; fill-opacity:1.000000; 
stroke:#000000; stroke-width:0.000000; stroke-opacity:1; 
stroke-linecap:round; stroke-linejoin:round;">
<path style="fill:#000000; fill-opacity:1.000000; 
stroke:#000000; stroke-width:0.000000; stroke-opacity:1; 
stroke-linecap:round; stroke-linejoin:round;fill-rule:evenodd;"
d="M 225.830000,94.480000
225.830000,95.680000
224.930000,95.680000
224.930000,94.480000
Z" /> 
<path style="fill:#000000; fill-opacity:1.000000; 
stroke:#000000; stroke-width:0.000000; stroke-opacity:1; 
stroke-linecap:round; stroke-linejoin:round;fill-rule:evenodd;"
d="M 222.530000,94.480000
222.530000,95.680000
221.630000,95.680000
221.630000,94.480000
Z" /> 
</g>
<g >
</g>
<g style="fill:#000000; fill-opacity:1.000000; 
stroke:#000000; stroke-width:0.000000; stroke-opacity:1; 
stroke-linecap:round; stroke-linejoin:round;">
<path style="fill:#000000; fill-opacity:1.000000; 
stroke:#000000; stroke-width:0.000000; stroke-opacity:1; 
stroke-linecap:round; stroke-linejoin:round;fill-rule:evenodd;"
d="M 58.107000,110.652000
58.107000,111.852000
57.207000,111.852000
57.207000,110.652000
Z" /> 
<path style="fill:#000000; fill-opacity:1.000000; 
stroke:#000000; stroke-width:0.000000; stroke-opacity:1; 
stroke-linecap:round; stroke-linejoin:round;fill-rule:evenodd;"
d="M 54.807000,110.652000
54.807000,111.852000
53.907000,111.852000
53.907000,110.652000
Z" /> 
</g>
<g >
</g>
<g style="fill:#000000; fill-opacity:1.000000; 
stroke:#000000; stroke-width:0.000000; stroke-opacity:1; 
stroke-linecap:round; stroke-linejoin:round;">
<path style="fill:#000000; fill-opacity:1.000000; 
stroke:#000000; stroke-width:0.000000; stroke-opacity:1; 
stroke-linecap:round; stroke-linejoin:round;fill-rule:evenodd;"
d="M 169.710000,65.690000
169.710000,66.890000
168.810000,66.890000
168.810000,65.690000
Z" /> 
<path style="fill:#000000; fill-opacity:1.000000; 
stroke:#000000; stroke-width:0.000000; stroke-opacity:1; 
stroke-linecap:round; stroke-linejoin:round;fill-rule:evenodd;"
d="M 166.410000,65.690000
166.410000,66.890000
165.510000,66.890000
165.510000,65.690000
Z" /> 
</g>
<g >
</g>
<g >
</g>
<g >
</g>
</g> 
</svg>
