<?xml version="1.0" encoding="utf-8"?>
<!-- Generator: Fusion 360, Shaper Origin Export Add-In, Version 1.6.10  -->
<svg xmlns="http://www.w3.org/2000/svg" xmlns:xlink="http://www.w3.org/1999/xlink" xmlns:shaper="http://www.shapertools.com/namespaces/shaper" shaper:fusionaddin="version:1.6.10" width="12.7180029cm" height="9.2182821cm" version="1.1" x="0cm" y="0cm" viewBox="0 0 12.7180029 9.2182821" enable-background="new 0 0 12.7180029 9.2182821" xml:space="preserve"><path d="M-1.8939733,-3.9133091 A0.1825724,0.1825724 182.6640751 0,1 -1.7059506,-4.0873081 L-0.1769883,-4.0889981 A0.0787769,0.0787769 93.5588674 0,0 -0.0933381,-4.1659976 L-0.0919385,-4.4642713 A0.1825359,0.1825359 182.6527191 0,1 0.096064,-4.6382711 L1.3462473,-4.6382171 5.1629962,-4.6382171 A0.2,0.2 270 0,1 5.3629962,-4.4382171 L5.3629962,-2.3739529 5.3608578,-2.0374231 6.1590015,-2.0374231 A0.2,0.2 270 0,1 6.3590015,-1.8374231 L6.3590015,-1.2006726 A7.8,7.8 0 0,1 5.3604778,2.6176935 A0.2156041,0.2156041 7.4663862 0,1 5.1534017,2.8051769 L3.8344011,2.8071645 A1.406961,1.406961 87.2053135 0,1 3.1444017,2.6641769 L1.0134017,1.5681769 A0.9449649,0.9449649 293.6651375 0,0 -0.3056101,2.5331775 A0.8105454,0.8105454 356.9377995 0,1 -0.8865983,3.3541769 L-2.4835983,3.7731769 -3.8466132,4.5481492 A0.2668462,0.2668462 61.7544985 0,1 -4.165058,4.4982296 L-4.1758935,4.4869841 A7.8,7.8 136.0639231 0,1 -6.3590015,-0.925088 L-6.3590015,-2.6560875 A0.2,0.2 180 0,1 -6.1590015,-2.8560875 L-3.966657,-2.8560875 -3.966657,-2.8560875 -3.9392878,-2.8587377 -3.9123737,-2.8630127 -3.8857976,-2.8689755 -3.8594556,-2.8766854 -3.8336636,-2.8860477 -3.8085766,-2.8969439 -3.7841641,-2.9093 -3.7603953,-2.9230419 -3.7366521,-2.9384862 -3.7245239,-2.9470491 -3.7122247,-2.9562087 -3.6997547,-2.9659918 -3.6871142,-2.9764253 -3.6743036,-2.9875361 -3.6613231,-2.9993512 -3.648173,-3.0118974 -3.6348536,-3.0252017 -3.6213652,-3.0392909 -3.6077081,-3.0541919 -3.5938826,-3.0699317 -3.579889,-3.0865371 -3.5657276,-3.1040351 -3.5513986,-3.1224525 A0.5059341,0.5059341 28.4819324 0,0 -3.4901979,-3.3578812 L-3.488176,-3.6646121 A0.1825752,0.1825752 182.6649694 0,1 -3.300156,-3.8386111 L-1.9775983,-3.8378241 A0.0837995,0.0837995 90.2051177 0,0 -1.8939128,-3.9133031" transform="matrix(1,0,0,-1,6.3590015,4.5799231)" fill="rgb(0,0,0)" stroke-linecap="round" stroke-linejoin="round" /><path d="M3.0636017,2.0365769 a0.16,0.16 0 1,1 0.32,0 a0.16,0.16 0 1,1 -0.32,0z" transform="matrix(1,0,0,-1,6.3590015,4.5799231)" fill="rgb(255,255,255)" stroke="rgb(0,0,0)" stroke-width="0.0010cm" stroke-linecap="round" stroke-linejoin="round" /><path d="M-2.0363983,-3.5634231 a0.16,0.16 0 1,1 0.32,0 a0.16,0.16 0 1,1 -0.32,0z" transform="matrix(1,0,0,-1,6.3590015,4.5799231)" fill="rgb(255,255,255)" stroke="rgb(0,0,0)" stroke-width="0.0010cm" stroke-linecap="round" stroke-linejoin="round" /><path d="M-0.7363983,1.7365769 a0.16,0.16 0 1,1 0.32,0 a0.16,0.16 0 1,1 -0.32,0z" transform="matrix(1,0,0,-1,6.3590015,4.5799231)" fill="rgb(255,255,255)" stroke="rgb(0,0,0)" stroke-width="0.0010cm" stroke-linecap="round" stroke-linejoin="round" /><path d="M1.8636017,-3.6634231 a0.16,0.16 0 1,1 0.32,0 a0.16,0.16 0 1,1 -0.32,0z" transform="matrix(1,0,0,-1,6.3590015,4.5799231)" fill="rgb(255,255,255)" stroke="rgb(0,0,0)" stroke-width="0.0010cm" stroke-linecap="round" stroke-linejoin="round" /><path d="M-4.9363983,2.7365769 a0.16,0.16 0 1,1 0.32,0 a0.16,0.16 0 1,1 -0.32,0z" transform="matrix(1,0,0,-1,6.3590015,4.5799231)" fill="rgb(255,255,255)" stroke="rgb(0,0,0)" stroke-width="0.0010cm" stroke-linecap="round" stroke-linejoin="round" /></svg>