<?xml version="1.0" encoding="utf-8"?>
<!-- Generator: Fusion 360, Shaper Origin Export Add-In, Version 1.6.10  -->
<svg xmlns="http://www.w3.org/2000/svg" xmlns:xlink="http://www.w3.org/1999/xlink" xmlns:shaper="http://www.shapertools.com/namespaces/shaper" shaper:fusionaddin="version:1.6.10" width="12.7180029cm" height="9.2182821cm" version="1.1" x="0cm" y="0cm" viewBox="0 0 12.7180029 9.2182821" enable-background="new 0 0 12.7180029 9.2182821" xml:space="preserve"><path d="M1.8939739,3.9132977 A0.1825724,0.1825724 2.6604889 0,1 1.7059506,4.0873081 L0.1769883,4.0889981 A0.0787769,0.0787769 273.5588674 0,0 0.0933381,4.1659976 L0.0919385,4.4642713 A0.1825359,0.1825359 2.6527191 0,1 -0.096064,4.6382711 L-1.3462473,4.6382171 -5.1629962,4.6382171 A0.2,0.2 90 0,1 -5.3629962,4.4382171 L-5.3629962,2.3739529 -5.3608578,2.0374231 -6.1590015,2.0374231 A0.2,0.2 90 0,1 -6.3590015,1.8374231 L-6.3590015,1.2006726 A7.8,7.8 180 0,1 -5.3604778,-2.6176935 A0.2156041,0.2156041 187.4663862 0,1 -5.1534017,-2.8051769 L-3.8344011,-2.8071645 A1.406961,1.406961 267.2053135 0,1 -3.1444017,-2.6641769 L-1.0134017,-1.5681769 A0.9449649,0.9449649 113.6651375 0,0 0.3056101,-2.5331775 A0.8105454,0.8105454 176.9377995 0,1 0.8865983,-3.3541769 L2.4835983,-3.7731769 3.8466132,-4.5481492 A0.2668462,0.2668462 241.7544985 0,1 4.165058,-4.4982296 L4.1758935,-4.4869841 A7.8,7.8 316.0639231 0,1 6.3590015,0.925088 L6.3590015,2.6560875 A0.2,0.2 0 0,1 6.1590015,2.8560875 L5.3590015,2.8560875 5.3600189,-0.502577 5.0589983,-0.502577 5.0589983,2.4578231 3.7763986,2.4578231 3.7763986,-0.502577 3.5513986,-0.502577 3.5513986,3.1224525 A0.5059341,0.5059341 208.4819324 0,0 3.4901979,3.3578811 L3.488176,3.6646121 A0.1825752,0.1825752 2.6649694 0,1 3.300156,3.8386111 L1.9775983,3.8378241 A0.0837995,0.0837995 270.2051177 0,0 1.8939137,3.9132933" transform="matrix(1,0,0,-1,6.3590015,4.638359)" fill="rgb(0,0,0)" stroke-linecap="round" stroke-linejoin="round" /><path d="M4.4933327,-2.746429 L4.6174997,-2.5116612 4.882898,-2.5018091 5.0241294,-2.7267248 4.8999624,-2.9614925 4.634564,-2.9713446 4.4933327,-2.746429z" transform="matrix(1,0,0,-1,6.3590015,4.638359)" fill="rgb(255,255,255)" stroke="rgb(0,0,0)" stroke-width="0.0010cm" stroke-linecap="round" stroke-linejoin="round" /><path d="M-4.5402654,2.3269191 A0.45,0.45 124.317843 0,0 -3.8781334,2.1441597 A0.3,0.3 88.8218596 1,0 -4.0328604,1.5835886 A0.45,0.45 304.317843 0,0 -4.6949923,1.7663481 A0.3,0.3 268.8218596 1,0 -4.5402654,2.3269191z" transform="matrix(1,0,0,-1,6.3590015,4.638359)" fill="rgb(255,255,255)" stroke="rgb(0,0,0)" stroke-width="0.0010cm" stroke-linecap="round" stroke-linejoin="round" /><path d="M-3.39547,1.9842865 A0.3,0.3 268.8218596 1,0 -3.2407431,2.5448576 A0.45,0.45 124.317843 0,0 -2.5786112,2.3620981 A0.3,0.3 88.8218596 1,0 -2.7333381,1.8015271 A0.45,0.45 304.317843 0,0 -3.39547,1.9842865z" transform="matrix(1,0,0,-1,6.3590015,4.638359)" fill="rgb(255,255,255)" stroke="rgb(0,0,0)" stroke-width="0.0010cm" stroke-linecap="round" stroke-linejoin="round" /><path d="M-0.9333381,2.5015271 A0.45,0.45 304.317843 0,0 -1.59547,2.6842865 A0.3,0.3 268.8218596 1,0 -1.4407431,3.2448576 A0.45,0.45 124.317843 0,0 -0.7786112,3.0620981 A0.3,0.3 88.8218596 1,0 -0.9333381,2.5015271z" transform="matrix(1,0,0,-1,6.3590015,4.638359)" fill="rgb(255,255,255)" stroke="rgb(0,0,0)" stroke-width="0.0010cm" stroke-linecap="round" stroke-linejoin="round" /><path d="M2.1572569,-0.9559424 A0.45,0.45 124.317843 0,0 2.8193888,-1.1387019 A0.3,0.3 88.8218596 1,0 2.6646619,-1.6992729 A0.45,0.45 304.317843 0,0 2.00253,-1.5165135 A0.3,0.3 268.8218596 1,0 2.1572569,-0.9559424z" transform="matrix(1,0,0,-1,6.3590015,4.638359)" fill="rgb(255,255,255)" stroke="rgb(0,0,0)" stroke-width="0.0010cm" stroke-linecap="round" stroke-linejoin="round" /><path d="M-3.2407431,-0.8543424 A0.45,0.45 124.317843 0,0 -2.5786112,-1.0371019 A0.3,0.3 88.8218596 1,0 -2.7333381,-1.5976729 A0.45,0.45 304.317843 0,0 -3.39547,-1.4149135 A0.3,0.3 268.8218596 1,0 -3.2407431,-0.8543424z" transform="matrix(1,0,0,-1,6.3590015,4.638359)" fill="rgb(255,255,255)" stroke="rgb(0,0,0)" stroke-width="0.0010cm" stroke-linecap="round" stroke-linejoin="round" /><path d="M-1.4407431,1.5332576 A0.45,0.45 124.317843 0,0 -0.7786112,1.3504981 A0.3,0.3 88.8218596 1,0 -0.9333381,0.7899271 A0.45,0.45 304.317843 0,0 -1.59547,0.9726865 A0.3,0.3 268.8218596 1,0 -1.4407431,1.5332576z" transform="matrix(1,0,0,-1,6.3590015,4.638359)" fill="rgb(255,255,255)" stroke="rgb(0,0,0)" stroke-width="0.0010cm" stroke-linecap="round" stroke-linejoin="round" /><path d="M0.3592569,0.9998576 A0.45,0.45 124.317843 0,0 1.0213888,0.8170981 A0.3,0.3 88.8218596 1,0 0.8666619,0.2565271 A0.45,0.45 304.317843 0,0 0.20453,0.4392865 A0.3,0.3 268.8218596 1,0 0.3592569,0.9998576z" transform="matrix(1,0,0,-1,6.3590015,4.638359)" fill="rgb(255,255,255)" stroke="rgb(0,0,0)" stroke-width="0.0010cm" stroke-linecap="round" stroke-linejoin="round" /><path d="M0.6982517,-1.5154506 L0.7268143,-1.5176972 0.8411617,-1.7574012 0.6907456,-1.9762809 0.4259822,-1.9554566 0.3116348,-1.7157526 0.4616774,-1.4974163 A0.45,0.45 250.3555625 0,0 0.20453,-1.2625135 A0.3,0.3 268.8218596 1,0 0.3592569,-0.7019424 A0.45,0.45 124.317843 0,0 1.0213888,-0.8847019 A0.3,0.3 88.8218596 1,0 0.8666619,-1.4452729 A0.45,0.45 304.317843 0,0 0.6982517,-1.5154506z" transform="matrix(1,0,0,-1,6.3590015,4.638359)" fill="rgb(255,255,255)" stroke="rgb(0,0,0)" stroke-width="0.0010cm" stroke-linecap="round" stroke-linejoin="round" /><path d="M-4.5402654,-1.0730809 A0.45,0.45 124.317843 0,0 -3.8781334,-1.2558403 A0.3,0.3 88.8218596 1,0 -4.0328604,-1.8164114 A0.45,0.45 304.317843 0,0 -4.6949923,-1.6336519 A0.3,0.3 268.8218596 1,0 -4.5402654,-1.0730809z" transform="matrix(1,0,0,-1,6.3590015,4.638359)" fill="rgb(255,255,255)" stroke="rgb(0,0,0)" stroke-width="0.0010cm" stroke-linecap="round" stroke-linejoin="round" /><path d="M4.0231117,-2.3667569 a0.2147841,0.2147841 0 1,1 0.4295681,0 a0.2147841,0.2147841 0 1,1 -0.4295681,0z" transform="matrix(1,0,0,-1,6.3590015,4.638359)" fill="rgb(255,255,255)" stroke="rgb(0,0,0)" stroke-width="0.0010cm" stroke-linecap="round" stroke-linejoin="round" /><path d="M3.6869983,-0.7169769 a0.15,0.15 0 1,1 0.3,0 a0.15,0.15 0 1,1 -0.3,0z" transform="matrix(1,0,0,-1,6.3590015,4.638359)" fill="rgb(255,255,255)" stroke="rgb(0,0,0)" stroke-width="0.0010cm" stroke-linecap="round" stroke-linejoin="round" /><path d="M3.6869983,-1.3569769 a0.15,0.15 0 1,1 0.3,0 a0.15,0.15 0 1,1 -0.3,0z" transform="matrix(1,0,0,-1,6.3590015,4.638359)" fill="rgb(255,255,255)" stroke="rgb(0,0,0)" stroke-width="0.0010cm" stroke-linecap="round" stroke-linejoin="round" /><path d="M2.1572569,0.7458576 A0.45,0.45 124.317843 0,0 2.8193888,0.5630981 A0.3,0.3 88.8218596 1,0 2.6646619,0.0025271 A0.45,0.45 304.317843 0,0 2.00253,0.1852865 A0.3,0.3 268.8218596 1,0 2.1572569,0.7458576z" transform="matrix(1,0,0,-1,6.3590015,4.638359)" fill="rgb(255,255,255)" stroke="rgb(0,0,0)" stroke-width="0.0010cm" stroke-linecap="round" stroke-linejoin="round" /><path d="M-3.2407431,0.8474576 A0.45,0.45 124.317843 0,0 -2.5786112,0.6646981 A0.3,0.3 88.8218596 1,0 -2.7333381,0.1041271 A0.45,0.45 304.317843 0,0 -3.39547,0.2868865 A0.3,0.3 268.8218596 1,0 -3.2407431,0.8474576z" transform="matrix(1,0,0,-1,6.3590015,4.638359)" fill="rgb(255,255,255)" stroke="rgb(0,0,0)" stroke-width="0.0010cm" stroke-linecap="round" stroke-linejoin="round" /><path d="M-4.0328604,-0.1164114 A0.45,0.45 304.317843 0,0 -4.6949923,0.0663481 A0.3,0.3 268.8218596 1,0 -4.5402654,0.6269191 A0.45,0.45 124.317843 0,0 -3.8781334,0.4441597 A0.3,0.3 88.8218596 1,0 -4.0328604,-0.1164114z" transform="matrix(1,0,0,-1,6.3590015,4.638359)" fill="rgb(255,255,255)" stroke="rgb(0,0,0)" stroke-width="0.0010cm" stroke-linecap="round" stroke-linejoin="round" /><path d="M3.4011069,-4.2283264 L3.0413977,-4.0125766 3.0285843,-3.8510517 2.7739662,-3.5939829 A0.2634122,0.2634122 224.7255926 1,0 3.1799725,-3.2620282 A0.45,0.45 99.464593 0,0 3.6975908,-3.7814026 A0.2681792,0.2681792 55.7924755 0,0 3.4011069,-4.2283264z" transform="matrix(1,0,0,-1,6.3590015,4.638359)" fill="rgb(255,255,255)" stroke="rgb(0,0,0)" stroke-width="0.0010cm" stroke-linecap="round" stroke-linejoin="round" /><path d="M1.3657009,-3.4024375 L1.3094714,-3.2561207 0.9797803,-3.0627093 A0.3,0.3 239.6022262 1,0 1.3425342,-2.5906455 A0.45,0.45 109.317843 0,0 1.9348029,-2.9385499 A0.3,0.3 73.8218596 1,0 1.6983472,-3.4848003 L1.3657009,-3.4024375z" transform="matrix(1,0,0,-1,6.3590015,4.638359)" fill="rgb(255,255,255)" stroke="rgb(0,0,0)" stroke-width="0.0010cm" stroke-linecap="round" stroke-linejoin="round" /><path d="M2.1592569,2.4448576 A0.45,0.45 124.317843 0,0 2.8213888,2.2620981 A0.3,0.3 88.8218596 1,0 2.6666619,1.7015271 A0.45,0.45 304.317843 0,0 2.00453,1.8842865 A0.3,0.3 268.8218596 1,0 2.1592569,2.4448576z" transform="matrix(1,0,0,-1,6.3590015,4.638359)" fill="rgb(255,255,255)" stroke="rgb(0,0,0)" stroke-width="0.0010cm" stroke-linecap="round" stroke-linejoin="round" /><path d="M0.3592569,2.6948576 A0.45,0.45 124.317843 0,0 1.0213888,2.5120981 A0.3,0.3 88.8218596 1,0 0.8666619,1.9515271 A0.45,0.45 304.317843 0,0 0.20453,2.1342865 A0.3,0.3 268.8218596 1,0 0.3592569,2.6948576z" transform="matrix(1,0,0,-1,6.3590015,4.638359)" fill="rgb(255,255,255)" stroke="rgb(0,0,0)" stroke-width="0.0010cm" stroke-linecap="round" stroke-linejoin="round" /><path d="M-0.9333381,-0.9118729 A0.45,0.45 304.317843 0,0 -1.59547,-0.7291135 A0.3,0.3 268.8218596 1,0 -1.4407431,-0.1685424 A0.45,0.45 124.317843 0,0 -0.7786112,-0.3513019 A0.3,0.3 88.8218596 1,0 -0.9333381,-0.9118729z" transform="matrix(1,0,0,-1,6.3590015,4.638359)" fill="rgb(255,255,255)" stroke="rgb(0,0,0)" stroke-width="0.0010cm" stroke-linecap="round" stroke-linejoin="round" /><path d="M-3.4578548,-2.1617122 L-3.4490986,-1.8962755 -3.2148456,-1.7711401 -2.9893487,-1.9114415 -2.9981048,-2.1768783 -3.2323579,-2.3020136 -3.4578548,-2.1617122z" transform="matrix(1,0,0,-1,6.3590015,4.638359)" fill="rgb(255,255,255)" stroke="rgb(0,0,0)" stroke-width="0.0010cm" stroke-linecap="round" stroke-linejoin="round" /><path d="M-2.2150413,3.4793465 L-2.2787366,3.7371763 -2.087297,3.921253 -1.8321621,3.8474998 -1.7684669,3.5896699 -1.9599065,3.4055932 -2.2150413,3.4793465z" transform="matrix(1,0,0,-1,6.3590015,4.638359)" fill="rgb(255,255,255)" stroke="rgb(0,0,0)" stroke-width="0.0010cm" stroke-linecap="round" stroke-linejoin="round" /><path d="M1.7405044,3.335243 L1.6108415,3.5670206 1.7467354,3.7952008 2.0122921,3.7916033 2.141955,3.5598256 2.0060611,3.3316455 1.7405044,3.335243z" transform="matrix(1,0,0,-1,6.3590015,4.638359)" fill="rgb(255,255,255)" stroke="rgb(0,0,0)" stroke-width="0.0010cm" stroke-linecap="round" stroke-linejoin="round" /></svg>