<?xml version="1.0" encoding="utf-8"?>
<!-- Generator: Fusion 360, Shaper Origin Export Add-In, Version 1.6.10  -->
<svg xmlns="http://www.w3.org/2000/svg" xmlns:xlink="http://www.w3.org/1999/xlink" xmlns:shaper="http://www.shapertools.com/namespaces/shaper" shaper:fusionaddin="version:1.6.10" width="12.7180029cm" height="9.2182821cm" version="1.1" x="0cm" y="0cm" viewBox="0 0 12.7180029 9.2182821" enable-background="new 0 0 12.7180029 9.2182821" xml:space="preserve"><path d="M1.8939128,-3.9133031 A0.0837995,0.0837995 174.3020039 0,0 1.9775983,-3.8378241 L3.300156,-3.838611 A0.1825752,0.1825752 268.2290757 0,1 3.488176,-3.6646121 L3.4902028,-3.3578812 A0.5059341,0.5059341 179.3384009 0,0 3.5513986,-3.1224525 L3.5513986,0.502577 3.7763986,0.502577 3.7763986,-2.4578231 5.0589983,-2.4578231 5.0589983,0.502577 5.3600189,0.502577 5.3590015,-2.8560875 6.1590015,-2.8560875 A0.2,0.2 270 0,1 6.3590015,-2.6560875 L6.3590015,-0.925088 A7.8,7.8 0 0,1 4.1758935,4.4869841 L4.165058,4.4982296 A0.2668462,0.2668462 43.9360769 0,1 3.8466132,4.5481492 L2.4835983,3.7731769 0.8865983,3.3541769 A0.8105454,0.8105454 106.3668022 0,1 0.3056102,2.5331775 A0.9449649,0.9449649 6.044196 0,0 -1.0134017,1.5681769 L-3.1444017,2.6641769 A1.406961,1.406961 63.7900834 0,1 -3.8344011,2.8071645 L-5.1534017,2.8051769 A0.2156041,0.2156041 91.7807801 0,1 -5.3604778,2.6176935 A7.8,7.8 150.6900355 0,1 -6.3590015,-1.2006726 L-6.3590015,-1.8374231 A0.2,0.2 180 0,1 -6.1590015,-2.0374231 L-5.3608578,-2.0374231 -5.3629962,-2.3739529 -5.3629962,-4.4382171 A0.2,0.2 180 0,1 -5.1629962,-4.6382171 L-1.3462473,-4.6382171 -0.096064,-4.638271 A0.1825359,0.1825359 268.2224128 0,1 0.0919385,-4.4642713 L0.0933412,-4.1659976 A0.0787769,0.0787769 178.817616 0,0 0.1769883,-4.0889981 L1.7059506,-4.087308 A0.1825724,0.1825724 268.2273547 0,1 1.8939733,-3.9133091" transform="matrix(1,0,0,-1,6.3590015,4.5799231)" fill="rgb(0,0,0)" stroke-linecap="round" stroke-linejoin="round" /><path d="M-2.9414935,2.165647 L-2.9457696,1.9001003 -3.1778779,1.7710302 -3.40571,1.9075068 -3.4014339,2.1730535 -3.1693256,2.3021236 -2.9414935,2.165647z" transform="matrix(1,0,0,-1,6.3590015,4.5799231)" fill="rgb(255,255,255)" stroke="rgb(0,0,0)" stroke-width="0.0010cm" stroke-linecap="round" stroke-linejoin="round" /><path d="M-1.7080548,-3.6591607 L-1.8371369,-3.8912623 -2.1026839,-3.8955247 -2.2391487,-3.6676855 -2.1100665,-3.4355839 -1.8445196,-3.4313215 -1.7080548,-3.6591607z" transform="matrix(1,0,0,-1,6.3590015,4.5799231)" fill="rgb(255,255,255)" stroke="rgb(0,0,0)" stroke-width="0.0010cm" stroke-linecap="round" stroke-linejoin="round" /><path d="M0.7568245,1.9679258 L0.8919654,1.7392989 0.7615392,1.50795 0.495972,1.5052279 0.3608311,1.7338548 0.4912573,1.9652038 0.7568245,1.9679258z" transform="matrix(1,0,0,-1,6.3590015,4.5799231)" fill="rgb(255,255,255)" stroke="rgb(0,0,0)" stroke-width="0.0010cm" stroke-linecap="round" stroke-linejoin="round" /><path d="M5.0552696,2.6018503 L4.8241573,2.4710052 4.8006212,2.4848598 4.7766635,2.4709959 4.546531,2.6035567 4.5462658,2.8691377 4.7761331,3.0021579 4.8021676,2.9871615 4.8286393,3.0021486 5.0575106,2.867422 5.0552696,2.6018503z" transform="matrix(1,0,0,-1,6.3590015,4.5799231)" fill="rgb(255,255,255)" stroke="rgb(0,0,0)" stroke-width="0.0010cm" stroke-linecap="round" stroke-linejoin="round" /><path d="M2.0037048,-3.3093424 L2.1850919,-3.5033322 2.1077854,-3.7574129 1.8490917,-3.8175039 1.6677046,-3.6235141 1.7450111,-3.3694333 2.0037048,-3.3093424z" transform="matrix(1,0,0,-1,6.3590015,4.5799231)" fill="rgb(255,255,255)" stroke="rgb(0,0,0)" stroke-width="0.0010cm" stroke-linecap="round" stroke-linejoin="round" /><path d="M4.1264582,2.6420524 A0.45,0.45 329.317843 0,0 3.4491254,2.5278596 A0.3,0.3 293.8218596 1,0 3.3524481,3.1013 A0.45,0.45 149.317843 0,0 4.0297809,3.2154927 A0.3,0.3 113.8218596 1,0 4.1264582,2.6420524z" transform="matrix(1,0,0,-1,6.3590015,4.5799231)" fill="rgb(255,255,255)" stroke="rgb(0,0,0)" stroke-width="0.0010cm" stroke-linecap="round" stroke-linejoin="round" /><path d="M1.9912691,1.6953106 A0.45,0.45 304.317843 0,0 1.3291372,1.8780701 A0.3,0.3 268.8218596 1,0 1.4838641,2.4386411 A0.45,0.45 124.317843 0,0 2.145996,2.2558817 A0.3,0.3 88.8218596 1,0 1.9912691,1.6953106z" transform="matrix(1,0,0,-1,6.3590015,4.5799231)" fill="rgb(255,255,255)" stroke="rgb(0,0,0)" stroke-width="0.0010cm" stroke-linecap="round" stroke-linejoin="round" /><path d="M2.6620074,-0.0574679 A0.45,0.45 304.317843 0,0 1.9998755,0.1252916 A0.3,0.3 268.8218596 1,0 2.1546025,0.6858626 A0.45,0.45 124.317843 0,0 2.8167344,0.5031032 A0.3,0.3 88.8218596 1,0 2.6620074,-0.0574679z" transform="matrix(1,0,0,-1,6.3590015,4.5799231)" fill="rgb(255,255,255)" stroke="rgb(0,0,0)" stroke-width="0.0010cm" stroke-linecap="round" stroke-linejoin="round" /><path d="M1.3648248,0.67022 A0.45,0.45 304.317843 0,0 0.7026929,0.8529794 A0.3,0.3 268.8218596 1,0 0.8574198,1.4135504 A0.45,0.45 124.317843 0,0 1.5195517,1.230791 A0.3,0.3 88.8218596 1,0 1.3648248,0.67022z" transform="matrix(1,0,0,-1,6.3590015,4.5799231)" fill="rgb(255,255,255)" stroke="rgb(0,0,0)" stroke-width="0.0010cm" stroke-linecap="round" stroke-linejoin="round" /><path d="M-0.4638863,0.1640024 A0.45,0.45 304.317843 0,0 -1.1260182,0.3467618 A0.3,0.3 268.8218596 1,0 -0.9712913,0.9073328 A0.45,0.45 124.317843 0,0 -0.3091594,0.7245734 A0.3,0.3 88.8218596 1,0 -0.4638863,0.1640024z" transform="matrix(1,0,0,-1,6.3590015,4.5799231)" fill="rgb(255,255,255)" stroke="rgb(0,0,0)" stroke-width="0.0010cm" stroke-linecap="round" stroke-linejoin="round" /><path d="M1.3774802,-0.9939704 A0.45,0.45 304.317843 0,0 0.7153483,-0.811211 A0.3,0.3 268.8218596 1,0 0.8700753,-0.2506399 A0.45,0.45 124.317843 0,0 1.5322072,-0.4333994 A0.3,0.3 88.8218596 1,0 1.3774802,-0.9939704z" transform="matrix(1,0,0,-1,6.3590015,4.5799231)" fill="rgb(255,255,255)" stroke="rgb(0,0,0)" stroke-width="0.0010cm" stroke-linecap="round" stroke-linejoin="round" /><path d="M2.6366965,-1.7216582 A0.45,0.45 304.317843 0,0 1.9745646,-1.5388988 A0.3,0.3 268.8218596 1,0 2.1292916,-0.9783278 A0.45,0.45 124.317843 0,0 2.7914235,-1.1610872 A0.3,0.3 88.8218596 1,0 2.6366965,-1.7216582z" transform="matrix(1,0,0,-1,6.3590015,4.5799231)" fill="rgb(255,255,255)" stroke="rgb(0,0,0)" stroke-width="0.0010cm" stroke-linecap="round" stroke-linejoin="round" /><path d="M2.641657,-3.4611351 A0.45,0.45 299.317843 0,0 1.9979732,-3.2213626 A0.3,0.3 263.8218596 1,0 2.2009684,-2.67641 A0.45,0.45 119.317843 0,0 2.8446522,-2.9161826 A0.3,0.3 83.8218596 1,0 2.641657,-3.4611351z" transform="matrix(1,0,0,-1,6.3590015,4.5799231)" fill="rgb(255,255,255)" stroke="rgb(0,0,0)" stroke-width="0.0010cm" stroke-linecap="round" stroke-linejoin="round" /><path d="M1.3711525,-2.7024549 A0.45,0.45 304.317843 0,0 0.7090206,-2.5196954 A0.3,0.3 268.8218596 1,0 0.8637475,-1.9591244 A0.45,0.45 124.317843 0,0 1.5258795,-2.1418838 A0.3,0.3 88.8218596 1,0 1.3711525,-2.7024549z" transform="matrix(1,0,0,-1,6.3590015,4.5799231)" fill="rgb(255,255,255)" stroke="rgb(0,0,0)" stroke-width="0.0010cm" stroke-linecap="round" stroke-linejoin="round" /><path d="M-0.4449032,-1.5571375 A0.45,0.45 304.317843 0,0 -1.1070351,-1.3743781 A0.3,0.3 268.8218596 1,0 -0.9523081,-0.813807 A0.45,0.45 124.317843 0,0 -0.2901762,-0.9965665 A0.3,0.3 88.8218596 1,0 -0.4449032,-1.5571375z" transform="matrix(1,0,0,-1,6.3590015,4.5799231)" fill="rgb(255,255,255)" stroke="rgb(0,0,0)" stroke-width="0.0010cm" stroke-linecap="round" stroke-linejoin="round" /><path d="M-2.2518782,-2.5547439 A0.45,0.45 304.317843 0,0 -2.9140101,-2.3719844 A0.3,0.3 268.8218596 1,0 -2.7592831,-1.8114134 A0.45,0.45 124.317843 0,0 -2.0971512,-1.9941728 A0.3,0.3 88.8218596 1,0 -2.2518782,-2.5547439z" transform="matrix(1,0,0,-1,6.3590015,4.5799231)" fill="rgb(255,255,255)" stroke="rgb(0,0,0)" stroke-width="0.0010cm" stroke-linecap="round" stroke-linejoin="round" /><path d="M-2.1996034,-0.8446141 A0.45,0.45 304.317843 0,0 -2.8617353,-0.6618547 A0.3,0.3 268.8218596 1,0 -2.7070084,-0.1012836 A0.45,0.45 124.317843 0,0 -2.0448765,-0.2840431 A0.3,0.3 88.8218596 1,0 -2.1996034,-0.8446141z" transform="matrix(1,0,0,-1,6.3590015,4.5799231)" fill="rgb(255,255,255)" stroke="rgb(0,0,0)" stroke-width="0.0010cm" stroke-linecap="round" stroke-linejoin="round" /><path d="M-2.235648,0.8220852 A0.45,0.45 304.317843 0,0 -2.8977799,1.0048447 A0.3,0.3 268.8218596 1,0 -2.7430529,1.5654157 A0.45,0.45 124.317843 0,0 -2.080921,1.3826563 A0.3,0.3 88.8218596 1,0 -2.235648,0.8220852z" transform="matrix(1,0,0,-1,6.3590015,4.5799231)" fill="rgb(255,255,255)" stroke="rgb(0,0,0)" stroke-width="0.0010cm" stroke-linecap="round" stroke-linejoin="round" /><path d="M-3.9823997,1.9400188 A0.45,0.45 299.317843 0,0 -4.6260835,2.1797914 A0.3,0.3 263.8218596 1,0 -4.4230883,2.724744 A0.45,0.45 119.317843 0,0 -3.7794046,2.4849714 A0.3,0.3 83.8218596 1,0 -3.9823997,1.9400188z" transform="matrix(1,0,0,-1,6.3590015,4.5799231)" fill="rgb(255,255,255)" stroke="rgb(0,0,0)" stroke-width="0.0010cm" stroke-linecap="round" stroke-linejoin="round" /><path d="M-4.0517036,0.3601617 A0.45,0.45 304.317843 0,0 -4.7138355,0.5429211 A0.3,0.3 268.8218596 1,0 -4.5591086,1.1034922 A0.45,0.45 124.317843 0,0 -3.8969767,0.9207327 A0.3,0.3 88.8218596 1,0 -4.0517036,0.3601617z" transform="matrix(1,0,0,-1,6.3590015,4.5799231)" fill="rgb(255,255,255)" stroke="rgb(0,0,0)" stroke-width="0.0010cm" stroke-linecap="round" stroke-linejoin="round" /><path d="M-4.0453759,-1.3293396 A0.45,0.45 304.317843 0,0 -4.7075078,-1.1465802 A0.3,0.3 268.8218596 1,0 -4.5527809,-0.5860091 A0.45,0.45 124.317843 0,0 -3.890649,-0.7687685 A0.3,0.3 88.8218596 1,0 -4.0453759,-1.3293396z" transform="matrix(1,0,0,-1,6.3590015,4.5799231)" fill="rgb(255,255,255)" stroke="rgb(0,0,0)" stroke-width="0.0010cm" stroke-linecap="round" stroke-linejoin="round" /><path d="M-0.4564604,-3.2448576 A0.45,0.45 304.317843 0,0 -1.1185923,-3.0620981 A0.3,0.3 268.8218596 1,0 -0.9638654,-2.5015271 A0.45,0.45 124.317843 0,0 -0.3017334,-2.6842865 A0.3,0.3 88.8218596 1,0 -0.4564604,-3.2448576z" transform="matrix(1,0,0,-1,6.3590015,4.5799231)" fill="rgb(255,255,255)" stroke="rgb(0,0,0)" stroke-width="0.0010cm" stroke-linecap="round" stroke-linejoin="round" /><path d="M4.0231117,2.3667569 a0.2147841,0.2147841 0 1,1 0.4295681,0 a0.2147841,0.2147841 0 1,1 -0.4295681,0z" transform="matrix(1,0,0,-1,6.3590015,4.5799231)" fill="rgb(255,255,255)" stroke="rgb(0,0,0)" stroke-width="0.0010cm" stroke-linecap="round" stroke-linejoin="round" /><path d="M3.6869983,0.7169769 a0.15,0.15 0 1,1 0.3,0 a0.15,0.15 0 1,1 -0.3,0z" transform="matrix(1,0,0,-1,6.3590015,4.5799231)" fill="rgb(255,255,255)" stroke="rgb(0,0,0)" stroke-width="0.0010cm" stroke-linecap="round" stroke-linejoin="round" /><path d="M3.6869983,1.3569769 a0.15,0.15 0 1,1 0.3,0 a0.15,0.15 0 1,1 -0.3,0z" transform="matrix(1,0,0,-1,6.3590015,4.5799231)" fill="rgb(255,255,255)" stroke="rgb(0,0,0)" stroke-width="0.0010cm" stroke-linecap="round" stroke-linejoin="round" /></svg>