<?xml version="1.0" encoding="utf-8"?>
<!-- Generator: Fusion 360, Shaper Origin Export Add-In, Version 1.6.10  -->
<svg xmlns="http://www.w3.org/2000/svg" xmlns:xlink="http://www.w3.org/1999/xlink" xmlns:shaper="http://www.shapertools.com/namespaces/shaper" shaper:fusionaddin="version:1.6.10" width="12.7180029cm" height="9.2182821cm" version="1.1" x="0cm" y="0cm" viewBox="0 0 12.7180029 9.2182821" enable-background="new 0 0 12.7180029 9.2182821" xml:space="preserve"><path d="M-1.8939128,3.9133031 A0.0837995,0.0837995 354.3020039 0,0 -1.9775983,3.8378241 L-3.300156,3.838611 A0.1825752,0.1825752 88.2290757 0,1 -3.488176,3.6646121 L-3.4902028,3.3578812 A0.5059341,0.5059341 359.3384009 0,0 -3.5513986,3.1224525 L-3.5513986,3.1224525 -3.5769041,3.0901814 -3.6025592,3.0600187 -3.6283627,3.031971 -3.6543114,3.0060467 -3.6803984,2.9822537 -3.7066118,2.9605978 -3.7329333,2.9410798 -3.759337,2.9236937 -3.7857876,2.9084233 -3.8122391,2.8952401 -3.8386331,2.8841002 -3.8648978,2.8749419 -3.8909462,2.8676829 -3.9166742,2.8622163 -3.941959,2.8584067 -3.966657,2.8560875 -6.1590015,2.8560875 A0.2,0.2 90 0,1 -6.3590015,2.6560875 L-6.3590015,0.925088 A7.8,7.8 180 0,1 -4.1758935,-4.4869841 L-4.165058,-4.4982296 A0.2668462,0.2668462 223.9360769 0,1 -3.8466132,-4.5481492 L-2.4835983,-3.7731769 -0.8865983,-3.3541769 A0.8105454,0.8105454 286.3668022 0,1 -0.3056102,-2.5331775 A0.9449649,0.9449649 186.044196 0,0 1.0134017,-1.5681769 L3.1444017,-2.6641769 A1.406961,1.406961 243.7900834 0,1 3.8344011,-2.8071645 L5.1534017,-2.8051769 A0.2156041,0.2156041 271.7807801 0,1 5.3604778,-2.6176935 A7.8,7.8 330.6900355 0,1 6.3590015,1.2006726 L6.3590015,1.8374231 A0.2,0.2 0 0,1 6.1590015,2.0374231 L5.3608578,2.0374231 5.3629962,2.3739529 5.3629962,4.4382171 A0.2,0.2 0 0,1 5.1629962,4.6382171 L1.3462473,4.6382171 0.096064,4.638271 A0.1825359,0.1825359 88.2224128 0,1 -0.0919385,4.4642713 L-0.0933412,4.1659976 A0.0787769,0.0787769 358.817616 0,0 -0.1769883,4.0889981 L-1.7059506,4.087308 A0.1825724,0.1825724 88.2273547 0,1 -1.8939733,3.9133091" transform="matrix(1,0,0,-1,6.3590015,4.638359)" fill="rgb(0,0,0)" stroke-linecap="round" stroke-linejoin="round" /><path d="M-0.7655988,-1.7365769 a0.16,0.16 0 1,1 0.32,0 a0.16,0.16 0 1,1 -0.32,0z" transform="matrix(1,0,0,-1,6.3590015,4.638359)" fill="rgb(255,255,255)" stroke="rgb(0,0,0)" stroke-width="0.0010cm" stroke-linecap="round" stroke-linejoin="round" /><path d="M3.0344012,-2.0365769 a0.16,0.16 0 1,1 0.32,0 a0.16,0.16 0 1,1 -0.32,0z" transform="matrix(1,0,0,-1,6.3590015,4.638359)" fill="rgb(255,255,255)" stroke="rgb(0,0,0)" stroke-width="0.0010cm" stroke-linecap="round" stroke-linejoin="round" /><path d="M1.8344012,3.6634231 a0.16,0.16 0 1,1 0.32,0 a0.16,0.16 0 1,1 -0.32,0z" transform="matrix(1,0,0,-1,6.3590015,4.638359)" fill="rgb(255,255,255)" stroke="rgb(0,0,0)" stroke-width="0.0010cm" stroke-linecap="round" stroke-linejoin="round" /><path d="M-4.9655988,-2.7365769 a0.16,0.16 0 1,1 0.32,0 a0.16,0.16 0 1,1 -0.32,0z" transform="matrix(1,0,0,-1,6.3590015,4.638359)" fill="rgb(255,255,255)" stroke="rgb(0,0,0)" stroke-width="0.0010cm" stroke-linecap="round" stroke-linejoin="round" /><path d="M-2.0655988,3.5634231 a0.16,0.16 0 1,1 0.32,0 a0.16,0.16 0 1,1 -0.32,0z" transform="matrix(1,0,0,-1,6.3590015,4.638359)" fill="rgb(255,255,255)" stroke="rgb(0,0,0)" stroke-width="0.0010cm" stroke-linecap="round" stroke-linejoin="round" /></svg>