0
SECTION
2
HEADER
9
$INSUNITS
70
1
9
$ACADVER
1
AC1014
9
$HANDSEED
5
FFFF
0
ENDSEC
0
SECTION
2
TABLES
0
TABLE
2
VPORT
5
8
100
AcDbSymbolTable
0
ENDTAB
0
TABLE
2
LTYPE
5
5
100
AcDbSymbolTable
0
LTYPE
5
14
100
AcDbSymbolTableRecord
100
AcDbLinetypeTableRecord
2
BYBLOCK
70
0
0
LTYPE
5
15
100
AcDbSymbolTableRecord
100
AcDbLinetypeTableRecord
2
BYLAYER
70
0
0
ENDTAB
0
TABLE
2
LAYER
5
2
100
AcDbSymbolTable
70
2
0
LAYER
5
50
100
AcDbSymbolTableRecord
100
AcDbLayerTableRecord
2
0
70
0
6
CONTINUOUS
0
ENDTAB
0
TABLE
2
STYLE
5
3
100
AcDbSymbolTable
70
1
0
STYLE
5
11
100
AcDbSymbolTableRecord
100
AcDbTextStyleTableRecord
2
STANDARD
70
0
0
ENDTAB
0
TABLE
2
VIEW
5
6
100
AcDbSymbolTable
70
0
0
ENDTAB
0
TABLE
2
UCS
5
7
100
AcDbSymbolTable
70
0
0
ENDTAB
0
TABLE
2
APPID
5
9
100
AcDbSymbolTable
70
2
0
APPID
5
12
100
AcDbSymbolTableRecord
100
AcDbRegAppTableRecord
2
ACAD
70
0
0
ENDTAB
0
TABLE
2
DIMSTYLE
5
A
100
AcDbSymbolTable
70
1
0
ENDTAB
0
TABLE
2
BLOCK_RECORD
5
1
100
AcDbSymbolTable
70
1
0
BLOCK_RECORD
5
1F
100
AcDbSymbolTableRecord
100
AcDbBlockTableRecord
2
*MODEL_SPACE
0
BLOCK_RECORD
5
1B
100
AcDbSymbolTableRecord
100
AcDbBlockTableRecord
2
*PAPER_SPACE
0
ENDTAB
0
ENDSEC
0
SECTION
2
BLOCKS
0
BLOCK
5
20
100
AcDbEntity
100
AcDbBlockBegin
2
*MODEL_SPACE
0
ENDBLK
5
21
100
AcDbEntity
100
AcDbBlockEnd
0
BLOCK
5
1C
100
AcDbEntity
100
AcDbBlockBegin
2
*PAPER_SPACE
0
ENDBLK
5
1D
100
AcDbEntity
100
AcDbBlockEnd
0
ENDSEC
0
SECTION
2
ENTITIES
0
ARC
5
100
100
AcDbEntity
8
0
100
AcDbCircle
10
6.13677079496098
20
-10.298680157482071
30
0
40
0.11811023622047132
210
0
220
-0
230
1
100
AcDbArc
50
90
51
180
0
LINE
5
101
100
AcDbEntity
8
0
100
AcDbLine
10
6.0186605587405078
20
-10.997401692737808
30
0
11
6.0186605587405078
21
-10.298680157482071
31
0
0
LINE
5
102
100
AcDbEntity
8
0
100
AcDbLine
10
6.13677079496098
20
-10.180569921261601
30
0
11
7.4263445302258484
21
-10.180569921261599
31
0
0
LWPOLYLINE
5
103
100
AcDbEntity
8
0
100
AcDbPolyline
90
10
70
1
43
0.0
10
6.7822047244094472
20
-10.725669291338582
10
6.7822047244094472
20
-11.190236220472439
42
0.4142135623733656
10
6.8215748031496055
20
-11.229606299212595
10
7.0085292167729527
20
-11.229606299212596
42
0.45598332434333966
10
7.099187318660114
20
-11.229606299212596
10
7.286141732283463
20
-11.229606299212596
42
0.4142135623733656
10
7.3255118110236204
20
-11.190236220472439
10
7.3255118110236204
20
-10.725669291338582
42
0.4142135623733656
10
7.286141732283463
20
-10.686299212598426
10
6.8215748031496055
20
-10.686299212598424
42
0.4142135623733656
0
ARC
5
104
100
AcDbEntity
8
0
100
AcDbCircle
10
6.0904724409455957
20
-10.999015748031503
30
0
40
0.071830018796660358
210
0
220
0
230
1
100
AcDbArc
50
178.71242772913962
51
181.28757227085896
0
LINE
5
105
100
AcDbEntity
8
0
100
AcDbLine
10
7.4263445302258484
20
-10.180569921261599
30
0
11
8.0920228619418886
21
-10.180533163037399
31
0
0
ARC
5
106
100
AcDbEntity
8
0
100
AcDbCircle
10
8.0942519685039382
20
-10.252362204724406
30
0
40
0.07186362185208571
210
0
220
-0
230
1
100
AcDbArc
50
2.6526164255434521
51
91.777518087894506
0
LINE
5
107
100
AcDbEntity
8
0
100
AcDbLine
10
8.1660385877938069
20
-10.249036330909767
30
0
11
8.1665917322834609
21
-10.366466535433069
31
0
0
ARC
5
108
100
AcDbEntity
8
0
100
AcDbCircle
10
8.1975984251968477
20
-10.365826771653543
30
0
40
0.031013292361803186
210
0
220
0
230
1
100
AcDbArc
50
181.18202106020942
51
273.55870772155367
0
LINE
5
109
100
AcDbEntity
8
0
100
AcDbLine
10
8.1995235011310061
20
-10.396781653187482
30
0
11
8.8014778275982639
21
-10.39745552846929
31
0
0
ARC
5
110
100
AcDbEntity
8
0
100
AcDbCircle
10
8.8037007874015707
20
-10.469291338582675
30
0
40
0.07187019663893697
210
0
220
-0
230
1
100
AcDbArc
50
2.6640871632768208
51
91.77245280417425
0
ARC
5
111
100
AcDbEntity
8
0
100
AcDbCircle
10
8.9083070866141707
20
-10.462677165354329
30
0
40
0.03297666945268897
210
0
220
0
230
1
100
AcDbArc
50
185.69718440681507
51
270.20495890397603
0
LINE
5
112
100
AcDbEntity
8
0
100
AcDbLine
10
8.9084250833323146
20
-10.495669291404296
30
0
11
9.4291175632741719
21
-10.495366832027951
31
0
0
ARC
5
113
100
AcDbEntity
8
0
100
AcDbCircle
10
9.4313385826771654
20
-10.567204724409441
30
0
40
0.07187221792160832
210
0
220
-0
230
1
100
AcDbArc
50
29.556201266628602
51
91.770855334494129
0
LINE
5
114
100
AcDbEntity
8
0
100
AcDbLine
10
9.4938582313436175
20
-10.531751808597138
30
0
11
9.4938582313436193
21
-12.874015804937505
31
0
0
LINE
5
115
100
AcDbEntity
8
0
100
AcDbLine
10
9.4938582313436193
20
-12.874015804937505
30
0
11
10.096501757965999
21
-13.232216520706903
31
0
0
LINE
5
116
100
AcDbEntity
8
0
100
AcDbLine
10
10.096501757965999
20
-13.232216520706903
30
0
11
9.7789076550339349
21
-13.766542728889762
31
0
0
ARC
5
117
100
AcDbEntity
8
0
100
AcDbCircle
10
9.6939763779527528
20
-13.704685039370071
30
0
40
0.10506995564571385
210
0
220
0
230
1
100
AcDbArc
50
241.75449849616626
51
323.93316128200991
0
LINE
5
118
100
AcDbEntity
8
0
100
AcDbLine
10
9.6442519685039354
20
-13.797244094488189
30
0
11
9.1076377952755898
21
-13.492125984251965
31
0
0
LINE
5
119
100
AcDbEntity
8
0
100
AcDbLine
10
9.1076377952755898
20
-13.492125984251965
30
0
11
8.4788963101678316
21
-13.327169874889764
31
0
0
ARC
5
120
100
AcDbEntity
8
0
100
AcDbCircle
10
8.5688188976377955
20
-13.020984251968502
30
0
40
0.31911707478827078
210
0
220
0
230
1
100
AcDbArc
50
176.93780005775147
51
253.63319782647068
0
ARC
5
121
100
AcDbEntity
8
0
100
AcDbCircle
10
7.8801968503937001
20
-12.964763779527559
30
0
40
0.37202877511129606
210
0
220
0
230
1
100
AcDbArc
50
-6.0442340361536244
51
113.66527384967337
0
LINE
5
122
100
AcDbEntity
8
0
100
AcDbLine
10
7.7308652255259727
20
-12.624016219253082
30
0
11
6.8918919141870063
21
-13.055516179318897
31
0
0
ARC
5
123
100
AcDbEntity
8
0
100
AcDbCircle
10
6.6472440944881859
20
-12.558543307086602
30
0
40
0.55392652167882894
210
0
220
0
230
1
100
AcDbArc
50
267.20531351947363
51
296.20991659589941
0
LINE
5
124
100
AcDbEntity
8
0
100
AcDbLine
10
6.6202362204724379
20
-13.111811023622055
30
0
11
6.1009443509669268
21
-13.111040698748031
31
0
0
ARC
5
125
100
AcDbEntity
8
0
100
AcDbCircle
10
6.1035826771653561
20
-13.026181102362202
30
0
40
0.084900599905671476
210
0
220
0
230
1
100
AcDbArc
50
170.12215107064816
51
268.21921992870892
0
LINE
5
126
100
AcDbEntity
8
0
100
AcDbLine
10
6.0199406673643869
20
-13.011616554281416
30
0
11
6.0205511811023618
21
-12.546220472440943
31
0
0
LINE
5
127
100
AcDbEntity
8
0
100
AcDbLine
10
6.0205511811023618
20
-12.546220472440943
30
0
11
6.0205511811023618
21
-11.406220472440943
31
0
0
LINE
5
128
100
AcDbEntity
8
0
100
AcDbLine
10
6.0205511811023618
20
-11.406220472440943
30
0
11
6.0184273622047231
21
-11.071996141732281
31
0
0
LINE
5
129
100
AcDbEntity
8
0
100
AcDbLine
10
6.0184273622047231
20
-11.071996141732281
30
0
11
6.0186605587405078
21
-11.000629803325197
31
0
0
LWPOLYLINE
5
130
100
AcDbEntity
8
0
100
AcDbPolyline
90
10
70
1
43
0.0
10
9.413228346456691
20
-10.725669291338582
10
9.2262739328333438
20
-10.725669291338582
42
0.45598332434333966
10
9.1356158309461826
20
-10.725669291338582
10
8.9486614173228336
20
-10.725669291338582
42
0.4142135623733656
10
8.909291338582678
20
-10.765039370078739
10
8.9092913385826762
20
-11.229606299212596
42
0.41421356237337598
10
8.9486614173228336
20
-11.268976377952752
10
9.413228346456691
20
-11.268976377952754
42
0.4142135623733656
10
9.4525984251968467
20
-11.229606299212596
10
9.4525984251968485
20
-10.765039370078737
42
0.41421356237335516
0
LWPOLYLINE
5
131
100
AcDbEntity
8
0
100
AcDbPolyline
90
10
70
1
43
0.0
10
9.413228346456691
20
-11.394566929133857
10
9.2262739328333438
20
-11.394566929133857
42
0.45598332434335487
10
9.1356158309461808
20
-11.394566929133857
10
8.9486614173228336
20
-11.394566929133857
42
0.4142135623733656
10
8.909291338582678
20
-11.433937007874015
10
8.9092913385826762
20
-11.898503937007874
42
0.41421356237335516
10
8.9486614173228336
20
-11.937874015748028
10
9.413228346456691
20
-11.937874015748031
42
0.4142135623733656
10
9.4525984251968467
20
-11.898503937007872
10
9.4525984251968485
20
-11.433937007874015
42
0.4142135623733656
0
LWPOLYLINE
5
132
100
AcDbEntity
8
0
100
AcDbPolyline
90
10
70
1
43
0.0
10
9.413228346456691
20
-12.064566929133857
10
9.2262739328333438
20
-12.064566929133857
42
0.45598332434335415
10
9.1356158309461808
20
-12.064566929133859
10
8.9486614173228336
20
-12.064566929133857
42
0.4142135623733656
10
8.909291338582678
20
-12.103937007874014
10
8.9092913385826762
20
-12.568503937007872
42
0.4142135623733656
10
8.9486614173228336
20
-12.607874015748028
10
9.413228346456691
20
-12.607874015748031
42
0.4142135623733656
10
9.4525984251968467
20
-12.568503937007872
10
9.4525984251968485
20
-12.103937007874014
42
0.4142135623733656
0
LWPOLYLINE
5
133
100
AcDbEntity
8
0
100
AcDbPolyline
90
10
70
1
43
0.0
10
9.1570399128470612
20
-12.83047811672102
10
8.97645581638956
20
-12.782090753909236
42
0.45598332434565814
10
8.8888868144141266
20
-12.758626710547873
10
8.7083027179569203
20
-12.710239347736168
42
0.41421356237335977
10
8.6600844159336194
20
-12.738078197389157
10
8.5398456469487627
20
-13.186815392279296
42
0.41421356237334706
10
8.5676844966017551
20
-13.235033694302599
10
9.0164216914918942
20
-13.355272463287454
42
0.41421356237335977
10
9.0646399935151951
20
-13.327433613634463
10
9.1848787625000519
20
-12.878696418744324
42
0.4142135623733571
0
LWPOLYLINE
5
134
100
AcDbEntity
8
0
100
AcDbPolyline
90
10
70
1
43
0.0
10
9.9300610189893224
20
-13.228599398184615
10
9.7681537474424722
20
-13.135122191373238
42
0.4559833243759796
10
9.6896415281456409
20
-13.089793140427512
10
9.5277342566013257
20
-12.996315933617597
42
0.41421356237335433
10
9.473953728893278
20
-13.010726382585478
10
9.2416702643262596
20
-13.413053144973471
42
0.41421356237339313
10
9.2560807132941409
20
-13.466833672681524
10
9.6584074756821323
20
-13.699117137248541
42
0.41421356237335433
10
9.7121880033901817
20
-13.684706688280659
10
9.9444714679572019
20
-13.282379925892664
42
0.41421356237337514
0
LWPOLYLINE
5
135
100
AcDbEntity
8
0
100
AcDbPolyline
90
10
70
1
43
0.0
10
8.2394488188976354
20
-12.50787401574803
10
8.4264032325209843
20
-12.50787401574803
42
0.45598332434334499
10
8.5170613344081456
20
-12.50787401574803
10
8.7040157480314946
20
-12.50787401574803
42
0.4142135623733656
10
8.7433858267716484
20
-12.468503937007872
10
8.7433858267716502
20
-12.003937007874013
42
0.41421356237335516
10
8.7040157480314946
20
-11.964566929133859
10
8.2394488188976354
20
-11.964566929133857
42
0.4142135623733656
10
8.2000787401574797
20
-12.003937007874015
10
8.2000787401574797
20
-12.468503937007871
42
0.41421356237337598
0
LWPOLYLINE
5
136
100
AcDbEntity
8
0
100
AcDbPolyline
90
10
70
1
43
0.0
10
8.2394488188976354
20
-11.83787401574803
10
8.4264032325209843
20
-11.83787401574803
42
0.45598332434334499
10
8.5170613344081456
20
-11.837874015748032
10
8.7040157480314946
20
-11.83787401574803
42
0.4142135623733656
10
8.7433858267716484
20
-11.798503937007871
10
8.7433858267716502
20
-11.333937007874013
42
0.41421356237335516
10
8.7040157480314946
20
-11.294566929133859
10
8.2394488188976354
20
-11.294566929133858
42
0.4142135623733656
10
8.2000787401574797
20
-11.333937007874015
10
8.2000787401574797
20
-11.798503937007871
42
0.4142135623733656
0
LWPOLYLINE
5
137
100
AcDbEntity
8
0
100
AcDbPolyline
90
10
70
1
43
0.0
10
8.2394488188976354
20
-11.170551181102361
10
8.4264032325209843
20
-11.170551181102361
42
0.45598332434333505
10
8.5170613344081438
20
-11.170551181102361
10
8.7040157480314946
20
-11.170551181102361
42
0.4142135623733656
10
8.7433858267716484
20
-11.131181102362204
10
8.7433858267716502
20
-10.666614173228345
42
0.41421356237335516
10
8.7040157480314946
20
-10.627244094488191
10
8.2394488188976354
20
-10.627244094488187
42
0.4142135623733656
10
8.2000787401574797
20
-10.666614173228345
10
8.2000787401574797
20
-11.131181102362202
42
0.41421356237337598
0
LWPOLYLINE
5
138
100
AcDbEntity
8
0
100
AcDbPolyline
90
10
70
1
43
0.0
10
7.5312598425196828
20
-12.297874015748029
10
7.7182142561430327
20
-12.297874015748029
42
0.45598332434334499
10
7.8088723580301931
20
-12.297874015748031
10
7.9958267716535412
20
-12.297874015748029
42
0.4142135623733656
10
8.0351968503936959
20
-12.258503937007871
10
8.0351968503936977
20
-11.793937007874012
42
0.41421356237335516
10
7.9958267716535412
20
-11.754566929133858
10
7.5312598425196828
20
-11.754566929133857
42
0.4142135623733656
10
7.4918897637795281
20
-11.793937007874014
10
7.4918897637795263
20
-12.258503937007871
42
0.41421356237337598
0
LWPOLYLINE
5
139
100
AcDbEntity
8
0
100
AcDbPolyline
90
10
70
1
43
0.0
10
7.5312598425196828
20
-11.627874015748031
10
7.7182142561430327
20
-11.627874015748031
42
0.45598332434333505
10
7.8088723580301922
20
-11.627874015748031
10
7.9958267716535412
20
-11.627874015748031
42
0.4142135623733656
10
8.0351968503936959
20
-11.588503937007873
10
8.0351968503936977
20
-11.123937007874014
42
0.41421356237335516
10
7.9958267716535412
20
-11.08456692913386
10
7.5312598425196828
20
-11.084566929133857
42
0.4142135623733656
10
7.4918897637795281
20
-11.123937007874014
10
7.4918897637795263
20
-11.588503937007872
42
0.41421356237337598
0
LWPOLYLINE
5
140
100
AcDbEntity
8
0
100
AcDbPolyline
90
10
70
1
43
0.0
10
7.5312598425196828
20
-10.954015748031495
10
7.7182142561430327
20
-10.954015748031495
42
0.45598332434333505
10
7.8088723580301922
20
-10.954015748031495
10
7.9958267716535412
20
-10.954015748031495
42
0.4142135623733656
10
8.0351968503936959
20
-10.914645669291337
10
8.0351968503936977
20
-10.45007874015748
42
0.4142135623733656
10
7.9958267716535412
20
-10.410708661417324
10
7.5312598425196828
20
-10.410708661417321
42
0.4142135623733656
10
7.4918897637795281
20
-10.45007874015748
10
7.4918897637795263
20
-10.914645669291337
42
0.4142135623733656
0
LWPOLYLINE
5
141
100
AcDbEntity
8
0
100
AcDbPolyline
90
10
70
1
43
0.0
10
6.8215748031496055
20
-11.89787401574803
10
7.0085292167729527
20
-11.89787401574803
42
0.45598332434334959
10
7.0991873186601158
20
-11.89787401574803
10
7.286141732283463
20
-11.89787401574803
42
0.4142135623733656
10
7.3255118110236186
20
-11.858503937007871
10
7.3255118110236204
20
-11.393937007874015
42
0.4142135623733656
10
7.286141732283463
20
-11.35456692913386
10
6.8215748031496055
20
-11.354566929133856
42
0.4142135623733656
10
6.7822047244094499
20
-11.393937007874015
10
6.7822047244094454
20
-11.858503937007873
42
0.41421356237335516
0
LWPOLYLINE
5
142
100
AcDbEntity
8
0
100
AcDbPolyline
90
10
70
1
43
0.0
10
6.8215748031496055
20
-12.567874015748028
10
7.0085292167729527
20
-12.567874015748028
42
0.45598332434334959
10
7.0991873186601158
20
-12.56787401574803
10
7.286141732283463
20
-12.567874015748028
42
0.4142135623733656
10
7.3255118110236186
20
-12.528503937007873
10
7.3255118110236204
20
-12.063937007874014
42
0.4142135623733656
10
7.286141732283463
20
-12.02456692913386
10
6.8215748031496055
20
-12.024566929133858
42
0.4142135623733656
10
6.7822047244094499
20
-12.063937007874014
10
6.7822047244094454
20
-12.528503937007873
42
0.4142135623733656
0
LWPOLYLINE
5
143
100
AcDbEntity
8
0
100
AcDbPolyline
90
10
70
1
43
0.0
10
6.1122047244094482
20
-13.040629921259841
10
6.2991591380327954
20
-13.040629921259841
42
0.45598332434335487
10
6.3898172399199575
20
-13.040629921259843
10
6.5767716535433056
20
-13.040629921259841
42
0.41421356237337598
10
6.6161417322834595
20
-13.001259842519682
10
6.6161417322834621
20
-12.536692913385824
42
0.41421356237335516
10
6.5767716535433056
20
-12.49732283464567
10
6.1122047244094482
20
-12.497322834645667
42
0.41421356237336038
10
6.0728346456692934
20
-12.536692913385826
10
6.072834645669289
20
-13.001259842519682
42
0.41421356237337076
0
LWPOLYLINE
5
144
100
AcDbEntity
8
0
100
AcDbPolyline
90
10
70
1
43
0.0
10
6.1122047244094482
20
-12.371338582677163
10
6.2991591380327963
20
-12.371338582677163
42
0.45598332434334732
10
6.3898172399199575
20
-12.371338582677165
10
6.5767716535433056
20
-12.371338582677163
42
0.4142135623733656
10
6.6161417322834613
20
-12.331968503937006
10
6.6161417322834621
20
-11.867401574803148
42
0.41421356237337598
10
6.5767716535433056
20
-11.828031496062993
10
6.1122047244094482
20
-11.828031496062991
42
0.41421356237336038
10
6.0728346456692934
20
-11.867401574803148
10
6.072834645669289
20
-12.331968503937007
42
0.41421356237334994
0
LWPOLYLINE
5
145
100
AcDbEntity
8
0
100
AcDbPolyline
90
10
70
1
43
0.0
10
6.1122047244094482
20
-11.702047244094487
10
6.2991591380327963
20
-11.702047244094487
42
0.45598332434333733
10
6.3898172399199566
20
-11.702047244094487
10
6.5767716535433056
20
-11.702047244094487
42
0.4142135623733656
10
6.6161417322834613
20
-11.662677165354328
10
6.6161417322834621
20
-11.198110236220472
42
0.4142135623733656
10
6.5767716535433056
20
-11.158740157480317
10
6.1122047244094482
20
-11.158740157480313
42
0.41421356237336038
10
6.0728346456692934
20
-11.198110236220472
10
6.0728346456692908
20
-11.66267716535433
42
0.41421356237334994
0
CIRCLE
5
146
100
AcDbEntity
8
0
100
AcDbCircle
10
8.3562992125984259
20
-12.690551181102359
30
0
40
0.062992125984252023
210
0
220
0
230
1
0
CIRCLE
5
147
100
AcDbEntity
8
0
100
AcDbCircle
10
6.8602362204724407
20
-12.808661417322833
30
0
40
0.062992125984252023
210
0
220
0
230
1
0
CIRCLE
5
148
100
AcDbEntity
8
0
100
AcDbCircle
10
8.8681102362204722
20
-10.603937007874014
30
0
40
0.062992125984252023
210
0
220
0
230
1
0
CIRCLE
5
149
100
AcDbEntity
8
0
100
AcDbCircle
10
7.3326771653543297
20
-10.564566929133857
30
0
40
0.062992125984252023
210
0
220
0
230
1
0
CIRCLE
5
150
100
AcDbEntity
8
0
100
AcDbCircle
10
6.5846456692913389
20
-11.037007874015746
30
0
40
0.062992125984252023
210
0
220
0
230
1
0
ARC
5
151
100
AcDbEntity
8
0
100
AcDbCircle
10
5.798032354645275
20
-10.298679937859823
30
0
40
0.11811023622047272
210
0
220
-0
230
1
100
AcDbArc
50
0
51
90
0
LINE
5
152
100
AcDbEntity
8
0
100
AcDbLine
10
4.5084586193865164
20
-10.180569701639349
30
0
11
5.798032354645275
21
-10.180569701639351
31
0
0
LINE
5
153
100
AcDbEntity
8
0
100
AcDbLine
10
5.9161425908657472
20
-10.298679937859823
30
0
11
5.9161425908657472
21
-10.99740169273594
31
0
0
LWPOLYLINE
5
154
100
AcDbEntity
8
0
100
AcDbPolyline
90
10
70
1
43
0.0
10
4.6092913385826773
20
-10.725669291338582
10
4.6092913385826799
20
-11.190236220472439
42
0.4142135623733656
10
4.6486614173228347
20
-11.229606299212593
10
4.8356158309461836
20
-11.229606299212596
42
0.45598332434333966
10
4.926273932833344
20
-11.229606299212596
10
5.113228346456693
20
-11.229606299212596
42
0.4142135623733656
10
5.1525984251968504
20
-11.190236220472439
10
5.1525984251968469
20
-10.725669291338582
42
0.4142135623733656
10
5.113228346456693
20
-10.686299212598428
10
4.6486614173228347
20
-10.686299212598426
42
0.4142135623733656
0
ARC
5
155
100
AcDbEntity
8
0
100
AcDbCircle
10
5.8443307086614169
20
-10.999015748031495
30
0
40
0.071830018795945208
210
0
220
0
230
1
100
AcDbArc
50
-1.2875722708787722
51
1.2875722723570777
0
LINE
5
156
100
AcDbEntity
8
0
100
AcDbLine
10
5.9161425908657899
20
-11.000629803325197
30
0
11
5.916375787401555
21
-11.071996141732281
31
0
0
LINE
5
157
100
AcDbEntity
8
0
100
AcDbLine
10
5.916375787401555
20
-11.071996141732281
30
0
11
5.9142519685039368
21
-11.406220472440943
31
0
0
LINE
5
158
100
AcDbEntity
8
0
100
AcDbLine
10
5.9142519685039368
20
-11.406220472440943
30
0
11
5.9142519685039368
21
-12.546220472440943
31
0
0
LINE
5
159
100
AcDbEntity
8
0
100
AcDbLine
10
5.9142519685039368
20
-12.546220472440943
30
0
11
5.9148624823022375
21
-13.011616554276163
31
0
0
ARC
5
160
100
AcDbEntity
8
0
100
AcDbCircle
10
5.8312204724409451
20
-13.026181102362203
30
0
40
0.084900599905668866
210
0
220
0
230
1
100
AcDbArc
50
-88.219219928712093
51
9.8778489258616489
0
LINE
5
161
100
AcDbEntity
8
0
100
AcDbLine
10
5.8338587986394517
20
-13.111040698750667
30
0
11
5.3145669291338553
21
-13.111811023619406
31
0
0
ARC
5
162
100
AcDbEntity
8
0
100
AcDbCircle
10
5.28755905511811
20
-12.558543307086612
30
0
40
0.55392652167881873
210
0
220
0
230
1
100
AcDbArc
50
243.79008340410022
51
272.7946864805395
0
LINE
5
163
100
AcDbEntity
8
0
100
AcDbLine
10
5.0429112354188907
20
-13.055516179319708
30
0
11
4.203937924080325
21
-12.624016219253082
31
0
0
ARC
5
164
100
AcDbEntity
8
0
100
AcDbCircle
10
4.0546062992125984
20
-12.964763779527559
30
0
40
0.3720287751112985
210
0
220
-0
230
1
100
AcDbArc
50
66.334726150326887
51
186.04423403615345
0
ARC
5
165
100
AcDbEntity
8
0
100
AcDbCircle
10
3.3659842519685035
20
-13.020984251968503
30
0
40
0.31911707478826773
210
0
220
0
230
1
100
AcDbArc
50
-73.633197826471104
51
3.0621999422488737
0
LINE
5
166
100
AcDbEntity
8
0
100
AcDbLine
10
3.4559068394386623
20
-13.327169874890437
30
0
11
2.8271653543305044
21
-13.49212598425119
31
0
0
LINE
5
167
100
AcDbEntity
8
0
100
AcDbLine
10
2.8271653543305044
20
-13.49212598425119
30
0
11
2.2905511811023058
21
-13.797244094488088
31
0
0
ARC
5
168
100
AcDbEntity
8
0
100
AcDbCircle
10
2.2408267716535435
20
-13.704685039370077
30
0
40
0.10506995564570872
210
0
220
0
230
1
100
AcDbArc
50
216.06683871798754
51
298.24550150383482
0
LINE
5
169
100
AcDbEntity
8
0
100
AcDbLine
10
2.1558954945722193
20
-13.766542728889865
30
0
11
1.8383013916401685
21
-13.232216520706981
31
0
0
LINE
5
170
100
AcDbEntity
8
0
100
AcDbLine
10
1.8383013916401685
20
-13.232216520706981
30
0
11
2.4409449182626766
21
-12.874015804937505
31
0
0
LINE
5
171
100
AcDbEntity
8
0
100
AcDbLine
10
2.4409449182626766
20
-10.531751808597138
30
0
11
2.4409449182626766
21
-12.874015804937505
31
0
0
ARC
5
172
100
AcDbEntity
8
0
100
AcDbCircle
10
2.503464566929134
20
-10.567204724409446
30
0
40
0.071872217921614134
210
0
220
-0
230
1
100
AcDbArc
50
88.229144665507263
51
150.44379873336979
0
LINE
5
173
100
AcDbEntity
8
0
100
AcDbLine
10
2.505685586332119
20
-10.495366832028173
30
0
11
3.0263780662739816
21
-10.495669291404296
31
0
0
ARC
5
174
100
AcDbEntity
8
0
100
AcDbCircle
10
3.026496062992126
20
-10.462677165354329
30
0
40
0.032976669452676848
210
0
220
0
230
1
100
AcDbArc
50
269.79504109602323
51
354.30281559318263
0
ARC
5
175
100
AcDbEntity
8
0
100
AcDbCircle
10
3.1311023622047243
20
-10.469291338582675
30
0
40
0.071870196638936637
210
0
220
-0
230
1
100
AcDbArc
50
88.227547195825821
51
177.33591283672359
0
LINE
5
176
100
AcDbEntity
8
0
100
AcDbLine
10
3.1333253220080279
20
-10.397455528469388
30
0
11
3.7352796484752888
21
-10.396781653187482
31
0
0
ARC
5
177
100
AcDbEntity
8
0
100
AcDbCircle
10
3.7372047244094482
20
-10.365826771653543
30
0
40
0.03101329236181084
210
0
220
0
230
1
100
AcDbArc
50
266.44129227844792
51
358.81797893978745
0
LINE
5
178
100
AcDbEntity
8
0
100
AcDbLine
10
3.7682114173228429
20
-10.366466535433071
30
0
11
3.7687646456953572
21
-10.249036333049848
31
0
0
ARC
5
179
100
AcDbEntity
8
0
100
AcDbCircle
10
3.840551181102362
20
-10.252362204724408
30
0
40
0.071863621852086071
210
0
220
-0
230
1
100
AcDbArc
50
88.22248191210727
51
177.34738218371643
0
LINE
5
180
100
AcDbEntity
8
0
100
AcDbLine
10
3.8427802876644011
20
-10.180533163037673
30
0
11
4.5084586193865164
21
-10.180569701639349
31
0
0
CIRCLE
5
181
100
AcDbEntity
8
0
100
AcDbCircle
10
3.0413385826771653
20
-10.603937007874014
30
0
40
0.062992125984251982
210
0
220
0
230
1
0
CIRCLE
5
182
100
AcDbEntity
8
0
100
AcDbCircle
10
5.0492125984251972
20
-12.808661417322833
30
0
40
0.062992125984251982
210
0
220
0
230
1
0
CIRCLE
5
183
100
AcDbEntity
8
0
100
AcDbCircle
10
3.5531496062992125
20
-12.690551181102359
30
0
40
0.062992125984251982
210
0
220
0
230
1
0
LWPOLYLINE
5
184
100
AcDbEntity
8
0
100
AcDbPolyline
90
10
70
1
43
0.0
10
2.986141732283464
20
-10.725669291338582
10
2.7991873186601155
20
-10.725669291338582
42
0.45598332434333844
10
2.7085292167729551
20
-10.725669291338582
10
2.5215748031496061
20
-10.725669291338582
42
0.41421356237335255
10
2.4822047244094483
20
-10.765039370078737
10
2.4822047244094514
20
-11.229606299212596
42
0.41421356237336299
10
2.5215748031496061
20
-11.268976377952752
10
2.986141732283464
20
-11.26897637795275
42
0.4142135623733656
10
3.0255118110236188
20
-11.229606299212596
10
3.0255118110236188
20
-10.765039370078739
42
0.4142135623733656
0
LWPOLYLINE
5
185
100
AcDbEntity
8
0
100
AcDbPolyline
90
10
70
1
43
0.0
10
2.4070688930049702
20
-12.996315933617597
10
2.2451616214606562
20
-13.089793140427512
42
0.45598332437596517
10
2.1666494021638241
20
-13.135122191373235
10
2.0047421306169739
20
-13.228599398184615
42
0.41421356237334672
10
1.9903316816490944
20
-13.282379925892664
10
2.222615146216115
20
-13.684706688280659
42
0.41421356237335383
10
2.2763956739241622
20
-13.699117137248539
10
2.6787224363121576
20
-13.466833672681521
42
0.41421356237336765
10
2.6931328852800354
20
-13.413053144973473
10
2.4608494207130187
20
-13.010726382585478
42
0.41421356237335244
0
LWPOLYLINE
5
186
100
AcDbEntity
8
0
100
AcDbPolyline
90
10
70
1
43
0.0
10
3.9389763779527551
20
-11.627874015748029
10
4.1259307915761045
20
-11.627874015748029
42
0.45598332434334499
10
4.2165888934632649
20
-11.627874015748031
10
4.4035433070866139
20
-11.627874015748029
42
0.4142135623733656
10
4.4429133858267722
20
-11.588503937007873
10
4.4429133858267686
20
-11.123937007874014
42
0.41421356237334994
10
4.4035433070866148
20
-11.08456692913386
10
3.938976377952756
20
-11.08456692913386
42
0.4142135623733656
10
3.8996062992126013
20
-11.123937007874014
10
3.8996062992126013
20
-11.588503937007873
42
0.41421356237336038
0
LWPOLYLINE
5
187
100
AcDbEntity
8
0
100
AcDbPolyline
90
10
70
1
43
0.0
10
3.230787401574803
20
-12.50787401574803
10
3.417741815198152
20
-12.50787401574803
42
0.45598332434334499
10
3.5083999170853128
20
-12.50787401574803
10
3.6953543307086614
20
-12.50787401574803
42
0.4142135623733656
10
3.7347244094488188
20
-12.468503937007872
10
3.7347244094488166
20
-12.003937007874015
42
0.41421356237336038
10
3.6953543307086618
20
-11.964566929133861
10
3.230787401574803
20
-11.964566929133861
42
0.4142135623733656
10
3.1914173228346487
20
-12.003937007874015
10
3.1914173228346492
20
-12.468503937007872
42
0.4142135623733656
0
LWPOLYLINE
5
188
100
AcDbEntity
8
0
100
AcDbPolyline
90
10
70
1
43
0.0
10
2.986141732283464
20
-11.394566929133857
10
2.7991873186601159
20
-11.394566929133857
42
0.45598332434335376
10
2.7085292167729538
20
-11.394566929133857
10
2.5215748031496061
20
-11.394566929133857
42
0.41421356237335255
10
2.4822047244094483
20
-11.433937007874015
10
2.4822047244094514
20
-11.898503937007874
42
0.41421356237335255
10
2.5215748031496061
20
-11.937874015748028
10
2.986141732283464
20
-11.937874015748026
42
0.4142135623733656
10
3.0255118110236188
20
-11.898503937007872
10
3.0255118110236188
20
-11.433937007874015
42
0.41421356237335516
0
LWPOLYLINE
5
189
100
AcDbEntity
8
0
100
AcDbPolyline
90
10
70
1
43
0.0
10
3.2307874015748026
20
-11.83787401574803
10
3.417741815198152
20
-11.837874015748032
42
0.45598332434333966
10
3.5083999170853128
20
-11.837874015748032
10
3.6953543307086614
20
-11.83787401574803
42
0.4142135623733656
10
3.7347244094488192
20
-11.798503937007871
10
3.7347244094488157
20
-11.333937007874015
42
0.41421356237336038
10
3.6953543307086618
20
-11.294566929133861
10
3.230787401574803
20
-11.294566929133859
42
0.4142135623733656
10
3.1914173228346487
20
-11.333937007874015
10
3.1914173228346487
20
-11.798503937007871
42
0.41421356237336038
0
LWPOLYLINE
5
190
100
AcDbEntity
8
0
100
AcDbPolyline
90
10
70
1
43
0.0
10
3.938976377952756
20
-12.297874015748029
10
4.1259307915761045
20
-12.297874015748029
42
0.45598332434334499
10
4.2165888934632649
20
-12.297874015748031
10
4.4035433070866139
20
-12.297874015748029
42
0.4142135623733656
10
4.4429133858267713
20
-12.258503937007871
10
4.4429133858267686
20
-11.793937007874012
42
0.41421356237334994
10
4.4035433070866148
20
-11.75456692913386
10
3.938976377952756
20
-11.754566929133858
42
0.4142135623733656
10
3.8996062992126013
20
-11.793937007874014
10
3.8996062992126013
20
-12.258503937007871
42
0.4142135623733656
0
LWPOLYLINE
5
191
100
AcDbEntity
8
0
100
AcDbPolyline
90
10
70
1
43
0.0
10
5.358031496062992
20
-11.702047244094487
10
5.544985909686341
20
-11.702047244094487
42
0.45598332434333433
10
5.6356440115735014
20
-11.702047244094487
10
5.8225984251968503
20
-11.702047244094487
42
0.4142135623733656
10
5.8619685039370077
20
-11.662677165354328
10
5.8619685039370051
20
-11.198110236220471
42
0.41421356237335516
10
5.8225984251968503
20
-11.158740157480318
10
5.358031496062992
20
-11.158740157480317
42
0.4142135623733656
10
5.3186614173228373
20
-11.198110236220472
10
5.3186614173228364
20
-11.662677165354328
42
0.4142135623733656
0
LWPOLYLINE
5
192
100
AcDbEntity
8
0
100
AcDbPolyline
90
10
70
1
43
0.0
10
5.358031496062992
20
-13.040629921259841
10
5.5449859096863401
20
-13.040629921259841
42
0.45598332434335259
10
5.6356440115735014
20
-13.040629921259843
10
5.8225984251968503
20
-13.040629921259841
42
0.41421356237335516
10
5.8619685039370077
20
-13.001259842519685
10
5.8619685039370051
20
-12.536692913385824
42
0.41421356237335516
10
5.8225984251968503
20
-12.497322834645672
10
5.358031496062992
20
-12.49732283464567
42
0.4142135623733656
10
5.3186614173228373
20
-12.536692913385826
10
5.3186614173228373
20
-13.001259842519685
42
0.41421356237335516
0
LWPOLYLINE
5
193
100
AcDbEntity
8
0
100
AcDbPolyline
90
10
70
1
43
0.0
10
4.6486614173228347
20
-11.89787401574803
10
4.8356158309461836
20
-11.89787401574803
42
0.45598332434334499
10
4.926273932833344
20
-11.89787401574803
10
5.113228346456693
20
-11.89787401574803
42
0.4142135623733656
10
5.1525984251968504
20
-11.858503937007871
10
5.1525984251968477
20
-11.393937007874015
42
0.4142135623733656
10
5.113228346456693
20
-11.354566929133862
10
4.6486614173228347
20
-11.35456692913386
42
0.4142135623733656
10
4.6092913385826799
20
-11.393937007874015
10
4.6092913385826799
20
-11.858503937007871
42
0.4142135623733656
0
LWPOLYLINE
5
194
100
AcDbEntity
8
0
100
AcDbPolyline
90
10
70
1
43
0.0
10
3.9389763779527551
20
-10.954015748031495
10
4.1259307915761045
20
-10.954015748031495
42
0.45598332434333966
10
4.2165888934632649
20
-10.954015748031495
10
4.4035433070866139
20
-10.954015748031495
42
0.4142135623733656
10
4.4429133858267722
20
-10.914645669291337
10
4.4429133858267686
20
-10.45007874015748
42
0.41421356237336038
10
4.4035433070866148
20
-10.410708661417324
10
3.938976377952756
20
-10.410708661417326
42
0.4142135623733656
10
3.8996062992126013
20
-10.45007874015748
10
3.8996062992126013
20
-10.914645669291337
42
0.41421356237336038
0
LWPOLYLINE
5
195
100
AcDbEntity
8
0
100
AcDbPolyline
90
10
70
1
43
0.0
10
3.2265004316493773
20
-12.710239347736168
10
3.0459163351921714
20
-12.758626710547873
42
0.45598332434565819
10
2.9583473332167372
20
-12.782090753909236
10
2.7777632367592378
20
-12.83047811672102
42
0.41421356237334972
10
2.7499243871062466
20
-12.878696418744321
10
2.8701631560911021
20
-13.32743361363446
42
0.41421356237337709
10
2.9183814581144021
20
-13.35527246328745
10
3.3671186530045412
20
-13.235033694302599
42
0.41421356237336282
10
3.3949575026575287
20
-13.186815392279296
10
3.2747187336726777
20
-12.738078197389157
42
0.41421356237335344
0
LWPOLYLINE
5
196
100
AcDbEntity
8
0
100
AcDbPolyline
90
10
70
1
43
0.0
10
2.986141732283464
20
-12.064566929133857
10
2.7991873186601164
20
-12.064566929133857
42
0.45598332434334959
10
2.7085292167729538
20
-12.064566929133859
10
2.5215748031496061
20
-12.064566929133857
42
0.41421356237335255
10
2.4822047244094483
20
-12.103937007874013
10
2.4822047244094514
20
-12.568503937007874
42
0.41421356237334217
10
2.5215748031496061
20
-12.607874015748026
10
2.986141732283464
20
-12.607874015748028
42
0.4142135623733656
10
3.0255118110236188
20
-12.568503937007872
10
3.0255118110236188
20
-12.103937007874014
42
0.4142135623733656
0
LWPOLYLINE
5
197
100
AcDbEntity
8
0
100
AcDbPolyline
90
10
70
1
43
0.0
10
3.2307874015748026
20
-11.170551181102359
10
3.417741815198152
20
-11.170551181102359
42
0.45598332434334499
10
3.5083999170853128
20
-11.170551181102361
10
3.6953543307086614
20
-11.170551181102359
42
0.4142135623733656
10
3.7347244094488192
20
-11.131181102362204
10
3.7347244094488157
20
-10.666614173228345
42
0.41421356237336038
10
3.6953543307086618
20
-10.627244094488191
10
3.230787401574803
20
-10.627244094488191
42
0.4142135623733656
10
3.1914173228346487
20
-10.666614173228345
10
3.1914173228346487
20
-11.131181102362204
42
0.41421356237336038
0
LWPOLYLINE
5
198
100
AcDbEntity
8
0
100
AcDbPolyline
90
10
70
1
43
0.0
10
4.6486614173228347
20
-12.567874015748028
10
4.8356158309461836
20
-12.567874015748028
42
0.45598332434334499
10
4.926273932833344
20
-12.56787401574803
10
5.113228346456693
20
-12.567874015748028
42
0.4142135623733656
10
5.1525984251968504
20
-12.528503937007873
10
5.1525984251968477
20
-12.063937007874014
42
0.4142135623733656
10
5.113228346456693
20
-12.02456692913386
10
4.6486614173228347
20
-12.02456692913386
42
0.4142135623733656
10
4.6092913385826799
20
-12.063937007874014
10
4.6092913385826799
20
-12.528503937007873
42
0.41421356237335516
0
LWPOLYLINE
5
199
100
AcDbEntity
8
0
100
AcDbPolyline
90
10
70
1
43
0.0
10
5.358031496062992
20
-12.371338582677163
10
5.544985909686341
20
-12.371338582677163
42
0.45598332434334499
10
5.6356440115735014
20
-12.371338582677165
10
5.8225984251968503
20
-12.371338582677163
42
0.4142135623733656
10
5.8619685039370077
20
-12.331968503937006
10
5.8619685039370051
20
-11.867401574803148
42
0.4142135623733656
10
5.8225984251968503
20
-11.828031496062993
10
5.358031496062992
20
-11.828031496062993
42
0.4142135623733656
10
5.3186614173228373
20
-11.867401574803147
10
5.3186614173228373
20
-12.331968503937007
42
0.41421356237335516
0
CIRCLE
5
200
100
AcDbEntity
8
0
100
AcDbCircle
10
4.5767716535433065
20
-10.564566929133857
30
0
40
0.062992125984251982
210
0
220
0
230
1
0
CIRCLE
5
201
100
AcDbEntity
8
0
100
AcDbCircle
10
5.3248031496062991
20
-11.037007874015746
30
0
40
0.062992125984251982
210
0
220
0
230
1
0
ENDSEC
0
SECTION
2
OBJECTS
0
DICTIONARY
5
C
100
AcDbDictionary
3
ACAD_GROUP
350
D
3
ACAD_MLINESTYLE
350
17
0
DICTIONARY
5
D
100
AcDbDictionary
0
DICTIONARY
5
1A
330
C
100
AcDbDictionary
0
DICTIONARY
5
17
100
AcDbDictionary
0
ENDSEC
0
EOF
