0
SECTION
2
HEADER
9
$INSUNITS
70
1
9
$ACADVER
1
AC1014
9
$HANDSEED
5
FFFF
0
ENDSEC
0
SECTION
2
TABLES
0
TABLE
2
VPORT
5
8
100
AcDbSymbolTable
0
ENDTAB
0
TABLE
2
LTYPE
5
5
100
AcDbSymbolTable
0
LTYPE
5
14
100
AcDbSymbolTableRecord
100
AcDbLinetypeTableRecord
2
BYBLOCK
70
0
0
LTYPE
5
15
100
AcDbSymbolTableRecord
100
AcDbLinetypeTableRecord
2
BYLAYER
70
0
0
ENDTAB
0
TABLE
2
LAYER
5
2
100
AcDbSymbolTable
70
2
0
LAYER
5
50
100
AcDbSymbolTableRecord
100
AcDbLayerTableRecord
2
0
70
0
6
CONTINUOUS
0
ENDTAB
0
TABLE
2
STYLE
5
3
100
AcDbSymbolTable
70
1
0
STYLE
5
11
100
AcDbSymbolTableRecord
100
AcDbTextStyleTableRecord
2
STANDARD
70
0
0
ENDTAB
0
TABLE
2
VIEW
5
6
100
AcDbSymbolTable
70
0
0
ENDTAB
0
TABLE
2
UCS
5
7
100
AcDbSymbolTable
70
0
0
ENDTAB
0
TABLE
2
APPID
5
9
100
AcDbSymbolTable
70
2
0
APPID
5
12
100
AcDbSymbolTableRecord
100
AcDbRegAppTableRecord
2
ACAD
70
0
0
ENDTAB
0
TABLE
2
DIMSTYLE
5
A
100
AcDbSymbolTable
70
1
0
ENDTAB
0
TABLE
2
BLOCK_RECORD
5
1
100
AcDbSymbolTable
70
1
0
BLOCK_RECORD
5
1F
100
AcDbSymbolTableRecord
100
AcDbBlockTableRecord
2
*MODEL_SPACE
0
BLOCK_RECORD
5
1B
100
AcDbSymbolTableRecord
100
AcDbBlockTableRecord
2
*PAPER_SPACE
0
ENDTAB
0
ENDSEC
0
SECTION
2
BLOCKS
0
BLOCK
5
20
100
AcDbEntity
100
AcDbBlockBegin
2
*MODEL_SPACE
0
ENDBLK
5
21
100
AcDbEntity
100
AcDbBlockEnd
0
BLOCK
5
1C
100
AcDbEntity
100
AcDbBlockBegin
2
*PAPER_SPACE
0
ENDBLK
5
1D
100
AcDbEntity
100
AcDbBlockEnd
0
ENDSEC
0
SECTION
2
ENTITIES
0
LWPOLYLINE
5
100
100
AcDbEntity
8
0
100
AcDbPolyline
90
10
70
1
43
0.0
10
5.544985909686341
20
-3.3162204724409445
42
0.45598332434334499
10
5.6356440115735014
20
-3.3162204724409445
10
5.8225984251968503
20
-3.3162204724409445
42
0.4142135623733656
10
5.8619685039370077
20
-3.2768503937007871
10
5.8619685039370051
20
-2.8122834645669288
42
0.41421356237336299
10
5.8225984251968503
20
-2.7729133858267749
10
5.358031496062992
20
-2.7729133858267745
42
0.4142135623733656
10
5.3186614173228373
20
-2.8122834645669288
10
5.3186614173228373
20
-3.2768503937007871
42
0.4142135623733656
10
5.358031496062992
20
-3.3162204724409445
0
LWPOLYLINE
5
101
100
AcDbEntity
8
0
100
AcDbPolyline
90
10
70
1
43
0.0
10
4.8356158309461836
20
-3.5127559055118107
42
0.45598332434334499
10
4.926273932833344
20
-3.5127559055118107
10
5.113228346456693
20
-3.5127559055118107
42
0.4142135623733656
10
5.1525984251968504
20
-3.4733858267716533
10
5.1525984251968477
20
-3.008818897637795
42
0.41421356237336299
10
5.113228346456693
20
-2.9694488188976411
10
4.6486614173228347
20
-2.9694488188976407
42
0.4142135623733656
10
4.6092913385826799
20
-3.008818897637795
10
4.6092913385826799
20
-3.4733858267716533
42
0.4142135623733656
10
4.6486614173228347
20
-3.5127559055118107
0
LWPOLYLINE
5
102
100
AcDbEntity
8
0
100
AcDbPolyline
90
10
70
1
43
0.0
10
3.417741815198152
20
-2.1154330708661417
42
0.45598332434334232
10
3.5083999170853128
20
-2.1154330708661417
10
3.6953543307086614
20
-2.1154330708661417
42
0.41421356237336299
10
3.7347244094488192
20
-2.0760629921259843
10
3.7347244094488157
20
-1.611496062992126
42
0.41421356237335777
10
3.6953543307086618
20
-1.5721259842519719
10
3.230787401574803
20
-1.5721259842519717
42
0.4142135623733656
10
3.1914173228346487
20
-1.611496062992126
10
3.1914173228346487
20
-2.0760629921259843
42
0.41421356237335777
10
3.2307874015748026
20
-2.1154330708661417
0
LWPOLYLINE
5
103
100
AcDbEntity
8
0
100
AcDbPolyline
90
10
70
1
43
0.0
10
2.7991873186601164
20
-3.009448818897638
42
0.4559833243433522
10
2.7085292167729538
20
-3.009448818897638
10
2.5215748031496061
20
-3.0094488188976385
42
0.41421356237336038
10
2.4822047244094483
20
-3.0488188976377955
10
2.4822047244094514
20
-3.5133858267716542
42
0.41421356237335255
10
2.5215748031496061
20
-3.5527559055118081
10
2.986141732283464
20
-3.5527559055118081
42
0.4142135623733656
10
3.0255118110236188
20
-3.5133858267716538
10
3.0255118110236188
20
-3.0488188976377955
42
0.41421356237336299
10
2.986141732283464
20
-3.0094488188976385
0
LWPOLYLINE
5
104
100
AcDbEntity
8
0
100
AcDbPolyline
90
10
70
1
43
0.0
10
3.0459163351921714
20
-3.7035086003116535
42
0.45598332434565231
10
2.9583473332167376
20
-3.7269726436730157
10
2.7777632367592378
20
-3.775360006484799
42
0.41421356237335882
10
2.7499243871062466
20
-3.8235783085081034
10
2.8701631560911021
20
-4.2723155033982421
42
0.41421356237336066
10
2.9183814581144021
20
-4.3001543530512309
10
3.3671186530045412
20
-4.1799155840663786
42
0.41421356237336382
10
3.3949575026575287
20
-4.1316972820430786
10
3.2747187336726777
20
-3.6829600871529391
42
0.4142135623733571
10
3.2265004316493773
20
-3.655121237499948
0
LWPOLYLINE
5
105
100
AcDbEntity
8
0
100
AcDbPolyline
90
10
70
1
43
0.0
10
4.1259307915761045
20
-1.8988976377952758
42
0.45598332434334232
10
4.2165888934632649
20
-1.8988976377952758
10
4.4035433070866139
20
-1.8988976377952753
42
0.41421356237336299
10
4.4429133858267722
20
-1.8595275590551181
10
4.4429133858267686
20
-1.39496062992126
42
0.41421356237335777
10
4.4035433070866148
20
-1.3555905511811057
10
3.938976377952756
20
-1.3555905511811055
42
0.41421356237336426
10
3.8996062992126013
20
-1.3949606299212598
10
3.8996062992126013
20
-1.8595275590551181
42
0.41421356237335777
10
3.9389763779527551
20
-1.8988976377952753
0
LWPOLYLINE
5
106
100
AcDbEntity
8
0
100
AcDbPolyline
90
10
70
1
43
0.0
10
4.8356158309461836
20
-2.8427559055118112
42
0.4559833243433436
10
4.926273932833344
20
-2.8427559055118108
10
5.113228346456693
20
-2.8427559055118112
42
0.41421356237336299
10
5.1525984251968504
20
-2.8033858267716529
10
5.1525984251968477
20
-2.338818897637795
42
0.41421356237336299
10
5.113228346456693
20
-2.2994488188976407
10
4.6486614173228347
20
-2.2994488188976403
42
0.4142135623733656
10
4.6092913385826799
20
-2.338818897637795
10
4.6092913385826799
20
-2.8033858267716529
42
0.41421356237336299
10
4.6486614173228347
20
-2.8427559055118103
0
LWPOLYLINE
5
107
100
AcDbEntity
8
0
100
AcDbPolyline
90
10
70
1
43
0.0
10
5.5449859096863401
20
-3.9855118110236214
42
0.45598332434335487
10
5.6356440115735023
20
-3.9855118110236214
10
5.8225984251968503
20
-3.9855118110236205
42
0.4142135623733656
10
5.8619685039370077
20
-3.946141732283464
10
5.8619685039370051
20
-3.4815748031496057
42
0.4142135623733656
10
5.8225984251968503
20
-3.4422047244094514
10
5.358031496062992
20
-3.4422047244094514
42
0.4142135623733656
10
5.3186614173228373
20
-3.4815748031496057
10
5.3186614173228373
20
-3.946141732283464
42
0.4142135623733656
10
5.358031496062992
20
-3.9855118110236205
0
LWPOLYLINE
5
108
100
AcDbEntity
8
0
100
AcDbPolyline
90
10
70
1
43
0.0
10
4.1259307915761045
20
-3.2427559055118103
42
0.45598332434334499
10
4.2165888934632649
20
-3.2427559055118103
10
4.4035433070866139
20
-3.2427559055118103
42
0.4142135623733656
10
4.4429133858267713
20
-3.2033858267716533
10
4.4429133858267686
20
-2.738818897637795
42
0.41421356237335777
10
4.4035433070866148
20
-2.6994488188976407
10
3.938976377952756
20
-2.6994488188976407
42
0.4142135623733656
10
3.8996062992126013
20
-2.738818897637795
10
3.8996062992126013
20
-3.2033858267716533
42
0.4142135623733656
10
3.938976377952756
20
-3.2427559055118103
0
LWPOLYLINE
5
109
100
AcDbEntity
8
0
100
AcDbPolyline
90
10
70
1
43
0.0
10
3.417741815198152
20
-2.7827559055118112
42
0.4559833243433436
10
3.5083999170853128
20
-2.7827559055118107
10
3.6953543307086614
20
-2.7827559055118112
42
0.41421356237336299
10
3.7347244094488192
20
-2.7433858267716533
10
3.7347244094488157
20
-2.278818897637795
42
0.41421356237335777
10
3.6953543307086618
20
-2.2394488188976407
10
3.230787401574803
20
-2.2394488188976402
42
0.4142135623733656
10
3.1914173228346487
20
-2.278818897637795
10
3.1914173228346487
20
-2.7433858267716533
42
0.41421356237335777
10
3.2307874015748026
20
-2.7827559055118103
0
LWPOLYLINE
5
110
100
AcDbEntity
8
0
100
AcDbPolyline
90
10
70
1
43
0.0
10
2.7991873186601159
20
-2.3394488188976377
42
0.45598332434334732
10
2.7085292167729542
20
-2.3394488188976377
10
2.5215748031496061
20
-2.3394488188976377
42
0.41421356237336038
10
2.4822047244094483
20
-2.3788188976377955
10
2.4822047244094514
20
-2.8433858267716534
42
0.41421356237336038
10
2.5215748031496061
20
-2.8827559055118082
10
2.986141732283464
20
-2.8827559055118082
42
0.4142135623733656
10
3.0255118110236188
20
-2.8433858267716534
10
3.0255118110236188
20
-2.3788188976377955
42
0.41421356237336299
10
2.986141732283464
20
-2.3394488188976381
0
LWPOLYLINE
5
111
100
AcDbEntity
8
0
100
AcDbPolyline
90
10
70
1
43
0.0
10
3.417741815198152
20
-3.4527559055118107
42
0.45598332434334499
10
3.5083999170853128
20
-3.4527559055118107
10
3.6953543307086614
20
-3.4527559055118107
42
0.4142135623733656
10
3.7347244094488188
20
-3.4133858267716533
10
3.7347244094488166
20
-2.9488188976377949
42
0.41421356237335777
10
3.6953543307086618
20
-2.9094488188976411
10
3.230787401574803
20
-2.9094488188976406
42
0.4142135623733656
10
3.1914173228346487
20
-2.9488188976377949
10
3.1914173228346492
20
-3.4133858267716533
42
0.4142135623733656
10
3.230787401574803
20
-3.4527559055118107
0
LWPOLYLINE
5
112
100
AcDbEntity
8
0
100
AcDbPolyline
90
10
70
1
43
0.0
10
4.1259307915761045
20
-2.5727559055118112
42
0.45598332434334232
10
4.2165888934632649
20
-2.5727559055118112
10
4.4035433070866139
20
-2.5727559055118112
42
0.41421356237336299
10
4.4429133858267722
20
-2.5333858267716534
10
4.4429133858267686
20
-2.068818897637795
42
0.41421356237335777
10
4.4035433070866148
20
-2.0294488188976412
10
3.938976377952756
20
-2.0294488188976412
42
0.4142135623733656
10
3.8996062992126013
20
-2.068818897637795
10
3.8996062992126013
20
-2.5333858267716534
42
0.41421356237335777
10
3.9389763779527551
20
-2.5727559055118112
0
LWPOLYLINE
5
113
100
AcDbEntity
8
0
100
AcDbPolyline
90
10
70
1
43
0.0
10
4.8356158309461836
20
-2.1744881889763783
42
0.45598332434334232
10
4.926273932833344
20
-2.1744881889763783
10
5.113228346456693
20
-2.1744881889763783
42
0.41421356237336299
10
5.1525984251968504
20
-2.1351181102362204
10
5.1525984251968469
20
-1.6705511811023623
42
0.41421356237336299
10
5.113228346456693
20
-1.6311811023622083
10
4.6486614173228347
20
-1.6311811023622078
42
0.4142135623733656
10
4.6092913385826799
20
-1.6705511811023623
10
4.6092913385826799
20
-2.1351181102362204
42
0.41421356237336299
10
4.6486614173228347
20
-2.1744881889763783
0
LWPOLYLINE
5
114
100
AcDbEntity
8
0
100
AcDbPolyline
90
10
70
1
43
0.0
10
2.2451616214606567
20
-4.0346750301912921
42
0.45598332437596217
10
2.1666494021638241
20
-4.080004081137016
10
2.0047421306169739
20
-4.1734812879483956
42
0.41421356237335966
10
1.9903316816490946
20
-4.2272618156564477
10
2.222615146216115
20
-4.6295885780444399
42
0.41421356237336282
10
2.2763956739241622
20
-4.6439990270123195
10
2.6787224363121576
20
-4.4117155624453011
42
0.41421356237336188
10
2.6931328852800358
20
-4.3579350347372543
10
2.4608494207130187
20
-3.9556082723492598
42
0.41421356237336143
10
2.4070688930049702
20
-3.9411978233813776
0
LWPOLYLINE
5
115
100
AcDbEntity
8
0
100
AcDbPolyline
90
10
70
1
43
0.0
10
5.8619685039370051
20
-2.1429921259842524
42
0.41421356237336299
10
5.8225984251968503
20
-2.1036220472440981
10
5.358031496062992
20
-2.1036220472440976
42
0.4142135623733656
10
5.3186614173228337
20
-2.1429921259842524
10
5.3186614173228364
20
-2.6075590551181103
42
0.41421356237336299
10
5.358031496062992
20
-2.6469291338582681
10
5.544985909686341
20
-2.6469291338582681
42
0.45598332434333966
10
5.6356440115735014
20
-2.6469291338582681
10
5.8225984251968503
20
-2.6469291338582681
42
0.41421356237336299
10
5.8619685039370077
20
-2.6075590551181103
0
LWPOLYLINE
5
116
100
AcDbEntity
8
0
100
AcDbPolyline
90
10
70
1
43
0.0
10
2.986141732283464
20
-1.6705511811023621
10
2.7991873186601155
20
-1.6705511811023621
42
0.45598332434334232
10
2.7085292167729547
20
-1.6705511811023621
10
2.5215748031496061
20
-1.6705511811023621
42
0.41421356237336038
10
2.4822047244094483
20
-1.7099212598425197
10
2.4822047244094514
20
-2.1744881889763779
42
0.41421356237336038
10
2.5215748031496061
20
-2.2138582677165322
10
2.986141732283464
20
-2.2138582677165326
42
0.4142135623733656
10
3.0255118110236188
20
-2.1744881889763779
10
3.0255118110236188
20
-1.7099212598425197
42
0.41421356237336299
0
LINE
5
117
100
AcDbEntity
8
0
100
AcDbLine
10
5.9142519685039368
20
-2.3511023622047245
30
0
11
5.9142519685039368
21
-3.4911023622047246
31
0
0
LINE
5
118
100
AcDbEntity
8
0
100
AcDbLine
10
5.9142519685039368
20
-3.4911023622047246
30
0
11
5.9148624823022375
21
-3.9564984440399429
31
0
0
ARC
5
119
100
AcDbEntity
8
0
100
AcDbCircle
10
5.8312204724409451
20
-3.9710629921259843
30
0
40
0.084900599905669574
210
0
220
0
230
1
100
AcDbArc
50
-88.219219928712093
51
9.8778489258622404
0
LINE
5
120
100
AcDbEntity
8
0
100
AcDbLine
10
5.8338587986394517
20
-4.0559225885144476
30
0
11
5.3145669291338553
21
-4.0566929133831868
31
0
0
ARC
5
121
100
AcDbEntity
8
0
100
AcDbCircle
10
5.28755905511811
20
-3.5034251968503933
30
0
40
0.55392652167881873
210
0
220
0
230
1
100
AcDbArc
50
243.79008340410022
51
272.7946864805395
0
LINE
5
122
100
AcDbEntity
8
0
100
AcDbLine
10
5.0429112354188907
20
-4.0003980690834897
30
0
11
4.203937924080325
21
-3.5688981090168621
31
0
0
ARC
5
123
100
AcDbEntity
8
0
100
AcDbCircle
10
4.0546062992125984
20
-3.9096456692913391
30
0
40
0.37202877511129917
210
0
220
-0
230
1
100
AcDbArc
50
66.334726150326915
51
186.04423403615334
0
ARC
5
124
100
AcDbEntity
8
0
100
AcDbCircle
10
3.3659842519685035
20
-3.9658661417322838
30
0
40
0.31911707478826773
210
0
220
0
230
1
100
AcDbArc
50
-73.633197826471104
51
3.0621999422489932
0
LINE
5
125
100
AcDbEntity
8
0
100
AcDbLine
10
3.4559068394386623
20
-4.2720517646542175
30
0
11
2.8271653543305044
21
-4.4370078740149701
31
0
0
LINE
5
126
100
AcDbEntity
8
0
100
AcDbLine
10
2.8271653543305044
20
-4.4370078740149701
30
0
11
2.2905511811023058
21
-4.742125984251869
31
0
0
ARC
5
127
100
AcDbEntity
8
0
100
AcDbCircle
10
2.2408267716535435
20
-4.6495669291338579
30
0
40
0.10506995564570872
210
0
220
0
230
1
100
AcDbArc
50
216.06683871798754
51
298.24550150383482
0
LINE
5
128
100
AcDbEntity
8
0
100
AcDbLine
10
2.1558954945722193
20
-4.7114246186536466
30
0
11
1.8383013916401685
21
-4.1770984104707614
31
0
0
LINE
5
129
100
AcDbEntity
8
0
100
AcDbLine
10
1.8383013916401685
20
-4.1770984104707614
30
0
11
2.4409449182626766
21
-3.8188976947012847
31
0
0
LINE
5
130
100
AcDbEntity
8
0
100
AcDbLine
10
2.4409449182626766
20
-1.4766336983609178
30
0
11
2.4409449182626766
21
-3.8188976947012847
31
0
0
ARC
5
131
100
AcDbEntity
8
0
100
AcDbCircle
10
2.503464566929134
20
-1.5120866141732283
30
0
40
0.071872217921614134
210
0
220
-0
230
1
100
AcDbArc
50
88.229144665507278
51
150.44379873336871
0
LINE
5
132
100
AcDbEntity
8
0
100
AcDbLine
10
2.505685586332119
20
-1.440248721791954
30
0
11
3.0263780662739816
21
-1.4405511811680765
31
0
0
ARC
5
133
100
AcDbEntity
8
0
100
AcDbCircle
10
3.026496062992126
20
-1.4075590551181103
30
0
40
0.032976669452677194
210
0
220
0
230
1
100
AcDbArc
50
269.79504109602323
51
354.30281559318342
0
ARC
5
134
100
AcDbEntity
8
0
100
AcDbCircle
10
3.1311023622047243
20
-1.4141732283464568
30
0
40
0.071870196638936984
210
0
220
-0
230
1
100
AcDbArc
50
88.227547195825835
51
177.33591283672305
0
LINE
5
135
100
AcDbEntity
8
0
100
AcDbLine
10
3.1333253220080279
20
-1.3423374182331689
30
0
11
3.7352796484752888
21
-1.3416635429512611
31
0
0
ARC
5
136
100
AcDbEntity
8
0
100
AcDbCircle
10
3.7372047244094482
20
-1.3107086614173229
30
0
40
0.031013292361811017
210
0
220
0
230
1
100
AcDbArc
50
266.44129227844803
51
358.81797893978836
0
LINE
5
137
100
AcDbEntity
8
0
100
AcDbLine
10
3.7682114173228429
20
-1.3113484251968506
30
0
11
3.7687646456953572
21
-1.1939182228136285
31
0
0
ARC
5
138
100
AcDbEntity
8
0
100
AcDbCircle
10
3.840551181102362
20
-1.197244094488189
30
0
40
0.071863621852086584
210
0
220
-0
230
1
100
AcDbArc
50
88.22248191210727
51
177.34738218371612
0
LINE
5
139
100
AcDbEntity
8
0
100
AcDbLine
10
3.8427802876644011
20
-1.1254150528014537
30
0
11
4.5084586193804501
21
-1.1254518110253806
31
0
0
ARC
5
140
100
AcDbEntity
8
0
100
AcDbCircle
10
4.5051181102362206
20
-1.197244094488189
30
0
40
0.071870178340669583
210
0
220
0
230
1
100
AcDbArc
50
-1.7724625107004506
51
87.335937559742661
0
LINE
5
141
100
AcDbEntity
8
0
100
AcDbLine
10
4.5769539016834013
20
-1.1994670658952857
30
0
11
4.5757186281273778
21
-1.3676248021882531
31
0
0
ARC
5
142
100
AcDbEntity
8
0
100
AcDbCircle
10
4.6066929133858263
20
-1.3695275590551181
30
0
40
0.031036927781850694
210
0
220
0
230
1
100
AcDbArc
50
176.48493772361456
51
268.78253163965417
0
LINE
5
143
100
AcDbEntity
8
0
100
AcDbLine
10
4.6060334645669299
20
-1.400557480314945
30
0
11
5.217907422326225
21
-1.4014360630219225
31
0
0
ARC
5
144
100
AcDbEntity
8
0
100
AcDbCircle
10
5.2145669291338574
20
-1.4731889763779527
30
0
40
0.071830850826220746
210
0
220
0
230
1
100
AcDbArc
50
-1.2870891698314291
51
87.334490633169338
0
LINE
5
145
100
AcDbEntity
8
0
100
AcDbLine
10
5.2863796567652654
20
-1.4748024448641799
30
0
11
5.2851732297301313
21
-1.8402161162454993
31
0
0
ARC
5
146
100
AcDbEntity
8
0
100
AcDbCircle
10
5.3161417322834641
20
-1.8421259842519684
30
0
40
0.03102933250633853
210
0
220
0
230
1
100
AcDbArc
50
176.47107129366199
51
268.7924134460734
0
LINE
5
147
100
AcDbEntity
8
0
100
AcDbLine
10
5.3154877952755903
20
-1.87314842519685
30
0
11
5.8476615819297741
21
-1.872145157392658
31
0
0
ARC
5
148
100
AcDbEntity
8
0
100
AcDbCircle
10
5.8443307086614169
20
-1.9438976377952755
30
0
40
0.071830018795944528
210
0
220
0
230
1
100
AcDbArc
50
-1.2875722708787722
51
87.342139707018575
0
LINE
5
149
100
AcDbEntity
8
0
100
AcDbLine
10
5.916142590865789
20
-1.9455116930889775
30
0
11
5.916375787401555
21
-2.0168780314960628
31
0
0
LINE
5
150
100
AcDbEntity
8
0
100
AcDbLine
10
5.916375787401555
20
-2.0168780314960628
30
0
11
5.9142519685039368
21
-2.3511023622047245
31
0
0
CIRCLE
5
151
100
AcDbEntity
8
0
100
AcDbCircle
10
3.5531496062992125
20
-3.6354330708661413
30
0
40
0.062992125984251982
210
0
220
0
230
1
0
CIRCLE
5
152
100
AcDbEntity
8
0
100
AcDbCircle
10
5.0492125984251972
20
-3.753543307086614
30
0
40
0.062992125984251982
210
0
220
0
230
1
0
CIRCLE
5
153
100
AcDbEntity
8
0
100
AcDbCircle
10
3.0413385826771653
20
-1.5488188976377955
30
0
40
0.062992125984251982
210
0
220
0
230
1
0
CIRCLE
5
154
100
AcDbEntity
8
0
100
AcDbCircle
10
5.3248031496062991
20
-1.9818897637795276
30
0
40
0.062992125984251982
210
0
220
0
230
1
0
CIRCLE
5
155
100
AcDbEntity
8
0
100
AcDbCircle
10
4.5767716535433065
20
-1.5094488188976378
30
0
40
0.062992125984251982
210
0
220
0
230
1
0
CIRCLE
5
156
100
AcDbEntity
8
0
100
AcDbCircle
10
7.3326771653543297
20
-1.5094488188976378
30
0
40
0.062992125984252023
210
0
220
0
230
1
0
CIRCLE
5
157
100
AcDbEntity
8
0
100
AcDbCircle
10
6.5846456692913389
20
-1.9818897637795276
30
0
40
0.062992125984252023
210
0
220
0
230
1
0
CIRCLE
5
158
100
AcDbEntity
8
0
100
AcDbCircle
10
8.8681102362204722
20
-1.5488188976377955
30
0
40
0.062992125984252023
210
0
220
0
230
1
0
CIRCLE
5
159
100
AcDbEntity
8
0
100
AcDbCircle
10
6.8602362204724407
20
-3.753543307086614
30
0
40
0.062992125984252023
210
0
220
0
230
1
0
CIRCLE
5
160
100
AcDbEntity
8
0
100
AcDbCircle
10
8.3562992125984259
20
-3.6354330708661413
30
0
40
0.062992125984252023
210
0
220
0
230
1
0
LWPOLYLINE
5
161
100
AcDbEntity
8
0
100
AcDbPolyline
90
10
70
1
43
0.0
10
6.2991591380327963
20
-3.3162204724409445
42
0.45598332434334732
10
6.3898172399199575
20
-3.3162204724409445
10
6.5767716535433056
20
-3.3162204724409445
42
0.4142135623733656
10
6.6161417322834621
20
-3.2768503937007871
10
6.6161417322834621
20
-2.8122834645669288
42
0.4142135623733656
10
6.5767716535433056
20
-2.7729133858267745
10
6.1122047244094482
20
-2.7729133858267749
42
0.41421356237336299
10
6.0728346456692943
20
-2.8122834645669288
10
6.072834645669289
20
-3.2768503937007871
42
0.4142135623733656
10
6.1122047244094482
20
-3.3162204724409423
0
LWPOLYLINE
5
162
100
AcDbEntity
8
0
100
AcDbPolyline
90
10
70
1
43
0.0
10
7.0085292167729527
20
-3.5127559055118107
42
0.45598332434334959
10
7.0991873186601158
20
-3.5127559055118107
10
7.286141732283463
20
-3.5127559055118107
42
0.4142135623733656
10
7.3255118110236204
20
-3.4733858267716533
10
7.3255118110236204
20
-3.008818897637795
42
0.4142135623733656
10
7.286141732283463
20
-2.9694488188976407
10
6.8215748031496055
20
-2.9694488188976411
42
0.41421356237336299
10
6.7822047244094499
20
-3.008818897637795
10
6.7822047244094454
20
-3.4733858267716533
42
0.4142135623733656
10
6.8215748031496055
20
-3.5127559055118085
0
LWPOLYLINE
5
163
100
AcDbEntity
8
0
100
AcDbPolyline
90
10
70
1
43
0.0
10
8.4264032325209843
20
-2.1154330708661422
42
0.45598332434333505
10
8.5170613344081438
20
-2.1154330708661422
10
8.7040157480314946
20
-2.1154330708661417
42
0.41421356237336299
10
8.7433858267716502
20
-2.0760629921259843
10
8.7433858267716502
20
-1.611496062992126
42
0.4142135623733656
10
8.7040157480314946
20
-1.5721259842519715
10
8.2394488188976354
20
-1.5721259842519717
42
0.41421356237336299
10
8.2000787401574797
20
-1.611496062992126
10
8.2000787401574797
20
-2.0760629921259843
42
0.41421356237336299
10
8.2394488188976354
20
-2.1154330708661382
0
LWPOLYLINE
5
164
100
AcDbEntity
8
0
100
AcDbPolyline
90
10
70
1
43
0.0
10
9.2262739328333438
20
-3.009448818897638
42
0.4559833243433522
10
9.1356158309461808
20
-3.009448818897638
10
8.9486614173228336
20
-3.0094488188976385
42
0.41421356237336299
10
8.9092913385826762
20
-3.0488188976377955
10
8.9092913385826762
20
-3.5133858267716538
42
0.4142135623733656
10
8.9486614173228336
20
-3.552755905511809
10
9.413228346456691
20
-3.5527559055118081
42
0.41421356237336038
10
9.4525984251968467
20
-3.5133858267716538
10
9.4525984251968485
20
-3.0488188976377955
42
0.41421356237336299
10
9.413228346456691
20
-3.0094488188976416
0
LWPOLYLINE
5
165
100
AcDbEntity
8
0
100
AcDbPolyline
90
10
70
1
43
0.0
10
8.97645581638956
20
-3.7269726436730157
42
0.45598332434565308
10
8.8888868144141266
20
-3.7035086003116535
10
8.7083027179569203
20
-3.655121237499948
42
0.41421356237336648
10
8.6600844159336159
20
-3.6829600871529382
10
8.5398456469487627
20
-4.1316972820430777
42
0.41421356237335305
10
8.5676844966017551
20
-4.1799155840663786
10
9.0164216914918942
20
-4.3001543530512309
42
0.41421356237336882
10
9.0646399935151951
20
-4.2723155033982421
10
9.1848787625000519
20
-3.8235783085081034
42
0.41421356237336077
10
9.1570399128470576
20
-3.7753600064848016
0
LWPOLYLINE
5
166
100
AcDbEntity
8
0
100
AcDbPolyline
90
10
70
1
43
0.0
10
7.7182142561430327
20
-1.8988976377952762
42
0.45598332434333505
10
7.8088723580301922
20
-1.8988976377952762
10
7.9958267716535412
20
-1.8988976377952753
42
0.41421356237336299
10
8.0351968503936977
20
-1.8595275590551181
10
8.0351968503936977
20
-1.3949606299212598
42
0.41421356237336426
10
7.9958267716535412
20
-1.3555905511811055
10
7.5312598425196828
20
-1.3555905511811055
42
0.41421356237336299
10
7.4918897637795281
20
-1.39496062992126
10
7.4918897637795263
20
-1.8595275590551181
42
0.41421356237336299
10
7.5312598425196828
20
-1.8988976377952722
0
LWPOLYLINE
5
167
100
AcDbEntity
8
0
100
AcDbPolyline
90
10
70
1
43
0.0
10
7.0085292167729527
20
-2.8427559055118103
42
0.4559833243433522
10
7.0991873186601158
20
-2.8427559055118103
10
7.286141732283463
20
-2.8427559055118108
42
0.41421356237336299
10
7.3255118110236204
20
-2.8033858267716529
10
7.3255118110236204
20
-2.338818897637795
42
0.4142135623733656
10
7.286141732283463
20
-2.2994488188976403
10
6.8215748031496055
20
-2.2994488188976407
42
0.41421356237336299
10
6.7822047244094499
20
-2.338818897637795
10
6.7822047244094454
20
-2.8033858267716529
42
0.41421356237336299
10
6.8215748031496055
20
-2.8427559055118072
0
LWPOLYLINE
5
168
100
AcDbEntity
8
0
100
AcDbPolyline
90
10
70
1
43
0.0
10
6.2991591380327954
20
-3.9855118110236214
42
0.45598332434335487
10
6.3898172399199575
20
-3.9855118110236214
10
6.5767716535433056
20
-3.9855118110236214
42
0.4142135623733656
10
6.6161417322834621
20
-3.946141732283464
10
6.6161417322834621
20
-3.4815748031496057
42
0.4142135623733656
10
6.5767716535433056
20
-3.4422047244094505
10
6.1122047244094482
20
-3.4422047244094505
42
0.4142135623733656
10
6.0728346456692934
20
-3.4815748031496057
10
6.072834645669289
20
-3.946141732283464
42
0.4142135623733656
10
6.1122047244094482
20
-3.9855118110236192
0
LWPOLYLINE
5
169
100
AcDbEntity
8
0
100
AcDbPolyline
90
10
70
1
43
0.0
10
7.7182142561430309
20
-3.2427559055118103
42
0.45598332434334959
10
7.8088723580301931
20
-3.2427559055118103
10
7.9958267716535412
20
-3.2427559055118103
42
0.4142135623733656
10
8.0351968503936977
20
-3.2033858267716533
10
8.0351968503936977
20
-2.738818897637795
42
0.4142135623733656
10
7.9958267716535412
20
-2.6994488188976407
10
7.5312598425196828
20
-2.6994488188976407
42
0.41421356237336299
10
7.4918897637795281
20
-2.738818897637795
10
7.4918897637795263
20
-3.2033858267716533
42
0.4142135623733656
10
7.5312598425196828
20
-3.2427559055118085
0
LWPOLYLINE
5
170
100
AcDbEntity
8
0
100
AcDbPolyline
90
10
70
1
43
0.0
10
8.4264032325209843
20
-2.7827559055118103
42
0.4559833243433522
10
8.5170613344081456
20
-2.7827559055118103
10
8.7040157480314946
20
-2.7827559055118107
42
0.41421356237336299
10
8.7433858267716502
20
-2.7433858267716533
10
8.7433858267716502
20
-2.278818897637795
42
0.4142135623733656
10
8.7040157480314946
20
-2.2394488188976402
10
8.2394488188976354
20
-2.2394488188976407
42
0.41421356237336299
10
8.2000787401574797
20
-2.278818897637795
10
8.2000787401574797
20
-2.7433858267716533
42
0.41421356237336299
10
8.2394488188976354
20
-2.7827559055118072
0
LWPOLYLINE
5
171
100
AcDbEntity
8
0
100
AcDbPolyline
90
10
70
1
43
0.0
10
9.2262739328333438
20
-2.3394488188976381
42
0.4559833243433522
10
9.1356158309461808
20
-2.3394488188976381
10
8.9486614173228336
20
-2.3394488188976377
42
0.41421356237336299
10
8.9092913385826762
20
-2.3788188976377955
10
8.9092913385826762
20
-2.8433858267716534
42
0.4142135623733656
10
8.9486614173228336
20
-2.8827559055118082
10
9.413228346456691
20
-2.8827559055118077
42
0.41421356237336299
10
9.4525984251968467
20
-2.8433858267716534
10
9.4525984251968485
20
-2.3788188976377955
42
0.41421356237336299
10
9.413228346456691
20
-2.3394488188976412
0
LWPOLYLINE
5
172
100
AcDbEntity
8
0
100
AcDbPolyline
90
10
70
1
43
0.0
10
8.4264032325209843
20
-3.4527559055118107
42
0.45598332434334959
10
8.5170613344081456
20
-3.4527559055118107
10
8.7040157480314946
20
-3.4527559055118107
42
0.4142135623733656
10
8.7433858267716502
20
-3.4133858267716533
10
8.7433858267716502
20
-2.9488188976377949
42
0.4142135623733656
10
8.7040157480314946
20
-2.9094488188976406
10
8.2394488188976354
20
-2.9094488188976411
42
0.41421356237336299
10
8.2000787401574797
20
-2.9488188976377949
10
8.2000787401574797
20
-3.4133858267716533
42
0.4142135623733656
10
8.2394488188976354
20
-3.4527559055118084
0
LWPOLYLINE
5
173
100
AcDbEntity
8
0
100
AcDbPolyline
90
10
70
1
43
0.0
10
7.7182142561430327
20
-2.5727559055118112
42
0.45598332434333505
10
7.8088723580301922
20
-2.5727559055118112
10
7.9958267716535412
20
-2.5727559055118112
42
0.41421356237336299
10
8.0351968503936977
20
-2.5333858267716534
10
8.0351968503936977
20
-2.068818897637795
42
0.4142135623733656
10
7.9958267716535412
20
-2.0294488188976407
10
7.5312598425196828
20
-2.0294488188976412
42
0.41421356237336299
10
7.4918897637795281
20
-2.068818897637795
10
7.4918897637795263
20
-2.5333858267716534
42
0.41421356237336299
10
7.5312598425196828
20
-2.5727559055118077
0
LWPOLYLINE
5
174
100
AcDbEntity
8
0
100
AcDbPolyline
90
10
70
1
43
0.0
10
7.0085292167729545
20
-2.1744881889763783
42
0.45598332434333505
10
7.099187318660114
20
-2.1744881889763783
10
7.286141732283463
20
-2.1744881889763779
42
0.41421356237336299
10
7.3255118110236204
20
-2.1351181102362204
10
7.3255118110236204
20
-1.6705511811023623
42
0.4142135623733656
10
7.286141732283463
20
-1.6311811023622078
10
6.8215748031496055
20
-1.6311811023622083
42
0.41421356237336299
10
6.7822047244094499
20
-1.6705511811023623
10
6.7822047244094472
20
-2.1351181102362204
42
0.41421356237336299
10
6.8215748031496055
20
-2.1744881889763747
0
LWPOLYLINE
5
175
100
AcDbEntity
8
0
100
AcDbPolyline
90
10
70
1
43
0.0
10
9.768153747442474
20
-4.0800040811370168
42
0.45598332437596595
10
9.6896415281456409
20
-4.0346750301912921
10
9.5277342566013257
20
-3.9411978233813789
42
0.41421356237335505
10
9.473953728893278
20
-3.9556082723492576
10
9.2416702643262596
20
-4.3579350347372534
42
0.41421356237336282
10
9.2560807132941392
20
-4.4117155624453019
10
9.6584074756821341
20
-4.6439990270123195
42
0.41421356237335838
10
9.7121880033901817
20
-4.6295885780444417
10
9.9444714679572019
20
-4.2272618156564468
42
0.41421356237336282
10
9.9300610189893241
20
-4.1734812879483982
0
LWPOLYLINE
5
176
100
AcDbEntity
8
0
100
AcDbPolyline
90
10
70
1
43
0.0
10
6.1122047244094482
20
-2.1036220472440981
42
0.41421356237336299
10
6.0728346456692943
20
-2.1429921259842524
10
6.0728346456692908
20
-2.6075590551181103
42
0.41421356237336299
10
6.1122047244094482
20
-2.6469291338582646
10
6.2991591380327963
20
-2.6469291338582681
42
0.45598332434333733
10
6.3898172399199566
20
-2.6469291338582681
10
6.5767716535433056
20
-2.6469291338582681
42
0.41421356237336299
10
6.6161417322834621
20
-2.6075590551181103
10
6.6161417322834621
20
-2.1429921259842524
42
0.4142135623733656
10
6.5767716535433056
20
-2.1036220472440976
0
LWPOLYLINE
5
177
100
AcDbEntity
8
0
100
AcDbPolyline
90
10
70
1
43
0.0
10
9.413228346456691
20
-2.2138582677165322
42
0.41421356237336299
10
9.4525984251968467
20
-2.1744881889763779
10
9.4525984251968485
20
-1.7099212598425197
42
0.41421356237336299
10
9.413228346456691
20
-1.6705511811023654
10
9.2262739328333438
20
-1.6705511811023617
42
0.45598332434334099
10
9.1356158309461826
20
-1.6705511811023621
10
8.9486614173228336
20
-1.6705511811023621
42
0.41421356237336299
10
8.9092913385826762
20
-1.7099212598425197
10
8.9092913385826762
20
-2.1744881889763779
42
0.4142135623733656
10
8.9486614173228336
20
-2.2138582677165322
0
LINE
5
178
100
AcDbEntity
8
0
100
AcDbLine
10
6.0205511811023618
20
-3.4911023622047246
30
0
11
6.0205511811023618
21
-2.3511023622047245
31
0
0
LINE
5
179
100
AcDbEntity
8
0
100
AcDbLine
10
6.0205511811023618
20
-2.3511023622047245
30
0
11
6.0184273622047231
21
-2.0168780314960628
31
0
0
LINE
5
180
100
AcDbEntity
8
0
100
AcDbLine
10
6.0184273622047231
20
-2.0168780314960628
30
0
11
6.0186605587405504
21
-1.9455116930889766
31
0
0
ARC
5
181
100
AcDbEntity
8
0
100
AcDbCircle
10
6.0904724409448798
20
-1.9438976377952755
30
0
40
0.071830018795944778
210
0
220
0
230
1
100
AcDbArc
50
92.657855140395682
51
181.28757227087908
0
LINE
5
182
100
AcDbEntity
8
0
100
AcDbLine
10
6.087141561721352
20
-1.872144889807313
30
0
11
6.6193153543307073
21
-1.8731484251968502
31
0
0
ARC
5
183
100
AcDbEntity
8
0
100
AcDbCircle
10
6.6186614173228326
20
-1.8421259842519684
30
0
40
0.031029332506339019
210
0
220
0
230
1
100
AcDbArc
50
-88.792413446071748
51
3.5289287063379118
0
LINE
5
184
100
AcDbEntity
8
0
100
AcDbLine
10
6.6496299198761655
20
-1.8402161162454993
30
0
11
6.6484234928413368
21
-1.474802444864173
31
0
0
ARC
5
185
100
AcDbEntity
8
0
100
AcDbCircle
10
6.7202362204724411
20
-1.4731889763779542
30
0
40
0.071830850826222301
210
0
220
0
230
1
100
AcDbArc
50
92.665505403378219
51
181.28708916983055
0
LINE
5
186
100
AcDbEntity
8
0
100
AcDbLine
10
6.7168957219946686
20
-1.4014358426461164
30
0
11
7.3287696850393669
21
-1.4005574803149605
31
0
0
ARC
5
187
100
AcDbEntity
8
0
100
AcDbCircle
10
7.3281102362204695
20
-1.3695275590551181
30
0
40
0.031036927781866008
210
0
220
0
230
1
100
AcDbArc
50
-88.782531639653129
51
3.5150622763854527
0
LINE
5
188
100
AcDbEntity
8
0
100
AcDbLine
10
7.3590845214789207
20
-1.3676248021882531
30
0
11
7.3578492479232267
21
-1.1994670658952755
31
0
0
ARC
5
189
100
AcDbEntity
8
0
100
AcDbCircle
10
7.4296850393700771
20
-1.1972440944881886
30
0
40
0.071870178340668806
210
0
220
0
230
1
100
AcDbArc
50
92.66405837390171
51
181.77246251070082
0
LINE
5
190
100
AcDbEntity
8
0
100
AcDbLine
10
7.4263445251130191
20
-1.1254515914031313
30
0
11
8.0920228619418886
21
-1.125415052801181
31
0
0
ARC
5
191
100
AcDbEntity
8
0
100
AcDbCircle
10
8.0942519685039365
20
-1.1972440944881897
30
0
40
0.071863621852087223
210
0
220
-0
230
1
100
AcDbArc
50
2.6526164255457889
51
91.777518087893043
0
LINE
5
192
100
AcDbEntity
8
0
100
AcDbLine
10
8.1660385877938069
20
-1.1939182206735481
30
0
11
8.1665917322834609
21
-1.3113484251968504
31
0
0
ARC
5
193
100
AcDbEntity
8
0
100
AcDbCircle
10
8.1975984251968477
20
-1.3107086614173229
30
0
40
0.031013292361803207
210
0
220
0
230
1
100
AcDbArc
50
181.18202106021161
51
273.55870772155362
0
LINE
5
194
100
AcDbEntity
8
0
100
AcDbLine
10
8.1995235011310061
20
-1.3416635429512611
30
0
11
8.8014778275982639
21
-1.342337418233071
31
0
0
ARC
5
195
100
AcDbEntity
8
0
100
AcDbCircle
10
8.8037007874015725
20
-1.4141732283464556
30
0
40
0.071870196638935568
210
0
220
-0
230
1
100
AcDbArc
50
2.6640871632759993
51
91.772452804175671
0
ARC
5
196
100
AcDbEntity
8
0
100
AcDbCircle
10
8.9083070866141707
20
-1.4075590551181103
30
0
40
0.032976669452689004
210
0
220
0
230
1
100
AcDbArc
50
185.69718440681552
51
270.20495890397603
0
LINE
5
197
100
AcDbEntity
8
0
100
AcDbLine
10
8.9084250833323146
20
-1.4405511811680765
30
0
11
9.4291175632741719
21
-1.4402487217917321
31
0
0
ARC
5
198
100
AcDbEntity
8
0
100
AcDbCircle
10
9.4313385826771636
20
-1.5120866141732254
30
0
40
0.071872217921611192
210
0
220
-0
230
1
100
AcDbArc
50
29.556201266631
51
91.770855334492637
0
LINE
5
199
100
AcDbEntity
8
0
100
AcDbLine
10
10.096501757966127
20
-4.1770984104707614
30
0
11
9.7789076550339349
21
-4.7114246186535436
31
0
0
ARC
5
200
100
AcDbEntity
8
0
100
AcDbCircle
10
9.6939763779527546
20
-4.6495669291338588
30
0
40
0.10506995564570834
210
0
220
0
230
1
100
AcDbArc
50
241.75449849616336
51
323.93316128201207
0
LINE
5
201
100
AcDbEntity
8
0
100
AcDbLine
10
9.6442519685039354
20
-4.7421259842519685
30
0
11
9.1076377952755898
21
-4.4370078740157481
31
0
0
LINE
5
202
100
AcDbEntity
8
0
100
AcDbLine
10
9.1076377952755898
20
-4.4370078740157481
30
0
11
8.4788963101678316
21
-4.2720517646535434
31
0
0
ARC
5
203
100
AcDbEntity
8
0
100
AcDbCircle
10
8.5688188976377937
20
-3.9658661417322838
30
0
40
0.31911707478826817
210
0
220
0
230
1
100
AcDbArc
50
176.93780005775113
51
253.63319782647082
0
ARC
5
204
100
AcDbEntity
8
0
100
AcDbCircle
10
7.8801968503937001
20
-3.9096456692913391
30
0
40
0.37202877511129595
210
0
220
0
230
1
100
AcDbArc
50
-6.044234036153421
51
113.66527384967334
0
LINE
5
205
100
AcDbEntity
8
0
100
AcDbLine
10
7.7308652255259727
20
-3.5688981090168621
30
0
11
6.8918919141870063
21
-4.0003980690826779
31
0
0
ARC
5
206
100
AcDbEntity
8
0
100
AcDbCircle
10
6.6472440944881903
20
-3.5034251968504067
30
0
40
0.55392652167880552
210
0
220
0
230
1
100
AcDbArc
50
267.20531351947301
51
296.20991659590004
0
LINE
5
207
100
AcDbEntity
8
0
100
AcDbLine
10
6.6202362204724379
20
-4.0566929133858372
30
0
11
6.1009443509669268
21
-4.0559225885118115
31
0
0
ARC
5
208
100
AcDbEntity
8
0
100
AcDbCircle
10
6.1035826771653534
20
-3.9710629921259843
30
0
40
0.084900599905669311
210
0
220
0
230
1
100
AcDbArc
50
170.12215107064634
51
268.21921992871069
0
LINE
5
209
100
AcDbEntity
8
0
100
AcDbLine
10
6.0199406673643869
20
-3.956498444045196
30
0
11
6.0205511811023618
21
-3.4911023622047246
31
0
0
LINE
5
210
100
AcDbEntity
8
0
100
AcDbLine
10
9.4938582313436175
20
-1.4766336983609174
30
0
11
9.4938582313436193
21
-3.8188976947012847
31
0
0
LINE
5
211
100
AcDbEntity
8
0
100
AcDbLine
10
9.4938582313436193
20
-3.8188976947012847
30
0
11
10.096501757966127
21
-4.1770984104707614
31
0
0
ENDSEC
0
SECTION
2
OBJECTS
0
DICTIONARY
5
C
100
AcDbDictionary
3
ACAD_GROUP
350
D
3
ACAD_MLINESTYLE
350
17
0
DICTIONARY
5
D
100
AcDbDictionary
0
DICTIONARY
5
1A
330
C
100
AcDbDictionary
0
DICTIONARY
5
17
100
AcDbDictionary
0
ENDSEC
0
EOF
